<?xml version="1.0" encoding="utf-8"?>
<!-- Generator: Adobe Illustrator 27.0.0, SVG Export Plug-In . SVG Version: 6.00 Build 0)  -->
<svg version="1.1" id="圖層_1" xmlns="http://www.w3.org/2000/svg" xmlns:xlink="http://www.w3.org/1999/xlink" x="0px" y="0px"
	 viewBox="0 0 56.7 56.7" style="enable-background:new 0 0 56.7 56.7;" xml:space="preserve">
<style type="text/css">
	.st0{fill:#2E36CB;}
	.st1{fill:#FCFAF2;}
	.st2{fill:#FFCC33;}
</style>
<rect class="st0" width="56.7" height="56.7"/>
<g>
	<path class="st1" d="M10.3,14.5c0-1.5,1.3-2.7,2.7-2.7h8c6.2,0,10.3,4.4,10.3,9.8c0,4.5-2.8,7.6-6.1,8.4l-0.6,0.1l8.7,10.4
		c0.5,0.6,0.7,1.2,0.7,1.8c0,1.5-1.2,2.7-2.7,2.7c-0.9,0-1.6-0.3-2.1-1L18.1,31c-0.3-0.4-0.9-1.2-0.9-2.1c0-1.4,1.1-2.5,2.5-2.5h1
		c2.8,0,4.8-2.1,4.8-4.7c0-2.7-2-4.7-4.8-4.7h-5v25.3c0,1.5-1.3,2.7-2.7,2.7s-2.8-1.2-2.8-2.7V14.5z"/>
	<path class="st2" d="M38.9,42.1c0-1.7,1.4-3.1,3.1-3.1c1.7,0,3.1,1.4,3.1,3.1c0,1.6-1.4,3.1-3.1,3.1C40.3,45.1,38.9,43.7,38.9,42.1
		z M39.4,14.1c0-1.5,1.1-2.6,2.6-2.6c1.5,0,2.6,1.1,2.6,2.6v19.5c0,1.5-1.1,2.7-2.6,2.7c-1.5,0-2.6-1.2-2.6-2.7V14.1z"/>
</g>
</svg>
