<?xml version="1.0" encoding="utf-8"?>
<!-- Generator: Adobe Illustrator 27.0.0, SVG Export Plug-In . SVG Version: 6.00 Build 0)  -->
<svg version="1.1" id="圖層_1" xmlns="http://www.w3.org/2000/svg" xmlns:xlink="http://www.w3.org/1999/xlink" x="0px" y="0px"
	 viewBox="0 0 120 53" style="enable-background:new 0 0 120 53;" xml:space="preserve">
<style type="text/css">
	.st0{fill:#FCFAF2;}
	.st1{fill:#FFCC33;}
</style>
<path class="st0" d="M0.5,9.8c0-1.8,1.5-3.2,3.2-3.2h9.3c7.2,0,12.1,5.2,12.1,11.5c0,5.3-3.3,8.9-7.1,9.8L17.3,28l10.2,12.2
	c0.6,0.7,0.8,1.4,0.8,2.1c0,1.8-1.4,3.2-3.2,3.2c-1,0-1.9-0.4-2.5-1.2L9.7,29c-0.4-0.5-1-1.4-1-2.5c0-1.6,1.3-2.9,2.9-2.9h1.2
	c3.3,0,5.6-2.5,5.6-5.5c0-3.1-2.3-5.5-5.6-5.5H7v29.6c0,1.8-1.5,3.2-3.2,3.2S0.5,44,0.5,42.2V9.8z"/>
<path class="st1" d="M34,42c0-2,1.6-3.6,3.6-3.6s3.6,1.6,3.6,3.6c0,1.9-1.6,3.6-3.6,3.6S34,43.9,34,42z M34.6,9.3c0-1.7,1.3-3,3-3
	s3,1.3,3,3v22.8c0,1.7-1.3,3.1-3,3.1s-3-1.4-3-3.1V9.3z"/>
<path class="st0" d="M48.6,27.5c0-6.8,4.6-11,10.4-11c3.3,0,6.1,1.2,7.9,4.1c1.7-2.9,4.7-4.1,7.9-4.1c5.8,0,10.4,4.2,10.4,11v14.9
	c0,1.7-1.3,3.1-3,3.1c-1.7,0-3-1.4-3-3.1v-15c0-3.6-2-5.4-4.7-5.4c-2.6,0-4.6,1.8-4.6,5.4v15c0,1.7-1.4,3.1-3,3.1
	c-1.7,0-3-1.4-3-3.1v-15c0-3.6-2.1-5.4-4.7-5.4c-2.6,0-4.7,1.8-4.7,5.4v15c0,1.7-1.3,3.1-3,3.1s-3-1.4-3-3.1V27.5z"/>
<path class="st0" d="M113.1,42.1c-2.4,2.1-5.6,3.4-9.1,3.4c-7.9,0-13.9-6.4-13.9-14.5s6-14.5,13.9-14.5c3.5,0,6.7,1.3,9.1,3.5v-0.4
	c0-1.7,1.3-3,3-3c1.7,0,3,1.3,3,3v22.8c0,1.7-1.3,3.1-3,3.1c-1.7,0-3-1.4-3-3.1V42.1z M113.1,31v-0.4c-0.2-4.9-3.8-8.5-8.4-8.5
	c-4.7,0-8.4,3.8-8.4,8.9s3.7,8.9,8.4,8.9C109.4,39.9,113.1,36.1,113.1,31z"/>
</svg>
