<?xml version="1.0" encoding="UTF-8"?>
<svg width="120px" height="53px" viewBox="0 0 120 53" version="1.1" xmlns="http://www.w3.org/2000/svg" xmlns:xlink="http://www.w3.org/1999/xlink">
    <!-- Generator: Sketch 59.1 (86144) - https://sketch.com -->
    <title>Icon/rimalogo</title>
    <desc>Created with Sketch.</desc>
    <g id="Page-1" stroke="none" stroke-width="1" fill="none" fill-rule="evenodd">
        <g id="index" transform="translate(-120.000000, -57.000000)" fill="#222222" fill-rule="nonzero">
            <g id="Icon/rimalogo" transform="translate(120.000000, 57.000000)">
                <path d="M0.600122986,51.7962963 C0.540131648,51.7904387 0.482297461,51.7708591 0.431105738,51.7390761 C0.06010859,51.383008 -0.0860907486,50.8527573 0.0501007533,50.3572084 C0.162002882,49.9021337 0.328399704,49.4621822 0.545693703,49.0468659 C0.674605164,48.7607649 0.803516625,48.508996 0.941022183,48.2543662 C1.61422648,46.8581934 2.32467186,45.4734646 3.06376424,44.123068 C4.43022572,41.6740436 5.92846337,39.2593513 7.49831849,36.9705435 C9.06817362,34.6817356 10.7440226,32.3614567 12.4628421,30.1556181 C14.5712606,27.4033267 16.8401024,24.7196995 19.2063438,22.1791228 C19.9884221,21.3074476 20.6821961,20.3606067 21.2775213,19.3524451 C22.8473764,16.7260381 24.3513435,14.0166618 25.746452,11.3015635 C26.2277214,10.3374032 26.6717498,9.34177176 27.0642136,8.33469631 C27.4605936,7.31371534 27.7691865,6.26087374 27.9866467,5.18758552 C28.116609,4.592231 28.1542889,3.98047943 28.0983699,3.3737053 C28.0092628,2.47225271 27.3740178,1.7184445 26.4998678,1.4768558 C25.7561113,1.25514489 24.984286,1.14144727 24.2081085,1.13925664 C23.7015288,1.14019222 23.1961293,1.18808109 22.6984121,1.28230713 C21.398237,1.49830527 20.1293346,1.87204851 18.9198739,2.39523994 C14.6888332,4.1525415 10.9362216,6.88836119 7.97099385,10.3774573 C7.3076571,11.197469 6.6953689,12.0573904 6.13758641,12.9523661 C6.08029242,13.0296134 6.02586314,13.1154437 5.96856916,13.209857 C5.68751844,13.6583981 5.46058516,14.1385697 5.29250016,14.6403619 C5.15774683,15.0556968 5.09761675,15.4915627 5.11488882,15.9278163 C5.14980667,16.4323095 5.39765317,16.8982432 5.79668721,17.2095487 C5.80560136,17.2195396 5.81241995,17.2312136 5.8167401,17.2438808 C5.82558021,17.2657316 5.83043126,17.2889866 5.8310636,17.3125451 C5.82970742,17.3315944 5.82970742,17.3507159 5.8310636,17.3697653 C5.83262142,17.3821142 5.83262142,17.3946095 5.8310636,17.4069584 C5.60148214,17.3360506 5.40390244,17.1872977 5.27244727,16.98639 C4.61706566,16.0761007 4.42033896,14.9141616 4.73961323,13.8392792 C4.94167165,13.0537957 5.26547444,12.3046992 5.69928744,11.6191356 C6.58140182,10.1898929 7.63267846,8.87196612 8.83040359,7.69383011 C11.6057895,4.87945765 14.9294781,2.66327312 18.5961629,1.18217179 C20.2075424,0.511322795 21.9230449,0.124137886 23.6666804,0.0377678629 L23.8242388,0.0377678629 C24.8451236,0.0197537057 25.8439709,0.335195924 26.6688851,0.936124943 C27.5553569,1.60885293 28.1777338,2.5705737 28.4278103,3.65408426 C28.6918804,4.91766157 28.6387361,6.2268671 28.2731166,7.46494932 C27.9915823,8.43694329 27.6549138,9.39215617 27.2647425,10.3259591 C26.8722787,11.2700924 26.4425738,12.2056426 25.9899514,13.1125827 C25.8219966,13.4473164 25.6802478,13.7945365 25.5659759,14.1511292 C25.505713,14.3256371 25.5334472,14.5184615 25.6404581,14.668972 L25.7092109,14.7719684 C25.7275566,14.8236279 25.7557707,14.8712386 25.7922871,14.9121579 C25.8860732,15.0088366 26.0156016,15.062651 26.1503745,15.0609304 C26.2233783,15.0611467 26.2959353,15.0495525 26.365227,15.0265982 C26.4348649,15.0019291 26.4990675,14.96404 26.5542971,14.9150189 C26.5981776,14.884253 26.6441207,14.8565314 26.6918027,14.8320496 C26.7118776,14.8223164 26.7310504,14.8108275 26.7490967,14.7977175 C27.0899958,14.5488096 27.4194362,14.2970407 27.7402826,14.0481329 C29.8308398,12.3323925 32.031834,10.7554519 34.3290906,9.32746671 C36.7077602,7.81816186 39.2770506,6.63186442 41.9692431,5.79984162 C43.4969492,5.31786189 45.0856478,5.05582819 46.6874026,5.02164695 L46.9738725,5.02164695 C48.8699756,5.0128538 50.7038906,5.69663365 52.130331,6.94424554 C52.7594234,7.51591418 53.2661453,8.2088398 53.6199745,8.98128452 C54.0040811,9.81857539 54.1903082,10.7328496 54.1642673,11.6534677 C54.1219336,12.7022561 53.8208129,13.7243549 53.2876694,14.6289179 C52.6261507,15.763286 51.785518,16.7834988 50.7982459,17.6501442 C49.3842939,18.9093255 47.824321,19.9947134 46.1517039,20.8830853 C44.4226537,21.7911172 42.6469489,22.6076344 40.8319576,23.3292487 C39.0300618,24.0445012 37.1766015,24.6825063 35.3202765,25.2260982 C32.954035,25.9442117 30.5276348,26.5736338 28.1040993,27.1000596 C27.6333039,27.2095687 27.1724165,27.3578963 26.7261791,27.5435162 L26.7261791,27.5435162 C26.6935083,27.5514838 26.6618081,27.5629963 26.631644,27.5778483 C26.4759194,27.6575233 26.3689691,27.8081291 26.3451741,27.9812507 C26.3336178,28.0550744 26.3278708,28.129689 26.3279859,28.2044094 C26.3205054,28.3512968 26.3732586,28.4948899 26.4740855,28.6020898 C26.7114006,28.8215647 26.9785421,29.0064928 27.2676072,29.1514037 C31.6849733,31.4030184 36.0794217,33.8377377 40.313447,36.4126466 C41.7916318,37.3081426 43.2755459,38.2494149 44.7308131,39.2135752 C45.2607824,39.5597573 45.7821577,39.8916345 46.28348,40.2006235 C46.5212501,40.3608401 46.7704789,40.5439447 47.0082489,40.7384934 C47.2244503,40.918335 47.4101781,41.1318401 47.5582711,41.3707766 C47.580421,41.4068907 47.5986664,41.4452528 47.6127004,41.4852169 C47.032371,41.0169569 46.4270298,40.5804883 45.7993459,40.1777355 C45.0579105,39.7015506 44.2663216,39.3081847 43.4388338,39.0047214 C43.2838921,38.9331132 43.1377743,38.8438273 43.0033995,38.7386475 C42.9671232,38.7127075 42.9276462,38.691552 42.8859469,38.6757053 C41.6111557,37.8174024 40.2733412,36.9934316 38.9154739,36.25243 C37.5576065,35.5114285 36.1309863,34.7647049 34.7358778,34.0608965 C34.3978433,33.8835139 34.0512147,33.7089923 33.7189096,33.5516368 C32.7305884,33.05096 31.7136202,32.5245342 30.7367578,31.9981084 C29.1653547,31.1411037 27.5384062,30.389848 25.8667693,29.7493547 C25.1133534,29.4403657 24.3570729,29.0913225 23.6265746,28.7079471 L22.603877,28.2244365 C22.3587004,28.1090321 22.1576489,27.9172752 22.0309372,27.6779836 C21.9331766,27.5331415 21.9098037,27.3506434 21.9679138,27.1858899 C22.0051549,27.1057817 22.071043,27.0142293 22.3002189,26.9770362 L23.0822818,26.8740399 C23.6165829,26.8171203 24.1460366,26.7215015 24.6664604,26.5879389 L28.5968276,25.5808634 C30.0291772,25.2289592 31.5016325,24.8541669 32.954035,24.4650696 C34.4064374,24.0759723 35.867434,23.6067667 37.2854601,23.1032289 C38.752186,22.5911082 40.2332355,22.0274892 41.6827732,21.4266772 C43.9592502,20.4859442 46.1350016,19.3184752 48.1770462,17.9419672 C49.5713391,17.0001534 50.8177313,15.8566077 51.8753727,14.5488096 C52.3321132,14.0071201 52.7172296,13.4090353 53.0212524,12.7692615 C53.3291247,12.1111105 53.5293306,11.4079117 53.6142451,10.6864464 C53.6156667,10.6693097 53.6156667,10.6520849 53.6142451,10.6349482 C53.6149082,10.5191013 53.6235225,10.4034361 53.6400274,10.288766 C53.6400274,10.2715999 53.6400274,10.2544339 53.6400274,10.2372678 L53.6400274,9.99980401 C53.6700571,9.32350844 53.4167974,8.6652593 52.9410408,8.18306279 C52.2201669,7.36315932 51.2571664,6.79311601 50.1909296,6.55514821 C49.8099247,6.4664569 49.4145962,6.39207065 49.016403,6.33771146 L48.5093513,6.23757612 C48.4941032,6.2362171 48.4787642,6.2362171 48.4635161,6.23757612 C48.0853758,6.20610501 47.7072355,6.19179996 47.3348246,6.19179996 C46.1635687,6.19234795 44.9973738,6.345268 43.865674,6.64670052 C42.3896958,7.00089756 40.9464472,7.47944668 39.5514371,8.07720542 C38.1580413,8.67935905 36.8066857,9.37423886 35.5064819,10.1571596 C33.2337399,11.5367102 31.0555636,13.0659694 28.9864267,14.7347752 C26.5870002,16.6719961 24.2920245,18.7348141 22.1111488,20.9145564 C21.371448,21.6472345 20.7283819,22.4711836 20.1975297,23.3664418 C15.187171,31.6633703 9.71273092,39.8544414 3.92317398,47.6850252 C3.16402871,48.7149887 2.37337175,49.7621183 1.57698539,50.7806378 C1.44807393,50.9437154 1.33348596,51.0953489 1.2246274,51.2412604 C1.10833931,51.3836385 0.981967808,51.5174963 0.846487112,51.6418018 C0.786027771,51.6854556 0.731185207,51.7363839 0.683199261,51.7934353 L0.600122986,51.7934353 L0.600122986,51.7962963 Z" id="Path"></path>
                <path d="M0.695917851,51.5762712 C0.241938562,51.4253892 0.153426877,50.9300407 0.0991777794,50.5257908 L0.0991777794,51.9492059 C0.290477228,50.4318454 1.26696098,48.9742684 1.95221274,47.6305645 C2.81829482,45.9338537 3.74528817,44.2713048 4.73319279,42.6429179 C6.54339951,39.6508994 8.53919525,36.7784477 10.614937,33.9686262 C12.6906788,31.1588048 14.8349458,28.4400819 17.1305392,25.8409259 C18.2554941,24.5626992 19.4832369,23.35849 20.4739967,21.9720837 C21.5932412,20.4006334 22.5126207,18.6612201 23.4519866,16.9815903 C25.1308534,13.9753376 26.9182184,10.8893736 27.7690727,7.52726709 C28.1031329,6.21203152 28.514284,3.95164832 27.8632948,2.63925959 C27.2123056,1.32687085 25.5134523,1.17314202 24.2257501,1.17029519 C22.4298194,1.17029519 20.596771,1.73966123 18.9578772,2.42005366 C16.0613847,3.62110219 13.3804473,5.28455557 11.0203777,7.34506995 C9.6797512,8.49692949 8.46522369,9.78709396 7.39710899,11.1939844 C6.47201912,12.4408961 5.34135372,13.8927795 5.19859294,15.4955449 C5.13720967,16.0918128 5.13720967,16.69278 5.19859294,17.2890479 C5.25284203,17.7018383 5.45841756,18.4477078 5.90097599,18.6242113 L5.59546791,17.2007962 L5.36134023,16.9474283 C4.98730698,16.16455 4.72177192,15.711904 4.68750934,14.789531 L4.68750934,16.198712 C4.91307137,13.7532848 6.59193818,11.5982343 8.20799024,9.84743372 C9.82157315,8.10343686 11.6434596,6.56320575 13.6329,5.26119023 C15.629193,3.91409216 17.8089886,2.85951205 20.1056739,2.12967698 C22.1956917,1.50906799 24.793938,1.02510685 26.6726699,2.41436 C28.9025933,4.05982787 28.6284926,6.60204726 27.8147561,8.93075439 C27.3869198,10.1251929 26.8931654,11.2951283 26.3357544,12.4352024 C26.0102598,13.1099012 25.6276609,13.7532848 25.5534253,14.504848 C25.5020315,15.0372052 25.3564155,16.3922964 26.1644415,16.4691608 C26.7212085,16.5232506 27.5920493,15.5752561 27.9575169,15.2905731 C29.0139467,14.453605 30.0760869,13.6251774 31.175345,12.8422991 C35.266869,9.93853229 39.9608435,7.17426014 45.0459826,6.57927262 C47.2873269,6.32021107 49.4658564,6.53372334 51.3702853,7.83757158 C53.0834147,9.01331246 54.5110225,11.2082186 53.802929,13.3148729 C52.2239948,18.0918541 46.5535365,20.8105769 42.2792786,22.6524761 C39.8465961,23.6817584 37.3542931,24.5649067 34.8157449,25.2971814 C32.3088656,26.0373572 29.653515,26.4359135 27.1866087,27.2899625 C26.2843605,27.600267 26.0759298,28.5966576 26.330044,29.5247243 C26.5927238,30.4983402 28.1545268,30.9481394 28.9825393,31.3694702 C30.3701741,32.0887693 31.750195,32.8242005 33.122602,33.5757637 C35.7636765,35.0276471 38.3761988,36.5279266 40.9430377,38.1050706 C42.205043,38.8794084 43.4442066,39.6822145 44.6833702,40.4878675 C45.6141705,41.0913955 47.0531992,41.6977703 47.5557172,42.7482507 L47.5557172,41.3248355 C45.6884061,39.8530243 43.5584152,38.9477323 41.5597643,37.6837397 C39.2366026,36.2568059 36.8428,34.9475016 34.3874626,33.7608076 C31.8891489,32.513896 29.4622156,31.1104087 26.8782454,30.0428474 C25.7590009,29.5816609 24.6625981,29.109087 23.5747609,28.5767298 C22.8895091,28.2408038 22.1757052,28.0614535 21.9501432,27.2501069 L21.9501432,28.673522 C22.0871935,28.0159042 24.2828544,28.0272916 24.7625306,27.9134183 C25.7275935,27.6799783 26.6898012,27.4180699 27.6520088,27.1732425 C31.1325167,26.2821846 34.5958933,25.4252887 37.9793239,24.2096922 C43.8496472,22.100191 53.5459596,18.4078522 53.55167,10.8979141 C53.55167,9.88728934 53.55167,9.0161593 52.849287,8.19911902 C51.750029,6.92373908 50.1653843,6.51664236 48.5664635,6.28889594 C44.5691616,5.71952989 40.2121025,7.55858222 36.7915541,9.42040919 C32.7428584,11.5811533 29.0796167,14.470686 25.6533579,17.5139475 C24.0772788,18.9174348 22.3869912,20.3436968 21.0850128,22.0147861 C19.7344958,23.7485057 18.703763,25.7754488 17.5359798,27.634429 C14.7626136,32.0584032 11.8807493,36.4121555 8.89038678,40.6956861 C7.39425378,42.8327066 5.87147209,44.9535951 4.32204173,47.0583516 C3.50545005,48.1657686 2.67743751,49.264645 1.82658325,50.3464405 C1.6352838,50.5912679 1.04710938,51.596199 0.684496988,51.5762712 C0.701628282,51.5762712 0.644523969,53 0.684496988,53 C1.06424067,53.0224609 1.79803109,51.7983239 1.98933054,51.5534965 C2.8944339,50.4005303 3.76527468,49.2247894 4.63040502,48.0462017 C6.34353441,45.7231882 8.01764253,43.3774001 9.65272936,41.0088374 C12.879123,36.3476274 15.9789355,31.6029103 18.9521667,26.7746863 C20.2902696,24.4972123 21.9381422,22.4153984 23.8488616,20.5885242 C25.8766625,18.6683444 28.0038514,16.8552814 30.2217029,15.1567721 C34.5330786,11.8629895 39.358393,8.87666461 44.7833028,7.8489589 C46.7048629,7.4817178 48.837709,7.50449244 50.70502,8.1592634 C51.6712133,8.48355035 52.5130188,9.09813319 53.114822,9.91860448 C53.4003436,10.328548 53.5288283,11.2423805 53.5459596,10.3029266 C53.5196509,10.937627 53.3924377,11.5641374 53.1690711,12.1590599 C51.5073356,16.768078 45.8340221,19.6149082 41.622579,21.3600152 C37.1456009,23.224689 32.5515589,24.4744474 27.86615,25.6758098 C26.7982994,25.9604928 25.7361591,26.2451758 24.6625981,26.4956969 C23.9630702,26.6579662 23.0436908,26.5867955 22.3784255,26.8600912 C21.9016045,27.0593693 21.9444327,27.198864 21.9301567,27.6714378 C21.9158806,28.1440116 21.8502106,28.7361523 22.1528635,29.1517895 C22.5468833,29.6926872 23.483394,29.9517488 24.0744236,30.2421255 C26.9296393,31.6655406 29.8676562,32.8640561 32.7085958,34.3301737 C35.3753672,35.7080395 38.0935325,37.0005004 40.6660818,38.5491761 C41.7796159,39.2181812 42.8103487,39.9953658 44.0009737,40.5106421 C45.2751133,41.0934264 46.4672927,41.8399392 47.5471515,42.7311697 C47.3472864,42.5717472 47.672781,41.5668161 47.5471515,41.3077546 C47.1845391,40.5476509 46.3308296,40.1006985 45.6512883,39.673674 C44.8089997,39.1413168 43.9809872,38.5861849 43.144409,38.0509808 C41.2685323,36.8467716 39.3612482,35.699499 37.4339777,34.5806947 C35.5067071,33.4618905 33.599423,32.3914823 31.6550212,31.3466956 C30.6842479,30.8228788 29.7087158,30.3076026 28.7284251,29.8008668 C28.0631599,29.4592472 26.4642391,28.975286 26.3214783,28.1070028 L26.3214783,29.5304179 C26.3842931,28.7475396 27.2265817,28.6621347 27.8832813,28.488478 C29.3280204,28.1013091 30.8041669,27.8137793 32.2517613,27.4294572 C34.89917,26.7437773 37.5086256,25.9199082 40.0693417,24.9612554 C44.8204206,23.1449777 50.6079427,20.6710822 53.220465,16.0165148 C54.7451502,13.3006388 54.4710495,9.0730959 52.0783788,6.94651372 C48.1438916,3.46484035 42.1964774,5.38645076 38.0021656,7.31944848 C35.266869,8.58059427 32.7257271,10.2573773 30.3073594,12.039493 C29.1281553,12.8935421 28.0231869,14.0322742 26.7640368,14.77245 C26.1929936,15.1169165 25.8075395,15.0201242 25.561991,14.3966684 L25.561991,15.8200835 C25.6533579,14.7468285 26.4413974,13.6621862 26.872535,12.6885703 C27.4393073,11.4617634 27.909922,10.1930271 28.2801563,8.8937456 C28.5684267,7.68246693 28.6761779,6.4354565 28.5999404,5.1928663 C28.5456913,3.25702175 27.7833488,1.40373527 25.9503003,0.524064728 C23.8060334,-0.503640984 20.9622386,0.29347148 18.8779311,1.09343077 C14.3250606,2.84557415 10.3096479,5.7521237 7.22865127,9.52574191 C5.97806681,11.0971922 4.75603451,12.8821547 4.67894369,14.9347193 C4.63040502,16.2385676 4.58472157,18.0662326 5.91525207,18.7494718 C5.91525207,18.7153099 5.91525207,18.6839947 5.91525207,18.6526796 C5.96523203,18.23187 5.96523203,17.8066498 5.91525207,17.3858402 C5.76963607,16.8164741 5.29852549,16.4976291 5.19573772,15.8542455 L5.19573772,17.1808684 C5.24142117,14.521929 7.86250914,11.8288276 9.66415022,10.0495587 C11.7065772,8.01227329 14.0444527,6.29256605 16.599469,4.9480389 C19.0892171,3.64419066 22.0243788,2.3858917 24.9110018,2.62787227 C26.0131151,2.72466449 27.3379351,2.95810457 27.8632948,4.05128738 C28.3886545,5.14447019 27.5492211,7.00629715 27.1409252,8.09947996 C25.998839,11.1911376 24.2857096,14.1005981 22.6525262,16.9559688 C21.9502789,18.2651547 21.1733375,19.5331252 20.3255255,20.7536403 C19.3690282,22.0631822 18.201245,23.207608 17.1305392,24.4232045 C12.9854968,29.1318409 9.21111467,34.1524259 5.84101646,39.4402339 C4.00636936,42.3448765 2.33538443,45.3491383 0.835823418,48.4390643 C0.498907971,49.1279972 -0.780228642,52.501491 0.695917851,52.9939926 C0.561722715,52.954137 0.850099496,51.6275141 0.695917851,51.5762712 Z" id="Path"></path>
                <path d="M48.9777479,36.1462087 C48.5572959,36.1653628 48.1434032,36.0421427 47.8104735,35.798699 C47.494983,35.5612162 47.2530443,35.2477625 47.1101088,34.8913127 C46.9655615,34.5348946 46.9144968,34.1506926 46.9612814,33.7715594 C47.0241757,33.4184962 47.1452942,33.0769459 47.3202182,32.7593685 C47.6111123,32.224077 47.9447518,31.7105185 48.3182378,31.2231552 C49.6019094,29.5903739 51.0492218,28.0784175 52.6400713,26.7082876 C52.7888988,26.5979671 52.9669081,26.4766145 53.1507538,26.366294 C53.1766242,26.3509761 53.2001833,26.3324211 53.2207903,26.3111337 L53.2937449,26.2587315 C53.3281192,26.2396911 53.3678279,26.2310306 53.4075542,26.2339094 C53.4890324,26.2347638 53.5683497,26.2587906 53.6351727,26.3028597 C53.7809775,26.4039611 53.8843258,26.5504748 53.9269913,26.7165617 C53.9164574,26.8651741 53.8427811,27.003444 53.7227183,27.0999255 C52.3879909,28.3642752 51.1218242,29.691658 49.9290765,31.0769805 L49.905731,31.1073186 C49.8818779,31.1418657 49.8534369,31.1733801 49.8211036,31.2010911 L49.8006763,31.2259132 C49.3956261,31.6769285 49.0166813,32.1483179 48.665502,32.6380159 C48.2997788,33.1587256 48.0056007,33.7212756 47.7900462,34.3121299 C47.7883803,34.330483 47.7883803,34.3489372 47.7900462,34.3672902 C47.7478826,34.5721023 47.8081987,34.7838369 47.9534646,34.9409569 C48.0929994,35.1125767 48.3081116,35.2142293 48.5371018,35.2167583 L48.7793112,35.2167583 C49.0131771,35.2176247 49.2466351,35.1982376 49.4767577,35.15884 C50.2850952,34.9850852 51.0759236,34.7947822 51.8404883,34.5879313 C53.5455787,34.114398 55.2163481,33.5367588 56.8422591,32.858657 C58.4297523,32.1939758 59.8625816,31.5623908 61.1028106,30.9859661 C62.0366301,30.552958 62.8216222,30.1971743 63.4373594,29.929647 L63.7962963,29.8469066 C63.4820602,30.1676447 63.1226799,30.4460502 62.7282402,30.6743106 C61.6751993,31.3230889 60.57965,31.9080443 59.4481992,32.4256489 C58.1204246,33.0489599 56.7255317,33.6529648 55.3072933,34.2155995 C53.8890549,34.7782342 52.5933803,35.2443384 51.4348605,35.5946061 C50.6427241,35.8725985 49.8175426,36.0578453 48.9777479,36.1462087 L48.9777479,36.1462087 Z M57.5572147,22.4361252 L57.4667509,22.4113031 L57.4346509,22.4113031 C57.4096395,22.407491 57.3851654,22.4010144 57.3616962,22.391997 C57.249096,22.2820036 57.17652,22.1409543 57.154505,21.9893271 C57.1278381,21.8781592 57.1605522,21.7616993 57.2420506,21.6776716 C57.7326492,21.166765 58.3448115,20.7734941 59.0279804,20.5303381 C59.0873614,20.5117776 59.1493036,20.5015559 59.2118261,20.5 C59.3444581,20.5046753 59.4682245,20.5641703 59.5503357,20.6627228 L59.5795176,20.6875449 C59.7589496,20.8161156 59.8441207,21.0307723 59.7983815,21.2391475 C59.7905598,21.2646 59.7808072,21.2894866 59.7691996,21.3136139 C59.1651351,21.6307854 58.566907,21.9341668 57.9891062,22.2154842 L57.5572147,22.4361252 Z" id="Shape"></path>
                <path d="M49.0364921,35.8519295 C47.8035353,35.7365509 47.174002,34.9289004 47.020245,33.7100286 L47.020245,35.1626161 C47.0927719,32.9792972 49.2134577,30.8551468 50.5740619,29.3433908 C51.1223651,28.7369133 53.3068745,25.7281933 53.9683196,27.216282 L53.9683196,25.7370686 C53.8319691,26.328754 53.0979971,26.8494371 52.6976488,27.2665752 C52.166752,27.8375516 51.6503607,28.4203616 51.1426726,29.0150054 C50.4057995,29.878866 49.6457179,30.766394 48.992976,31.7012569 C48.2851137,32.7189556 47.3857805,34.337215 47.832546,35.6980913 C48.1893782,36.7838339 49.7153437,36.2335666 50.4725243,36.0412688 C52.0590185,35.634256 53.618978,35.1263861 55.143255,34.5206375 C56.7185387,33.8964095 58.2561084,33.1686365 59.784975,32.4319882 C61.0585469,31.8166355 62.3959425,30.9202322 63.7594477,30.5740963 L63.7594477,29.0948829 C62.0188027,31.0267356 59.013289,32.1272703 56.7214398,33.1686365 C54.3599647,34.2425454 51.6532618,35.6418812 49.0364921,35.8519295 C48.9871739,35.8519295 49.0655029,37.3311429 49.0364921,37.3311429 C51.6474596,37.1210946 54.3570637,35.7217587 56.7214398,34.6478498 C59.0103879,33.6094421 62.0333081,32.5059489 63.7594477,30.5740963 C63.887095,30.4291334 63.6318004,29.1244672 63.7594477,29.0948829 C62.4626672,29.4232683 61.2094028,30.260503 60.0054567,30.8462715 C58.4881944,31.5829198 56.9564269,32.3254849 55.3927474,32.9437961 C53.9413783,33.5333046 52.4561858,34.0322279 50.9453995,34.4378015 C50.0025501,34.6892678 48.3895524,35.3844981 47.8354471,34.218878 L47.8354471,34.7602701 L47.8354471,34.4969701 L47.8354471,35.4318329 C48.1893782,34.1064578 49.1264255,32.9704219 49.9648361,31.9349726 C51.0121242,30.6450985 52.088423,29.3907256 53.2314466,28.1896044 C53.9161003,27.4736651 54.02344,27.2310741 53.9770228,26.287336 C53.9509132,25.6956506 53.8841884,25.1335496 53.1879304,25.3702237 C52.6077154,25.5684383 52.0275004,26.3553798 51.6068446,26.7813932 C50.965707,27.4322471 50.347778,28.1126853 49.7617609,28.8138324 C48.7753954,29.9972031 47.5047245,31.4024558 47.1159805,32.9556298 C46.6837203,34.6537667 46.97963,37.1595541 49.0364921,37.3518519 C49.0045803,37.3281844 49.0916126,35.8578464 49.0364921,35.8519295 Z" id="Path"></path>
                <path d="M56.9842859,21.4115708 C56.7532249,21.3475442 56.6003837,21.0877666 56.6301284,20.8096245 L56.6301284,22.2874027 C56.7524274,21.7426413 57.470934,21.2761329 57.8658578,21.0383641 C58.082429,20.9089457 58.375437,20.7012742 58.6098434,20.8547705 C58.7973197,20.9821102 58.9250249,21.2039532 58.9563572,21.4567168 L58.9563572,19.951851 C58.9181388,20.3942816 58.0620458,20.725352 57.7461067,20.9209846 C57.4913172,21.0805004 57.2365276,21.2219577 56.981738,21.3995319 C56.9559505,21.649418 56.9559505,21.9020787 56.981738,22.1519648 C57.0057465,22.401974 57.0057465,22.6543884 56.981738,22.9043977 L57.6620262,22.4740061 C57.9168157,22.3144903 58.1716053,22.1489551 58.4263949,21.9834198 C58.6174871,21.8600208 58.8697287,21.7727386 58.935974,21.5259406 C59.0302462,21.1497242 58.9512614,20.6230212 58.935974,20.2468047 C58.9206867,19.8705883 58.887564,19.5334984 58.5843644,19.3438853 C58.2811648,19.1542722 57.7308194,19.5786443 57.4607424,19.7863158 C57.1906655,19.9939873 56.6810863,20.3882621 56.6046494,20.7765175 C56.5638823,21.2226685 56.5638823,21.6727067 56.6046494,22.1188577 C56.6046494,22.4770158 56.6428679,22.7990571 56.9639027,22.9074074 C56.8798222,22.8803198 57.1065849,21.4506973 56.9842859,21.4115708 Z" id="Path"></path>
                <path d="M59.5855776,36.1463562 C59.5653237,36.1487455 59.5448409,36.1487455 59.5245871,36.1463562 C59.3902901,36.1018477 59.2776632,36.0116767 59.2080175,35.8929054 C58.8711178,35.4249961 58.9756729,35.1520491 59.1034624,34.9682276 L60.4394442,33.2274939 C62.3369255,30.8248172 64.2276301,28.4267825 66.1115579,26.0333897 C66.2741992,25.8328572 66.4455534,25.6351098 66.6198118,25.4512883 C66.6741402,25.4140577 66.7255843,25.3731013 66.7737402,25.3287407 C66.7737402,25.3287407 66.8114962,25.3148148 66.8463479,25.3148148 C66.9191979,25.3175371 66.9888857,25.3440722 67.0438408,25.3900145 C67.4678698,25.7242354 67.3807406,25.9470493 67.2616639,26.1308708 L66.1928786,27.6682868 C65.9692468,27.9663004 65.7398065,28.281025 65.5219834,28.5957497 L65.4958446,28.6375273 C65.4657964,28.6962239 65.4424272,28.757853 65.4261412,28.8213488 C65.4084837,28.8782877 65.3996761,28.937412 65.4000024,28.9968147 C65.3997083,29.0739257 65.4229269,29.1494372 65.4668015,29.2140583 C65.588492,29.411834 65.8082543,29.5351214 66.0476631,29.5399236 C66.1754185,29.5380058 66.3004835,29.5044241 66.4107017,29.4424426 C66.6488549,29.3226801 66.8899125,29.1862066 67.1280658,29.0469479 C67.5433818,28.8324895 67.9819324,28.5957497 68.4088657,28.3562247 C68.7027257,28.2163714 69.0076609,28.0990282 69.3208184,28.0052928 C69.4970177,27.9541189 69.6798385,27.92693 69.863924,27.9245228 C70.1119851,27.9203239 70.3557053,27.9872404 70.5638623,28.1166998 C70.9396998,28.3581731 71.2111726,28.7224469 71.3276953,29.1416438 C71.3559549,29.3064208 71.3695573,29.4732032 71.3683556,29.6401899 C71.3721837,29.7845715 71.3838166,29.9286657 71.4032073,30.0718919 L71.4032073,30.1025288 C71.4068622,30.2026573 71.4412085,30.2995322 71.5019538,30.3810462 L71.5309969,30.4311793 C71.5576134,30.4802899 71.5941405,30.5238391 71.6384563,30.5592973 C71.7631624,30.6618003 71.9214857,30.7189827 72.0857197,30.7208374 C72.1528003,30.7204067 72.2194117,30.7100733 72.2832127,30.6902005 C72.4076504,30.6502362 72.5244059,30.5909599 72.6288254,30.5147345 L72.6491555,30.5008086 L72.6811029,30.4840976 L73.1109405,30.2250764 C73.3781369,30.0551808 73.6366203,29.9047814 73.8951037,29.7738783 C74.5021041,29.4730795 75.1352433,29.1917769 75.7683824,28.9383261 C75.9032244,28.8902947 76.045675,28.8648575 76.1895071,28.8631264 C76.4870192,28.8723497 76.772141,28.9795563 76.9969048,29.1667103 C77.6412471,29.5939202 78.0093003,30.3103677 77.969848,31.0606286 C77.9519945,31.3686186 77.9102507,31.6749062 77.8449628,31.9769508 C77.8054347,32.1234309 77.7763246,32.272316 77.7578335,32.4225787 L77.7578335,32.4225787 C77.7469321,32.4447086 77.73912,32.46812 77.734599,32.492208 C77.7085429,32.6159217 77.7026644,32.7427638 77.7171732,32.8682065 C77.7404079,33.0800176 77.8692194,33.2679042 78.0627859,33.372323 C78.088534,33.3862871 78.1158046,33.3974951 78.1441065,33.405745 C78.2602012,33.4426513 78.3819491,33.460541 78.5042407,33.4586634 C78.9234015,33.4345698 79.3319081,33.3223696 79.7008156,33.1300128 C80.3601857,32.8230235 80.9941936,32.4682787 81.5973288,32.0688616 C82.2624154,31.6399448 82.9013632,31.211028 83.4938421,30.7960371 C84.0863209,30.3810462 84.5132542,30.105314 84.8065893,29.9409887 L84.9895607,29.8240114 C85.114446,29.7488117 85.2596614,29.6680416 85.416494,29.5844864 L85.462963,29.562205 C85.3154603,29.910182 85.0916022,30.2236461 84.8065893,30.4813124 C84.1578333,31.1337405 83.451384,31.7310704 82.6951573,32.2666089 C81.8412907,32.8821323 80.9961371,33.4335968 80.1858351,33.9070764 C79.59881,34.2705486 78.9762897,34.5783688 78.3270779,34.8261837 C78.2144294,34.8559385 78.0982955,34.8718485 77.9814652,34.8735317 C77.7287904,34.8735317 77.3541347,34.8039024 76.9881919,34.2023048 C76.7245013,33.7984545 76.6271693,33.3148769 76.7151869,32.8459251 C76.7994118,32.4365045 76.9068712,32.0103729 77.0288522,31.5898117 C77.0302033,31.5805729 77.0302033,31.5711986 77.0288522,31.5619599 L77.130503,31.0968359 C77.1762511,30.9638168 77.1997761,30.8246966 77.2002063,30.6846301 C77.2020757,30.433137 77.0496577,30.2040711 76.8110291,30.0997436 L76.7558472,30.0774622 C76.6305224,30.0366351 76.4990282,30.0159321 76.3666699,30.0161884 L76.2708277,30.0161884 C76.1285846,30.0280268 75.9887803,30.058966 75.8555117,30.1080991 L75.8293729,30.1080991 C75.1857822,30.4082725 74.5603623,30.7430252 73.9560942,31.1107617 C71.9526033,32.3760539 70.0613014,33.7975939 68.3014063,35.3609371 L67.7002145,35.8427722 L67.5985637,35.8427722 C67.5321262,35.8325747 67.4687422,35.808831 67.412688,35.7731429 C67.2870457,35.6366163 67.1733904,35.4903606 67.0728839,35.3358706 C66.9196509,35.1892938 66.8800207,34.9657372 66.9741374,34.7788358 C67.1832476,34.4752518 67.4010707,34.1660975 67.6305111,33.8458025 L68.0051668,33.3333305 L68.487282,32.6648888 C69.0875026,31.89773 69.6042585,31.0736655 70.0294696,30.2055802 C70.120796,30.05534 70.13986,29.8745514 70.0817471,29.7098193 C70.011486,29.5335908 69.8637876,29.3960269 69.6780483,29.3338208 C69.6268022,29.311055 69.5732834,29.293325 69.5183114,29.2809025 C69.4736618,29.2701649 69.4278394,29.2645552 69.3818089,29.2641914 C69.2892823,29.264074 69.1986281,29.2891887 69.1204211,29.336606 C68.9955359,29.3950946 68.8793636,29.4480129 68.7689999,29.4925757 C68.3735713,29.6572549 67.9919754,29.8509346 67.6276068,30.0718919 C65.2079823,31.5827312 62.920554,33.2798592 60.7879611,35.1464787 C60.6311285,35.2801671 60.4772002,35.4249961 60.3319848,35.5586845 C60.1199703,35.7285801 59.9137644,35.9068312 59.7162714,36.0962231 C59.6789694,36.1251808 59.6334145,36.1426553 59.5855776,36.1463562 L59.5855776,36.1463562 Z" id="Path"></path>
                <path d="M59.6573612,35.9819996 C59.2665484,35.9269855 59.1160131,35.462116 59.05522,35.1567875 L59.05522,36.5321411 C59.1594367,35.9819996 59.7413136,35.4511131 60.0858078,35.0082493 C60.7719014,34.1197708 61.4753644,33.2477966 62.1759325,32.3675703 L65.169269,28.6073535 C65.45876,28.2387587 67.1378075,25.5815755 67.3983494,27.2567562 L67.3983494,25.8814026 C66.8801606,27.0174447 65.5456073,27.9141753 65.4471803,29.1822513 C65.4124414,29.5921067 65.3198043,30.2825342 65.6237698,30.6071177 C66.3272329,31.3580607 68.5505234,29.4848291 69.363993,29.3087838 C69.8797085,29.147275 70.4469306,29.2594725 70.8519765,29.6031095 C71.0544548,29.7890244 71.2072966,30.0181835 71.2977926,30.2715314 C71.3672704,30.4585795 71.4599075,31.2122733 71.4251686,30.6951403 C71.4599075,31.1930183 71.3122672,31.9687178 72.1112622,31.9989755 C72.8263049,32.0264826 74.039272,30.9949674 74.6066743,30.7391516 C75.3246118,30.4145682 76.0309698,29.9634522 76.8039106,30.3513019 C77.5388524,30.7541473 77.983123,31.5066126 77.9618745,32.3125562 L77.9618745,30.9454547 C77.880817,31.7706668 77.0731372,34.3480795 78.3150534,34.6699123 C79.5569696,34.991745 81.4415558,33.4210912 82.3679268,32.8159356 C83.3782503,32.1475137 84.348045,31.3910692 85.4394259,30.8464292 L85.4394259,29.4710756 C84.7707018,31.0884914 82.4489843,32.3620689 80.9957397,33.2698023 C79.5424951,34.1775357 77.2323572,35.8334614 76.6881142,33.1652754 L76.6881142,34.5213741 C76.7691717,33.2890572 77.3105198,32.1750208 77.2120929,30.9261997 C77.0991914,29.4793277 75.8572752,29.9854578 74.8961652,30.4998401 C72.9670293,31.5760739 71.1546753,32.8310059 69.4855792,34.2463034 C68.5534183,35.011 67.7052098,36.4468692 66.9670079,34.8624618 L66.9670079,36.2378154 C67.2275497,35.1017733 68.7386925,33.7319211 69.363993,32.7416665 C69.876392,31.9329586 70.4698485,30.8436785 70.1543033,29.8369196 C69.5753214,28.0242036 65.9595793,31.0774886 65.1634792,31.6331315 C64.0749932,32.3941605 63.0135264,33.1946163 61.9790787,34.0344989 C61.3248291,34.5681361 60.4505664,35.6849233 59.6428866,35.9764982 C59.472087,36.0397645 59.7963168,37.294087 59.6428866,37.3518519 C60.4505664,37.0520248 61.3248291,35.9434897 61.9790787,35.4098525 C63.0038767,34.5699699 64.0653435,33.7695141 65.1634792,33.0084851 C65.7887797,32.5711226 69.8532327,29.3390416 70.1543033,31.2122733 L70.1543033,29.8369196 C69.6824331,31.374565 68.3941983,32.7059073 67.4504578,34.0234961 C66.9756926,34.6864165 66.5443511,36.0975293 67.282553,36.7934583 C67.7370538,37.2198179 67.8354807,37.0107642 68.2841917,36.6421694 C69.2713559,35.8169572 70.2353608,34.991745 71.2688435,34.2380512 C72.085208,33.6383971 76.601267,29.9056873 77.2149878,31.9604656 L77.2149878,30.585112 C77.0239238,31.7376583 75.7385839,35.3878469 77.655014,36.0315124 C78.8679812,36.438617 80.9349466,34.7139236 81.8381584,34.1060173 C83.0511255,33.2808051 84.8749185,32.2245335 85.4452157,30.8491799 C85.5262732,30.6483783 85.2946804,29.5480954 85.4452157,29.4738263 C84.2640926,30.0652283 78.4974327,34.8129491 77.7244919,32.7389158 L77.7244919,34.089513 C77.7968646,32.6673974 78.5234869,30.7253981 77.4350009,29.4793277 C76.2191389,28.076467 74.389556,29.3968065 73.1244806,30.1229932 C72.4962852,30.4860865 71.7493985,30.9482054 71.4222737,29.9964607 L71.4222737,30.6841375 C71.4222737,29.6911322 71.540965,28.2442601 70.2643099,27.8894189 C68.9876548,27.5345777 65.9219455,30.3953132 65.4442854,28.9016792 L65.4442854,30.2770328 C65.6353495,29.0089568 67.2738683,28.2167531 67.3954545,26.9101671 C67.4330883,26.5250681 67.5315152,25.5513177 67.0828043,25.3395133 C66.41987,25.0259327 64.7089784,27.7931441 64.3297452,28.2690165 C62.6825417,30.3375484 60.8558538,32.3538168 59.376555,34.5296262 C59.0146913,35.057762 58.5978243,37.2060644 59.6486765,37.3491011 C59.6023579,37.3491011 59.7355237,35.9902518 59.6573612,35.9819996 Z" id="Path"></path>
                <path d="M93.8738948,36.1471777 L93.7321257,36.1471777 C93.4281594,36.1585806 93.1294828,36.0692033 92.8872974,35.8943676 C92.4917364,35.6454278 92.1882036,35.2850679 92.019323,34.8638917 C91.8395905,34.4544827 91.7991263,34.0019466 91.9035931,33.5696139 L92.1639854,32.7452332 C92.2363166,32.5611215 92.3028613,32.3632701 92.357833,32.1709146 C92.3622508,32.1371533 92.3622508,32.1030023 92.357833,32.069241 C92.3562807,31.970535 92.3229633,31.874644 92.2623558,31.7944474 C92.2334564,31.7498403 92.1994994,31.7083739 92.1610922,31.6707903 C92.1276373,31.6388135 92.0884474,31.6127584 92.0453623,31.5938481 C92.0006439,31.5713626 91.9542234,31.5520737 91.9064864,31.5361415 C91.8425017,31.514083 91.7749211,31.5029202 91.7068523,31.5031662 C91.6481493,31.5026933 91.5899953,31.5139272 91.5361507,31.5361415 L91.4638195,31.5581249 C91.0934837,31.7092614 90.7086818,31.8741376 90.3238798,32.0500054 C89.2756094,32.5674688 88.1909526,33.0155331 87.0776559,33.3909981 C86.5025582,33.5713189 85.9010384,33.6640639 85.2954153,33.6657917 C85.1999381,33.6657917 85.1044609,33.6657917 85.0060905,33.6657917 C84.5490883,33.6661457 84.1103731,33.4953263 83.7851399,33.1903988 C83.441753,32.8740441 83.2059552,32.4672884 83.10812,32.0225261 C83.0021928,31.589579 83.0573996,31.1351506 83.2643553,30.7364921 C83.4634955,30.3260681 83.7162296,29.9410799 84.0165998,29.5906029 C85.0105607,28.5127031 86.1726877,27.5859527 87.4624578,26.8426671 C88.753812,26.1170966 90.1734153,25.6207939 91.6518806,25.3780173 C91.8828235,25.3371998 92.1171425,25.3160484 92.3520465,25.3148148 C93.1411732,25.317921 93.9059685,25.5745766 94.5219823,26.0430178 C94.6416499,26.1195976 94.7280028,26.2348104 94.7650151,26.3672742 L94.7129367,26.3672742 L94.5538081,26.3672742 C93.8333894,26.3672742 92.5835063,26.592605 90.7376143,27.0570061 C88.7586328,27.5543825 86.5858038,28.8486602 84.2769921,30.9041162 C84.2543838,30.9250392 84.2340302,30.9480527 84.2162338,30.9728146 C84.0528338,31.2083736 83.9087125,31.4554977 83.7851399,31.7120093 C83.7536285,31.7875783 83.7148898,31.8602446 83.66941,31.9290963 C83.6585954,31.9477825 83.6489349,31.9670506 83.6404775,31.9868029 C83.5629395,32.1917171 83.5927195,32.4194485 83.7206801,32.6001215 C83.8486406,32.7807945 84.0595021,32.8928351 84.288565,32.9018655 C84.361416,32.9008016 84.4341733,32.9072512 84.5055586,32.9211011 L84.5576371,32.9211011 C84.6241818,32.9211011 84.6907265,32.9211011 84.7543779,32.9211011 C85.0131578,32.922052 85.2709432,32.8906388 85.5210886,32.8276713 C86.325848,32.6177918 87.1146342,32.3561333 87.8819787,32.0445096 C89.5409818,31.3427606 91.1425058,30.5243489 92.673197,29.5960988 C94.2196389,28.6580242 95.6723348,27.5873499 97.0130686,26.3975015 L97.6785156,25.8121912 C97.708506,25.7960153 97.7423971,25.7874947 97.7768861,25.7874598 C97.810144,25.7884557 97.841517,25.8023612 97.8636835,25.8259309 C98.1196516,25.9930405 98.3107529,26.2353668 98.4076141,26.5156628 C98.4121444,26.5298501 98.4179523,26.5436407 98.4249735,26.5568818 C98.4842757,26.6398213 98.4842757,26.7487359 98.4249735,26.8316754 C98.2600584,27.0047953 98.0864636,27.1779153 97.904189,27.3482873 C97.8049752,27.4268679 97.7139052,27.5142842 97.6322237,27.6093412 C96.1600046,29.0425219 94.8526054,30.6204843 93.7321257,32.3165552 L93.711873,32.3357908 C93.6894382,32.3571506 93.6699903,32.3811631 93.654008,32.4072371 C93.4688402,32.6820307 93.2952453,32.9733119 93.1419032,33.2618451 C92.9691901,33.5781484 92.8435799,33.915707 92.7686742,34.2648417 C92.7198198,34.4420364 92.7546791,34.6306545 92.8641514,34.7814536 C92.9670542,34.9137548 93.1254576,34.9970025 93.2981385,35.0095323 C93.3597759,35.0138908 93.4216691,35.0138908 93.4833064,35.0095323 C93.6497562,35.0071825 93.8155234,34.9887683 93.9780518,34.9545736 C94.1746468,34.9192394 94.3680978,34.8696309 94.5567013,34.806185 C94.6147804,34.7924707 94.671812,34.775027 94.7274029,34.7539743 C95.7950113,34.5176518 97.0043889,34.2291185 98.3208166,33.8938704 C100.696173,33.2893245 103.279843,32.6765348 105.999496,32.0774848 C108.536573,31.5133901 111.106345,31.0913131 113.695535,30.8134343 C114.416292,30.7393812 115.140526,30.6999439 115.865471,30.6952731 C116.242382,30.6934434 116.619101,30.7117921 116.993838,30.7502318 C117.611013,30.7810908 118.206584,30.9763095 118.712427,31.3135587 C118.890299,31.4504615 119.043692,31.6137817 119.166667,31.7971954 C118.565442,31.6929997 117.955023,31.6442262 117.343921,31.6515548 C116.921506,31.6515548 116.458587,31.6707903 115.966735,31.7037655 C113.94269,31.8613436 111.928994,32.1218552 109.934313,32.4841793 C107.741231,32.8743862 105.565509,33.30856 103.467904,33.7867009 C101.3703,34.2648417 99.5620199,34.6962676 98.0951433,35.0754828 C96.6282667,35.4546979 95.7111072,35.7020121 95.3783837,35.8064337 C95.3512637,35.8160802 95.325118,35.8280366 95.300266,35.8421568 C95.0343191,35.9358371 94.7628597,36.0147445 94.4872634,36.0784793 C94.2863577,36.1241799 94.0804822,36.1472383 93.8738948,36.1471777 Z" id="Path"></path>
                <path d="M93.87562,35.8620128 C92.6065822,35.8263991 91.9417105,34.7579887 91.8520974,33.5411879 L91.8520974,35.0250913 C91.9446013,34.292043 93.3177059,30.7247392 91.5196615,30.9028076 C90.8114286,30.974035 89.8285748,31.7219223 89.2070643,32.0157352 C88.3301936,32.4683131 87.4059346,32.8168064 86.4521828,33.0544676 C84.7177348,33.4076366 83.3041598,32.879367 83.0873538,30.911711 L83.0873538,32.3956145 C83.3764284,29.9620129 86.1717804,27.9439042 88.1288158,26.9140753 C89.9181879,25.9643771 93.2974707,24.6199606 94.7775329,26.7627171 L94.7775329,25.2788137 C93.5084952,25.1215199 91.9532735,25.6616608 90.7536137,26.0148298 C89.2901331,26.4729576 87.9150088,27.1878855 86.689224,28.1279082 C85.2033803,29.2289646 82.9457072,30.9146789 83.6192511,33.1524052 C84.373736,35.6661376 91.3404352,31.1224253 92.4562634,30.4012483 C94.0792883,29.3436294 95.6060152,28.1377644 97.0178615,26.7983308 C97.7087499,26.1483811 98.1741601,25.9079887 98.4632348,27.1544676 L98.4632348,25.6705642 C98.2319751,26.2819324 97.3878771,26.8576869 96.9629373,27.347375 C96.2537747,28.1477569 95.5860557,28.9858332 94.9625407,29.8581396 C94.1646946,30.9770028 92.9794886,32.4252925 92.7655733,33.8409364 C92.6990861,34.277204 92.5950193,35.2387734 92.7655733,35.6572342 C93.1991853,36.7286124 95.6563199,35.6275561 96.419477,35.428713 C100.483867,34.3751416 104.513567,33.1998901 108.644444,32.3778076 C110.612301,31.9537333 112.604055,31.6563727 114.608054,31.4874656 C116.145932,31.3865601 118.102967,31.235202 119.137854,32.633039 L119.137854,31.1491356 C116.981357,30.7781597 114.735247,31.1164897 112.590313,31.4459163 C110.06091,31.8228277 107.551742,32.3540652 105.074372,32.9298197 C102.871623,33.4363254 100.67851,33.9913053 98.495033,34.5947593 C97.0496597,34.9924454 95.3932619,35.781882 93.8958552,35.8560772 C93.8582755,35.8560772 93.9131997,37.3399806 93.8958552,37.3399806 C95.3961527,37.2509464 97.0496597,36.4763488 98.495033,36.0786627 C100.67851,35.4851014 102.871623,34.9301215 105.074372,34.4137231 C107.566196,33.8379686 110.075364,33.3067312 112.590313,32.9298197 C114.732357,32.6092965 116.984248,32.2679988 119.137854,32.633039 C119.054023,32.633039 119.233249,31.2797191 119.137854,31.1491356 C117.938194,29.5287131 115.411682,29.9056245 113.671453,30.0866607 C110.990562,30.3945053 108.331479,30.8772555 105.710336,31.5319827 C103.149135,32.125544 100.602387,32.8051718 98.0643118,33.4966708 C96.9513743,33.7934515 95.8297647,34.0605541 94.7168272,34.3573348 C94.0750815,34.5294676 93.1269166,34.9805742 92.7655733,34.1614595 L92.7655733,35.0992865 L92.7655733,34.7550209 L92.7655733,35.3010973 C93.4506802,32.541037 95.8904704,29.9382704 97.7636741,27.9557754 C98.4112014,27.2702121 98.471907,27.1900813 98.4690163,26.302707 C98.4690163,25.8219223 98.4690163,24.8455139 97.8590688,24.6852523 C97.4081123,24.5695079 96.167982,26.0801215 95.8817981,26.3294173 C94.5880618,27.4553436 93.2053758,28.4688789 91.7480305,29.3595481 C90.5454799,30.098532 84.5211641,34.0368116 83.6047974,31.6892764 L83.6047974,33.1731798 C83.7406625,32.0928982 84.5298363,31.3924957 85.2929934,30.7366104 C86.3524314,29.7870135 87.5166808,28.9682429 88.7618893,28.2970732 C90.3951611,27.4512483 92.8985476,26.5401316 94.7630792,26.7686527 C94.696592,26.7686527 94.8498016,25.4093972 94.7630792,25.2847493 C93.008396,22.7561779 88.7185281,24.9078378 86.8511058,26.2047694 C84.9836835,27.501701 83.0555556,29.2052221 83.0555556,31.6595984 C83.0555556,33.7370631 84.0702076,34.9241859 86.2064693,34.5888237 C87.7298928,34.3424957 89.1521401,33.5115098 90.5252447,32.8437533 C91.1987887,32.5143267 92.0486682,31.9534112 92.3666503,32.9565299 L92.3666503,31.4726265 C92.2192222,32.6033609 91.8087362,33.5026064 91.8347529,34.6630189 C91.8665511,35.9866607 92.4129022,37.3103026 93.87562,37.3518519 C93.8727292,37.3459162 93.9016367,35.8649806 93.87562,35.8620128 Z" id="Path"></path>
            </g>
        </g>
    </g>
</svg>