<svg width="120" height="53" viewBox="0 0 120 53" fill="none" xmlns="http://www.w3.org/2000/svg">
<path d="M0.5 9.8001C0.5 8.0001 2 6.6001 3.7 6.6001H13C20.2 6.6001 25.1 11.8001 25.1 18.1001C25.1 23.4001 21.8 27.0001 18 27.9001L17.3 28.0001L27.5 40.2001C28.1 40.9001 28.3 41.6001 28.3 42.3001C28.3 44.1001 26.9 45.5001 25.1 45.5001C24.1 45.5001 23.2 45.1001 22.6 44.3001L9.7 29.0001C9.3 28.5001 8.7 27.6001 8.7 26.5001C8.7 24.9001 10 23.6001 11.6 23.6001H12.8C16.1 23.6001 18.4 21.1001 18.4 18.1001C18.4 15.0001 16.1 12.6001 12.8 12.6001H7V42.2001C7 44.0001 5.5 45.4001 3.8 45.4001C2.1 45.4001 0.5 44.0001 0.5 42.2001V9.8001Z" fill="#1B1C2B"/>
<path d="M34 42C34 40 35.6 38.4001 37.6 38.4001C39.6 38.4001 41.2 40 41.2 42C41.2 43.9 39.6 45.6 37.6 45.6C35.6 45.6 34 43.9 34 42ZM34.6 9.30005C34.6 7.60005 35.9 6.30005 37.6 6.30005C39.3 6.30005 40.6 7.60005 40.6 9.30005V32.1C40.6 33.8 39.3 35.2001 37.6 35.2001C35.9 35.2001 34.6 33.8 34.6 32.1V9.30005Z" fill="#FFCC33"/>
<path d="M48.6 27.5C48.6 20.7 53.2 16.5 59 16.5C62.3 16.5 65.1 17.7 66.9 20.6C68.6 17.7 71.6 16.5 74.8 16.5C80.6 16.5 85.2 20.7 85.2 27.5V42.4C85.2 44.1 83.9 45.5 82.2 45.5C80.5 45.5 79.2 44.1 79.2 42.4V27.4C79.2 23.8 77.2 22 74.5 22C71.9 22 69.9 23.8 69.9 27.4V42.4C69.9 44.1 68.5 45.5 66.9 45.5C65.2 45.5 63.9 44.1 63.9 42.4V27.4C63.9 23.8 61.8 22 59.2 22C56.6 22 54.5 23.8 54.5 27.4V42.4C54.5 44.1 53.2 45.5 51.5 45.5C49.8 45.5 48.5 44.1 48.5 42.4V27.5H48.6Z" fill="#1B1C2B"/>
<path d="M113.1 42.1C110.7 44.2 107.5 45.5 104 45.5C96.1001 45.5 90.1001 39.1 90.1001 31C90.1001 22.9 96.1001 16.5 104 16.5C107.5 16.5 110.7 17.8 113.1 20V19.6C113.1 17.9 114.4 16.6 116.1 16.6C117.8 16.6 119.1 17.9 119.1 19.6V42.4C119.1 44.1 117.8 45.5 116.1 45.5C114.4 45.5 113.1 44.1 113.1 42.4V42.1ZM113.1 31V30.6C112.9 25.7 109.3 22.1 104.7 22.1C100 22.1 96.3001 25.9 96.3001 31C96.3001 36.1 100 39.9 104.7 39.9C109.4 39.9 113.1 36.1 113.1 31Z" fill="#1B1C2B"/>
</svg>
