<svg width="24" height="24" viewBox="0 0 24 24" fill="none" xmlns="http://www.w3.org/2000/svg">
<path d="M5.25977 19C4.47852 19 4 18.5117 4 17.6914V6.2168C4 5.39648 4.47852 4.9082 5.25977 4.9082H9.14648C13.3555 4.9082 15.8457 7.45703 15.8457 11.9199C15.8457 16.3828 13.3652 19 9.14648 19H5.25977ZM6.51953 16.8711H8.88281C11.7148 16.8711 13.2773 15.1426 13.2773 11.9297C13.2773 8.77539 11.6953 7.03711 8.88281 7.03711H6.51953V16.8711Z" fill="#444444"/>
<path d="M18.1113 19.1074C17.3203 19.1074 16.7051 18.4922 16.7051 17.7012C16.7051 16.9199 17.3203 16.2949 18.1113 16.2949C18.8926 16.2949 19.5078 16.9199 19.5078 17.7012C19.5078 18.4922 18.8926 19.1074 18.1113 19.1074Z" fill="#444444"/>
</svg>
