<svg width="24" height="24" viewBox="0 0 24 24" fill="none" xmlns="http://www.w3.org/2000/svg">
<path d="M12.9999 22C12.3832 22 11.7792 21.9377 11.1879 21.813C10.5966 21.6883 10.0172 21.509 9.44988 21.275C9.19988 21.175 9.03322 20.996 8.94988 20.738C8.86655 20.48 8.87488 20.2257 8.97488 19.975C9.07488 19.725 9.24988 19.546 9.49988 19.438C9.74988 19.33 9.99988 19.334 10.2499 19.45C10.6832 19.6333 11.1292 19.771 11.5879 19.863C12.0466 19.955 12.5172 20.0007 12.9999 20C14.9499 20 16.6042 19.321 17.9629 17.963C19.3216 16.605 20.0006 14.9507 19.9999 13C19.9999 11.05 19.3166 9.396 17.9499 8.038C16.5832 6.68 14.9249 6.00067 12.9749 6H12.7999L13.6999 6.9C13.8832 7.08334 13.9749 7.31667 13.9749 7.6C13.9749 7.88334 13.8832 8.11667 13.6999 8.3C13.5166 8.48334 13.2832 8.575 12.9999 8.575C12.7166 8.575 12.4832 8.48334 12.2999 8.3L9.69988 5.7C9.61655 5.61667 9.54988 5.51267 9.49988 5.388C9.44988 5.26334 9.42488 5.134 9.42488 5C9.42488 4.86667 9.44988 4.73767 9.49988 4.613C9.54988 4.48834 9.61655 4.384 9.69988 4.3L12.2999 1.7C12.4832 1.51667 12.7166 1.425 12.9999 1.425C13.2832 1.425 13.5166 1.51667 13.6999 1.7C13.8832 1.88334 13.9749 2.11667 13.9749 2.4C13.9749 2.68334 13.8832 2.91667 13.6999 3.1L12.7999 4H12.9749C15.4749 4 17.6042 4.875 19.3629 6.625C21.1216 8.375 22.0006 10.5 21.9999 13C21.9999 15.5 21.1249 17.625 19.3749 19.375C17.6249 21.125 15.4999 22 12.9999 22Z" fill="#2E36CB"/>
<path d="M6.98828 17.1025C6.55371 17.1025 6.25586 16.8096 6.25586 16.3652V11.3213H6.22656L5.19629 12.0391C5.05957 12.1367 4.95703 12.1709 4.80566 12.1709C4.50781 12.1709 4.28809 11.9561 4.28809 11.6436C4.28809 11.4189 4.37598 11.2529 4.60547 11.0918L6.00195 10.125C6.34375 9.89062 6.57812 9.84668 6.88086 9.84668C7.40332 9.84668 7.71582 10.1641 7.71582 10.6719V16.3652C7.71582 16.8096 7.42285 17.1025 6.98828 17.1025ZM12.1445 17.1562C11.0264 17.1562 10.1377 16.6338 9.62012 15.5986C9.35156 15.0518 9.20508 14.3535 9.20508 13.5332C9.20508 11.1992 10.3184 9.79297 12.1494 9.79297C13.3164 9.79297 14.1562 10.2861 14.4883 10.9453C14.5566 11.082 14.5908 11.209 14.5908 11.3408C14.5908 11.668 14.3613 11.9219 13.9756 11.9219C13.6826 11.9219 13.5068 11.7949 13.292 11.5459C12.9697 11.1406 12.6279 10.96 12.1445 10.96C11.1387 10.96 10.626 11.917 10.6162 13.4209V13.4941H10.6455C10.9189 12.8398 11.6123 12.3613 12.5645 12.3613C13.9268 12.3613 14.8594 13.333 14.8594 14.6562C14.8594 16.1162 13.7168 17.1562 12.1445 17.1562ZM12.125 15.9844C12.8477 15.9844 13.4189 15.4277 13.4238 14.7197C13.4238 13.9775 12.8818 13.4502 12.1396 13.4502C11.3926 13.4502 10.8359 13.9727 10.8359 14.6904C10.8359 15.418 11.4023 15.9844 12.125 15.9844Z" fill="#2E36CB"/>
</svg>
