<svg width="24" height="24" viewBox="0 0 24 24" fill="none" xmlns="http://www.w3.org/2000/svg">
<path d="M21.6472 2.52235C21.6393 2.48388 21.6205 2.44849 21.5931 2.42033C21.5657 2.39218 21.5308 2.37245 21.4925 2.36344C18.9435 1.74 13.055 3.96141 9.86144 7.15266C9.29228 7.71715 8.77329 8.33009 8.31035 8.98453C7.32598 8.89547 6.3416 8.97047 5.50348 9.3361C3.13676 10.3767 2.44816 13.0945 2.25598 14.2613C2.24556 14.3252 2.25001 14.3907 2.26897 14.4526C2.28794 14.5145 2.32091 14.5713 2.36533 14.6184C2.40975 14.6655 2.46443 14.7018 2.52513 14.7244C2.58583 14.747 2.65092 14.7554 2.71535 14.7488L6.51551 14.3316C6.51814 14.6182 6.53535 14.9045 6.56707 15.1894C6.5869 15.3863 6.67475 15.5701 6.81551 15.7092L8.28691 17.1806C8.42615 17.3215 8.61016 17.4093 8.80723 17.4291C9.09039 17.4606 9.37497 17.4779 9.65988 17.4806L9.24316 21.2775C9.23666 21.3419 9.24504 21.4068 9.26765 21.4674C9.29026 21.528 9.32651 21.5826 9.37358 21.627C9.42066 21.6713 9.4773 21.7043 9.53914 21.7232C9.60097 21.7422 9.66634 21.7467 9.73019 21.7364C10.8974 21.5489 13.6208 20.8603 14.6554 18.4941C15.021 17.655 15.096 16.6758 15.0116 15.6961C15.668 15.2336 16.2827 14.7146 16.8486 14.145C20.0539 10.9575 22.2613 5.19844 21.6472 2.52235ZM13.9996 10.0158C13.7196 9.73588 13.5289 9.37924 13.4517 8.99096C13.3744 8.60268 13.414 8.20021 13.5655 7.83445C13.717 7.46868 13.9735 7.15605 14.3027 6.9361C14.6318 6.71614 15.0188 6.59874 15.4147 6.59874C15.8106 6.59874 16.1976 6.71614 16.5268 6.9361C16.8559 7.15605 17.1125 7.46868 17.264 7.83445C17.4155 8.20021 17.4551 8.60268 17.3778 8.99096C17.3005 9.37924 17.1099 9.73588 16.8299 10.0158C16.6442 10.2019 16.4236 10.3495 16.1808 10.4503C15.9379 10.551 15.6776 10.6028 15.4147 10.6028C15.1518 10.6028 14.8915 10.551 14.6487 10.4503C14.4058 10.3495 14.1853 10.2019 13.9996 10.0158Z" stroke="#444444" stroke-width="2" stroke-linecap="round" stroke-linejoin="round"/>
<path d="M4.90167 17.0003C4.90167 17.0003 4.09987 17.2396 3.80375 17.5353C3.06958 18.272 3 21.0003 3 21.0003C3 21.0003 5.73 20.9308 6.46458 20.1958C6.76149 19.9001 7 19.5 7 19.097" stroke="#444444" stroke-width="2" stroke-linecap="round" stroke-linejoin="round"/>
</svg>
