<?xml version="1.0" encoding="utf-8"?>
<!-- Generator: Adobe Illustrator 27.0.0, SVG Export Plug-In . SVG Version: 6.00 Build 0)  -->
<svg version="1.1" id="圖層_1" xmlns="http://www.w3.org/2000/svg" xmlns:xlink="http://www.w3.org/1999/xlink" x="0px" y="0px"
	 viewBox="0 0 500 500" style="enable-background:new 0 0 500 500;" xml:space="preserve">
<style type="text/css">
	.st0{fill:#FCFAF2;}
	.st1{fill:#F2AF81;}
	.st2{fill:#1B1C2B;}
	.st3{fill:#FF5500;}
	.st4{clip-path:url(#SVGID_00000096048546784264192750000005657178330045597117_);}
	.st5{fill:#D35E39;}
	.st6{fill:#FFFFFF;}
	.st7{fill:#FFCB30;}
	.st8{fill:#EFEBDC;}
	.st9{fill:#E57BA6;}
	.st10{fill:#2E36CB;}
	.st11{fill:#C7C7C7;}
	.st12{fill:#EAEAEA;}
	.st13{fill:none;}
	.st14{fill:#1A1B38;}
	.st15{fill:#FF8F67;}
	.st16{display:none;}
	.st17{display:inline;}
	.st18{display:inline;fill:#292929;}
</style>
<path class="st0" d="M73.2,432.9C36.8,420.5,6.5,366.9,8.4,320.8c1.5-37.4,23-40.2,47.7-100c31-75.4,11.3-105.9,38.9-138
	c30.5-35.4,89.7-39,129.8-15.2c33.3,19.8,42.9,52.6,86.4,64.6c16.7,4.6,16.8,0.2,41,4.5c27.4,4.8,63.7,11.2,90.6,38.9
	c35,36.2,44.6,99.9,39.9,147.6c-1.6,16.6-10.3,87.5-54,119.9c-34.4,25.6-49.4-3.4-125,16.6c-45.1,11.9-58.5,27.2-83.9,16.5
	c-29.4-12.4-26.6-42.4-56.4-51.5C125.4,413.3,109.1,445,73.2,432.9z"/>
<path class="st1" d="M278.7,141.7c0,0,11.7-2.1,15.6-5.8s18.5-11.2,19.9-10.5s-0.5,2.5-1.3,2.6s-7.4,3.9-5.9,4.7s17.3-3.2,17.8-2.3
	s0.3,1.5-2.1,1.8c-2.5,0.4-6.9,2-6.9,2.3s0.1,0.9,1.2,0.7s10.7-1.6,10.9-0.8c0.2,0.7,0.6,1.8-1.5,2s-10.1,0.4-10,1.2
	s-0.2,0.6,0.9,0.7c1,0.1,9.4-0.4,9.7-0.1c0.3,0.3,1.1,1.7-0.9,1.9s-10.4-0.2-10.4,0.6s0.4,0.8,1,0.9c0.6,0,8.9-0.1,9.3,0.4
	c0.4,0.6,0.5,1.8-1.2,1.8s-13.9,0.7-16.9,2.1c-3,1.4-10.3,7.2-14.9,13.2s-13.3,13-23.3,16.3C269.7,175.5,267.2,157.3,278.7,141.7z"
	/>
<g>
	<path class="st1" d="M159.1,134.3c0,0-18.1-0.6-27.4-7.6c0,0-7.8-10.3-14.5-11.2c0,0-1.7,0.7,0,2.3c1.7,1.6,6.3,4.3,5.6,5.1
		c-0.7,0.7-4.9-0.8-6.3-1.7c-1.5-0.9-6.8-5.1-7.3-4.6s-1.5,1.8-0.3,2.6c1.2,0.7,7.3,4.3,7,5.2c-0.3,0.8-0.7,0.7-1.7,0.1
		s-7.2-4.2-8-4.1c-0.9,0.1-1.1,1.4-0.6,1.8c0.5,0.5,7.7,4.5,7.7,5.2s-0.6,0.5-0.6,0.4s-5.6-3-6-2.9s-1.1,0.8-0.7,1.4s6.3,4,6.2,4.4
		c0,0.4-0.2,0.5-0.5,0.4c-0.4-0.1-4.8-2.6-5-2.4c-0.3,0.2-1,0.8-0.7,1.4c0.3,0.6,7.3,6.6,10.9,7.2c3.7,0.6,7.6,1.8,9.8,4.4
		c2.2,2.6,21.6,22.8,33.6,25.3C160.3,166.9,161.7,142,159.1,134.3z"/>
	<g>
		<g>
			<g>
				<path class="st1" d="M206.1,31.2c0,0-8.8,8.2-8.2,21.1s0.2,23.6,13.1,23.4c0,0,1.4,8.5-6.5,12.9c0,0,9,17.5,27.5-0.2
					c0,0-7.7-9-4.3-21.4c0,0,11.2-13.1,2.2-27.9S206.1,31.2,206.1,31.2z"/>
			</g>
			<g>
				<ellipse class="st2" cx="214.6" cy="54" rx="1.8" ry="2"/>
			</g>
			<g>
				<ellipse class="st2" cx="202.6" cy="53.8" rx="1.8" ry="2"/>
			</g>
			<g>
				<path class="st3" d="M207.9,53c0,0,4,6.8,3.1,8s-2.9,1.6-5.1,0.6l1.6-7.9C207.5,53.8,207.6,53.2,207.9,53z"/>
			</g>
			<g>
				<path class="st2" d="M218.5,48.4c0.2-0.4,0-0.9-0.1-1.2c-0.5-0.8-1.5-0.8-2.5-0.9c-1.1,0-2.3-0.1-2.7,0.7
					c-0.2,0.3-0.2,0.8,0,1.2c0.3,0.4,0.7,0.4,2.8,0.5C217.8,48.8,218.2,48.8,218.5,48.4z"/>
			</g>
			<g>
				<path class="st2" d="M205.8,48.1c0.2-0.4,0-0.9-0.1-1.2c-0.5-0.8-1.5-0.8-2.5-0.9c-1.1,0-2.3-0.1-2.7,0.7
					c-0.2,0.3-0.2,0.8,0,1.2c0.3,0.4,0.7,0.4,2.8,0.5C205.1,48.5,205.6,48.5,205.8,48.1z"/>
			</g>
			<g>
				<g>
					<defs>
						<path id="SVGID_1_" d="M206.1,31.2c0,0-7.5,8.3-6.9,21.1c0.6,12.9-1.2,23.5,11.8,23.3c0,0,1.4,8.5-6.5,12.9
							c0,0,8.9,17.4,27.6,0c0,0-7.8-9.2-4.5-21.6c0,0,11.2-13.1,2.2-27.9S206.1,31.2,206.1,31.2z"/>
					</defs>
					<clipPath id="SVGID_00000035525328423158064010000009367068686295930815_">
						<use xlink:href="#SVGID_1_"  style="overflow:visible;"/>
					</clipPath>
					<g style="clip-path:url(#SVGID_00000035525328423158064010000009367068686295930815_);">
						<path class="st5" d="M211,75.6c0,0,5.7-1.2,9.9-5.1c0,0-1.8,11.5-13.2,13.9L211,75.6z"/>
					</g>
				</g>
			</g>
			<g>
				<path class="st6" d="M209.3,71.2c3.7-0.5,5.2-3.6,5.6-4.7h-11.3C204.1,67.8,205.5,71.7,209.3,71.2z"/>
			</g>
			<path class="st7" d="M225.1,27.5c0,0,8-2.8,5-13c-0.3-0.9-0.6-1.7-1-2.3c-3.7-4.5-10.6-2.6-12,1.7c-2,6.1,0.7,10.6,0.7,10.6
				s-19.3-0.4-25.6,24.2c-6.2,24.3,6.4,33,18.5,31.3c0.4-1.6,0.4-3.5,0.2-4.4c-1.3,0.1-9,0.2-11.5-8.5c-3.2-11.1-1.4-29.3,5.8-33.9
				c10.7-6.9,18.5,9,18.5,18.2c0,0,3.9-2.5,5.1,0.5c1.3,3.1-0.9,6.8-4.9,8.6c0,0,1.4,12.8,3.2,17.2c0,0,19.1-1.8,22.2-11.8
				C252.6,55.9,240.7,33.5,225.1,27.5z"/>
		</g>
		<g>
			<path class="st1" d="M261.1,375.4l17.1,1.5l6,15.3c0,0,16.1,12.2,18.1,12.5s8.7-0.8,7.5,4.6h-47c0,0,1.7-12.3,6-16.9L261.1,375.4
				z"/>
			<path class="st2" d="M309.5,406.3h-7.2v-1.7c-0.3-0.1-1-0.4-1.8-0.9v2.6h-26.6c0-1.9-0.3-7.6-3.2-12.2h12.5h3.8
				c-0.2-3.4-2.2-3.6-2.2-3.6h-17.1l0.8,1.8c-6,6.4-5.2,13.4-5.5,16.9h47C310.2,407.9,310,407,309.5,406.3z"/>
		</g>
		<g>
			<path class="st1" d="M189.8,375.2l17.1,1.5l6,15.3c0,0,16.1,12.2,18.1,12.5s8.7-0.8,7.5,4.6h-47c0,0,1.7-12.3,6-16.9L189.8,375.2
				z"/>
			<path class="st2" d="M238.2,406.1H231v-1.7c-0.3-0.1-1-0.4-1.8-0.9v2.6h-26.6c0-1.9-0.3-7.6-3.2-12.2h12.5h3.8
				c-0.2-3.4-2.2-3.6-2.2-3.6h-17.1l0.8,1.8c-4.3,4.6-5.5,16.9-5.5,16.9h47C238.9,407.7,238.7,406.8,238.2,406.1z"/>
		</g>
		<g>
			<path class="st8" d="M197.3,86.7c0,0,9.4-0.9,11-1.1c0,0,3.7,9.2,10.7,8.4c8.9-1,10.3-10.1,10.3-10.1s5.4-0.7,7.2-0.4
				c1.8,0.3,11.4,3,11.6,10.6c0.2,7.6,0.7,85.1,3.6,93.5l-52.6,2.9c0,0-0.1-87.4-1.7-96.3C197.3,94.2,195.8,89.2,197.3,86.7z"/>
			<g>
				<path class="st9" d="M189.9,184.4c0,0-8.3,156-1.2,193.6h38.1c0,0,2.5-109.1,3.4-121.2c0,0,18.5,103.4,24.8,121.2h42.6
					c0,0-29.7-165.6-37.8-196.4L189.9,184.4z"/>
				<path class="st10" d="M197.3,86.7c0,0-18.1,1.9-21.5,5.5s-4.7,6-7.2,14.9s-4,22.4-10.3,25.8c0,0,2.5,26.2,0,37.6
					c0,0,3.1,3.1,5.2,2.4c2-0.7,15.7-10.8,19.3-18.5c0,0,3.4,11.3-1.3,27.9s-1.6,24.1-1.6,24.1s23.5,6,29.8,1.2
					c0,0,1.1-20.7-1.1-34.7c-2.2-14-0.2-54.9-3.4-67.7C202,92.5,197.3,86.7,197.3,86.7z"/>
				<path class="st10" d="M236.5,83.6c0,0,0.7,28.7-2.5,45.3c-3.1,16.6-2.4,36.8,1.3,53s7.5,17.8,7.5,17.8s23.7-1.9,27.5-3.9
					c0,0-6.5-16.6-6.7-21.9c0,0,4.3,2.9,10.8,2.9c0,0,1.1-1,1.1-2.9s1.1-24.6,7.4-32.3c0,0-12.1-39.2-16.1-46.5
					C262.7,87.9,236.5,83.6,236.5,83.6z"/>
			</g>
		</g>
		<g>
			<g>
				<path class="st6" d="M230.1,248.9c-4.3-21.7-7.8-63.2-7.8-63.7l1.2-0.1c0,0.4,3.6,41.9,7.8,63.5L230.1,248.9z"/>
			</g>
			<g>
				<path class="st6" d="M228.4,230.1l-0.8-0.9l6.1-6.1c0.5-0.5,0.7-1.2,0.7-2c-1.2-10-4.3-35.5-4.3-35.8l1.2-0.2
					c0,0.3,3,25.8,4.3,35.8c0.1,1.1-0.2,2.3-1,3.1L228.4,230.1z"/>
			</g>
		</g>
	</g>
	<g>
		<path class="st6" d="M263.1,174.1c-0.1-0.1-1.8-3.7-3.4-10.4c-1.5-6.1-3.1-16.1-2.5-28.8l1.2,0.1c-0.6,12.5,1,22.3,2.4,28.3
			c1.6,6.5,3.3,10.1,3.3,10.2L263.1,174.1z"/>
	</g>
</g>
<g>
	<path class="st11" d="M260.8,184h74.7c1.8,0,3.5,1.6,3.7,3.6l6.1,53.4h23.1c0.7,0,1.2,0.6,1.2,1.3v2.4c0,0.7-0.6,1.3-1.2,1.3h-25.3
		c-0.2,0-0.3,0-0.5,0h-74.7c-1.8,0-3.5-1.6-3.7-3.6l-6.3-55C257.6,185.6,258.9,184,260.8,184z"/>
	<polygon class="st12" points="341.1,236.6 267.9,236.6 262.5,190.4 335.6,190.4 	"/>
</g>
<g>
	<g>
		<path class="st1" d="M319,235.9c0,0-24.7-4.7-32.1,11.2l37.9,0.3l7-1.3v-14.6L319,235.9z"/>
		<g>
			<path class="st2" d="M292.4,246.7h-0.1c-0.1-0.1-0.2-0.3-0.1-0.4c0.1-0.2,1.7-3.8,5.6-6.1c0.1-0.1,0.3,0,0.4,0.1
				c0.1,0.2,0,0.4-0.1,0.4c-3.7,2.2-5.3,5.8-5.3,5.9C292.6,246.6,292.5,246.7,292.4,246.7z"/>
		</g>
		<g>
			<path class="st2" d="M302.1,247.6c-1.8,0-3.5-0.2-4.4-1c-0.4-0.4-0.7-0.8-0.7-1.3c-0.1-0.9,1.1-1.3,2.5-1.6
				c1.3-0.3,2.8-0.7,2.9-1.6c0.7-4.7,7.6-4.9,7.9-4.9l0,0c0.2,0,0.3,0.1,0.3,0.3s-0.1,0.3-0.3,0.3c-0.1,0-6.7,0.2-7.3,4.3
				c-0.2,1.3-1.9,1.7-3.3,2.1c-0.9,0.2-2.1,0.6-2.1,1c0,0.3,0.2,0.6,0.5,0.9c2.4,1.9,11.7-0.1,11.8-0.1c0.2,0,0.3,0.1,0.4,0.3
				c0,0.2-0.1,0.3-0.2,0.4C309.8,246.7,305.6,247.6,302.1,247.6z"/>
		</g>
	</g>
	<g>
		<g>
			<polygon class="st1" points="365.6,362 348.7,392.4 337.9,392.1 350.9,361.8 			"/>
		</g>
		<path class="st13" d="M320.5,402.4c0.4-0.1,0.8-0.3,1.3-0.4C321.3,402.2,320.9,402.4,320.5,402.4z"/>
		<path class="st2" d="M320.5,402.4c0.4-0.1,0.8-0.2,1.3-0.4c8.4-2.8,15.1-10.4,16.7-11.4c1.8,1.2,8.8,2.1,10.2,1.2
			c0.1-0.1,0.3-0.2,0.5-0.2c0.5,0.8,4.3,6.1,4,10c0,0.5-0.1,1-0.1,1.6l-0.3,6l-36.7,0.4C315.7,407.3,316.7,403.1,320.5,402.4z"/>
	</g>
	<g>
		<g>
			<polygon class="st1" points="336.2,325.8 319.2,356.2 308.4,355.8 321.4,325.6 			"/>
		</g>
		<path class="st13" d="M291.1,366.2c0.4-0.1,0.8-0.3,1.3-0.4C291.9,366,291.4,366.1,291.1,366.2z"/>
		<path class="st2" d="M291.1,366.2c0.4-0.1,0.8-0.2,1.3-0.4c8.4-2.8,15.1-10.4,16.7-11.4c1.8,1.2,8.8,2.1,10.2,1.2
			c0.1-0.1,0.3-0.2,0.5-0.2c0.5,0.8,4.3,6.1,4,10c0,0.5-0.1,1-0.1,1.6l-0.3,6l-36.7,0.4C286.2,371,287.2,366.8,291.1,366.2z"/>
	</g>
	<g>
		<g>
			<path class="st1" d="M446.5,168.9c-1.2-3.1-3.2-8.4-3.2-11.9c0,0,0.9-20.2-2.8-25.2c-3.8-5-21.4-7.3-30.1-5.7c0,0,0,11.7-1,14
				c-1.1,2.3-4.5,4.7-3.7,5.8c0.7,1.1,3.2,1.4,3.2,1.4l-0.1,2.6c0,0-0.2,10.9,0.7,12.1c0.8,1.2,11.8,2.9,14.4,2.5l-0.1,6.4
				C427.3,171.7,437.2,173.2,446.5,168.9z"/>
			<path class="st13" d="M413.2,128.4L413.2,128.4L413.2,128.4z"/>
			<path class="st13" d="M408.8,147.3c0,0,0,0.1-0.1,0.2C408.8,147.4,408.8,147.3,408.8,147.3z"/>
			<path class="st13" d="M410,163.7h-0.1C409.9,163.7,409.9,163.7,410,163.7z"/>
			<path class="st7" d="M450.1,121c-1.9-6.8-16.9-16.1-34.2-9.3c0,0-6.6,6.1-6.5,13.1c1.3,3.3,3.6,3.6,3.8,3.6l0,0l0,0l0,0
				c3.4,0.3,8.3,1.1,8.4,3c0.2,2.9,0,10.9,0,10.9s-0.1,1.5-0.3,3.4c0,0.2,0,0.4-0.1,0.6c-0.1,0.4-0.2,1.1-0.5,1.5
				c-0.5,0.8-1.6,2.1-3.1,2.2c-5.1,0.4-8.8-2.8-8.8-2.8s-0.6,3.2-0.5,6.1l0,0c0.1,2.6,0.3,5.8,0.4,6.6c0.2,1.3,0.3,3.3,1.1,3.7h0.1
				c2,0.6,12,1.9,13.8,0.8c1.8-1.1,3.5-5.2,3.3-10.3s-2.7-10.2-2.6-11.9c0,0,0-6.1,3.4-5.7c3.4,0.5,4,7.5,2.3,11.3
				c-1.7,3.9,0.9,7.9,0.9,7.9l12.2,1.1c0,0,3-12.9,5.3-16.8C450.9,136.4,452,127.8,450.1,121z"/>
		</g>
		<path class="st6" d="M408.2,152.5c0,0,4.4,1.5,7.9-0.3c0,0,1.6,0.2,1,1.4s-4.2,2.9-8.7,2.4L408.2,152.5z"/>
		<g>
			<path class="st2" d="M417.6,139.6c-0.3,0-0.5-0.1-0.7-0.4c-1.6-2.7-5.3-2.4-5.3-2.4c-0.4,0-0.8-0.3-0.8-0.8s0.3-0.9,0.7-0.9
				c0.2,0,4.6-0.4,6.8,3.2c0.2,0.4,0.1,0.9-0.2,1.2C417.9,139.6,417.8,139.6,417.6,139.6z"/>
		</g>
		<ellipse class="st2" cx="413.2" cy="140.6" rx="1.5" ry="1.6"/>
	</g>
	<g>
		<path class="st9" d="M357.6,292.9l-16.8,88.3l31.8,9.2l26.8-88.7c0,0-15-20.7-25-19.6C364.4,283.3,357.6,292.9,357.6,292.9z"/>
		<path class="st9" d="M433,264.8l-53.6-10c0,0-10.7-3.5-21.1,5c-10.4,8.5-47,73.4-47,73.4l22.7,20.3l15.3-17.3
			c0,0,10.1-49.1,22.2-45.7s23.6,22.3,34.7,24.2s62.4,9.4,73.1-1.7s3.2-34.6,0-39.6C476.1,268.5,433,264.8,433,264.8z"/>
		<path class="st10" d="M414.1,270.6c0,0-6.8-21.1-9.3-29.6c0,0-32,11.3-52.4,10.3c-20.4-0.9-24.3-0.4-24.3-0.4l1.1-20.9
			c0,0,19.5-7.4,41.9-13.2c0,0,18.4-39.9,49.1-46.5c0,0,24.7-4.2,30-3.1s11.4,6,19.1,23.2c9.3,20.7,16.8,82,13.9,82.2
			C470.4,273.7,414.1,270.6,414.1,270.6z"/>
	</g>
	<g>
		<path class="st6" d="M405.1,241.6l-0.6-1.1c0,0,4.2-2.5,8.8-7.2c4.3-4.3,9.8-11.5,12.1-21.3l1.2,0.3c-2.4,10-8.1,17.5-12.5,21.9
			C409.4,239.1,405.3,241.5,405.1,241.6z"/>
	</g>
</g>
<g>
	<g>
		<g>
			<path class="st14" d="M434.9,409.5c-0.7,0-1.2-0.6-1.2-1.3v-76.8c0-0.7,0.5-1.3,1.2-1.3s1.2,0.6,1.2,1.3v76.8
				C436.1,408.9,435.6,409.5,434.9,409.5z"/>
		</g>
		<g>
			<path class="st14" d="M464.7,409.5H406c-0.7,0-1.2-0.6-1.2-1.3c0-0.7,0.5-1.3,1.2-1.3h58.6c0.7,0,1.2,0.6,1.2,1.3
				C465.9,408.9,465.3,409.5,464.7,409.5z"/>
		</g>
	</g>
	<path class="st8" d="M393.7,328.9L393.7,328.9c0.1-0.3,0.2-0.7,0.3-1l0,0l0,0c0.1-0.2,0.1-0.4,0.2-0.7c0.9-2.3,3.3-5.3,3.3-5.3
		c4.4-5,18.4-22.2,18.4-22.2l13.8-72.7c0,0,0.9-8.5,3.8-9.4s60.7-3.8,62.8-1.9c2,1.9,4.4,3.8,3.5,9.4c-0.9,5.6-17.5,99.4-17.5,99.4
		s-0.6,4.4-4.4,5.6c-3.4,1.1-67.9,3-81.9,2l0,0C393.6,331.6,393.7,328.9,393.7,328.9z"/>
</g>
<g>
	<path class="st0" d="M43.5,109.8c4-3.9,6.5-9.3,6.5-15.3c0-11.8-9.5-21.3-21.3-21.3S7.3,82.7,7.3,94.5s9.5,21.3,21.3,21.3
		c2.9,0,5.7-0.6,8.3-1.7l8.6,5.1c0.4,0.3,1-0.2,0.8-0.7L43.5,109.8z"/>
	<g>
		<g>
			<path class="st2" d="M41.3,92.5H15.5c-0.3,0-0.5-0.2-0.5-0.5s0.2-0.5,0.5-0.5h25.8c0.3,0,0.5,0.2,0.5,0.5
				C41.9,92.3,41.6,92.5,41.3,92.5z"/>
		</g>
		<g>
			<path class="st2" d="M41.3,99.6H15.5c-0.3,0-0.5-0.2-0.5-0.5s0.2-0.5,0.5-0.5h25.8c0.3,0,0.5,0.2,0.5,0.5
				C41.9,99.3,41.6,99.6,41.3,99.6z"/>
		</g>
	</g>
</g>
<g>
	<g>
		<polygon class="st1" points="66.8,362.5 55.1,392.9 65.3,392.6 81.6,362.3 		"/>
	</g>
	<path class="st13" d="M84.1,402.9c-0.4-0.1-0.8-0.3-1.3-0.4C83.3,402.7,83.7,402.8,84.1,402.9z"/>
	<path class="st2" d="M84.1,402.9c-0.4-0.1-0.8-0.2-1.3-0.4c-8.4-2.8-15.1-10.4-16.7-11.4c-1.8,1.2-8.8,2.1-10.2,1.2
		c-0.1-0.1-0.3-0.2-0.5-0.2c-0.5,0.8-4.3,6.1-4,10c0,0.5,0.1,1,0.1,1.6l0.3,6l36.7,0.4C88.9,407.8,87.9,403.5,84.1,402.9z"/>
</g>
<g>
	<g>
		<polygon class="st1" points="118.1,361.5 106.5,392 116.7,391.6 132.9,361.4 		"/>
	</g>
	<path class="st13" d="M135.4,402c-0.4-0.1-0.8-0.3-1.3-0.4C134.6,401.8,135.1,401.9,135.4,402z"/>
	<path class="st2" d="M135.4,402c-0.4-0.1-0.8-0.2-1.3-0.4c-8.4-2.8-15.1-10.4-16.7-11.4c-1.8,1.2-8.8,2.1-10.2,1.2
		c-0.1-0.1-0.3-0.2-0.5-0.2c-0.5,0.8-4.3,6.1-4,10c0,0.5,0.1,1,0.1,1.6l0.3,6l36.7,0.4C140.3,406.8,139.3,402.6,135.4,402z"/>
</g>
<g>
	<path class="st1" d="M58.6,168c1.2-3.1,3.2-8.4,3.2-11.9c0,0-0.9-20.2,2.8-25.2c3.8-5,21.4-7.3,30.1-5.7c0,0,0,11.7,1,14
		c1.1,2.3,4.5,4.7,3.7,5.8c-0.7,1.1-3.2,1.4-3.2,1.4l0.1,2.6c0,0,0.2,10.9-0.7,12.1c-0.8,1.2-11.8,2.9-14.4,2.5l0.1,6.4
		C77.8,170.8,67.9,172.2,58.6,168z"/>
	<path class="st13" d="M92,127.5L92,127.5L92,127.5z"/>
	<path class="st7" d="M55,120c1.9-6.8,16.9-16.1,34.2-9.3c0,0,6.6,6.1,6.5,13.1c-1.3,3.3-3.6,3.6-3.8,3.6l0,0l0,0l0,0
		c-3.4,0.3-8.3,1.1-8.4,3c-0.2,2.9,0,10.9,0,10.9h-3c0,0,0-6.1-3.4-5.7c-3.4,0.5-4,7.5-2.3,11.3c1.7,3.9-0.9,7.9-0.9,7.9l-12.2,1.1
		c0,0-3-12.9-5.3-16.8C54.2,135.5,53.1,126.8,55,120z"/>
</g>
<g>
	<path class="st11" d="M157.2,184.1H82.4c-1.8,0-3.5,1.6-3.7,3.6l-6.1,53.4H49.5c-0.7,0-1.2,0.6-1.2,1.3v2.4c0,0.7,0.6,1.3,1.2,1.3
		h25.3c0.2,0,0.3,0,0.5,0H150c1.8,0,3.5-1.6,3.7-3.6l6.3-55C160.3,185.7,159,184.1,157.2,184.1z"/>
	<polygon class="st12" points="76.8,236.7 150,236.7 155.4,190.5 82.3,190.5 	"/>
</g>
<path class="st10" d="M81.3,166.2c0,0,24,4.1,31.3,13.3c7.4,9.2,36.9,38.5,53.7,43.5c16.7,5,29.6,7.9,29.6,7.9s1.9,10.9,0,15.9
	h-62.6c0,0-20.6-7.5-24.5-13c0,0,2.3,24.8,1.6,36c-0.9,13.2-4.7,39.3-4.7,39.3H22.1v-72.3c0,0,0.8-48.9,9.3-60.6
	c8.6-11.7,28.5-11.6,28.5-11.6S65,175.8,81.3,166.2z"/>
<path class="st9" d="M108,285.5c0,0,36.9,1.2,51.5,2.8c14.6,1.6,16.3,16.6,14.3,22.3c-2,5.6-33.5,71.2-41.4,80.6l-27.1-6.3
	c0,0,17.2-43.9,23.3-56.8H26.8c0,0-4.4-27.6,0-35.1S62.6,283.2,108,285.5z"/>
<polygon class="st9" points="109.4,326.7 81.4,389.1 51.7,387.2 72.7,328 "/>
<path class="st15" d="M196.7,230.6h5.7c0,0,5-6.3,9.5-6.3s13.1,0,14,2.7c0.7,2.1-2,2.9-2,2.9s4.8-0.7,5.1,2.2
	c0.3,2.5-2.7,2.9-2.7,2.9s2.5-0.3,2.4,2.5c0,2.8-3.7,2.4-3.7,2.4s3.1,0.4,1.4,3.7c-0.9,1.7-5.2,0-5.2,0s3.6,1.9,1.7,3.1
	c-1.9,1.3-26.2,0-26.2,0V230.6z"/>
<path class="st6" d="M96.4,151.4c0,0-4.3,1.6-7.9,0c0,0-1.6,0.3-0.9,1.5c0.6,1.2,4.2,2.8,8.7,2.1L96.4,151.4z"/>
<g>
	<path class="st2" d="M87.5,138.7c-0.1,0-0.3,0-0.4-0.1c-0.4-0.2-0.5-0.8-0.2-1.2c2.1-3.6,6.6-3.2,6.8-3.2c0.4,0,0.7,0.5,0.7,0.9
		c0,0.5-0.4,0.8-0.8,0.8c-0.1,0-3.7-0.3-5.3,2.4C88,138.5,87.7,138.7,87.5,138.7z"/>
</g>
<ellipse class="st2" cx="92" cy="139.6" rx="1.5" ry="1.6"/>
<g>
	<path class="st6" d="M108.3,234.2c-0.1-0.1-2.2-3.5-4.4-8.7c-2-4.8-4.5-12.2-4.9-19.9l1.2-0.1c0.8,14.5,9,27.8,9.1,28L108.3,234.2z
		"/>
</g>
<g>
	<path class="st2" d="M217.6,230.9c-0.3,0-0.6-0.3-0.6-0.6c0-0.4,0.3-0.6,0.6-0.6c1.1,0,6.7-0.3,6.7-0.3c0.3,0,0.6,0.3,0.6,0.6
		c0,0.4-0.2,0.7-0.6,0.7C224.1,230.6,218.7,230.9,217.6,230.9z"/>
</g>
<g>
	<path class="st2" d="M223.1,235.7c-0.9,0-1.7,0-2.2,0c-0.3,0-0.6-0.3-0.6-0.7s0.3-0.6,0.6-0.6c1.5,0.1,5.8,0,5.8,0l0,0
		c0.3,0,0.6,0.3,0.6,0.6c0,0.4-0.3,0.6-0.6,0.7C226.6,235.6,224.8,235.7,223.1,235.7z"/>
</g>
<g>
	<path class="st2" d="M225.5,240.5h-4.8c-0.3,0-0.6-0.3-0.6-0.6s0.3-0.6,0.6-0.6h4.8c0.3,0,0.6,0.3,0.6,0.6S225.8,240.5,225.5,240.5
		z"/>
</g>
<g>
	<path class="st2" d="M221.7,244.3C221.6,244.3,221.6,244.3,221.7,244.3l-2.6-0.3c-0.3,0-0.6-0.4-0.5-0.7c0-0.4,0.3-0.6,0.7-0.6
		l2.5,0.3c0.3,0,0.6,0.4,0.5,0.7C222.2,244,222,244.3,221.7,244.3z"/>
</g>
<g>
	<path class="st6" d="M70.7,174.5c-13.6-0.2-15.7-7.1-15.7-7.4l1.2-0.4l-0.6,0.2l0.6-0.2c0,0,0.5,1.6,2.5,3.1
		c1.9,1.5,5.5,3.2,12.1,3.3L70.7,174.5z"/>
</g>
<g>
	<path class="st6" d="M128.7,328.7l-0.2-1.3c0.1,0,13.8-2.5,26.9-13.1l0.7,1c-7,5.7-14.1,9-18.8,10.8
		C132.3,328.1,128.8,328.7,128.7,328.7z"/>
</g>
<g>
	<path class="st6" d="M147.6,323.3c-2.1,0-3.3-0.4-3.4-0.4l0.3-1.2c0,0,4.6,1.3,12.3-1.5l0.4,1.2
		C153.1,322.9,149.8,323.3,147.6,323.3z"/>
</g>
<g>
	<g>
		<path class="st14" d="M60.5,409c-0.7,0-1.2-0.6-1.2-1.3v-76.8c0-0.7,0.5-1.3,1.2-1.3s1.2,0.6,1.2,1.3v76.8
			C61.7,408.4,61.2,409,60.5,409z"/>
	</g>
	<g>
		<path class="st14" d="M90.3,409H31.7c-0.7,0-1.2-0.6-1.2-1.3c0-0.7,0.5-1.3,1.2-1.3h58.6c0.7,0,1.2,0.6,1.2,1.3S91,409,90.3,409z"
			/>
	</g>
	<path class="st8" d="M1.6,237.3c0,0-3.1-8.4,0-10.9s55.2-2.1,60.7-2.1c5.4,0,7,2.5,9.3,10c2.3,7.5,22.2,90.7,22.2,90.7h35.8v6.3
		c0,0-30.7,5-36.2,5c-5.4,0-64.2,0-64.2,0s-3.9-0.4-4.7-2.5C23.7,331.8,1.6,237.3,1.6,237.3z"/>
</g>
<g>
	<path class="st0" d="M277.5,75.8c-4-3.9-6.5-9.3-6.5-15.3c0-11.8,9.5-21.3,21.3-21.3s21.3,9.5,21.3,21.3s-9.5,21.3-21.3,21.3
		c-2.9,0-5.7-0.6-8.3-1.7l-8.6,5.1c-0.4,0.3-1-0.2-0.8-0.7L277.5,75.8z"/>
	<g>
		<g>
			<path class="st2" d="M279.6,58.5h25.8c0.3,0,0.5-0.2,0.5-0.5s-0.2-0.5-0.5-0.5h-25.8c-0.3,0-0.5,0.2-0.5,0.5
				S279.3,58.5,279.6,58.5z"/>
		</g>
		<g>
			<path class="st2" d="M279.6,65.6h25.8c0.3,0,0.5-0.2,0.5-0.5s-0.2-0.5-0.5-0.5h-25.8c-0.3,0-0.5,0.2-0.5,0.5
				C279.1,65.3,279.3,65.6,279.6,65.6z"/>
		</g>
	</g>
</g>
<g class="st16">
	<g class="st17">
		<g>
			<g>
				<path class="st9" d="M38.8,226.9c6.6-8.4,8.8-13.4,12.4-20.7s10.1-5.2,8.8,0.5s-0.5,22.1-2.3,36.7c-1.2,9.6-6.9,12.4-10.7,13.2
					c-0.6,0-4,0.1-5.7-1C31.3,249.1,32.6,234.7,38.8,226.9z"/>
				<path class="st9" d="M53.8,296.2L53.8,296.2c3.2-3.8,8.8-7.5,14.5-5.9c8.6,2.5,12.1-4.1,21,0.9c6.9,3.9,3.2,12.6-1.1,15.7
					c-1.8,0.9-3.7,0.9-4.6,0.9c-5.2-0.8-13.3,3.7-19.6,6.4c-5.8,2.5-10.8-3.1-12-4.6c-2.3-3.3-0.8-8.4-0.1-10.4
					C52.4,298,53.8,296.2,53.8,296.2z"/>
				<path class="st9" d="M9.5,313c4.1,4.1,15.4,9.4,21.9,13.9c4.5,3.1,4.3,8.3,3.8,11.1l0,0c0,0-0.4,1.8-1,2.9
					c-1.7,2.8-3.2,5.1-7.6,5.6c-5.4,0.6-11.1-8.2-13.7-15.1c-2.7-6.9-11.1-11.6-12.6-16.9S5.3,308.9,9.5,313z"/>
				<path class="st9" d="M21.4,307.3c0,0,4.5,6.1,12.6,0.9s5.1-19.4,0-26s-10.6-18-10.6-26.7c0-8.7-4-23-13.3-18.3
					s-2.5,15.7,0.5,22.6c3,6.9,4.6,17.6,4.3,24.2C14.6,290.5,15.8,301.2,21.4,307.3z"/>
				<path class="st9" d="M51.5,353.1c0,0,6.7,6.2,11.2-1.4s4.9-14.1,8.6-19.8c3.6-5.7,2-14.8-3.9-12.9s-6.1,9.5-9.2,12.6
					c-3.1,3.2-8.6,8.5-9.2,12.8C48.4,347.8,48.4,350,51.5,353.1z"/>
				<path class="st9" d="M53.6,279.7c0,0,8,7.5,13.5-1.7s6-16.9,10.3-23.9c4.3-6.9,2.4-17.8-4.7-15.6s-7.4,11.4-11.1,15.2
					c-3.7,3.8-10.4,10.3-11.1,15.4C49.9,273.4,49.8,276,53.6,279.7z"/>
				<path class="st10" d="M5.6,318.2c0-0.1,0.1-0.1,0.1-0.1c0.1,0,0.1,0,0.2,0l2.9,1.2c-1.6-2.1-2.5-3.3-2.5-3.3s-0.1-0.1,0-0.2
					c0-0.1,0-0.1,0.1-0.2s0.2-0.1,0.3,0c0,0,3.2,4.5,8.4,10.7v-7.2c0-0.1,0.1-0.2,0.2-0.2c0.1,0,0.2,0.1,0.2,0.2v7.7
					c4.2,5.1,8.4,9.8,12.4,14l-0.3-9.5c0-0.1,0.1-0.2,0.2-0.2l0,0c0.1,0,0.2,0.1,0.2,0.2l0.3,10l0,0c4.3,4.5,8.4,8.4,12.3,11.6
					c-0.6-10.3-0.9-20.9-0.9-31.4c-3.3-4.7-6.6-11.2-10-19.2l-9.9-7.7c-0.1-0.1-0.1-0.2-0.1-0.3c0-0.1,0.1-0.1,0.1-0.1
					c0.1,0,0.1,0,0.2,0l9.3,7.2c-3.1-7.7-6.2-16.6-9.2-26.7c-0.5-1.8-1-3.6-1.6-5.4l-3.6-3.5c0,0-0.1-0.1-0.1-0.2s0-0.1,0.1-0.2
					s0.2-0.1,0.3,0l3,3c-3.7-13.3-5.9-23.5-5.9-23.6s0-0.1,0-0.2c0-0.1,0.1-0.1,0.1-0.1c0.1,0,0.1,0,0.2,0l0.1,0.1
					c0,0,0.7,3.4,2,8.7l2.4-7c0-0.1,0.1-0.1,0.1-0.1c0.1,0,0.1,0,0.2,0s0.1,0.1,0.1,0.1c0,0.1,0,0.1,0,0.2l-2.6,7.6
					c1.2,5,2.5,10,3.9,14.8c0,0,0.1,0.1,0,0.2c0.5,1.8,1,3.6,1.5,5.4c1.2,4.1,2.4,8,3.7,11.8l0.5-11.8c0-0.1,0-0.1,0.1-0.2
					c0,0,0.1-0.1,0.2-0.1s0.1,0,0.2,0.1c0,0,0.1,0.1,0.1,0.2l-0.5,13c5,14.8,10.1,25.9,15,33.2c0-4.7,0.1-9.4,0.3-14
					c0.7-17.2,2.2-34.6,4.7-51.6c0.3-2.1,0.6-4.3,1-6.4l-4.1-10.8c0-0.1,0-0.3,0.1-0.3s0.1,0,0.2,0c0.1,0,0.1,0.1,0.1,0.1L46,248
					c0.5-3.2,1.1-6.4,1.6-9.5v-0.1c0.9-4.7,1.8-9.3,2.8-13.7l-2.2-5.8c0-0.1,0-0.1,0-0.2c0-0.1,0.1-0.1,0.1-0.1c0.1,0,0.1,0,0.2,0
					c0.1,0,0.1,0.1,0.1,0.1l2,5.2c2.3-10.2,4-15.9,4-15.9c0-0.1,0.2-0.2,0.3-0.2s0.2,0.2,0.1,0.3c0,0-0.7,2.4-1.8,6.8l2.6-2.7
					c0,0,0.1-0.1,0.2-0.1c0.1,0,0.1,0,0.2,0.1c0.1,0.1,0.1,0.2,0,0.3l-3.2,3.3c-1.2,4.7-2.9,12.3-4.7,22l7.3-7.8
					c0,0,0.1-0.1,0.2-0.1l0,0c0.1,0,0.1,0,0.2,0.1c0,0,0.1,0.1,0.1,0.2c0,0.1,0,0.1-0.1,0.2l-7.8,8.2c-1,5.5-1.9,11.2-2.8,16.8
					c-1.6,10.9-2.8,22.2-3.7,33.4c5.4-2.9,10.7-7.5,15.7-13.7V265c0-0.1,0.1-0.2,0.2-0.2c0.1,0,0.2,0.1,0.2,0.2v9.5
					c3-3.8,5.9-8.2,8.5-13c0.1-0.1,0.1-0.3,0.2-0.4l-0.9-6.8c0-0.1,0.1-0.2,0.2-0.3c0.1,0,0.2,0.1,0.2,0.2l0.8,6.2
					c2.9-5.5,5.1-10.5,6.3-13.7l-0.6-3c0-0.1,0-0.1,0-0.2c0-0.1,0.1-0.1,0.1-0.1c0.1,0,0.2,0.1,0.3,0.2l0.4,2.3
					c0.8-2.2,1.3-3.5,1.3-3.5c0-0.1,0.2-0.2,0.3-0.1c0.1,0,0.2,0.2,0.1,0.3c0,0-0.5,1.6-1.5,4.2v0.1c-0.9,2.4-2,4.8-3.1,7.2l3.5-2
					c0.1-0.1,0.2,0,0.3,0.1c0.1,0.1,0,0.3-0.1,0.3l-4,2.3c-1,2.2-2.1,4.3-3.2,6.3v0.1c-0.1,0.1-0.2,0.3-0.2,0.4
					c-1.3,2.3-2.6,4.5-4,6.6l6.1-2.6c0.1,0,0.1,0,0.2,0s0.1,0.1,0.1,0.1c0,0.1,0,0.3-0.1,0.3l-6.7,2.8c-1.4,2.2-3,4.3-4.5,6.2
					c0,0.1-0.1,0.1-0.1,0.1c-5.1,6.4-10.5,11.1-16.1,13.9c-0.5,6.7-0.9,13.4-1.1,20.1c4.1,0,9.5-1,16.2-2.8l4.1-9.6
					c0-0.1,0.1-0.1,0.1-0.1c0.1,0,0.1,0,0.2,0c0.1,0.1,0.2,0.2,0.1,0.3l-3.9,9.2c3.9-1.1,8.1-2.4,12.7-4.1l2.5-5.2
					c0-0.1,0.1-0.1,0.1-0.1c0.1,0,0.1,0,0.2,0c0.1,0.1,0.1,0.2,0.1,0.3l-2.3,4.8c5.1-1.8,9.7-3.7,12.6-4.9l2.6-4.3
					c0.1-0.1,0.2-0.1,0.3-0.1c0.1,0.1,0.1,0.2,0.1,0.3l-2.3,3.8c2.2-0.9,3.4-1.5,3.5-1.5s0.2,0,0.3,0.1c0,0.1,0,0.3-0.1,0.3
					c0,0-4,1.8-9.7,4l4.4,0.6c0.1,0,0.2,0.1,0.2,0.3c0,0.1-0.1,0.2-0.2,0.2l-5.2-0.7c0,0,0,0-0.1,0c-5.1,2-10,3.7-14.5,5.1l8.7,2.4
					c0.1,0,0.2,0.2,0.2,0.3c0,0.1-0.1,0.2-0.2,0.2c0,0,0,0-0.1,0l-9.4-2.6l0,0c-8.9,2.7-16,4.2-21,4.2c-0.6,17.7-0.1,35.2,1.3,52.1
					c4.3-2.3,8.5-5.9,12.5-10.8l0,0v-8.2c0-0.1,0.1-0.2,0.2-0.2c0.1,0,0.2,0.1,0.2,0.2v7.7c2.5-3.1,4.8-6.7,7-10.6l0,0l-0.7-5.5
					c0-0.1,0.1-0.2,0.2-0.3c0.1,0,0.1,0,0.2,0c0,0,0.1,0.1,0.1,0.2l0.6,4.9c2.4-4.4,4.1-8.4,5.1-11l-0.5-2.5c0-0.1,0-0.1,0-0.2
					s0.1-0.1,0.1-0.1c0.1,0,0.1,0,0.2,0c0,0,0.1,0.1,0.1,0.2l0.3,1.8c0.7-1.7,1-2.8,1-2.8c0-0.1,0.2-0.2,0.3-0.1
					c0.1,0,0.1,0.1,0.1,0.1c0,0.1,0,0.1,0,0.2c0,0-1.3,4-3.8,9.4l2.7-1.5c0.1-0.1,0.2,0,0.3,0.1c0.1,0.1,0,0.3-0.1,0.3l-3.2,1.8
					c-0.9,1.8-1.8,3.6-2.7,5.3c-1,1.9-2.1,3.7-3.2,5.4l4.8-2.1c0.1,0,0.1,0,0.2,0c0.1,0,0.1,0.1,0.1,0.1c0,0.1,0,0.1,0,0.2
					s-0.1,0.1-0.1,0.1l-5.4,2.3l0,0c-5.1,7.7-10.7,13.2-16.6,16.2c0.2,2.6,0.5,5.2,0.7,7.7c0,0.1-0.1,0.2-0.2,0.3l0,0
					c-0.1,0-0.2-0.1-0.2-0.2c-0.6-5.4-1-11-1.4-16.6c-5.9-4.9-12.3-11.2-19-18.7l0,0l-5.4-1.3c-0.1,0-0.1-0.1-0.1-0.1
					c0-0.1,0-0.1,0-0.2s0-0.1,0.1-0.1c0,0,0.1,0,0.2,0l4.8,1.2c-5.1-5.7-9.2-11-11.8-14.4l-3.6-1.5c-0.1,0-0.1-0.1-0.1-0.1
					C5.6,318.3,5.6,318.2,5.6,318.2z"/>
			</g>
		</g>
	</g>
	<rect x="22" y="367.1" class="st18" width="39.1" height="42"/>
</g>
<polygon class="st14" points="119,246 119,252.3 147.3,252.3 147.3,409.6 150.7,409.6 150.7,252.3 345.4,252.3 345.4,409.6 
	348.8,409.6 348.8,252.3 377.6,252.3 377.6,246 "/>
</svg>
