<?xml version="1.0" encoding="utf-8"?>
<!-- Generator: Adobe Illustrator 27.0.0, SVG Export Plug-In . SVG Version: 6.00 Build 0)  -->
<svg version="1.1" id="圖層_1" xmlns="http://www.w3.org/2000/svg" xmlns:xlink="http://www.w3.org/1999/xlink" x="0px" y="0px"
	 viewBox="0 0 800 800" style="enable-background:new 0 0 800 800;" xml:space="preserve">
<style type="text/css">
	.st0{fill:#292929;}
	.st1{fill:none;stroke:#292929;stroke-width:54;stroke-linecap:round;stroke-linejoin:round;}
</style>
<path class="st0" d="M566.7,437.7v123.2h-71.4v-115c0-28.9-10.3-48.6-36.2-48.6c-19.7,0-31.5,13.3-36.7,26.1
	c-1.9,4.6-2.4,11-2.4,17.4v120h-71.5c0,0,1-194.7,0-214.9H420v30.4l-0.5,0.7h0.5v-0.7c9.5-14.7,26.4-35.5,64.4-35.5
	C531.4,340.9,566.7,371.7,566.7,437.7L566.7,437.7z M273.8,242.4c-24.4,0-40.4,16.1-40.4,37.1c0,20.7,15.5,37.2,39.5,37.2h0.5
	c24.9,0,40.4-16.5,40.4-37.2C313.3,258.4,298.2,242.4,273.8,242.4L273.8,242.4z M237.6,560.9H309V346h-71.5v214.9H237.6z"/>
<path class="st1" d="M591.6,699.1H208.4c-59.4,0-107.5-48.1-107.5-107.5V208.4c0-59.4,48.1-107.5,107.5-107.5h383.1
	c59.4,0,107.5,48.1,107.5,107.5v383.1C699.1,650.9,650.9,699.1,591.6,699.1z"/>
</svg>
