<svg width="60" height="60" viewBox="0 0 60 60" fill="none" xmlns="http://www.w3.org/2000/svg">
<path d="M30 59C46.0163 59 59 46.0163 59 30C59 13.9837 46.0163 1 30 1C13.9837 1 1 13.9837 1 30C1 46.0163 13.9837 59 30 59Z" fill="#FFCB30"/>
<path d="M29.5186 39.332C27.9691 39.332 26.6188 39.0111 25.4678 38.3691C23.7412 37.3952 22.8779 35.9785 22.8779 34.1191C22.8779 33.6543 22.9443 33.1784 23.0771 32.6914C23.6305 30.8099 25.0693 29.515 27.3936 28.8066C27.1279 28.6517 26.8734 28.5078 26.6299 28.375C24.527 27.0469 23.4756 25.5417 23.4756 23.8594C23.4756 22.5977 23.863 21.5241 24.6377 20.6387C25.833 19.2884 27.5706 18.6133 29.8506 18.6133C30.9795 18.6133 31.9977 18.8125 32.9053 19.2109C34.8089 20.0299 35.7607 21.4355 35.7607 23.4277C35.7607 23.7155 35.7275 24.0033 35.6611 24.291C35.3291 25.9733 34.2666 27.3014 32.4736 28.2754C33.0049 28.5853 33.4697 28.862 33.8682 29.1055C35.9268 30.4557 36.9561 31.9941 36.9561 33.7207C36.9339 35.1374 36.3805 36.3548 35.2959 37.373C33.835 38.679 31.9092 39.332 29.5186 39.332ZM26.4971 22.5645C26.4971 23.5384 26.8844 24.4238 27.6592 25.2207C28.279 25.8405 29.5739 26.6927 31.5439 27.7773C31.8981 27.6003 32.2191 27.401 32.5068 27.1797C33.9014 26.1615 34.5986 24.9108 34.5986 23.4277C34.5986 22.5866 34.3662 21.8451 33.9014 21.2031C33.0824 20.1185 31.8649 19.5762 30.249 19.5762C29.7178 19.5762 29.2197 19.6426 28.7549 19.7754C27.2497 20.1738 26.4971 21.1035 26.4971 22.5645ZM24.04 34.0527C24.04 35.071 24.3831 35.9674 25.0693 36.7422C26.0654 37.8268 27.4268 38.3691 29.1533 38.3691C29.9281 38.3691 30.6364 38.2695 31.2783 38.0703C33.027 37.5169 33.9014 36.4212 33.9014 34.7832C33.8792 33.7428 33.3812 32.7689 32.4072 31.8613C31.8096 31.3522 30.5036 30.5443 28.4893 29.4375C27.5817 29.6367 26.7848 29.9577 26.0986 30.4004C24.7262 31.3301 24.04 32.5475 24.04 34.0527Z" fill="#1B1C2B"/>
</svg>
