<svg width="60" height="60" viewBox="0 0 60 60" fill="none" xmlns="http://www.w3.org/2000/svg">
<path d="M30 59C46.0163 59 59 46.0163 59 30C59 13.9837 46.0163 1 30 1C13.9837 1 1 13.9837 1 30C1 46.0163 13.9837 59 30 59Z" fill="#FFCB30"/>
<path d="M37.3545 32.8242C37.3545 34.3073 36.9118 35.6243 36.0264 36.7754C34.654 38.4798 32.695 39.332 30.1494 39.332C28.6663 39.332 27.3714 38.9336 26.2646 38.1367C24.0068 36.5208 22.8779 33.5879 22.8779 29.3379C22.8779 26.8587 23.3317 24.7337 24.2393 22.9629C25.7002 20.0632 28.0355 18.6133 31.2451 18.6133C32.6175 18.6133 33.8239 18.8568 34.8643 19.3438C36.3031 20.0078 37.0225 20.9264 37.0225 22.0996C37.0225 22.2767 37.0003 22.4538 36.9561 22.6309C36.7568 23.5384 36.1813 23.9922 35.2295 23.9922C34.7646 23.9922 34.3883 23.9036 34.1006 23.7266C33.7464 23.4609 33.5029 22.8522 33.3701 21.9004C33.3258 21.4798 33.2705 21.1699 33.2041 20.9707C32.9606 19.9746 32.1969 19.4766 30.9131 19.4766C30.0941 19.4766 29.3968 19.709 28.8213 20.1738C27.471 21.2363 26.6963 23.8594 26.4971 28.043C27.7809 27.1354 29.2308 26.6706 30.8467 26.6484C32.3076 26.6484 33.6025 27.0026 34.7314 27.7109C36.4801 28.862 37.3545 30.5664 37.3545 32.8242ZM26.3975 33.2227C26.3975 33.776 26.4307 34.3073 26.4971 34.8164C26.8955 37.2513 28.124 38.4688 30.1826 38.4688C32.6618 38.4466 33.9124 36.5651 33.9346 32.8242C33.9124 29.4375 32.695 27.722 30.2822 27.6777C29.9059 27.6777 29.5518 27.722 29.2197 27.8105C27.3382 28.3639 26.3975 30.168 26.3975 33.2227Z" fill="#1B1C2B"/>
</svg>
