<?xml version="1.0" encoding="utf-8"?>
<!-- Generator: Adobe Illustrator 27.0.0, SVG Export Plug-In . SVG Version: 6.00 Build 0)  -->
<svg version="1.1" id="圖層_1" xmlns="http://www.w3.org/2000/svg" xmlns:xlink="http://www.w3.org/1999/xlink" x="0px" y="0px"
	 viewBox="0 0 60 60" style="enable-background:new 0 0 60 60;" xml:space="preserve">
<style type="text/css">
	.st0{fill:#2E36CB;}
	.st1{fill:#434343;}
	.st2{fill:#FCFAF2;}
</style>
<circle id="Oval" class="st0" cx="30" cy="30" r="29"/>
<path id="path-1" class="st1" d="M29.6,39.9c4.2,0,6.8-2,6.8-5.4c0-3-2-4.7-6-5v-0.2c3.5-0.4,5.5-2.1,5.5-4.7c0-1.2-0.5-2.4-1.4-3.2
	c-1.1-0.9-2.8-1.4-4.6-1.4c-3.5,0-6.1,1.9-6.1,4.3c0,0.8,0.6,1.3,1.8,1.3c0.6,0,1.1-0.1,1.4-0.4c0.2-0.3,0.3-0.4,0.3-1.3
	c0-0.8,0.2-1.5,0.5-2.1c0.4-0.7,1.1-1.1,2.1-1.1c1.8,0,2.8,1.4,2.8,3.9c0,2.9-1.5,4.5-4.5,4.5h-0.7v0.8h0.8c1.4,0,2.7,0.3,3.4,0.8
	c0.9,0.7,1.4,2,1.4,3.8c0,3-1.2,4.8-3.4,4.8c-0.9,0-1.7-0.3-2.1-0.9c-0.4-0.5-0.7-1.4-0.7-2.1c-0.1-1.2-0.1-1.2-0.2-1.5
	c-0.2-0.3-0.7-0.5-1.3-0.5c-1.2,0-1.9,0.6-1.9,1.6C23.3,38.2,25.9,39.9,29.6,39.9z"/>
<path id="path-1_00000181051578380036008830000013677134088860418737_" class="st2" d="M29.6,39.9c4.2,0,6.8-2,6.8-5.4
	c0-3-2-4.7-6-5v-0.2c3.5-0.4,5.5-2.1,5.5-4.7c0-1.2-0.5-2.4-1.4-3.2c-1.1-0.9-2.8-1.4-4.6-1.4c-3.5,0-6.1,1.9-6.1,4.3
	c0,0.8,0.6,1.3,1.8,1.3c0.6,0,1.1-0.1,1.4-0.4c0.2-0.3,0.3-0.4,0.3-1.3c0-0.8,0.2-1.5,0.5-2.1c0.4-0.7,1.1-1.1,2.1-1.1
	c1.8,0,2.8,1.4,2.8,3.9c0,2.9-1.5,4.5-4.5,4.5h-0.7v0.8h0.8c1.4,0,2.7,0.3,3.4,0.8c0.9,0.7,1.4,2,1.4,3.8c0,3-1.2,4.8-3.4,4.8
	c-0.9,0-1.7-0.3-2.1-0.9c-0.4-0.5-0.7-1.4-0.7-2.1c-0.1-1.2-0.1-1.2-0.2-1.5c-0.2-0.3-0.7-0.5-1.3-0.5c-1.2,0-1.9,0.6-1.9,1.6
	C23.3,38.2,25.9,39.9,29.6,39.9z"/>
</svg>
