<?xml version="1.0" encoding="utf-8"?>
<!-- Generator: Adobe Illustrator 27.0.0, SVG Export Plug-In . SVG Version: 6.00 Build 0)  -->
<svg version="1.1" id="圖層_1" xmlns="http://www.w3.org/2000/svg" xmlns:xlink="http://www.w3.org/1999/xlink" x="0px" y="0px"
	 viewBox="0 0 60 60" style="enable-background:new 0 0 60 60;" xml:space="preserve">
<style type="text/css">
	.st0{fill:#FFCB30;}
	.st1{fill:#434343;}
	.st2{fill:#1B1C2B;}
</style>
<circle id="Oval" class="st0" cx="30.5" cy="30.4" r="29"/>
<path id="path-1" class="st1" d="M36.2,39.5v-0.7c-2,0-2.3-0.4-2.3-2.5v-1.8h2.8v-1.2h-2.8v-13h-2.4l-9.1,12.9v1.2h8.4v1.8
	c0,1.2-0.2,1.9-0.5,2.2c-0.3,0.3-0.6,0.3-1.8,0.4v0.7H36.2z M30.8,33.2h-7.2l7.2-10.3V33.2z"/>
<path id="path-1_00000181076652689819989700000005575685740336382868_" class="st2" d="M36.2,39.5v-0.7c-2,0-2.3-0.4-2.3-2.5v-1.8
	h2.8v-1.2h-2.8v-13h-2.4l-9.1,12.9v1.2h8.4v1.8c0,1.2-0.2,1.9-0.5,2.2c-0.3,0.3-0.6,0.3-1.8,0.4v0.7H36.2z M30.8,33.2h-7.2l7.2-10.3
	V33.2z"/>
</svg>
