<?xml version="1.0" encoding="utf-8"?>
<!-- Generator: Adobe Illustrator 27.0.0, SVG Export Plug-In . SVG Version: 6.00 Build 0)  -->
<svg version="1.1" id="圖層_1" xmlns="http://www.w3.org/2000/svg" xmlns:xlink="http://www.w3.org/1999/xlink" x="0px" y="0px"
	 viewBox="0 0 60 60" style="enable-background:new 0 0 60 60;" xml:space="preserve">
<style type="text/css">
	.st0{fill:#FFCB30;}
	.st1{fill:#1B1C2B;}
</style>
<circle id="Oval" class="st0" cx="30" cy="30" r="29"/>
<g id="_x31_">
	<g>
		<path id="path-1" class="st1" d="M34.4,39.5v-0.7c-1.3,0-1.6-0.1-2-0.4c-0.5-0.4-0.6-1-0.6-2.6v-9.2c0-2.5,0.1-4.7,0.2-6.6
			c-1.7,0.3-3.6,0.6-6.1,0.8v0.7h0.7c1.3,0,1.7,0.1,1.8,0.7l0,0l0,0v0.1c0,0.2,0,0.3,0.1,1.5v12c0,1.7-0.2,2.3-0.8,2.7
			c-0.4,0.2-0.8,0.3-2,0.3v0.7H34.4z"/>
	</g>
	<g>
		<path id="path-1_00000146475026968172328720000008129687910670049178_" class="st1" d="M34.4,39.5v-0.7c-1.3,0-1.6-0.1-2-0.4
			c-0.5-0.4-0.6-1-0.6-2.6v-9.2c0-2.5,0.1-4.7,0.2-6.6c-1.7,0.3-3.6,0.6-6.1,0.8v0.7h0.7c1.3,0,1.7,0.1,1.8,0.7l0,0l0,0v0.1
			c0,0.2,0,0.3,0.1,1.5v12c0,1.7-0.2,2.3-0.8,2.7c-0.4,0.2-0.8,0.3-2,0.3v0.7H34.4z"/>
	</g>
</g>
</svg>
