<svg width="60" height="60" viewBox="0 0 60 60" fill="none" xmlns="http://www.w3.org/2000/svg">
<path d="M30 59C46.0163 59 59 46.0163 59 30C59 13.9837 46.0163 1 30 1C13.9837 1 1 13.9837 1 30C1 46.0163 13.9837 59 30 59Z" fill="#FFCB30"/>
<path d="M37.0889 35.1816C37.0889 36.709 36.6019 38.0371 35.6279 39.166C34.167 40.8262 32.0752 41.6562 29.3525 41.6562C27.9359 41.6562 26.7074 41.3796 25.667 40.8262C24.1618 40.0072 23.4092 38.8893 23.4092 37.4727C23.4092 37.3177 23.4202 37.1517 23.4424 36.9746C23.6416 36.0892 24.2282 35.6465 25.2021 35.6465C25.6891 35.6465 26.0876 35.7572 26.3975 35.9785C26.7738 36.2884 27.0062 36.9967 27.0947 38.1035C27.139 38.6126 27.1833 38.9779 27.2275 39.1992C27.4489 40.2617 28.1572 40.793 29.3525 40.793C30.0166 40.793 30.6253 40.6712 31.1787 40.4277C32.8389 39.6751 33.6689 37.9707 33.6689 35.3145C33.6689 34.4954 33.5583 33.7428 33.3369 33.0566C32.7171 31.1973 31.4443 30.2676 29.5186 30.2676C28.2126 30.2676 27.0062 30.7214 25.8994 31.6289L24.8037 30.7988V21.2695C25.4899 21.2917 26.4417 21.3249 27.6592 21.3691C29.4521 21.4577 30.6696 21.502 31.3115 21.502C32.3519 21.502 33.1266 21.4355 33.6357 21.3027C34.2777 21.1035 34.6982 20.6497 34.8975 19.9414H35.7275C35.7275 21.668 35.4508 22.8301 34.8975 23.4277C34.2777 24.0254 32.7946 24.3242 30.4482 24.3242C29.2308 24.3242 27.7145 24.2357 25.8994 24.0586V30.3672C27.2275 29.5039 28.766 29.0612 30.5146 29.0391C32.0641 29.0391 33.4033 29.4154 34.5322 30.168C36.2367 31.319 37.0889 32.9902 37.0889 35.1816Z" fill="#1B1C2B"/>
</svg>
