<svg width="60" height="60" viewBox="0 0 60 60" fill="none" xmlns="http://www.w3.org/2000/svg">
<path d="M30 59C46.0163 59 59 46.0163 59 30C59 13.9837 46.0163 1 30 1C13.9837 1 1 13.9837 1 30C1 46.0163 13.9837 59 30 59Z" fill="#FFCB30"/>
<path d="M37.8027 22.0664C34.2168 27.2904 31.7598 32.3372 30.4316 37.207C29.9004 39.1771 29.5794 40.2949 29.4688 40.5605C29.1146 41.291 28.4948 41.6562 27.6094 41.6562C27.4323 41.6562 27.2441 41.6341 27.0449 41.5898C26.1152 41.3906 25.6504 40.804 25.6504 39.8301C25.6504 39.1217 25.916 38.2363 26.4473 37.1738C27.0892 35.89 28.8822 33.1452 31.8262 28.9395C33.3092 26.8587 34.4714 25.1986 35.3125 23.959H27.3105C26.8678 23.959 26.5137 23.9811 26.248 24.0254C25.5397 24.1361 25.0306 24.612 24.7207 25.4531L24.123 27.1797H23.3594L23.4258 21.2695H37.8027V22.0664Z" fill="#1B1C2B"/>
</svg>
