<?xml version="1.0" encoding="utf-8"?>
<!-- Generator: Adobe Illustrator 26.3.1, SVG Export Plug-In . SVG Version: 6.00 Build 0)  -->
<svg version="1.1" id="Layer_1" xmlns="http://www.w3.org/2000/svg" xmlns:xlink="http://www.w3.org/1999/xlink" x="0px" y="0px"
	 viewBox="0 0 24 24" style="enable-background:new 0 0 24 24;" xml:space="preserve">
<style type="text/css">
	.st0{fill-rule:evenodd;clip-rule:evenodd;fill:#FCFAF2;}
	.st1{fill-rule:evenodd;clip-rule:evenodd;fill:#1B1C2B;}
	.st2{fill-rule:evenodd;clip-rule:evenodd;fill:#E57BA6;}
	.st3{fill:#F2AF81;}
	.st4{fill:#1B1C2B;}
	.st5{fill:#FF5500;}
	.st6{clip-path:url(#SVGID_00000066476650743935840830000007433205853084474517_);}
	.st7{fill:#2E36CB;}
	.st8{fill:#FFFFFF;}
	.st9{clip-path:url(#SVGID_00000019658842360929815540000004278776037978472107_);fill:#FFCB30;}
	.st10{clip-path:url(#SVGID_00000019658842360929815540000004278776037978472107_);fill:#F2AF81;}
	.st11{clip-path:url(#SVGID_00000019658842360929815540000004278776037978472107_);fill:#FF5500;}
	.st12{clip-path:url(#SVGID_00000019658842360929815540000004278776037978472107_);}
	.st13{clip-path:url(#SVGID_00000019658842360929815540000004278776037978472107_);fill:#1B1C2B;}
	.st14{clip-path:url(#SVGID_00000019658842360929815540000004278776037978472107_);fill:#2E36CB;}
	.st15{clip-path:url(#SVGID_00000099651209223892350520000000818520499475855232_);fill:#E57BA6;}
	.st16{clip-path:url(#SVGID_00000099651209223892350520000000818520499475855232_);fill:#FFCB30;}
	.st17{clip-path:url(#SVGID_00000099651209223892350520000000818520499475855232_);fill:#EFEBDC;}
	.st18{clip-path:url(#SVGID_00000099651209223892350520000000818520499475855232_);fill:#2E36CB;}
	.st19{clip-path:url(#SVGID_00000099651209223892350520000000818520499475855232_);fill:#F2AF81;}
	.st20{clip-path:url(#SVGID_00000099651209223892350520000000818520499475855232_);fill:#FF5500;}
	.st21{clip-path:url(#SVGID_00000099651209223892350520000000818520499475855232_);}
	.st22{clip-path:url(#SVGID_00000099651209223892350520000000818520499475855232_);fill:#1B1C2B;}
	.st23{clip-path:url(#SVGID_00000099651209223892350520000000818520499475855232_);fill:#C97440;}
	.st24{clip-path:url(#SVGID_00000099651209223892350520000000818520499475855232_);fill:#FFBC45;}
	.st25{fill:#1F0E03;}
</style>
<ellipse transform="matrix(0.8509 -0.5253 0.5253 0.8509 -4.5148 8.0935)" class="st0" cx="12" cy="12" rx="10.37" ry="10.37"/>
<g>
	<defs>
		
			<ellipse id="SVGID_00000025421072657904524180000015655367834349284030_" transform="matrix(0.8509 -0.5253 0.5253 0.8509 -4.5148 8.0935)" cx="12" cy="12" rx="12" ry="12"/>
	</defs>
	<clipPath id="SVGID_00000013908964938270073010000015226113662681943717_">
		<use xlink:href="#SVGID_00000025421072657904524180000015655367834349284030_"  style="overflow:visible;"/>
	</clipPath>
	<path style="clip-path:url(#SVGID_00000013908964938270073010000015226113662681943717_);fill:#E57BA6;" d="M15.47,11.56
		c0,0.9,0.73,1.63,1.63,1.63l0,0c0.9,0,1.63-0.73,1.63-1.63v-1.13c0-0.9-0.73-1.63-1.63-1.63l0,0c-0.9,0-1.63,0.73-1.63,1.63V11.56z
		"/>
	<path style="clip-path:url(#SVGID_00000013908964938270073010000015226113662681943717_);fill:#FFCB30;" d="M2.98,35.9
		c0.05,0.6,0.05,0.6,0.05,0.6l23.1-0.15l1.05-3.78c-2.24-0.8-5.13-0.75-5.98-4.38c-0.85-3.63-2.74-7.52-4.38-8.51
		c-1.64-1-6.07-2.74-10.81-0.6c-4.73,2.14-6.67,8.07-7.12,10.26C-1.56,31.51-3.05,35.55,2.98,35.9z M16.12,35.75
		c0.05-0.15,0.1-1.34,0.52-3.61c0.85-0.1,4.95,2.99,5.88,2.99C22.27,36.99,16.07,35.9,16.12,35.75z"/>
	<path style="clip-path:url(#SVGID_00000013908964938270073010000015226113662681943717_);fill:#EFEBDC;" d="M14.31,20.71
		c0.3,1.43,1.53,10.16-0.56,15.9c-1.63,0.13-4.05,0-4.05,0c0.46-3.02,1.39-11.39-0.53-16.17C11.09,20.48,14.31,20.71,14.31,20.71z"
		/>
	<path style="clip-path:url(#SVGID_00000013908964938270073010000015226113662681943717_);fill:#EFEBDC;" d="M13.25,18.12
		c1.64,0.1,2.03,1.88,1.28,2.97c-0.75,1.1-2.16,0.2-2.41-0.35c-1.78,1.68-4.08,0.17-4.58-2.32C7.54,18.22,10.36,17.67,13.25,18.12z"
		/>
	<path style="clip-path:url(#SVGID_00000013908964938270073010000015226113662681943717_);fill:#E57BA6;" d="M8.57,9.12
		c0.07-1.66,1.78-4.82,5.81-4.64c2.87,0.22,3.22,2.94,3.22,2.94c0.1,0.31,0.61,0.95,0.61,0.95c0.15-1.27-0.66-4.65-4.28-4.74
		C9.85,3.53,7.9,6.72,7.82,9.02C8.15,9.55,8.57,9.12,8.57,9.12z"/>
	<path style="clip-path:url(#SVGID_00000013908964938270073010000015226113662681943717_);fill:#2E36CB;" d="M16.58,5.98
		c1.38,0.94,2.21,2.52,1.51,4.08c-0.7,1.56-0.9,2.25-0.22,3.48c0.95,1.72,1.36,3.33,0.64,4.79c-4.33-0.6-6.23-1.08-6.23-1.08
		S13.95,5.8,16.58,5.98z"/>
	<path style="clip-path:url(#SVGID_00000013908964938270073010000015226113662681943717_);fill:#F2AF81;" d="M10.16,13.86
		c0,0-1.07,3.22-1.17,4.59c-0.09,1.25,4.04,2.08,4.33,0.77c0.31-1.56,0.76-4.21,0.76-4.21"/>
	<path style="clip-path:url(#SVGID_00000013908964938270073010000015226113662681943717_);fill:#FF5500;" d="M9.82,15.2l0.34-1.35
		l3.92,1.15c0,0-0.14,0.81-0.32,1.83c-0.29,0.06-0.59,0.08-0.9,0.07C11.58,16.86,10.48,16.19,9.82,15.2z"/>
	<path style="clip-path:url(#SVGID_00000013908964938270073010000015226113662681943717_);fill:#F2AF81;" d="M17.01,12.29
		c-0.1,2.15-1.91,3.81-4.06,3.71l0,0c-2.15-0.1-3.81-1.91-3.71-4.06l0.18-4.11c0.1-2.15,1.91-3.81,4.06-3.71l0,0
		c2.15,0.1,3.81,1.91,3.71,4.06L17.01,12.29z"/>
	<g style="clip-path:url(#SVGID_00000013908964938270073010000015226113662681943717_);">
		<path class="st4" d="M11.88,8.04c0.49-0.26,1.14-0.39,1.65-0.12c0.19,0.1,0.02,0.39-0.17,0.29c-0.4-0.21-0.93-0.08-1.31,0.12
			C11.86,8.43,11.69,8.14,11.88,8.04L11.88,8.04z"/>
	</g>
	<g style="clip-path:url(#SVGID_00000013908964938270073010000015226113662681943717_);">
		<path class="st4" d="M16.57,8.58c-0.23-0.22-0.56-0.3-0.87-0.24c-0.21,0.04-0.3-0.28-0.09-0.32c0.43-0.09,0.88,0.02,1.2,0.32
			C16.97,8.49,16.73,8.73,16.57,8.58L16.57,8.58z"/>
	</g>
	<g style="clip-path:url(#SVGID_00000013908964938270073010000015226113662681943717_);">
		<path class="st4" d="M14.25,11.58c0.03,0,0.06-0.01,0.08-0.03l0.76-0.67c0.03-0.03,0.05-0.07,0.04-0.11c0-0.04-0.03-0.08-0.06-0.1
			l-0.76-0.43c-0.06-0.03-0.14-0.01-0.17,0.05c-0.03,0.06-0.01,0.14,0.05,0.17l0.61,0.34l-0.62,0.55c-0.05,0.05-0.06,0.13-0.01,0.18
			C14.18,11.56,14.22,11.58,14.25,11.58z"/>
	</g>
	<g style="clip-path:url(#SVGID_00000013908964938270073010000015226113662681943717_);">
		<path class="st4" d="M13.97,12.65c0.2,0,0.4-0.05,0.56-0.16c0.06-0.04,0.07-0.12,0.03-0.18c-0.04-0.06-0.12-0.07-0.18-0.03
			c-0.21,0.15-0.58,0.15-0.82,0.02c-0.15-0.08-0.32-0.25-0.31-0.6c0-0.07-0.05-0.13-0.12-0.13c-0.07,0-0.13,0.05-0.13,0.12
			c-0.02,0.37,0.14,0.66,0.44,0.83C13.6,12.61,13.79,12.65,13.97,12.65z"/>
	</g>
	<path style="clip-path:url(#SVGID_00000013908964938270073010000015226113662681943717_);fill:#1B1C2B;" d="M13.4,10.18
		c-0.09,0.24-0.37,0.37-0.61,0.28c-0.24-0.09-0.37-0.36-0.27-0.61c0.09-0.24,0.36-0.37,0.61-0.28C13.37,9.66,13.49,9.93,13.4,10.18z
		"/>
	<path style="clip-path:url(#SVGID_00000013908964938270073010000015226113662681943717_);fill:#1B1C2B;" d="M16.23,10.34
		c-0.09,0.24-0.37,0.37-0.61,0.28c-0.24-0.09-0.37-0.37-0.28-0.61c0.09-0.24,0.37-0.37,0.61-0.27C16.2,9.83,16.32,10.1,16.23,10.34z
		"/>
	<g style="clip-path:url(#SVGID_00000013908964938270073010000015226113662681943717_);">
		<path class="st4" d="M16.11,10.23c0.02,0,0.04-0.01,0.06-0.02l0.46-0.28c0.05-0.03,0.07-0.1,0.04-0.15
			c-0.03-0.05-0.1-0.07-0.15-0.04l-0.46,0.28c-0.05,0.03-0.07,0.1-0.04,0.15C16.03,10.21,16.07,10.23,16.11,10.23z"/>
	</g>
	<g style="clip-path:url(#SVGID_00000013908964938270073010000015226113662681943717_);">
		<path class="st4" d="M12.76,10.07c0.04,0,0.07-0.02,0.09-0.05c0.03-0.05,0.02-0.12-0.03-0.15l-0.48-0.33
			c-0.05-0.04-0.12-0.02-0.15,0.03c-0.03,0.05-0.02,0.12,0.03,0.15l0.48,0.33C12.71,10.06,12.74,10.07,12.76,10.07z"/>
	</g>
	<path style="clip-path:url(#SVGID_00000013908964938270073010000015226113662681943717_);fill:#2E36CB;" d="M5.54,12.32
		c0.65-1.39-0.15-2.25,0.19-3.58c0.3-1.16,1.68-1.12,2.39-2.76c1.09-2.52,6.7-4.78,8.79,0.32c-2.32-1.58-4.71-0.76-5.61,0.41
		c-1.82,2.35,0.05,3.34-0.66,4.74c-0.51,1.02-0.85,1.7-0.19,3.24c0.66,1.54-0.27,3.01-0.27,3.01c-2.17-0.24-4.62-0.45-6.85-0.83
		C3.34,13.11,4.9,13.71,5.54,12.32z"/>
	<g style="clip-path:url(#SVGID_00000013908964938270073010000015226113662681943717_);">
		<path class="st4" d="M14.73,18.93c0.26,0.93,0.45,2.13-0.6,2.65c-0.38,0.19-0.81,0.1-1.17-0.07c-0.26-0.12-0.48-0.31-0.69-0.49
			c-0.21-0.18-0.31,0.09-0.5,0.23c-1.54,1.1-3.57-0.42-4.08-1.94c-0.03-0.1,0.13-0.15,0.16-0.04c0.54,1.62,2.87,3.11,4.21,1.46
			c0.03-0.04,0.09-0.03,0.12,0c0.56,0.5,1.28,1.09,2.03,0.62c0.83-0.51,0.56-1.61,0.35-2.37C14.53,18.87,14.7,18.82,14.73,18.93
			L14.73,18.93z"/>
	</g>
	<g style="clip-path:url(#SVGID_00000013908964938270073010000015226113662681943717_);">
		<path class="st4" d="M12.82,22.15c-0.06,0.3-0.48,0.29-0.62,0.06c-0.08-0.13,0.01-0.28,0.12-0.35c0.14-0.08,0.36-0.07,0.46,0.07
			c0.06,0.09-0.08,0.17-0.15,0.09c-0.07-0.11-0.38,0-0.28,0.13c0.08,0.09,0.27,0.1,0.29-0.04C12.67,22,12.84,22.04,12.82,22.15
			L12.82,22.15z"/>
	</g>
	<g style="clip-path:url(#SVGID_00000013908964938270073010000015226113662681943717_);">
		<path class="st4" d="M13.04,23.4c0.04,0.3-0.3,0.38-0.5,0.22c-0.1-0.08-0.16-0.25-0.07-0.36c0.09-0.12,0.26-0.1,0.39-0.06
			c0.1,0.03,0.06,0.2-0.04,0.16c-0.06-0.02-0.15-0.04-0.21-0.01c-0.05,0.03,0.02,0.12,0.05,0.15c0.06,0.05,0.24,0.08,0.23-0.05
			C12.86,23.34,13.03,23.29,13.04,23.4L13.04,23.4z"/>
	</g>
	<g style="clip-path:url(#SVGID_00000013908964938270073010000015226113662681943717_);">
		<path class="st4" d="M18.39,12.54c0.27,1.97-2.64,1.98-3.9,1.92c-0.11-0.01-0.11-0.17,0-0.17c1.11,0.05,3.98,0.11,3.74-1.7
			C18.22,12.47,18.38,12.43,18.39,12.54L18.39,12.54z"/>
	</g>
	<path style="clip-path:url(#SVGID_00000013908964938270073010000015226113662681943717_);fill:#E57BA6;" d="M13.52,14.34
		c0,0.28,0.28,0.51,0.62,0.51c0.34,0,0.62-0.23,0.62-0.51c0-0.28-0.28-0.51-0.62-0.51C13.79,13.84,13.52,14.06,13.52,14.34z"/>
	<path style="clip-path:url(#SVGID_00000013908964938270073010000015226113662681943717_);fill:#E57BA6;" d="M13.93,3.63
		c2.07,0.05,3.22,1.17,3.8,2.36c-0.2,0.02-0.41,0.08-0.59,0.16c-0.43-0.74-1.24-1.56-2.76-1.68C10.35,4.3,8.64,7.46,8.57,9.12
		c0,0-0.42,0.43-0.75-0.1C7.9,6.72,9.85,3.53,13.93,3.63z"/>
	<path style="clip-path:url(#SVGID_00000013908964938270073010000015226113662681943717_);fill:#E57BA6;" d="M6.51,11.56
		c0,0.9,0.73,1.63,1.63,1.63l0,0c0.9,0,1.63-0.73,1.63-1.63v-1.13c0-0.9-0.73-1.63-1.63-1.63l0,0c-0.9,0-1.63,0.73-1.63,1.63V11.56z
		"/>
	<g style="clip-path:url(#SVGID_00000013908964938270073010000015226113662681943717_);">
		<path class="st4" d="M6.89,11.39c0.06,1.1,1.53,1.35,1.94,0.32c0.12-0.31,0.05-0.74,0.05-1.07c0-1.12-1.55-1.32-1.94-0.32
			C6.83,10.63,6.89,11.06,6.89,11.39c0,0.11-0.17,0.11-0.17,0c0-0.68-0.07-1.33,0.58-1.75c0.78-0.51,1.71,0.17,1.75,1
			c0.04,0.67,0.04,1.35-0.58,1.75c-0.78,0.51-1.71-0.18-1.75-1C6.72,11.28,6.89,11.28,6.89,11.39z"/>
	</g>
</g>
</svg>
