<?xml version="1.0" encoding="UTF-8"?>
<svg width="61px" height="30px" viewBox="0 0 61 30" version="1.1" xmlns="http://www.w3.org/2000/svg" xmlns:xlink="http://www.w3.org/1999/xlink">
    <!-- Generator: Sketch 59.1 (86144) - https://sketch.com -->
    <title>Path</title>
    <desc>Created with Sketch.</desc>
    <g id="Page-1" stroke="none" stroke-width="1" fill="none" fill-rule="evenodd">
        <g id="Artboard" transform="translate(-71.000000, -240.000000)" fill="#979797" fill-rule="nonzero">
            <path d="M96.5811034,255.512683 L115.684611,233.065854 C116.210628,232.449268 116.5,231.624878 116.5,230.745854 C116.5,229.866341 116.210628,229.042439 115.684611,228.424878 L114.010657,226.459024 C113.48547,225.840488 112.783422,225.5 112.035291,225.5 C111.287159,225.5 110.585942,225.840488 110.06034,226.459024 L87.3145694,253.183902 C86.7868917,253.803415 86.4979353,254.63122 86.5,255.51122 C86.4979353,256.395122 86.7864766,257.221951 87.3145694,257.841951 L110.039167,284.540976 C110.564768,285.159512 111.265986,285.5 112.014533,285.5 C112.762664,285.5 113.463882,285.159512 113.989899,284.540976 L115.663438,282.575122 C116.752422,281.29561 116.752422,279.212683 115.663438,277.933659 L96.5811034,255.512683 Z" id="Path" transform="translate(101.500000, 255.500000) rotate(-90.000000) translate(-101.500000, -255.500000) "></path>
        </g>
    </g>
</svg>