<?xml version="1.0" encoding="UTF-8"?>
<svg width="60px" height="60px" viewBox="0 0 60 60" version="1.1" xmlns="http://www.w3.org/2000/svg" xmlns:xlink="http://www.w3.org/1999/xlink">
    <title>Icon_Num2</title>
    <defs>
        <path d="M35.746,39.48 L36.656,33.864 L35.772,33.682 C35.304,36.022 34.55,36.698 32.418,36.698 L24.878,36.698 C25.424,35.372 25.892,34.696 26.932,33.76 C27.118875,33.589375 27.2955938,33.4327148 27.4738597,33.2824817 L27.6892706,33.1048044 C28.5961523,32.3733164 29.65875,31.727125 32.34,30.224 C33.666,29.47 34.654,28.742 35.2,28.092 C35.98,27.182 36.37,26.116 36.37,24.816 C36.37,21.8 34.03,20.006 30.104,20.006 C28.362,20.006 26.958,20.396 25.788,21.176 C24.41,22.112 23.63,23.438 23.63,24.842 C23.63,25.778 24.228,26.22 25.476,26.22 C26.62,26.22 27.088,25.804 27.14,24.79 C27.192,23.334 27.218,23.074 27.426,22.424 C27.816,21.28 28.622,20.682 29.844,20.682 C31.69,20.682 32.912,22.164 32.912,24.426 C32.912,25.284 32.73,26.064 32.366,26.818 C31.976,27.572 31.404,28.222 30.208,29.21 C27.244,31.68 26.048,32.902 25.06,34.41 C24.098,35.892 23.578,37.4 23.318,39.48 L35.746,39.48 Z" id="path-1"></path>
    </defs>
    <g id="Icon_Num2" stroke="none" stroke-width="1" fill="none" fill-rule="evenodd">
        <g id="2" fill-rule="nonzero" fill="#434343">
            <use xlink:href="#path-1"></use>
            <use xlink:href="#path-1"></use>
        </g>
        <circle id="Oval" stroke="#505050" stroke-width="2" cx="30" cy="30" r="29"></circle>
    </g>
</svg>