<?xml version="1.0" encoding="UTF-8"?>
<svg width="24px" height="24px" viewBox="0 0 24 24" version="1.1" xmlns="http://www.w3.org/2000/svg" xmlns:xlink="http://www.w3.org/1999/xlink">
    <title>Icon/Arrow/Right</title>
    <g id="Icon/Arrow/Right" stroke="none" stroke-width="1" fill="none" fill-rule="evenodd">
        <path d="M19.9992989,12.5041647 C20.0114532,12.8747097 19.8651074,13.232872 19.5969429,13.4888781 L12.5239477,20.5724616 C12.2576843,20.8317631 11.9003064,20.976235 11.528646,20.9748279 C11.1636462,20.974091 10.8136427,20.8295244 10.5545209,20.5724616 L9.73922061,19.7571612 C9.47605864,19.4949114 9.32813886,19.1386765 9.32813886,18.7671537 C9.32813886,18.3956309 9.47605864,18.0393959 9.73922061,17.7771461 L12.9157154,14.6006513 L5.27095122,14.6006513 C4.91913255,14.6112361 4.58108946,14.4635851 4.34976772,14.1982953 C4.11678066,13.9238402 3.99246906,13.5735075 4.00035329,13.2135819 L4.00035329,11.8053359 C3.99246906,11.4454103 4.11678066,11.0950776 4.34976772,10.8206225 C4.58108946,10.5553327 4.91913255,10.4076817 5.27095122,10.4182665 L12.9263037,10.4182665 L9.74980892,7.24177163 C9.48312728,6.996214 9.32984167,6.65132137 9.32627628,6.28882318 C9.29293028,5.89103363 9.44536597,5.50017288 9.73922061,5.22999158 L10.5545209,4.41469124 C10.8135306,4.1495083 11.1685485,4 11.5392343,4 C11.9099202,4 12.2649381,4.1495083 12.5239477,4.41469124 L19.5969429,11.5829812 C19.8541172,11.8201679 20,12.154314 19.9992989,12.5041647 L19.9992989,12.5041647 Z" id="Path" fill="#F28146"></path>
    </g>
</svg>
