<?xml version="1.0" encoding="utf-8"?>
<!-- Generator: Adobe Illustrator 26.3.1, SVG Export Plug-In . SVG Version: 6.00 Build 0)  -->
<svg version="1.1" id="Layer_1" xmlns="http://www.w3.org/2000/svg" xmlns:xlink="http://www.w3.org/1999/xlink" x="0px" y="0px"
	 viewBox="0 0 24 24" style="enable-background:new 0 0 24 24;" xml:space="preserve">
<style type="text/css">
	.st0{fill-rule:evenodd;clip-rule:evenodd;fill:#FCFAF2;}
	.st1{fill-rule:evenodd;clip-rule:evenodd;fill:#1B1C2B;}
	.st2{fill-rule:evenodd;clip-rule:evenodd;fill:#E57BA6;}
	.st3{fill:#F2AF81;}
	.st4{fill:#1B1C2B;}
	.st5{fill:#FF5500;}
	.st6{clip-path:url(#SVGID_00000052065018965249154560000009343688858861005486_);}
	.st7{fill:#2E36CB;}
	.st8{fill:#FFFFFF;}
	.st9{clip-path:url(#SVGID_00000062165418855622563690000004344060633901151135_);fill:#FFCB30;}
	.st10{clip-path:url(#SVGID_00000062165418855622563690000004344060633901151135_);fill:#F2AF81;}
	.st11{clip-path:url(#SVGID_00000062165418855622563690000004344060633901151135_);fill:#FF5500;}
	.st12{clip-path:url(#SVGID_00000062165418855622563690000004344060633901151135_);}
	.st13{clip-path:url(#SVGID_00000062165418855622563690000004344060633901151135_);fill:#1B1C2B;}
	.st14{clip-path:url(#SVGID_00000062165418855622563690000004344060633901151135_);fill:#2E36CB;}
	.st15{clip-path:url(#SVGID_00000152257279044661979850000004588512545807687606_);fill:#E57BA6;}
	.st16{clip-path:url(#SVGID_00000152257279044661979850000004588512545807687606_);fill:#FFCB30;}
	.st17{clip-path:url(#SVGID_00000152257279044661979850000004588512545807687606_);fill:#EFEBDC;}
	.st18{clip-path:url(#SVGID_00000152257279044661979850000004588512545807687606_);fill:#2E36CB;}
	.st19{clip-path:url(#SVGID_00000152257279044661979850000004588512545807687606_);fill:#F2AF81;}
	.st20{clip-path:url(#SVGID_00000152257279044661979850000004588512545807687606_);fill:#FF5500;}
	.st21{clip-path:url(#SVGID_00000152257279044661979850000004588512545807687606_);}
	.st22{clip-path:url(#SVGID_00000152257279044661979850000004588512545807687606_);fill:#1B1C2B;}
	.st23{clip-path:url(#SVGID_00000152257279044661979850000004588512545807687606_);fill:#C97440;}
	.st24{clip-path:url(#SVGID_00000152257279044661979850000004588512545807687606_);fill:#FFBC45;}
	.st25{fill:#1F0E03;}
</style>
<ellipse transform="matrix(0.8509 -0.5253 0.5253 0.8509 -4.5148 8.0935)" class="st0" cx="12" cy="12" rx="10.37" ry="10.37"/>
<g>
	<defs>
		
			<ellipse id="SVGID_00000152972762100487802760000017118304043567048106_" transform="matrix(0.8509 -0.5253 0.5253 0.8509 -4.5148 8.0935)" cx="12" cy="12" rx="12" ry="12"/>
	</defs>
	<clipPath id="SVGID_00000104693921956044311780000003675786014788071568_">
		<use xlink:href="#SVGID_00000152972762100487802760000017118304043567048106_"  style="overflow:visible;"/>
	</clipPath>
	<path style="clip-path:url(#SVGID_00000104693921956044311780000003675786014788071568_);fill:#FFCB30;" d="M17.25,21.91
		c-0.66-1.65-2.96-2.82-4.13-2.81H9.16c-1.3,0.12-3.47,1.16-4.13,2.81c1.55,1.53,3.71,2.49,6.11,2.49
		C13.53,24.4,15.7,23.45,17.25,21.91z"/>
	<path style="clip-path:url(#SVGID_00000104693921956044311780000003675786014788071568_);fill:#F2AF81;" d="M9.52,15.73
		c0,0-0.38,3.11-0.64,4.87c-0.19,1.29,4.42,1.65,4.56,0.26c0.12-1.64,0.26-4.43,0.26-4.43"/>
	<path style="clip-path:url(#SVGID_00000104693921956044311780000003675786014788071568_);fill:#FF5500;" d="M9.34,17.16l0.19-1.43
		l4.19,0.7c0,0-0.04,0.86-0.1,1.93c-0.29,0.09-0.6,0.16-0.92,0.18C11.36,18.64,10.14,18.09,9.34,17.16z"/>
	<path style="clip-path:url(#SVGID_00000104693921956044311780000003675786014788071568_);fill:#F2AF81;" d="M16.4,13.27
		c0.17,2.23-1.5,4.16-3.73,4.33l0,0c-2.22,0.17-4.16-1.5-4.33-3.73L8.02,9.61c-0.17-2.23,1.5-4.16,3.73-4.33l0,0
		c2.23-0.17,4.16,1.5,4.33,3.73L16.4,13.27z"/>
	<g style="clip-path:url(#SVGID_00000104693921956044311780000003675786014788071568_);">
		<path class="st4" d="M10.87,9.66c0.22-0.42,0.71-0.71,1.19-0.66c0.27,0.03,0.28,0.47,0,0.43c-0.34-0.04-0.66,0.14-0.81,0.44
			C11.11,10.13,10.74,9.91,10.87,9.66L10.87,9.66z"/>
	</g>
	<g style="clip-path:url(#SVGID_00000104693921956044311780000003675786014788071568_);">
		<path class="st4" d="M15.26,9.54c-0.19-0.2-0.54-0.34-0.81-0.27c-0.27,0.07-0.39-0.35-0.12-0.42c0.42-0.1,0.93,0.07,1.23,0.38
			C15.76,9.44,15.45,9.74,15.26,9.54L15.26,9.54z"/>
	</g>
	<g style="clip-path:url(#SVGID_00000104693921956044311780000003675786014788071568_);">
		<path class="st4" d="M13.45,12.9c0.05,0,0.09-0.02,0.12-0.05l0.7-0.78c0.04-0.04,0.05-0.09,0.04-0.15
			c-0.01-0.05-0.05-0.09-0.1-0.11l-0.84-0.35c-0.08-0.03-0.18,0-0.21,0.09c-0.03,0.08,0,0.18,0.09,0.21l0.63,0.26l-0.55,0.61
			c-0.06,0.07-0.05,0.17,0.01,0.23C13.37,12.89,13.41,12.9,13.45,12.9z"/>
	</g>
	<g style="clip-path:url(#SVGID_00000104693921956044311780000003675786014788071568_);">
		<path class="st4" d="M12.1,13.8c-0.03-0.05-0.03-0.12,0-0.17c0.03-0.05,0.09-0.08,0.15-0.08c0.32,0.02,0.61,0.03,0.87,0.03
			c0.51,0,0.86-0.04,1.13-0.08c0.05-0.01,0.1,0.01,0.14,0.05c0.04,0.04,0.05,0.09,0.04,0.14c-0.18,0.98-0.48,1.45-0.93,1.45
			c0,0,0,0,0,0C13.1,15.15,12.64,14.71,12.1,13.8z M12.55,13.9c0.51,0.79,0.82,0.92,0.96,0.92c0.22,0,0.42-0.35,0.56-0.96
			C13.59,13.92,13.14,13.93,12.55,13.9z"/>
	</g>
	<path style="clip-path:url(#SVGID_00000104693921956044311780000003675786014788071568_);fill:#1B1C2B;" d="M12.41,11.53
		c-0.07,0.26-0.33,0.42-0.59,0.36c-0.26-0.07-0.42-0.33-0.36-0.59c0.06-0.26,0.33-0.42,0.59-0.36C12.32,11,12.48,11.27,12.41,11.53z
		"/>
	<path style="clip-path:url(#SVGID_00000104693921956044311780000003675786014788071568_);fill:#1B1C2B;" d="M15.35,11.36
		c-0.06,0.26-0.33,0.42-0.59,0.36c-0.26-0.06-0.42-0.33-0.36-0.59c0.07-0.26,0.33-0.42,0.59-0.36
		C15.25,10.83,15.42,11.09,15.35,11.36z"/>
	<path style="clip-path:url(#SVGID_00000104693921956044311780000003675786014788071568_);fill:#F2AF81;" d="M9.12,12.8
		c0.19,0.79-0.29,1.58-1.08,1.77l0,0c-0.79,0.19-1.58-0.29-1.77-1.08l-0.11-0.45c-0.19-0.79,0.29-1.58,1.08-1.77l0,0
		c0.79-0.19,1.58,0.29,1.77,1.08L9.12,12.8z"/>
	<path style="clip-path:url(#SVGID_00000104693921956044311780000003675786014788071568_);fill:#2E36CB;" d="M6.9,11.42
		c-0.34-0.98-2.03-4.98,0.47-5.1c0.16-1.57,2.34-2.4,5.06-2.93c2.72-0.53,4.42,0.74,4.22,2.02c-0.21,1.28-1.88,1.74-3.21,1.36
		c-0.38,1.38-2.21,0.91-2.6,0.64c-0.31,1.34-1.82,1.66-1.65,2.59c0.17,0.93,0.25,1.88,0.28,2.07c0.03,0.19-0.76,0.56-0.93,0.18
		C8.37,11.86,7.69,11.18,6.9,11.42z"/>
</g>
</svg>
