<?xml version="1.0" encoding="UTF-8"?>
<svg width="60px" height="60px" viewBox="0 0 60 60" version="1.1" xmlns="http://www.w3.org/2000/svg" xmlns:xlink="http://www.w3.org/1999/xlink">
    <title>Icon_Num6</title>
    <defs>
        <path d="M30.13,39.896 C34.134,39.896 36.812,37.244 36.812,33.266 C36.812,29.678 34.472,27.26 30.988,27.26 C29.272,27.26 28.154,27.728 26.776,29.028 C26.776,27.364 26.984,25.492 27.322,24.088 C27.868,21.852 28.986,20.656 30.572,20.656 C31.794,20.656 32.548,21.462 32.626,22.944 C32.704,24.01 32.704,24.088 32.86,24.296 C33.094,24.608 33.64,24.79 34.29,24.79 C35.46,24.79 36.162,24.218 36.162,23.282 C36.162,21.41 33.796,20.006 30.65,20.006 C28.336,20.006 26.62,20.812 25.372,22.476 C24.046,24.244 23.318,27.104 23.318,30.614 C23.318,36.646 25.71,39.896 30.13,39.896 Z M30.182,39.246 C29.064,39.246 28.076,38.492 27.556,37.27 C27.01,35.996 26.724,34.306 26.724,32.538 C26.724,31.342 26.88,30.562 27.244,29.938 C27.894,28.794 28.986,28.118 30.13,28.118 C32.132,28.118 33.354,30.12 33.354,33.344 C33.354,37.036 32.158,39.246 30.182,39.246 Z" id="path-1"></path>
    </defs>
    <g id="Icon_Num6" stroke="none" stroke-width="1" fill="none" fill-rule="evenodd">
        <g id="6" fill-rule="nonzero" fill="#434343">
            <use xlink:href="#path-1"></use>
            <use xlink:href="#path-1"></use>
        </g>
        <circle id="Oval" stroke="#505050" stroke-width="2" cx="30" cy="30" r="29"></circle>
    </g>
</svg>