<?xml version="1.0" encoding="UTF-8"?>
<svg width="24px" height="24px" viewBox="0 0 24 24" version="1.1" xmlns="http://www.w3.org/2000/svg" xmlns:xlink="http://www.w3.org/1999/xlink">
    <title>Icon/Triangle/Up</title>
    <defs>
        <polygon id="path-1" points="0 0 24 0 24 24 0 24"></polygon>
    </defs>
    <g id="Icon/Triangle/Up" stroke="none" stroke-width="1" fill="none" fill-rule="evenodd">
        <mask id="mask-2" fill="white">
            <use xlink:href="#path-1"></use>
        </mask>
        <g id="Clip-8"></g>
        <path d="M12.0004409,6 C12.2833176,6.00841111 12.5444269,6.15388629 12.7004409,6.39 L19.7004409,15.68 C19.9028492,15.947094 20.0086174,16.2749754 20.0004409,16.61 C20.0069932,16.9478656 19.9015051,17.278395 19.7004409,17.55 C19.5468659,17.7887283 19.2842574,17.9350387 19.0004409,17.94 L5.00044086,17.94 C4.71662431,17.9350387 4.4540158,17.7887283 4.30044086,17.55 C4.09937659,17.278395 3.99388851,16.9478656 4.00044086,16.61 C3.99226431,16.2749754 4.09803252,15.947094 4.30044086,15.68 L11.3004409,6.39 C11.4564548,6.15388629 11.7175641,6.00841111 12.0004409,6 Z" id="Path" fill="#828282" mask="url(#mask-2)"></path>
    </g>
</svg>