<?xml version="1.0" encoding="utf-8"?>
<!-- Generator: Adobe Illustrator 27.0.0, SVG Export Plug-In . SVG Version: 6.00 Build 0)  -->
<svg version="1.1" id="圖層_1" xmlns="http://www.w3.org/2000/svg" xmlns:xlink="http://www.w3.org/1999/xlink" x="0px" y="0px"
	 viewBox="0 0 60 60" style="enable-background:new 0 0 60 60;" xml:space="preserve">
<style type="text/css">
	.st0{fill:#2E36CB;}
	.st1{fill:#FCFAF2;}
</style>
<circle id="Oval" class="st0" cx="30" cy="30" r="29"/>
<g id="_x36_">
	<g>
		<path id="path-1" class="st1" d="M30.1,39.9c4,0,6.7-2.7,6.7-6.6c0-3.6-2.3-6-5.8-6c-1.7,0-2.8,0.5-4.2,1.8c0-1.7,0.2-3.5,0.5-4.9
			c0.5-2.2,1.7-3.4,3.2-3.4c1.2,0,2,0.8,2.1,2.3c0.1,1.1,0.1,1.1,0.2,1.4c0.2,0.3,0.8,0.5,1.4,0.5c1.2,0,1.9-0.6,1.9-1.5
			c0-1.9-2.4-3.3-5.5-3.3c-2.3,0-4,0.8-5.3,2.5c-1.3,1.8-2.1,4.6-2.1,8.1C23.3,36.6,25.7,39.9,30.1,39.9z M30.2,39.2
			c-1.1,0-2.1-0.8-2.6-2c-0.5-1.3-0.8-3-0.8-4.7c0-1.2,0.2-2,0.5-2.6c0.6-1.1,1.7-1.8,2.9-1.8c2,0,3.2,2,3.2,5.2
			C33.4,37,32.2,39.2,30.2,39.2z"/>
	</g>
	<g>
		<path id="path-1_00000057847618249617265160000009746349002644893075_" class="st1" d="M30.1,39.9c4,0,6.7-2.7,6.7-6.6
			c0-3.6-2.3-6-5.8-6c-1.7,0-2.8,0.5-4.2,1.8c0-1.7,0.2-3.5,0.5-4.9c0.5-2.2,1.7-3.4,3.2-3.4c1.2,0,2,0.8,2.1,2.3
			c0.1,1.1,0.1,1.1,0.2,1.4c0.2,0.3,0.8,0.5,1.4,0.5c1.2,0,1.9-0.6,1.9-1.5c0-1.9-2.4-3.3-5.5-3.3c-2.3,0-4,0.8-5.3,2.5
			c-1.3,1.8-2.1,4.6-2.1,8.1C23.3,36.6,25.7,39.9,30.1,39.9z M30.2,39.2c-1.1,0-2.1-0.8-2.6-2c-0.5-1.3-0.8-3-0.8-4.7
			c0-1.2,0.2-2,0.5-2.6c0.6-1.1,1.7-1.8,2.9-1.8c2,0,3.2,2,3.2,5.2C33.4,37,32.2,39.2,30.2,39.2z"/>
	</g>
</g>
</svg>
