<?xml version="1.0" encoding="UTF-8"?>
<svg width="60px" height="60px" viewBox="0 0 60 60" version="1.1" xmlns="http://www.w3.org/2000/svg" xmlns:xlink="http://www.w3.org/1999/xlink">
    <title>Icon_Num5</title>
    <defs>
        <path d="M29.48,39.896 C33.796,39.896 36.526,37.426 36.526,33.552 C36.526,29.938 34.16,27.702 30.364,27.702 C28.388,27.702 26.958,28.3 25.346,29.808 L25.866,23.334 L35.226,23.334 L35.694,20.422 L25.06,20.422 L24.202,31.342 L25.06,31.55 C26.1,29.782 27.712,28.716 29.428,28.716 C31.768,28.716 33.12,30.614 33.12,33.89 C33.12,35.502 32.756,36.932 32.132,37.894 C31.534,38.752 30.65,39.22 29.584,39.22 C28.804,39.22 28.05,38.908 27.556,38.362 C27.088,37.868 26.854,37.192 26.828,36.23 C26.802,35.476 26.75,35.268 26.568,35.06 C26.334,34.774 25.866,34.618 25.268,34.618 C24.072,34.618 23.422,35.138 23.422,36.126 C23.422,38.258 26.074,39.896 29.48,39.896 Z" id="path-1"></path>
    </defs>
    <g id="Icon_Num5" stroke="none" stroke-width="1" fill="none" fill-rule="evenodd">
        <g id="5" fill-rule="nonzero" fill="#ffffff">
            <use xlink:href="#path-1"></use>
            <use xlink:href="#path-1"></use>
        </g>
        <circle id="Oval" stroke="#ffffff" stroke-width="2" cx="30" cy="30" r="29"></circle>
    </g>
</svg>
