<?xml version="1.0" encoding="utf-8"?>
<!-- Generator: Adobe Illustrator 26.3.1, SVG Export Plug-In . SVG Version: 6.00 Build 0)  -->
<svg version="1.1" id="Layer_1" xmlns="http://www.w3.org/2000/svg" xmlns:xlink="http://www.w3.org/1999/xlink" x="0px" y="0px"
	 viewBox="0 0 24 24" style="enable-background:new 0 0 24 24;" xml:space="preserve">
<style type="text/css">
	.st0{fill-rule:evenodd;clip-rule:evenodd;fill:#FCFAF2;}
	.st1{fill-rule:evenodd;clip-rule:evenodd;fill:#1B1C2B;}
	.st2{fill-rule:evenodd;clip-rule:evenodd;fill:#E57BA6;}
	.st3{fill:#F2AF81;}
	.st4{fill:#1B1C2B;}
	.st5{fill:#FF5500;}
	.st6{clip-path:url(#SVGID_00000039126716654096811180000006049522047900605583_);}
	.st7{fill:#2E36CB;}
	.st8{fill:#FFFFFF;}
</style>
<g>
	<ellipse transform="matrix(0.8509 -0.5253 0.5253 0.8509 -4.5148 8.0935)" class="st0" cx="12" cy="12" rx="10.37" ry="10.37"/>
	<ellipse transform="matrix(0.9813 -0.1923 0.1923 0.9813 -2.0834 2.5313)" class="st1" cx="12" cy="12" rx="7.95" ry="7.95"/>
	<ellipse transform="matrix(0.9894 -0.1452 0.1452 0.9894 -1.6153 1.8697)" class="st0" cx="12" cy="12" rx="5.1" ry="5.1"/>
	<circle class="st1" cx="12" cy="12" r="2.82"/>
	<path class="st0" d="M10.52,12c0-0.82,0.66-1.48,1.48-1.48c0.81,0,1.48,0.66,1.48,1.48c0,0.82-0.66,1.48-1.48,1.48
		C11.18,13.48,10.52,12.82,10.52,12z"/>
	<polygon class="st2" points="2.29,4.57 4.88,4.81 4.63,2.23 6.76,4.35 6.87,6.81 4.41,6.7 	"/>
	<path class="st2" d="M3.58,3.49L3.58,3.49c0.11-0.11,0.3-0.11,0.42,0l8.28,8.28c0.11,0.11,0.11,0.3,0,0.42l0,0
		c-0.11,0.11-0.3,0.11-0.42,0L3.58,3.9C3.47,3.79,3.47,3.6,3.58,3.49z"/>
</g>
</svg>
