<?xml version="1.0" encoding="utf-8"?>
<!-- Generator: Adobe Illustrator 27.0.0, SVG Export Plug-In . SVG Version: 6.00 Build 0)  -->
<svg version="1.1" id="圖層_1" xmlns="http://www.w3.org/2000/svg" xmlns:xlink="http://www.w3.org/1999/xlink" x="0px" y="0px"
	 viewBox="0 0 60 60" style="enable-background:new 0 0 60 60;" xml:space="preserve">
<style type="text/css">
	.st0{fill:#2E36CB;}
	.st1{fill:#434343;}
	.st2{fill:#FCFAF2;}
</style>
<circle id="Oval" class="st0" cx="30" cy="30" r="29"/>
<path id="path-1" class="st1" d="M29.5,39.9c4.3,0,7-2.5,7-6.3c0-3.6-2.4-5.8-6.2-5.8c-2,0-3.4,0.6-5,2.1l0.5-6.5h9.4l0.5-2.9H25.1
	l-0.9,10.9l0.9,0.2c1-1.8,2.7-2.8,4.4-2.8c2.3,0,3.7,1.9,3.7,5.2c0,1.6-0.4,3-1,4c-0.6,0.9-1.5,1.3-2.5,1.3c-0.8,0-1.5-0.3-2-0.9
	c-0.5-0.5-0.7-1.2-0.7-2.1c0-0.8-0.1-1-0.3-1.2c-0.2-0.3-0.7-0.4-1.3-0.4c-1.2,0-1.8,0.5-1.8,1.5C23.4,38.3,26.1,39.9,29.5,39.9z"/>
<path id="path-1_00000147193244058481251930000006295986594365828789_" class="st2" d="M29.5,39.9c4.3,0,7-2.5,7-6.3
	c0-3.6-2.4-5.8-6.2-5.8c-2,0-3.4,0.6-5,2.1l0.5-6.5h9.4l0.5-2.9H25.1l-0.9,10.9l0.9,0.2c1-1.8,2.7-2.8,4.4-2.8
	c2.3,0,3.7,1.9,3.7,5.2c0,1.6-0.4,3-1,4c-0.6,0.9-1.5,1.3-2.5,1.3c-0.8,0-1.5-0.3-2-0.9c-0.5-0.5-0.7-1.2-0.7-2.1
	c0-0.8-0.1-1-0.3-1.2c-0.2-0.3-0.7-0.4-1.3-0.4c-1.2,0-1.8,0.5-1.8,1.5C23.4,38.3,26.1,39.9,29.5,39.9z"/>
</svg>
