<?xml version="1.0" encoding="UTF-8"?>
<svg width="150px" height="150px" viewBox="0 0 150 150" version="1.1" xmlns="http://www.w3.org/2000/svg" xmlns:xlink="http://www.w3.org/1999/xlink">
    <!-- Generator: Sketch 59.1 (86144) - https://sketch.com -->
    <title>icon_linkedin</title>
    <desc>Created with Sketch.</desc>
    <g id="icon_linkedin" stroke="none" stroke-width="1" fill="none" fill-rule="evenodd">
        <path d="M12.7058546,2.84214275 C7.28877526,2.91527817 2.91507623,7.28883676 2.84176686,12.7059138 L2.00146264,74.7988299 C2.00060932,74.8618844 2.0006081,74.9249476 2.00145896,74.9880022 L2.84221749,137.293778 C2.91531766,142.710984 7.28904127,147.084766 12.7062465,147.157937 L74.9394505,147.99854 C75.0025049,147.999391 75.065568,147.999391 75.1286224,147.998539 L137.294216,147.158076 C142.711259,147.084839 147.084861,142.711252 147.158117,137.29421 L147.998538,75.14747 C147.999391,75.0844156 147.999392,75.0213525 147.99854,74.958298 L147.157893,12.7059055 C147.084741,7.28881129 142.711146,2.91511893 137.294053,2.84184649 L75.1637255,2.00146199 C75.100671,2.00060911 75.0376079,2.00060831 74.9745534,2.0014596 L12.7058546,2.84214275 Z" id="Rectangle" stroke="#979797" stroke-width="4"></path>
        <g id="linkedin" transform="translate(33.000000, 33.000000)" fill="#979797" fill-rule="nonzero">
            <path d="M12,24 C18.6167063,24 24,18.6167063 24,12 C24,5.38240516 18.6167063,0 12,0 C5.38240516,0 0,5.38329373 0,12 C0,18.6167063 5.38240516,24 12,24 Z M12,4.54976303 C16.1081162,4.54976303 19.450237,7.89188383 19.450237,12 C19.450237,16.1081162 16.1081162,19.450237 12,19.450237 C7.89188383,19.450237 4.54976303,16.1081162 4.54976303,12 C4.54976303,7.89188383 7.89188383,4.54976303 12,4.54976303 Z" id="Shape"></path>
            <path d="M62.6030303,25 C57.5129736,25 52.600142,26.7512066 48.669697,29.8460727 L48.669697,28.4169884 C48.669697,27.1587535 47.6378314,26.1389961 46.3666667,26.1389961 L30.3030303,26.1389961 C29.0309658,26.1389961 28,27.1587535 28,28.4169884 L28,81.7220077 C28,82.9802426 29.0309658,84 30.3030303,84 L47.230303,84 C48.5014677,84 49.5333333,82.9802426 49.5333333,81.7220077 L49.5333333,50.9548745 C49.5333333,47.1552545 52.6586173,44.0639479 56.5,44.0639479 C60.3413827,44.0639479 63.4666667,47.1552545 63.4666667,50.9548745 L63.4666667,81.7220077 C63.4666667,82.9802426 64.4976325,84 65.769697,84 L82.6969697,84 C83.9681344,84 85,82.9802426 85,81.7220077 L85,47.1534749 C85,34.9377413 74.9521307,25 62.6030303,25 Z M80.3939394,79.4440154 L68.0727273,79.4440154 L68.0727273,50.9548745 C68.0727273,44.6432343 62.8810132,39.5079633 56.5,39.5079633 C50.118087,39.5079633 44.9272727,44.6432343 44.9272727,50.9548745 L44.9272727,79.4440154 L32.6060606,79.4440154 L32.6060606,30.6949807 L44.0636364,30.6949807 L44.0636364,35.4814341 C44.0636364,36.4673776 44.7041667,37.3412011 45.6523675,37.6473063 C46.5987688,37.9525217 47.6387312,37.6206112 48.2261838,36.8242037 C51.5853693,32.2735583 56.9597065,29.5559846 62.6030303,29.5559846 C72.4125,29.5559846 80.3939394,37.4497618 80.3939394,47.1534749 L80.3939394,79.4440154 Z" id="Shape"></path>
            <path d="M2.35294118,26 C1.05330871,26 0,27.0398313 0,28.3228346 L0,82.6771654 C0,83.9601687 1.05330871,85 2.35294118,85 L19.6470588,85 C20.945772,85 22,83.9601687 22,82.6771654 L22,28.3228346 C22,27.0398313 20.945772,26 19.6470588,26 L2.35294118,26 Z M17.2941176,80.3543307 L4.70588235,80.3543307 L4.70588235,30.6456693 L17.2941176,30.6456693 L17.2941176,80.3543307 Z" id="Shape"></path>
        </g>
    </g>
</svg>