<?xml version="1.0" encoding="UTF-8"?>
<svg width="60px" height="60px" viewBox="0 0 60 60" version="1.1" xmlns="http://www.w3.org/2000/svg" xmlns:xlink="http://www.w3.org/1999/xlink">
    <title>Icon_Num3</title>
    <defs>
        <path d="M29.636,39.896 C33.848,39.896 36.422,37.868 36.422,34.54 C36.422,31.55 34.394,29.834 30.442,29.522 L30.442,29.314 C33.926,28.872 35.902,27.182 35.902,24.634 C35.902,23.386 35.356,22.19 34.472,21.436 C33.38,20.526 31.69,20.006 29.844,20.006 C26.386,20.006 23.708,21.878 23.708,24.296 C23.708,25.128 24.332,25.57 25.528,25.57 C26.152,25.57 26.62,25.44 26.88,25.18 C27.114,24.92 27.166,24.738 27.192,23.88 C27.218,23.1 27.4,22.346 27.712,21.774 C28.102,21.046 28.804,20.682 29.766,20.682 C31.612,20.682 32.574,22.034 32.574,24.556 C32.574,27.494 31.04,29.028 28.102,29.054 L27.374,29.054 L27.374,29.86 L28.154,29.86 C29.558,29.86 30.858,30.198 31.534,30.692 C32.47,31.368 32.964,32.668 32.964,34.462 C32.964,37.478 31.742,39.22 29.584,39.22 C28.7,39.22 27.868,38.882 27.452,38.336 C27.088,37.868 26.776,36.984 26.75,36.256 C26.698,35.06 26.698,35.008 26.542,34.8 C26.334,34.488 25.84,34.306 25.216,34.306 C23.994,34.306 23.266,34.878 23.266,35.866 C23.266,38.206 25.944,39.896 29.636,39.896 Z" id="path-1"></path>
    </defs>
    <g id="Icon_Num3" stroke="none" stroke-width="1" fill="none" fill-rule="evenodd">
        <g id="3" fill-rule="nonzero" fill="#ffffff">
            <use xlink:href="#path-1"></use>
            <use xlink:href="#path-1"></use>
        </g>
        <circle id="Oval" stroke="#ffffff" stroke-width="2" cx="30" cy="30" r="29"></circle>
    </g>
</svg>
