<?xml version="1.0" encoding="UTF-8"?>
<svg width="120px" height="21px" viewBox="0 0 120 21" version="1.1" xmlns="http://www.w3.org/2000/svg" xmlns:xlink="http://www.w3.org/1999/xlink">
    <!-- Generator: Sketch 59.1 (86144) - https://sketch.com -->
    <title>Group 16</title>
    <desc>Created with Sketch.</desc>
    <defs>
        <polygon id="path-1" points="0.120338028 0.542873239 19.2324507 0.542873239 19.2324507 20.2816901 0.120338028 20.2816901"></polygon>
    </defs>
    <g id="Page-2" stroke="none" stroke-width="1" fill="none" fill-rule="evenodd">
        <g id="Desktop-HD-Copy" transform="translate(-320.000000, -22.000000)">
            <g id="Group-16" transform="translate(320.000000, 22.000000)">
                <path d="M70.0658028,18.7650141 L70.0658028,10.6388169 L76.4866479,10.6388169 C76.8584789,10.6388169 77.2167887,10.2838873 77.2167887,9.84107042 L70.0658028,9.84107042 L70.0658028,2.34191549 L78.0094648,2.34191549 C78.3779155,2.34191549 78.7362254,1.98360563 78.7396056,1.54247887 L65.603831,1.54247887 L65.603831,1.94980282 L66.0246761,1.94980282 C66.5705915,1.94980282 67.0117183,2.38923944 67.0117183,2.84726761 L67.0117183,18.2630423 C67.0117183,18.7261408 66.5722817,19.160507 66.0263662,19.1638873 L65.603831,19.1638873 L65.603831,19.5712113 L78.4725634,19.5712113 C78.8410141,19.5712113 79.1976338,19.207831 79.1976338,18.7650141 L70.0658028,18.7650141 Z" id="Fill-1" fill="#FFFFFF"></path>
                <path d="M91.2444507,18.7056901 C90.7526197,18.8172394 89.9886761,18.8679437 88.9509296,18.8679437 L87.3419155,18.8679437 L87.3419155,17.4144225 L87.3419155,17.0037183 L87.3419155,10.640338 L87.3909296,10.640338 L89.3176901,10.640338 C90.6731831,10.6809014 91.7109296,10.9124507 92.3954366,11.3586479 C93.2810704,11.948507 93.7238873,13.0944225 93.7238873,14.8099155 C93.7238873,17.0155493 92.8957183,18.3152676 91.2444507,18.7056901 L91.2444507,18.7056901 Z M87.3419155,3.75639437 L87.3419155,2.27076056 L87.9976901,2.27076056 C89.0844507,2.27076056 89.8450141,2.29780282 90.2776901,2.35526761 C91.0247324,2.4583662 91.6264225,2.68146479 92.0810704,3.01949296 C92.8788169,3.6211831 93.2776901,4.68428169 93.2776901,6.20709859 C93.2776901,7.37498592 93.0021972,8.25723944 92.4512113,8.86230986 C91.944169,9.43695775 91.0686761,9.77329577 89.8855775,9.8983662 C89.5390986,9.92709859 89.2044507,9.93216901 89.2044507,9.93216901 L87.3419155,9.93216901 L87.3419155,4.13498592 L87.3419155,3.75639437 Z M95.3667042,11.3755493 C94.3272676,10.760338 93.0393803,10.3918873 91.499662,10.268507 C92.676,10.0538592 93.6190986,9.76146479 94.3407887,9.37949296 C95.8771268,8.57329577 96.6529014,7.3124507 96.6529014,5.88766197 C96.6529014,4.61498592 96.0410704,3.584 94.8309296,2.80991549 C93.516,1.96822535 91.3864225,1.54230986 88.4455775,1.54230986 L82.8867042,1.54230986 L82.8867042,1.9496338 L83.3058592,1.9496338 C83.8500845,1.9496338 84.2929014,2.38907042 84.2929014,2.84709859 L84.2929014,18.2713239 C84.2929014,18.7293521 83.8500845,19.1687887 83.3058592,19.1687887 L82.8867042,19.1687887 L82.8867042,19.5778028 L89.4782535,19.5778028 C90.7357183,19.5625915 91.7109296,19.5152676 92.3650141,19.424 C93.5768451,19.2499155 94.5689577,18.9034366 95.3379718,18.3913239 C96.7238873,17.4549859 97.4117746,16.2752676 97.4117746,14.8437183 C97.4117746,13.2414648 96.732338,12.1817465 95.3667042,11.3755493 L95.3667042,11.3755493 Z" id="Fill-3" fill="#FFFFFF"></path>
                <path d="M110.220676,1.76625352 C109.451662,1.76625352 108.729972,1.90146479 108.057296,2.1668169 C107.38293,2.4355493 106.815042,2.81583099 106.353634,3.31104225 C105.844901,3.84512676 105.420676,4.47892958 105.062366,5.21583099 C104.707437,5.95273239 104.435324,6.7724507 104.254479,7.67329577 C104.077014,8.57921127 103.984056,9.55273239 103.984056,10.604 C103.984056,11.9104789 104.127718,13.100338 104.411662,14.1786479 C104.697296,15.2468169 105.11138,16.1814648 105.648845,16.9538592 C106.18462,17.7262535 106.823493,18.3245634 107.573915,18.7318873 C108.317577,19.135831 109.150817,19.3454085 110.063493,19.3454085 C111.310817,19.3454085 112.390817,18.9854085 113.308563,18.272169 C114.22293,17.552169 114.929408,16.5211831 115.421239,15.1842817 C115.91138,13.8524507 116.158141,12.2704789 116.158141,10.4349859 C116.158141,9.24512676 116.02462,8.1296338 115.757577,7.09357746 C115.488845,6.05921127 115.100113,5.15667606 114.596451,4.38428169 C114.092789,3.61864789 113.486028,3.00850704 112.772789,2.5555493 C112.419549,2.32230986 112.012225,2.12625352 111.547437,1.98428169 C111.087718,1.83723944 110.643211,1.76625352 110.220676,1.76625352 M110.068563,1.08174648 C111.511944,1.08174648 112.830254,1.35216901 114.021803,1.89301408 C115.216732,2.4355493 116.259549,3.23498592 117.138423,4.27611268 C117.880394,5.16512676 118.456732,6.15892958 118.860676,7.25076056 C119.26462,8.34428169 119.465746,9.46315493 119.465746,10.604 C119.465746,12.3161127 119.060113,13.8980845 118.235324,15.3380845 C117.417296,16.7899155 116.301803,17.9375211 114.892225,18.7741408 C113.486028,19.6209014 111.94293,20.0451268 110.26462,20.0451268 C108.986873,20.0451268 107.785183,19.808507 106.654479,19.3301972 C105.523775,18.848507 104.533352,18.1741408 103.67138,17.300338 C102.811099,16.4265352 102.143493,15.3972394 101.660113,14.2327324 C101.178423,13.0699155 100.936732,11.8462535 100.936732,10.5786479 C100.936732,8.8868169 101.349127,7.30484507 102.182366,5.84456338 C103.010535,4.38090141 104.127718,3.21639437 105.523775,2.36456338 C106.923211,1.50766197 108.437577,1.08174648 110.068563,1.08174648" id="Fill-5" fill="#FFFFFF"></path>
                <g id="Group-9" transform="translate(42.253521, 0.147099)">
                    <mask id="mask-2" fill="white">
                        <use xlink:href="#path-1"></use>
                    </mask>
                    <g id="Clip-8"></g>
                    <path d="M16.8561127,1.39470423 L16.8561127,15.1896338 L1.52484507,0.542873239 L1.52484507,18.1237183 C1.52315493,18.5817465 1.08371831,19.0228732 0.541183099,19.0228732 L0.120338028,19.0228732 L0.120338028,19.4301972 L2.51357746,19.4301972 L2.51357746,5.43752113 L17.8228732,20.2820282 L17.8228732,2.69949296 C17.8228732,2.24146479 18.2673803,1.80202817 18.8116056,1.80202817 L19.2324507,1.80202817 L19.2324507,1.39470423 L16.8561127,1.39470423 Z" id="Fill-7" fill="#FFFFFF" mask="url(#mask-2)"></path>
                </g>
                <path d="M26.2690141,13.3612958 L29.8166197,5.55791549 L33.2323944,13.3612958 L26.2690141,13.3612958 Z M39.8966197,19.1703099 C39.4014085,19.1703099 39.0853521,18.8711549 38.8994366,18.5314366 L31.0233803,0.690309859 L22.9090141,18.5314366 C22.728169,18.8711549 22.4104225,19.1703099 21.9101408,19.1703099 L21.4892958,19.1703099 L21.4892958,19.5776338 L23.4447887,19.5776338 L25.9478873,14.0643944 L33.5416901,14.0643944 L35.664507,18.7967887 C35.8571831,19.1939718 36.1597183,19.5708732 36.7225352,19.5776338 L40.3208451,19.5776338 L40.3208451,19.1703099 L39.8966197,19.1703099 Z" id="Fill-10" fill="#FFFFFF"></path>
                <path d="M4.33183099,19.5705352 L0,19.5705352 L0,19.1649014 L0.422535211,19.1649014 C0.966760563,19.1615211 1.40957746,18.7254648 1.40957746,18.2640563 L1.40957746,2.84659155 C1.40957746,2.38856338 0.966760563,1.94912676 0.422535211,1.94912676 L0,1.94912676 L0,1.54180282 L4.33183099,1.54180282 L4.33183099,19.5705352 Z" id="Fill-12" fill="#FFFFFF"></path>
                <path d="M19.5588169,19.1694648 C19.1971268,19.1694648 18.8624789,18.9936901 18.5734648,18.7655211 L18.5700845,18.7621408 C18.5481127,18.7452394 18.527831,18.7249577 18.5024789,18.7046761 L17.7283944,17.9812958 L9.44332394,9.58467606 L16.1819155,3.14016901 L17.0134648,2.41171831 C17.0388169,2.39143662 17.0607887,2.37622535 17.0861408,2.35594366 L17.0945915,2.35087324 C17.3734648,2.12101408 17.711493,1.95030986 18.0748732,1.95030986 L18.4889577,1.95030986 L18.4889577,1.54129577 L17.0861408,1.54129577 C16.4810704,1.54129577 16.0483944,1.93847887 15.6410704,2.32552113 L5.69797183,11.7193239 L5.94642254,12.0235493 L6.26247887,11.7514366 C6.66304225,11.4015775 7.26980282,11.4472113 7.55712676,11.7987606 L7.55712676,11.7835493 L14.5306479,18.7959437 C14.9464225,19.1812958 15.3774085,19.5767887 16.2089577,19.5767887 L19.9712113,19.5767887 L19.9712113,19.1694648 L19.5588169,19.1694648 Z" id="Fill-14" fill="#FFFFFF"></path>
            </g>
        </g>
    </g>
</svg>