<?xml version="1.0" encoding="UTF-8"?>
<svg width="285px" height="160px" viewBox="0 0 285 160" version="1.1" xmlns="http://www.w3.org/2000/svg" xmlns:xlink="http://www.w3.org/1999/xlink">
    <!-- Generator: Sketch 59.1 (86144) - https://sketch.com -->
    <title>Artboard</title>
    <desc>Created with Sketch.</desc>
    <g id="Artboard" stroke="none" stroke-width="1" fill="none" fill-rule="evenodd">
        <g id="Group-38" transform="translate(0.000000, -0.000000)" fill="#000000">
            <g id="Group-37">
                <path d="M23.75,26.3424943 C23.75,29.4361294 22.1411229,32.5768881 20.0262614,34.5374446 C17.9145902,36.4448991 15.1476277,37.4781035 11.7773763,37.4781035 C8.40425353,37.4781035 5.58560797,36.6509773 3.0199546,34.7403578 C1.91355247,33.9192099 0.807469373,34.1221232 0.807469373,35.464445 L0.807469373,36.6006886 L0,36.6006886 L0,29.8482858 L0.807469373,29.8482858 C1.15808527,30.6694337 2.11486151,31.9618185 3.27262775,33.041795 C5.33580611,35.0522885 8.05395667,35.8766014 11.0187188,35.8766014 C14.1391684,35.8766014 15.7512358,35.3083038 17.2624893,33.969147 C18.7708714,32.6328036 19.5234673,30.9314273 19.5234673,29.127012 C19.5234673,24.6907035 16.5555149,22.8363511 11.4758913,20.6697164 C8.6540554,19.4835357 6.54238421,18.4003942 5.13449707,17.4262702 C2.8703287,15.771666 0.807469373,13.398953 0.807469373,9.01891157 C0.807469373,4.53583098 4.63170303,0 10.6712932,0 C14.0903565,0 16.8573189,0.877063302 19.5722792,2.6783136 C20.8825426,3.55572857 21.8393188,3.09047005 21.8393188,1.95422645 L21.8393188,0.877063302 L22.595105,0.877063302 L22.595105,7.6266527 L21.8393188,7.6266527 C21.3885269,6.33743295 20.3280654,5.2040027 19.2736654,4.42962685 C17.0583089,2.6783136 14.0903565,1.59833709 10.9210951,1.59833709 C6.59119607,1.59833709 4.53120802,4.27700236 4.53120802,6.85860689 C4.53120802,11.2854204 8.45306539,12.8837575 12.6336575,14.897416 C15.6475505,16.3399636 17.8140952,17.4262702 19.2219823,18.2474181 C22.8969091,20.3110137 23.75,23.2485076 23.75,26.3424943" id="Fill-7-Copy"></path>
                <path d="M73.9903846,1.92195403 L73.9903846,2.72022033 L73.1217674,2.72022033 C72.0330684,2.72022033 71.0559602,3.4701275 71.0559602,4.31641239 L71.0559602,34.0198199 C71.0559602,34.3675289 71.2202467,34.6699437 71.4375732,34.9662286 C71.7630463,35.4164453 72.4146814,35.7672194 73.1217674,35.7672194 L73.9903846,35.7672194 L73.9903846,36.5171265 L64.9732291,36.5171265 L64.9732291,7.7144931 L49.3243435,36.5171265 L34.2279011,7.7144931 L34.2279011,36.5171265 L29.2307692,36.5171265 L29.2307692,35.7672194 L30.0959422,35.7672194 C31.2376813,35.7672194 32.1620939,34.9205939 32.1620939,33.9714607 L32.1620939,4.41313066 C32.1620939,3.56684577 31.290377,2.66879618 30.0959422,2.66879618 L29.2307692,2.66879618 L29.2307692,1.92195403 L36.4517952,1.92195403 C37.5931899,1.92195403 38.2971762,2.56901289 38.6822333,3.31892006 L51.6074772,27.9824201 L64.1049564,4.96653627 C65.2429069,2.96814605 65.5687244,1.92195403 67.1444277,1.92195403 L73.9903846,1.92195403 Z" id="Fill-9-Copy"></path>
                <path d="M91.9429682,1.73315624 C90.6005587,2.24653971 89.4648501,3.0155629 88.5856341,3.99604116 C87.5531121,5.02350943 86.7269636,6.30591609 86.0043292,7.75068377 C85.3318142,9.18878868 84.7621582,10.7794358 84.3992031,12.5755766 C84.0896431,14.3780295 83.8862179,16.2800732 83.8862179,18.3378151 C83.8862179,20.9061351 84.195778,23.2689615 84.7120389,25.3796548 C85.2784192,27.4840361 86.1045677,29.3394404 87.1934329,30.8304968 C88.2259548,32.3713485 89.5179175,33.5545151 90.9635137,34.3263436 C92.4621774,35.1451622 94.1144745,35.5561495 95.9226982,35.5561495 C98.4008163,35.5561495 100.522203,34.8400778 102.327479,33.4486122 C104.138978,32.0136633 105.534455,30.0057168 106.51391,27.3844453 C107.496312,24.7600178 107.962454,21.631675 107.962454,18.0267692 C107.962454,15.6670989 107.703013,13.4536587 107.186752,11.4488682 C106.670491,9.39428234 105.894462,7.5949855 104.858664,6.10357848 C103.879538,4.61252212 102.69371,3.37675482 101.294957,2.5049848 C100.572323,2.0442021 99.7461741,1.63040942 98.8669581,1.37196432 C97.9376228,1.06372384 97.0584068,0.960977014 96.2325858,0.960977014 C94.6838029,0.960977014 93.2883259,1.21942211 91.9429682,1.73315624 M104.072147,1.59517207 C106.493536,2.67514857 108.608237,4.27383733 110.400199,6.33426792 C111.876109,8.08558117 113.038977,10.0461377 113.882115,12.2127724 C114.674418,14.3263051 115.096154,16.5428768 115.096154,18.812199 C115.096154,22.2153031 114.252681,25.3089381 112.613896,28.1405796 C110.927285,31.0313014 108.710243,33.2978102 105.864109,34.9492494 C103.017974,36.5978752 99.903279,37.4781035 96.4755428,37.4781035 C93.9454594,37.4781035 91.4635362,37.00968 89.195324,36.0295776 C86.9241017,35.1053906 84.9214396,33.7630688 83.1803141,32.0085905 C81.4391886,30.3103793 80.0689637,28.2967207 79.1201406,25.9771099 C78.1171373,23.657499 77.6442308,21.284786 77.6442308,18.7562836 C77.6442308,15.4062816 78.4877034,12.3158115 80.1743142,9.42790299 C81.8642694,6.5431595 84.0779669,4.22390029 86.9241017,2.51935906 C89.7224107,0.873898278 92.8340956,2.27373675e-13 96.1049767,2.27373675e-13 C99.0056262,2.27373675e-13 101.69524,0.561615916 104.072147,1.59517207" id="Fill-10-Copy"></path>
                <path d="M133.963186,1.73315624 C132.620612,2.24653971 131.481815,3.0155629 130.60544,3.99604116 C129.572792,5.02350943 128.74687,6.30591609 128.023819,7.75068377 C127.351222,9.18878868 126.781496,10.7794358 126.418497,12.5755766 C126.108899,14.3780295 125.905449,16.2800732 125.905449,18.3378151 C125.905449,20.9061351 126.215047,23.2689615 126.728422,25.3796548 C127.301097,27.4840361 128.12407,29.3394404 129.209792,30.8304968 C130.245717,32.3713485 131.537838,33.5545151 132.983611,34.3263436 C134.482458,35.1451622 136.134958,35.5561495 137.940454,35.5561495 C140.421825,35.5561495 142.543472,34.8400778 144.348968,33.4486122 C146.157741,32.0136633 147.553389,30.0057168 148.535912,27.3844453 C149.518435,24.7600178 149.981685,21.631675 149.981685,18.0267692 C149.981685,15.6670989 149.725161,13.4536587 149.208837,11.4488682 C148.692513,9.39428234 147.916388,7.5949855 146.88374,6.10357848 C145.901217,4.61252212 144.711968,3.37675482 143.31632,2.5049848 C142.593597,2.0442021 141.767347,1.63040942 140.888023,1.37196432 C139.958902,1.06372384 139.079578,0.960977014 138.253329,0.960977014 C136.70108,0.960977014 135.308708,1.21942211 133.963186,1.73315624 M146.091378,1.59517207 C148.515777,2.67514857 150.624124,4.27383733 152.419429,6.33426792 C153.895339,8.08558117 155.058208,10.0461377 155.901346,12.2127724 C156.693648,14.3263051 157.115385,16.5428768 157.115385,18.812199 C157.115385,22.2153031 156.268902,25.3089381 154.633127,28.1405796 C152.946516,31.0313014 150.729809,33.2978102 147.880329,34.9492494 C145.03386,36.5978752 141.9195,37.4781035 138.494774,37.4781035 C135.96168,37.4781035 133.482767,37.00968 131.211545,36.0295776 C128.943332,35.1053906 126.94067,33.7630688 125.199545,32.0085905 C123.458754,30.3103793 122.088194,28.2967207 121.139371,25.9771099 C120.136368,23.657499 119.663462,21.284786 119.663462,18.7562836 C119.663462,15.4062816 120.506934,12.3158115 122.193545,9.42790299 C123.880156,6.5431595 126.097198,4.22390029 128.943332,2.51935906 C131.741976,0.873898278 134.853326,2.27373675e-13 138.121197,2.27373675e-13 C141.024857,2.27373675e-13 143.714471,0.561615916 146.091378,1.59517207" id="Fill-11-Copy"></path>
                <path d="M192.740385,1.92195403 C192.740385,2.76857947 192.028277,3.41563833 191.315847,3.41563833 L181.99841,3.41563833 C180.928313,3.41563833 180.061905,4.26498823 180.061905,5.16610284 L180.061905,34.0198199 C180.061905,34.9205939 180.928313,35.7188602 181.99841,35.7188602 L182.86159,35.7188602 L182.86159,36.5171265 L171.610876,36.5171265 L171.610876,35.7188602 L172.427895,35.7188602 C173.494764,35.7188602 174.361172,34.8664453 174.361172,34.0198199 L174.361172,5.16610284 C174.361172,4.26498823 173.494764,3.41563833 172.427895,3.41563833 L163.110135,3.41563833 C162.398028,3.41563833 161.682692,2.76857947 161.682692,1.92195403 L192.740385,1.92195403 Z" id="Fill-12-Copy"></path>
                <path d="M231.00546,4.46364156 L231.00546,33.9727188 C231.00546,34.8690249 231.898059,35.7173875 233.00129,35.7173875 L233.846154,35.7173875 L233.846154,36.5171265 L225.106765,36.5171265 L225.106765,19.3689813 L206.047081,19.3689813 L206.047081,36.5171265 L197.307692,36.5171265 L197.307692,35.7173875 L198.149552,35.7173875 C199.255787,35.7173875 200.151724,34.8690249 200.151724,33.9727188 L200.151724,4.46364156 C200.151724,3.5669954 199.255787,2.72203306 198.149552,2.72203306 L197.307692,2.72203306 L197.307692,1.92195403 L206.047081,1.92195403 L206.047081,17.8266275 L225.106765,17.8266275 L225.106765,1.92195403 L233.846154,1.92195403 L233.846154,2.72203306 L233.00129,2.72203306 C231.898059,2.72203306 231.00546,3.5669954 231.00546,4.46364156" id="Fill-13-Copy"></path>
            </g>
            <g id="Group-29" transform="translate(0.000000, 122.044081)">
                <path d="M22.8365385,11.5333049 C22.8365385,7.1550762 20.6154453,4.0150741 16.7789157,3.18537447 C15.7222757,2.98585314 14.1135335,2.88293104 11.8924404,2.88293104 L8.22115385,2.88293104 L8.22115385,20.1805173 L11.8924404,20.1805173 C14.1135335,20.1805173 15.7222757,20.0744338 16.7789157,19.8250321 C20.6154453,18.9984939 22.8365385,15.8616532 22.8365385,11.5333049 M29.2307692,11.1745801 C29.2307692,13.9460438 27.9746104,17.3268934 25.0368196,19.1757026 C23.4697764,20.1543603 21.5313992,20.7105432 19.069567,21.0213615 C17.7592691,21.2264736 15.8179026,21.3321799 13.2514459,21.3321799 L8.74661194,21.3321799 L8.74661194,36.5171265 L0,36.5171265 L0,35.7001783 L0.837660641,35.7001783 C1.93837728,35.7001783 2.82984483,34.8268767 2.82984483,33.9539252 L2.82984483,3.52767857 C2.82984483,2.5983737 1.93837728,1.72857234 0.837660641,1.72857234 L0,1.72857234 L0,0.960977014 L13.2514459,0.960977014 C15.8179026,0.960977014 17.7592691,1.06668326 19.069567,1.26864518 C21.5313992,1.57316316 23.4697764,2.14159673 25.0368196,3.16715728 C27.9746104,4.96311333 29.2307692,8.3530635 29.2307692,11.1745801" id="Fill-22-Copy"></path>
                <path d="M47.5339994,2.69378259 C46.1593708,3.20120463 44.9961203,3.97653991 44.0955825,4.95070608 C43.0346658,5.98448645 42.1918376,7.2668931 41.4483235,8.70219264 C40.7594994,10.1466097 40.1793839,11.7404128 39.8076269,13.5365536 C39.4902242,15.3390065 39.2788462,17.2410502 39.2788462,19.2956361 C39.2788462,21.8639561 39.5959133,24.2267824 40.124694,26.3406318 C40.7111844,28.4418571 41.5540126,30.2941053 42.666264,31.7851617 C43.7268451,33.3291695 45.0474549,34.512336 46.5311278,35.2841646 C48.0661354,36.1029832 49.7581667,36.5171265 51.6072217,36.5171265 C54.1487916,36.5171265 56.3216242,35.7978987 58.1706792,34.4095892 C60.0230895,32.9683282 61.452408,30.9663431 62.4586348,28.3391102 C63.4648616,25.7178388 63.9423077,22.5863399 63.9423077,18.9845902 C63.9423077,16.6245692 63.67322,14.4146357 63.147459,12.4066892 C62.6186782,10.3489473 61.824165,8.54649438 60.7632483,7.06139944 C59.7600412,5.57034309 58.5424362,4.33457578 57.1131177,3.45964973 C56.3726234,3.00202307 55.5267755,2.58823038 54.6262377,2.33294134 C53.6743652,2.01838876 52.7738275,1.92195403 51.9279796,1.92195403 C50.3382821,1.92195403 48.9123188,2.17408703 47.5339994,2.69378259 M59.3104082,1.59503737 C61.7346118,2.67808743 63.8461337,4.27945431 65.6412951,6.34287567 C67.1170863,8.09439267 68.2795269,10.0516189 69.1229318,12.2180706 C69.9118263,14.3314248 70.3365385,16.5414799 70.3365385,18.8169399 C70.3365385,22.2197567 69.4901239,25.306801 67.8514706,28.1445328 C66.1683395,31.0318458 63.9514757,33.2981632 61.1055696,34.9526277 C58.2563194,36.5979495 55.1418748,37.4781035 51.7177582,37.4781035 C49.1848684,37.4781035 46.7061544,37.0097196 44.4351147,36.0360294 C42.1670848,35.1024262 40.1642491,33.7633825 38.4266078,32.0153819 C36.6826125,30.3109846 35.3124976,28.3006608 34.3637508,25.9812458 C33.3608281,23.6649955 32.8846154,21.2893182 32.8846154,18.7638424 C32.8846154,15.4113101 33.7313644,12.3239142 35.4178396,9.43660114 C37.1043149,6.54893649 39.3211787,4.22354361 42.1670848,2.52231108 C44.9651689,0.87698924 48.0762693,2.27373675e-13 51.3438777,2.27373675e-13 C54.2476383,2.27373675e-13 56.933692,0.564733248 59.3104082,1.59503737" id="Fill-23-Copy"></path>
                <path d="M123.317308,0.985946443 L123.317308,1.75562909 L122.432804,1.75562909 C120.871739,1.75562909 119.936815,2.63170491 119.470835,3.91579681 L110.113019,37.4781035 C109.281901,35.4706785 100.550224,16.6836802 98.5231808,11.7927543 L89.218751,37.4781035 L76.952353,3.35152673 C76.5872149,2.37292019 75.8632002,1.80548992 74.8215021,1.80548992 L73.9903846,1.80548992 L73.9903846,0.985946443 C73.9903846,0.985946443 79.4453759,0.929765228 80.7451093,0.985946443 C81.8375576,0.985946443 82.5645382,1.80548992 82.8792556,2.63170491 L91.4537387,25.4834141 L100.292189,0.985946443 L111.362661,25.4834141 L117.390405,3.97197802 C117.805964,2.47896223 118.690468,0.985946443 120.301953,0.985946443 L123.317308,0.985946443 Z" id="Fill-24-Copy"></path>
                <path d="M155.288462,18.0002038 C155.288462,15.7770776 155.033674,13.6604695 154.51759,11.6941156 C154.00476,9.72776175 153.286929,8.01818016 152.363771,6.57454133 C151.387897,5.13125521 150.56724,3.98847734 149.234078,3.11164222 C148.208419,2.43514594 145.998631,1.92195403 143.844486,1.92195403 L137.019231,1.92195403 L137.019231,34.5951725 L143.844486,34.5951725 C146.206886,34.5951725 148.208419,34.1881461 149.951909,32.8415023 C151.645939,31.4451265 152.979101,29.535206 153.905514,26.9988741 C154.828347,24.4628948 155.238675,21.4662773 155.288462,18.0002038 M162.596154,18.7916605 C162.596154,22.0222899 161.843578,24.9949444 160.179489,27.710323 C158.629169,30.3760642 156.432912,32.5202625 153.646751,34.1121568 C150.915268,35.700905 147.486565,36.4674891 144.220196,36.4674891 L127.884615,36.5171265 L127.884615,35.700905 L128.740772,35.700905 C129.866579,35.700905 130.774697,34.8318999 130.774697,33.9073149 L130.774697,3.57078867 C130.774697,2.6430576 129.866579,1.77405254 128.740772,1.77405254 L127.884615,1.77405254 L127.884615,0.960977014 L144.220196,0.960977014 C147.058657,0.960977014 149.630863,1.46678969 151.933758,2.49729127 C154.29201,3.52115121 156.325934,5.00433242 158.041984,6.94718444 C159.485326,8.64149961 160.66615,10.4878732 161.41533,12.5359426 C162.219866,14.5903042 162.596154,16.6908075 162.596154,18.7916605" id="Fill-25-Copy"></path>
                <path d="M195.480769,34.9253731 C195.480769,35.8002433 194.800449,36.5171265 194.062881,36.5171265 L168.076923,36.5171265 L168.076923,35.6978314 L168.919335,35.6978314 C170.019363,35.6978314 170.912699,34.8292528 170.912699,33.9044 L170.912699,3.52092471 C170.912699,2.64605454 170.019363,1.77398061 168.919335,1.77398061 L168.076923,1.77398061 L168.076923,0.960977014 L194.587433,0.960977014 C194.587433,1.82990519 193.852861,2.54678841 193.118621,2.54678841 L176.79061,2.54678841 L176.79061,17.3038872 L191.490713,17.3038872 C191.490713,18.2224485 190.756473,18.8928444 190.022234,18.8928444 L176.79061,18.8928444 L176.79061,34.9253731 L195.480769,34.9253731 Z" id="Fill-26-Copy"></path>
                <path d="M217.204362,19.8250971 C220.852437,18.995549 222.884615,15.8620912 222.884615,11.534885 C222.884615,7.15745639 220.852437,4.01767686 217.204362,3.18848006 C216.267069,2.98899518 214.705024,2.88293104 212.619323,2.88293104 L209.182692,2.88293104 L209.182692,20.1805173 L212.619323,20.1805173 C214.705024,20.1805173 216.267069,20.0744532 217.204362,19.8250971 L217.204362,19.8250971 Z M231.105769,35.6970281 L231.105769,36.5171265 L223.889803,36.5171265 C222.740513,36.5171265 222.113657,35.7498812 221.746362,34.9791357 L215.632283,21.2793268 C214.897691,21.3290297 214.115697,21.3290297 213.330387,21.3290297 L208.783612,21.3290297 L208.783612,36.5171265 L200.048077,36.5171265 L200.048077,35.7498812 L200.883774,35.7498812 C201.985661,35.7498812 202.872408,34.8268767 202.872408,33.9535752 L202.872408,3.52767857 C202.872408,2.5983737 201.985661,1.72857234 200.883774,1.72857234 L200.048077,1.72857234 L200.048077,0.960977014 L213.330387,0.960977014 C215.841455,0.960977014 217.775724,1.06668326 219.080485,1.26864518 C221.540504,1.57316316 223.522508,2.14159673 225.093127,3.16715728 C227.968177,4.96311333 229.225203,8.3530635 229.225203,11.1745801 C229.225203,13.9428936 227.968177,17.3268934 225.093127,19.1757026 C224.152678,19.7381858 223.158527,20.1512102 221.958518,20.4588783 L228.23072,34.4663554 C228.595032,35.1313947 229.27559,35.6970281 230.270072,35.6970281 L231.105769,35.6970281 Z" id="Fill-27-Copy"></path>
            </g>
            <g id="Group-31" transform="translate(0.000000, 61.502529)">
                <path d="M8.72716169,36.5171265 L0,36.5171265 L0,35.7203773 L0.840060123,35.7203773 C1.94769989,35.7203773 2.83907666,34.8750001 2.83907666,33.9724937 L2.83907666,4.46658685 C2.83907666,3.57020143 1.94769989,2.72176378 0.840060123,2.72176378 L0,2.72176378 L0,1.92195403 L26.4903846,1.92195403 C26.4903846,2.77005162 25.8059405,3.47056526 25.0165306,3.47056526 L8.72716169,3.47056526 L8.72716169,17.824974 L23.4443753,17.824974 C23.4443753,18.6700111 22.7059487,19.3735853 21.9705213,19.3735853 L8.72716169,19.3735853 L8.72716169,36.5171265 Z" id="Fill-14-Copy"></path>
                <path d="M58.4615385,34.9746363 C58.4615385,35.8196734 57.7812103,36.5171265 57.0436333,36.5171265 L31.0576923,36.5171265 L31.0576923,35.7200372 L31.9001144,35.7200372 C33.0031514,35.7200372 33.8931698,34.8750001 33.8931698,33.9721536 L33.8931698,4.41523852 C33.8931698,3.57020143 33.0031514,2.71870329 31.9001144,2.71870329 L31.0576923,2.71870329 L31.0576923,1.92195403 L57.5681916,1.92195403 C57.5681916,2.77005162 56.8339431,3.46750477 56.0996946,3.46750477 L39.7748134,3.46750477 L39.7748134,17.8219135 L54.4717664,17.8219135 C54.4717664,18.7213595 53.7375179,19.3735853 53.0029365,19.3735853 L39.7748134,19.3735853 L39.7748134,34.9746363 L58.4615385,34.9746363 Z" id="Fill-15-Copy"></path>
                <path d="M87.6923077,25.2810876 L80.0100336,9.36336578 L72.1634615,25.2810876 L87.6923077,25.2810876 Z M101.394231,35.7646948 L101.394231,36.5171265 L94.2323602,36.5171265 C93.0398616,36.5171265 92.3894391,35.8134159 92.0083349,35.0613273 L87.6682867,25.9051976 L71.4489991,25.9051976 L66.1892101,36.5171265 L62.1153846,36.5171265 L62.1153846,35.7646948 L62.9859395,35.7646948 C64.0174663,35.7646948 64.7205142,35.2133233 65.1016184,34.5099558 L81.9716725,2.27373675e-13 L98.4114365,34.5099558 C98.7925408,35.2133233 99.4955887,35.7646948 100.527115,35.7646948 L101.394231,35.7646948 Z" id="Fill-16-Copy"></path>
                <path d="M136.105769,1.92195403 C136.105769,2.77164448 135.372718,3.42142781 134.639334,3.42142781 L125.047855,3.42142781 C123.946283,3.42142781 123.054393,4.27111827 123.054393,5.16916786 L123.054393,34.0228849 C123.054393,34.9236589 123.946283,35.7219252 125.047855,35.7219252 L125.936422,35.7219252 L125.936422,36.5171265 L114.354804,36.5171265 L114.354804,35.7219252 L115.195853,35.7219252 C116.294101,35.7219252 117.185992,34.8722348 117.185992,34.0228849 L117.185992,5.16916786 C117.185992,4.27111827 116.294101,3.42142781 115.195853,3.42142781 L105.604042,3.42142781 C104.87099,3.42142781 104.134615,2.77164448 104.134615,1.92195403 L136.105769,1.92195403 Z" id="Fill-17-Copy"></path>
                <path d="M174.370611,4.46692691 L174.370611,33.9724937 C174.370611,34.8750001 175.263283,35.7234378 176.366605,35.7234378 L177.211538,35.7234378 L177.211538,36.5171265 L168.471431,36.5171265 L168.471431,19.3735853 L149.41018,19.3735853 L149.41018,36.5171265 L140.673077,36.5171265 L140.673077,35.7234378 L141.512002,35.7234378 C142.621332,35.7234378 143.514338,34.8750001 143.514338,33.9724937 L143.514338,4.46692691 C143.514338,3.57020143 142.621332,2.72210384 141.512002,2.72210384 L140.673077,2.72210384 L140.673077,1.92195403 L149.41018,1.92195403 L149.41018,17.824974 L168.471431,17.824974 L168.471431,1.92195403 L177.211538,1.92195403 L177.211538,2.72210384 L176.366605,2.72210384 C175.263283,2.72210384 174.370611,3.57020143 174.370611,4.46692691" id="Fill-18-Copy"></path>
                <path d="M210.096154,34.9746363 C210.096154,35.8196734 209.415834,36.5171265 208.678266,36.5171265 L182.692308,36.5171265 L182.692308,35.7200372 L183.531724,35.7200372 C184.638076,35.7200372 185.528084,34.8750001 185.528084,33.9721536 L185.528084,4.41523852 C185.528084,3.57020143 184.638076,2.71870329 183.531724,2.71870329 L182.692308,2.71870329 L182.692308,1.92195403 L209.206146,1.92195403 C209.206146,2.77005162 208.468578,3.46750477 207.734006,3.46750477 L191.406327,3.46750477 L191.406327,17.8219135 L206.10643,17.8219135 C206.10643,18.7213595 205.372191,19.3735853 204.637618,19.3735853 L191.406327,19.3735853 L191.406327,34.9746363 L210.096154,34.9746363 Z" id="Fill-19-Copy"></path>
                <path d="M233.2693,20.276233 C237.159737,19.4691052 239.326923,16.4176017 239.326923,12.2070053 C239.326923,7.95096098 237.159737,4.89604037 233.2693,4.08925428 C232.269738,3.89516089 230.603918,3.79196335 228.379654,3.79196335 L224.711538,3.79196335 L224.711538,20.6220473 L228.379654,20.6220473 C230.603918,20.6220473 232.269738,20.5219252 233.2693,20.276233 L233.2693,20.276233 Z M247.548077,35.7191929 L247.548077,36.5171265 L240.119877,36.5171265 C238.936784,36.5171265 238.288079,35.7706176 237.913393,35.020703 L231.616417,21.6911592 C230.863291,21.7425839 230.054884,21.7425839 229.249889,21.7425839 L224.566315,21.7425839 L224.566315,36.5171265 L215.576923,36.5171265 L215.576923,35.7706176 L216.440612,35.7706176 C217.568423,35.7706176 218.484322,34.8725591 218.484322,34.0232009 L218.484322,4.41928527 C218.484322,3.52122684 217.568423,2.67186858 216.440612,2.67186858 L215.576923,2.67186858 L215.576923,1.92195403 L229.249889,1.92195403 C231.8314,1.92195403 233.822901,2.0217383 235.165696,2.22130684 C237.698409,2.52065965 239.745191,3.0706651 241.35518,4.0685078 C244.318202,5.81898954 245.612199,9.11118935 245.612199,11.8564487 C245.612199,14.553008 244.318202,17.8455483 241.35518,19.6443897 C240.387412,20.1974602 239.367092,20.5935322 238.128377,20.892885 L244.588467,34.5248467 C244.963495,35.171912 245.664069,35.7191929 246.687801,35.7191929 L247.548077,35.7191929 Z" id="Fill-20-Copy"></path>
                <path d="M285,1.92195403 L285,2.6718612 L283.874382,2.6718612 C282.696169,2.6718612 281.87736,3.5212111 281.161147,4.51904398 L271.327657,17.4976826 L271.327657,34.0228849 C271.327657,34.8722348 272.199061,35.7219252 273.275005,35.7219252 L274.146409,35.7219252 L274.146409,36.5171265 L262.623031,36.5171265 L262.623031,35.7219252 L263.444761,35.7219252 C264.517783,35.7219252 265.38594,34.8722348 265.38594,34.0228849 L265.38594,18.1478065 C265.38594,18.1478065 257.400775,7.86876555 254.786563,4.51904398 C254.122945,3.62099438 253.047001,2.57514292 251.868463,2.57514292 L251.201923,2.57514292 L251.201923,1.92195403 L258.169909,1.92195403 C259.549741,1.92195403 260.421145,2.42393548 260.985739,3.17077764 L270.459175,15.4539982 L279.573204,3.42142781 C280.236822,2.57514292 281.263417,1.92195403 282.286764,1.92195403 L285,1.92195403 Z" id="Fill-21-Copy"></path>
            </g>
        </g>
    </g>
</svg>