<?xml version="1.0" encoding="UTF-8"?>
<svg width="456px" height="38px" viewBox="0 0 456 38" version="1.1" xmlns="http://www.w3.org/2000/svg" xmlns:xlink="http://www.w3.org/1999/xlink">
    <!-- Generator: Sketch 59.1 (86144) - https://sketch.com -->
    <title>Group 11</title>
    <desc>Created with Sketch.</desc>
    <defs>
        <polygon id="path-1" points="418.594737 0.000421052632 455.225263 0.000421052632 455.225263 37.5073684 418.594737 37.5073684"></polygon>
    </defs>
    <g id="Page-2" stroke="none" stroke-width="1" fill="none" fill-rule="evenodd">
        <g id="Desktop-HD-Copy" transform="translate(-531.000000, -3257.000000)">
            <g id="Group-26" transform="translate(531.000000, 3257.000000)">
                <g id="Group-11">
                    <path d="M26.9326316,35.0303158 C26.9326316,35.9082105 26.2631579,36.6303158 25.5389474,36.6303158 L1.26121336e-13,36.6303158 L1.26121336e-13,35.8029474 L0.827368421,35.8029474 C1.90736842,35.8029474 2.78736842,34.9271579 2.78736842,33.9987368 L2.78736842,3.40505263 C2.78736842,2.52715789 1.90736842,1.65136842 0.827368421,1.65136842 L1.26121336e-13,1.65136842 L1.26121336e-13,0.824 L26.0526316,0.824 C26.0526316,1.70189474 25.3326316,2.424 24.6084211,2.424 L8.56421053,2.424 L8.56421053,17.2808421 L23.0105263,17.2808421 C23.0105263,18.2113684 22.2905263,18.8808421 21.5663158,18.8808421 L8.56421053,18.8808421 L8.56421053,35.0303158 L26.9326316,35.0303158 Z" id="Fill-1" fill="#000000"></path>
                    <path d="M64.7450526,0.875368421 L64.7450526,1.65010526 L63.6103158,1.65010526 C62.4250526,1.65010526 61.5997895,2.52589474 60.8755789,3.55747368 L50.9703158,16.9722105 L50.9703158,34.0522105 C50.9703158,34.928 51.8461053,35.8037895 52.9324211,35.8037895 L53.8082105,35.8037895 L53.8082105,36.6290526 L42.1997895,36.6290526 L42.1997895,35.8037895 L43.0229474,35.8037895 C44.1071579,35.8037895 44.9829474,34.928 44.9829474,34.0522105 L44.9829474,17.6437895 C44.9829474,17.6437895 36.9366316,7.01431579 34.3050526,3.55747368 C33.6355789,2.63115789 32.5492632,1.54694737 31.3661053,1.54694737 L30.6945263,1.54694737 L30.6945263,0.875368421 L37.7092632,0.875368421 C39.1029474,0.875368421 39.9787368,1.39115789 40.5471579,2.16589474 L50.0945263,14.8585263 L59.2755789,2.42273684 C59.9471579,1.54694737 60.9787368,0.875368421 62.0103158,0.875368421 L64.7450526,0.875368421 Z" id="Fill-3" fill="#000000"></path>
                    <path d="M97.0888421,35.0303158 C97.0888421,35.9082105 96.4193684,36.6303158 95.6993684,36.6303158 L70.1604211,36.6303158 L70.1604211,35.8029474 L70.9835789,35.8029474 C72.0677895,35.8029474 72.9435789,34.9271579 72.9435789,33.9987368 L72.9435789,3.40505263 C72.9435789,2.52715789 72.0677895,1.65136842 70.9835789,1.65136842 L70.1604211,1.65136842 L70.1604211,0.824 L96.2130526,0.824 C96.2130526,1.70189474 95.4888421,2.424 94.7688421,2.424 L78.7246316,2.424 L78.7246316,17.2808421 L93.1709474,17.2808421 C93.1709474,18.2113684 92.4467368,18.8808421 91.7225263,18.8808421 L78.7246316,18.8808421 L78.7246316,35.0303158 L97.0888421,35.0303158 Z" id="Fill-5" fill="#000000"></path>
                    <path d="M153.182526,4.43621053 C150.809895,2.47410526 148.125684,1.33936842 144.822526,1.33936842 C143.946737,1.33936842 143.121474,1.44252632 142.294105,1.59831579 C141.932,1.65094737 141.574105,1.75410526 141.159368,1.85515789 C140.439368,2.112 139.717263,2.42357895 139.045684,2.78568421 C138.993053,2.78568421 138.942526,2.83621053 138.942526,2.83621053 C138.738316,2.93936842 138.527789,3.09305263 138.321474,3.19831579 C138.117263,3.352 137.961474,3.45515789 137.755158,3.55831579 C137.704632,3.60884211 137.704632,3.60884211 137.652,3.66357895 C136.982526,4.12673684 136.361474,4.69305263 135.793053,5.36252632 C133.372,7.99410526 132.182526,12.4846316 132.134105,18.7772632 C132.182526,25.0741053 133.372,29.5625263 135.793053,32.1941053 C136.361474,32.8635789 136.982526,33.4298947 137.652,33.8951579 C137.704632,33.8951579 137.704632,33.9477895 137.755158,33.9477895 C137.961474,34.1014737 138.117263,34.2067368 138.321474,34.3077895 C138.527789,34.4635789 138.738316,34.6172632 138.942526,34.7225263 C138.942526,34.7225263 138.993053,34.7709474 139.045684,34.7709474 C139.717263,35.1330526 140.439368,35.4446316 141.159368,35.6488421 L141.159368,35.7035789 C141.574105,35.8025263 141.932,35.9077895 142.294105,35.9604211 C143.121474,36.1141053 143.946737,36.2172632 144.822526,36.2172632 C148.125684,36.2172632 150.757263,35.1835789 153.182526,33.1204211 C154.420421,32.0383158 155.193053,31.0593684 155.658316,29.8193684 C155.658316,29.7688421 155.658316,29.7688421 155.706737,29.7688421 L156.483579,29.7688421 L156.483579,36.6298947 L155.706737,36.6298947 L155.706737,35.5456842 C155.706737,34.3604211 154.782526,33.9983158 153.388842,34.8762105 C150.706737,36.6298947 147.816211,37.5077895 144.308842,37.5077895 C143.894105,37.5077895 143.121474,37.4551579 142.759368,37.4551579 C138.169895,37.1983158 134.350947,35.4951579 131.205684,32.4004211 C127.799368,28.9941053 126.043579,24.712 126.043579,19.4509474 L126.043579,18.1077895 C126.043579,12.8446316 127.799368,8.56463158 131.205684,5.15831579 C134.350947,2.06147368 138.169895,0.360421053 142.759368,0.101473684 C143.121474,0.0509473684 143.946737,0.0509473684 144.308842,0.0509473684 C147.816211,0.0509473684 150.498316,0.876210526 153.489895,2.68252632 C154.782526,3.45515789 155.761474,3.14568421 155.761474,2.01305263 L155.761474,0.876210526 L156.586737,0.876210526 L156.586737,7.78989474 L155.761474,7.78989474 C155.245684,6.44673684 154.468842,5.52042105 153.182526,4.43621053" id="Fill-7" fill="#000000"></path>
                    <path d="M175.777263,2.16631579 C174.432,2.68210526 173.297263,3.45473684 172.421474,4.43578947 C171.389895,5.46736842 170.562526,6.75789474 169.844632,8.20210526 C169.173053,9.64631579 168.606737,11.2463158 168.244632,13.0526316 C167.935158,14.8568421 167.726737,16.7684211 167.726737,18.8315789 C167.726737,21.4105263 168.034105,23.7852632 168.552,25.8968421 C169.120421,28.0126316 169.945684,29.8715789 171.027789,31.3684211 C172.059368,32.9136842 173.352,34.1010526 174.794105,34.8757895 C176.290947,35.7031579 177.943579,36.1136842 179.749895,36.1136842 C182.225684,36.1136842 184.341474,35.3894737 186.147789,33.9978947 C187.952,32.5536842 189.345684,30.5431579 190.324632,27.9115789 C191.303579,25.28 191.768842,22.1326316 191.768842,18.5221053 C191.768842,16.1494737 191.514105,13.9284211 190.996211,11.9178947 C190.476211,9.85263158 189.707789,8.04631579 188.676211,6.55157895 C187.693053,5.05473684 186.505684,3.81684211 185.116211,2.93894737 C184.392,2.47368421 183.564632,2.06105263 182.688842,1.80421053 C181.760421,1.49473684 180.884632,1.39157895 180.057263,1.39157895 C178.512,1.39157895 177.118316,1.65052632 175.777263,2.16631579 M187.537263,1.59789474 C189.914105,2.68210526 191.977263,4.28210526 193.728842,6.34315789 C195.173053,8.09894737 196.312,10.0589474 197.135158,12.2252632 C197.912,14.3410526 198.322526,16.5621053 198.322526,18.8315789 C198.322526,22.2336842 197.495158,25.3305263 195.897263,28.1684211 C194.246737,31.0589474 192.080421,33.3284211 189.293053,34.9789474 C186.505684,36.6294737 183.461474,37.5073684 180.112,37.5073684 C177.632,37.5073684 175.208842,37.0421053 172.989895,36.0631579 C170.773053,35.1326316 168.810947,33.7915789 167.109895,32.0378947 C165.406737,30.3368421 164.063579,28.3242105 163.133053,26.0021053 C162.154105,23.68 161.690947,21.3073684 161.690947,18.7789474 C161.690947,15.4252632 162.516211,12.3284211 164.164632,9.44 C165.819368,6.55157895 167.985684,4.22947368 170.773053,2.52631579 C173.507789,0.875789474 176.549895,5.82645043e-13 179.749895,5.82645043e-13 C182.585684,5.82645043e-13 185.217263,0.566315789 187.537263,1.59789474" id="Fill-9" fill="#000000"></path>
                    <path d="M212.919368,35.0303158 L232.163579,35.0303158 C232.163579,35.9082105 231.439368,36.6303158 230.715158,36.6303158 L204.300421,36.6303158 L204.300421,35.8029474 L205.127789,35.8029474 C206.207789,35.8029474 207.087789,34.9271579 207.087789,34.0513684 L207.087789,3.45557895 C207.087789,2.52715789 206.207789,1.65136842 205.176211,1.65136842 L204.300421,1.65136842 L204.300421,0.874526316 L212.919368,0.874526316 L212.919368,35.0303158 Z" id="Fill-12" fill="#000000"></path>
                    <path d="M250.575789,2.16631579 C249.234737,2.68210526 248.1,3.45473684 247.224211,4.43578947 C246.192632,5.46736842 245.365263,6.75789474 244.643158,8.20210526 C243.971579,9.64631579 243.405263,11.2463158 243.043158,13.0526316 C242.733684,14.8568421 242.529474,16.7684211 242.529474,18.8315789 C242.529474,21.4105263 242.836842,23.7852632 243.354737,25.8968421 C243.918947,28.0126316 244.744211,29.8715789 245.830526,31.3684211 C246.862105,32.9136842 248.150526,34.1010526 249.596842,34.8757895 C251.089474,35.7031579 252.742105,36.1136842 254.548421,36.1136842 C257.024211,36.1136842 259.14,35.3894737 260.946316,33.9978947 C262.750526,32.5536842 264.144211,30.5431579 265.127368,27.9115789 C266.106316,25.28 266.571579,22.1326316 266.571579,18.5221053 C266.571579,16.1494737 266.312632,13.9284211 265.796842,11.9178947 C265.278947,9.85263158 264.506316,8.04631579 263.474737,6.55157895 C262.495789,5.05473684 261.308421,3.81684211 259.914737,2.93894737 C259.194737,2.47368421 258.367368,2.06105263 257.487368,1.80421053 C256.563158,1.49473684 255.683158,1.39157895 254.86,1.39157895 C253.310526,1.39157895 251.916842,1.65052632 250.575789,2.16631579 M262.34,1.59789474 C264.712632,2.68210526 266.775789,4.28210526 268.531579,6.34315789 C269.975789,8.09894737 271.110526,10.0589474 271.935789,12.2252632 C272.710526,14.3410526 273.121053,16.5621053 273.121053,18.8315789 C273.121053,22.2336842 272.297895,25.3305263 270.7,28.1684211 C269.045263,31.0589474 266.878947,33.3284211 264.095789,34.9789474 C261.308421,36.6294737 258.264211,37.5073684 254.910526,37.5073684 C252.434737,37.5073684 250.007368,37.0421053 247.788421,36.0631579 C245.571579,35.1326316 243.609474,33.7915789 241.908421,32.0378947 C240.205263,30.3368421 238.866316,28.3242105 237.935789,26.0021053 C236.956842,23.68 236.493684,21.3073684 236.493684,18.7789474 C236.493684,15.4252632 237.314737,12.3284211 238.967368,9.44 C240.617895,6.55157895 242.788421,4.22947368 245.571579,2.52631579 C248.306316,0.875789474 251.348421,1.27897692e-13 254.548421,1.27897692e-13 C257.384211,1.27897692e-13 260.015789,0.566315789 262.34,1.59789474" id="Fill-14" fill="#000000"></path>
                    <path d="M295.818316,19.4505263 C299.428842,18.6231579 301.443579,15.4757895 301.443579,11.1431579 C301.443579,6.75789474 299.428842,3.61052632 295.818316,2.78526316 C294.889895,2.57684211 293.342526,2.47578947 291.279368,2.47578947 L287.875158,2.47578947 L287.875158,19.8105263 L291.279368,19.8105263 C293.342526,19.8105263 294.889895,19.7073684 295.818316,19.4505263 L295.818316,19.4505263 Z M309.900421,35.8042105 L309.900421,36.6294737 L302.784632,36.6294737 C301.649895,36.6294737 301.028842,35.8547368 300.670947,35.0821053 L294.635158,21.3073684 C293.910947,21.3578947 293.138316,21.3578947 292.359368,21.3578947 L287.875158,21.3578947 L287.875158,36.6294737 L279.256211,36.6294737 L279.256211,35.8547368 L280.081474,35.8547368 C281.167789,35.8547368 282.043579,34.9284211 282.043579,34.0526316 L282.043579,3.45473684 C282.043579,2.52631579 281.167789,1.65052632 280.081474,1.65052632 L279.256211,1.65052632 L279.256211,0.875789474 L292.359368,0.875789474 C294.839368,0.875789474 296.746737,0.981052632 298.039368,1.18526316 C300.460421,1.49473684 302.422526,2.06105263 303.972,3.09263158 C306.809895,4.90105263 308.047789,8.30526316 308.047789,11.1431579 C308.047789,13.9284211 306.809895,17.3347368 303.972,19.1915789 C303.043579,19.7578947 302.060421,20.1726316 300.875158,20.4821053 L307.068842,34.5663158 C307.426737,35.2378947 308.100421,35.8042105 309.079368,35.8042105 L309.900421,35.8042105 Z" id="Fill-17" fill="#000000"></path>
                    <path d="M366.648842,18.4698947 C366.648842,16.2488421 366.394105,14.1351579 365.876211,12.1751579 C365.362526,10.2151579 364.638316,8.512 363.709895,7.06778947 C362.730947,5.62147368 361.903579,4.48673684 360.558316,3.60884211 C359.526737,2.93936842 357.309895,2.42357895 355.143579,2.42357895 L348.280421,2.42357895 L348.280421,35.0298947 L355.143579,35.0298947 C357.516211,35.0298947 359.526737,34.6172632 361.282526,33.2762105 C362.985684,31.8825263 364.328842,29.9751579 365.255158,27.4467368 C366.183579,24.9183158 366.600421,21.9267368 366.648842,18.4698947 M373.149895,18.7772632 C373.149895,22.0277895 372.425684,25.0214737 370.825684,27.7562105 C369.333053,30.4383158 367.217263,32.6067368 364.535158,34.2067368 C361.903579,35.8025263 358.602526,36.5793684 355.453053,36.5793684 L339.716211,36.6298947 L339.716211,35.8025263 L340.543579,35.8025263 C341.627789,35.8025263 342.503579,34.9267368 342.503579,33.9983158 L342.503579,3.45515789 C342.503579,2.52673684 341.627789,1.65094737 340.543579,1.65094737 L339.716211,1.65094737 L339.716211,0.823578947 L355.453053,0.823578947 C358.185684,0.823578947 360.665684,1.33936842 362.882526,2.37305263 C365.152,3.40463158 367.114105,4.90147368 368.762526,6.85936842 C370.156211,8.56463158 371.290947,10.4214737 372.015158,12.4846316 C372.787789,14.5498947 373.149895,16.6635789 373.149895,18.7772632" id="Fill-19" fill="#000000"></path>
                    <path d="M413.388211,0.875368421 L413.388211,1.65010526 L412.512421,1.65010526 C411.426105,1.65010526 410.550316,2.52589474 410.550316,3.45642105 L410.550316,21.9764211 C410.550316,23.5258947 410.449263,26.9301053 410.188211,28.3237895 C409.984,29.8185263 409.312421,31.3153684 408.177684,32.7595789 C407.042947,34.2058947 405.390316,35.3406316 403.327158,36.2164211 C401.624,36.9406316 399.765053,37.3532632 397.495579,37.4543158 C394.194526,37.6101053 390.274526,37.0437895 388.055579,35.9595789 C385.834526,34.8753684 384.186105,33.4311579 383.207158,31.6248421 C382.224,29.8711579 381.760842,27.4985263 381.760842,24.608 L381.813474,3.45642105 C381.813474,2.52589474 380.885053,1.65010526 379.802947,1.65010526 L378.975579,1.65010526 L378.975579,0.875368421 L387.541895,0.875368421 L387.541895,21.048 C387.541895,24.9174737 387.746105,27.6543158 388.055579,29.2522105 C388.417684,30.7995789 389.497684,32.1427368 391.101895,33.2774737 C392.647158,34.4627368 394.815579,35.1848421 397.447158,35.1848421 C399.510316,35.1848421 401.468211,34.7722105 403.173474,33.9974737 C404.876632,33.2248421 406.162947,32.1932632 407.042947,31.008 C407.866105,29.8711579 408.177684,28.6332632 408.331368,27.3953684 C408.539789,26.208 408.638737,24.1953684 408.638737,21.9764211 L408.638737,0.875368421 L413.388211,0.875368421 Z" id="Fill-21" fill="#000000"></path>
                    <mask id="mask-2" fill="white">
                        <use xlink:href="#path-1"></use>
                    </mask>
                    <g id="Clip-24"></g>
                    <path d="M432.676842,2.16631579 C431.335789,2.68210526 430.201053,3.45473684 429.325263,4.43578947 C428.293684,5.46736842 427.466316,6.75789474 426.744211,8.20210526 C426.072632,9.64631579 425.506316,11.2463158 425.148421,13.0526316 C424.834737,14.8568421 424.630526,16.7684211 424.630526,18.8315789 C424.630526,21.4105263 424.937895,23.7852632 425.455789,25.8968421 C426.024211,28.0126316 426.849474,29.8715789 427.931579,31.3684211 C428.963158,32.9136842 430.255789,34.1010526 431.697895,34.8757895 C433.194737,35.7031579 434.843158,36.1136842 436.653684,36.1136842 C439.127368,36.1136842 441.241053,35.3894737 443.051579,33.9978947 C444.855789,32.5536842 446.245263,30.5431579 447.228421,27.9115789 C448.207368,25.28 448.672632,22.1326316 448.672632,18.5221053 C448.672632,16.1494737 448.413684,13.9284211 447.897895,11.9178947 C447.38,9.85263158 446.607368,8.04631579 445.575789,6.55157895 C444.596842,5.05473684 443.409474,3.81684211 442.017895,2.93894737 C441.295789,2.47368421 440.468421,2.06105263 439.592632,1.80421053 C438.664211,1.49473684 437.788421,1.39157895 436.961053,1.39157895 C435.411579,1.39157895 434.022105,1.65052632 432.676842,2.16631579 M444.441053,1.59789474 C446.813684,2.68210526 448.876842,4.28210526 450.632632,6.34315789 C452.076842,8.09894737 453.211579,10.0589474 454.036842,12.2252632 C454.811579,14.3410526 455.226316,16.5621053 455.226316,18.8315789 C455.226316,22.2336842 454.398947,25.3305263 452.801053,28.1684211 C451.146316,31.0589474 448.98,33.3284211 446.196842,34.9789474 C443.409474,36.6294737 440.365263,37.5073684 437.011579,37.5073684 C434.535789,37.5073684 432.108421,37.0421053 429.893684,36.0631579 C427.672632,35.1326316 425.710526,33.7915789 424.009474,32.0378947 C422.306316,30.3368421 420.967368,28.3242105 420.036842,26.0021053 C419.057895,23.68 418.594737,21.3073684 418.594737,18.7789474 C418.594737,15.4252632 419.42,12.3284211 421.068421,9.44 C422.721053,6.55157895 424.889474,4.22947368 427.672632,2.52631579 C430.407368,0.875789474 433.453684,5.82645043e-13 436.653684,5.82645043e-13 C439.489474,5.82645043e-13 442.116842,0.566315789 444.441053,1.59789474" id="Fill-23" fill="#000000" mask="url(#mask-2)"></path>
                </g>
            </g>
        </g>
    </g>
</svg>