<?xml version="1.0" encoding="UTF-8"?>
<svg width="285px" height="160px" viewBox="0 0 285 160" version="1.1" xmlns="http://www.w3.org/2000/svg" xmlns:xlink="http://www.w3.org/1999/xlink">
    <!-- Generator: Sketch 59.1 (86144) - https://sketch.com -->
    <title>Artboard</title>
    <desc>Created with Sketch.</desc>
    <g id="Artboard" stroke="none" stroke-width="1" fill="none" fill-rule="evenodd">
        <g id="Group-61-Copy" transform="translate(0.000000, -0.000000)">
            <g id="Group-13" transform="translate(109.879518, 18.313253)"></g>
            <g id="Group-24" transform="translate(0.000000, 0.000000)" fill="#000000">
                <path d="M21.8396292,11.437491 C21.8396292,7.26677083 19.8065427,4.27488233 16.303927,3.48899456 C15.3373192,3.29252262 13.86779,3.19256321 11.8347035,3.19256321 L8.48189421,3.19256321 L8.48189421,19.6858656 L11.8347035,19.6858656 C13.86779,19.6858656 15.3373192,19.5859062 16.303927,19.341178 C19.8065427,18.5552902 21.8396292,15.5599549 21.8396292,11.437491 M28.3419392,11.437491 C28.3419392,14.0915856 27.1220873,17.3282023 24.279333,19.0964498 C22.7527347,20.0271064 20.8730214,20.564819 18.4868199,20.8612504 C17.2205993,21.0577223 15.3373192,21.1576817 12.84768,21.1576817 L8.48189421,21.1576817 L8.48189421,35.6828179 L0,35.6828179 L0,34.900377 L0.8132346,34.900377 C1.87971331,34.900377 2.74288337,34.0627861 2.74288337,33.228642 L2.74288337,4.12666665 C2.74288337,3.24426636 1.87971331,2.41012233 0.8132346,2.41012233 L0,2.41012233 L0,1.67249083 L12.84768,1.67249083 C15.3373192,1.67249083 17.2205993,1.76900336 18.4868199,1.96892218 C20.8730214,2.26190665 22.7527347,2.79961933 24.279333,3.78197904 C27.1220873,5.49852336 28.3419392,8.74203382 28.3419392,11.437491" id="Fill-1"></path>
                <path d="M62.3522662,34.1683412 C62.3522662,34.9978614 61.713972,35.6828179 61.0310659,35.6828179 L36.8445209,35.6828179 L36.8445209,34.9014856 L37.6269461,34.9014856 C38.6530211,34.9014856 39.4834899,34.0685234 39.4834899,33.1873734 L39.4834899,4.12318943 C39.4834899,3.29022726 38.6530211,2.4572651 37.6269461,2.4572651 L36.8445209,2.4572651 L36.8445209,1.67249083 L61.5183658,1.67249083 C61.5183658,2.50545299 60.8354596,3.19040948 60.1525535,3.19040948 L44.957034,3.19040948 L44.957034,17.3094624 L58.6357469,17.3094624 C58.6357469,18.1871704 57.9528407,18.827381 57.2699346,18.827381 L44.957034,18.827381 L44.957034,34.1683412 L62.3522662,34.1683412 Z" id="Fill-3"></path>
                <path d="M84.7929298,19.341178 C88.2451419,18.5552902 90.1668849,15.5599549 90.1668849,11.437491 C90.1668849,7.26677083 88.2451419,4.27488233 84.7929298,3.48899456 C83.9065042,3.29252262 82.427974,3.19256321 80.454292,3.19256321 L77.1994481,3.19256321 L77.1994481,19.6858656 L80.454292,19.6858656 C82.427974,19.6858656 83.9065042,19.5859062 84.7929298,19.341178 L84.7929298,19.341178 Z M98.2520558,34.900377 L98.2520558,35.6828179 L91.4480469,35.6828179 C90.3642531,35.6828179 89.7721485,34.9486332 89.4293511,34.2110017 L83.657197,21.1094255 C82.9716022,21.1576817 82.2271432,21.1576817 81.4896094,21.1576817 L77.1994481,21.1576817 L77.1994481,35.6828179 L68.9653854,35.6828179 L68.9653854,34.9486332 L69.7548581,34.9486332 C70.7936381,34.9486332 71.6281247,34.0627861 71.6281247,33.228642 L71.6281247,4.12666665 C71.6281247,3.24426636 70.7936381,2.41012233 69.7548581,2.41012233 L68.9653854,2.41012233 L68.9653854,1.67249083 L81.4896094,1.67249083 C83.8545652,1.67249083 85.6793554,1.76900336 86.912041,1.96892218 C89.2285203,2.26190665 91.1017869,2.79961933 92.5837797,3.78197904 C95.2949955,5.49852336 96.4792047,8.74203382 96.4792047,11.437491 C96.4792047,14.0915856 95.2949955,17.3282023 92.5837797,19.0964498 C91.6938915,19.6376093 90.7589895,20.0271064 89.6267193,20.3235377 L95.5408401,33.7215453 C95.8871001,34.3592174 96.5276811,34.900377 97.4660457,34.900377 L98.2520558,34.900377 Z" id="Fill-5"></path>
                <path d="M112.957004,35.6828179 L104.865175,35.6828179 L104.865175,34.898123 L105.645605,34.898123 C106.669064,34.898123 107.497415,34.0652451 107.497415,33.1841842 L107.497415,4.17456609 C107.497415,3.2935052 106.669064,2.46062733 105.645605,2.46062733 L104.865175,2.46062733 L104.865175,1.67249083 L129.428189,1.67249083 C129.428189,2.5053687 128.798368,3.19369752 128.065859,3.19369752 L112.957004,3.19369752 L112.957004,17.30788 L126.604264,17.30788 C126.604264,18.1407579 125.919676,18.8290867 125.238511,18.8290867 L112.957004,18.8290867 L112.957004,35.6828179 Z" id="Fill-7"></path>
                <path d="M163.438516,34.1683412 C163.438516,34.9978614 162.800222,35.6828179 162.120747,35.6828179 L137.930771,35.6828179 L137.930771,34.9014856 L138.713196,34.9014856 C139.739271,34.9014856 140.56974,34.0685234 140.56974,33.1873734 L140.56974,4.12318943 C140.56974,3.29022726 139.739271,2.4572651 138.713196,2.4572651 L137.930771,2.4572651 L137.930771,1.67249083 L162.608047,1.67249083 C162.608047,2.50545299 161.921709,3.19040948 161.238803,3.19040948 L146.043284,3.19040948 L146.043284,17.3094624 L159.725428,17.3094624 C159.725428,18.1871704 159.039091,18.827381 158.356184,18.827381 L146.043284,18.827381 L146.043284,34.1683412 L163.438516,34.1683412 Z" id="Fill-9"></path>
                <path d="M196.072651,5.76416352 C193.797115,3.93474622 191.222806,2.8763218 188.0579,2.8763218 C187.217168,2.8763218 186.428547,2.97100514 185.636452,3.11641169 C185.289042,3.16375335 184.941632,3.26181824 184.549058,3.35650157 C183.854238,3.59659146 183.162892,3.88402301 182.520183,4.22555932 C182.468072,4.22555932 182.419434,4.27290099 182.419434,4.27290099 C182.221411,4.36758433 182.023387,4.51299088 181.825363,4.60767421 C181.627339,4.75308076 181.477953,4.8477641 181.283403,4.94582898 C181.234766,4.99317065 181.234766,4.99317065 181.182654,5.04389386 C180.539946,5.47673196 179.945874,6.0042534 179.403915,6.63322127 C177.076267,9.08484334 175.940236,13.2779625 175.891599,19.1483292 C175.940236,25.0220775 177.076267,29.2151967 179.403915,31.6702003 C179.945874,32.2957866 180.539946,32.823308 181.182654,33.2595277 C181.234766,33.2595277 181.234766,33.3068693 181.283403,33.3068693 C181.477953,33.4522759 181.627339,33.5469592 181.825363,33.6416426 C182.023387,33.7870491 182.221411,33.9324557 182.419434,34.027139 C182.419434,34.027139 182.468072,34.0744807 182.520183,34.0744807 C183.162892,34.416017 183.854238,34.7034485 184.549058,34.8928152 L184.549058,34.9435384 C184.941632,35.0382217 185.289042,35.1362866 185.636452,35.1836283 C186.428547,35.3290349 187.217168,35.4237182 188.0579,35.4237182 C191.222806,35.4237182 193.748477,34.4599771 196.072651,32.5358765 C197.260793,31.5247937 198.000777,30.6117758 198.445462,29.4552865 C198.445462,29.4045633 198.445462,29.4045633 198.497573,29.4045633 L199.241031,29.4045633 L199.241031,35.8092146 L198.497573,35.8092146 L198.497573,34.7981319 C198.497573,33.6923658 197.604729,33.354211 196.270675,34.1725455 C193.696366,35.8092146 190.927507,36.6275492 187.564578,36.6275492 C187.16853,36.6275492 186.428547,36.5802075 186.081137,36.5802075 C181.675977,36.3401176 178.017748,34.7507902 174.998755,31.8629485 C171.736574,28.6809121 170.051635,24.6873043 170.051635,19.7772971 L170.051635,18.5227429 C170.051635,13.6127357 171.736574,9.61912787 174.998755,6.44047305 C178.017748,3.54924979 181.675977,1.95992238 186.081137,1.7198325 C186.428547,1.67249083 187.217168,1.67249083 187.564578,1.67249083 C190.927507,1.67249083 193.501816,2.4434837 196.367949,4.13087599 C197.604729,4.8477641 198.546211,4.56371409 198.546211,3.50190812 L198.546211,2.4434837 L199.338306,2.4434837 L199.338306,8.89547667 L198.546211,8.89547667 C198.052888,7.64430403 197.309431,6.77524627 196.072651,5.76416352" id="Fill-11"></path>
                <path d="M238.072289,1.67249083 C238.072289,2.50663486 237.379675,3.14430695 236.68358,3.14430695 L227.616944,3.14430695 C226.572801,3.14430695 225.734007,3.97845098 225.734007,4.86429815 L225.734007,33.228642 C225.734007,34.1144892 226.572801,34.900377 227.616944,34.900377 L228.455738,34.900377 L228.455738,35.6828179 L217.506165,35.6828179 L217.506165,34.900377 L218.296233,34.900377 C219.340375,34.900377 220.17917,34.0627861 220.17917,33.228642 L220.17917,4.86429815 C220.17917,3.97845098 219.340375,3.14430695 218.296233,3.14430695 L209.229597,3.14430695 C208.536982,3.14430695 207.840887,2.50663486 207.840887,1.67249083 L238.072289,1.67249083 Z" id="Fill-14"></path>
            </g>
            <g id="Group-20" transform="translate(0.000000, 61.686747)" fill="#000000">
                <path d="M30.2314018,1.73577427 C30.2314018,2.56983377 29.5387874,3.21088776 28.8426925,3.21088776 L19.7760563,3.21088776 C18.7319139,3.21088776 17.8896391,4.04494726 17.8896391,4.92725814 L17.8896391,33.2921742 C17.8896391,34.174485 18.7319139,34.9602932 19.7760563,34.9602932 L20.6148507,34.9602932 L20.6148507,35.7461013 L9.66527778,35.7461013 L9.66527778,34.9602932 L10.4553455,34.9602932 C11.4994879,34.9602932 12.3417627,34.1227871 12.3417627,33.2921742 L12.3417627,4.92725814 C12.3417627,4.04494726 11.4994879,3.21088776 10.4553455,3.21088776 L1.38870934,3.21088776 C0.696094907,3.21088776 0,2.56983377 0,1.73577427 L30.2314018,1.73577427 Z" id="Fill-16"></path>
                <path d="M52.174513,2.8683202 C50.8951212,3.36423113 49.8093671,4.09942775 48.9725757,5.03923097 C47.990556,6.02758492 47.2021741,7.26216037 46.5106109,8.6458559 C45.870915,10.0260835 45.3314958,11.5588991 44.9857142,13.2859176 C44.6917999,15.016404 44.4912466,16.8405239 44.4912466,18.8172318 C44.4912466,21.2863827 44.7886187,23.5578628 45.2830864,25.5831214 C45.8225056,27.60838 46.6108876,29.3839492 47.6447745,30.8161955 C48.6302519,32.2969924 49.8612343,33.4309985 51.2374449,34.173131 C52.6655228,34.9638141 54.2422867,35.3591557 55.9642789,35.3591557 C58.3294248,35.3591557 60.3487891,34.6690419 62.0707813,33.3338971 C63.7927735,31.9536695 65.1240325,30.0255123 66.0611006,27.5043428 C66.9947108,24.990109 67.4373112,21.9764965 67.4373112,18.5224595 C67.4373112,16.2475115 67.1918063,14.1251515 66.6973387,12.2004622 C66.2063288,10.2237543 65.4698141,8.49673583 64.4843366,7.06448958 C63.5472686,5.63224334 62.4131051,4.4462186 61.0853039,3.60698473 C60.3937407,3.16309243 59.6088166,2.77121876 58.7720252,2.52152934 C57.8868244,2.2232892 57.050033,2.12618776 56.261651,2.12618776 C54.7817059,2.12618776 53.4539047,2.37240927 52.174513,2.8683202 M63.3985825,2.32385855 C65.6634518,3.36423113 67.6344067,4.8901109 69.3079895,6.86681879 C70.6876579,8.54875446 71.7699542,10.424893 72.5583362,12.4952344 C73.2948509,14.520493 73.6890419,16.646321 73.6890419,18.8172318 C73.6890419,22.0735979 72.9006599,25.0386598 71.3757632,27.7540322 C69.8024571,30.5214232 67.7312255,32.692334 65.0721653,34.2737003 C62.4131051,35.8550666 59.5119977,36.6908326 56.3100605,36.6908326 C53.9483724,36.6908326 51.6316359,36.2469403 49.5154527,35.3071371 C47.3992696,34.4228204 45.5285913,33.1396942 43.9034179,31.4577585 C42.2782446,29.8278415 40.9988528,27.9031522 40.113652,25.6802228 C39.176584,23.4572934 38.7339836,21.1858133 38.7339836,18.768681 C38.7339836,15.5573977 39.5189077,12.5958038 41.0956716,9.83188063 C42.6689778,7.06448958 44.7402093,4.84156018 47.3992696,3.21511106 C50.0099204,1.63374474 52.9110277,0.79104296 55.9642789,0.79104296 C58.6717485,0.79104296 61.1855805,1.33897252 63.3985825,2.32385855" id="Fill-18"></path>
                <path d="M114.312488,1.73577427 L114.312488,2.47618804 L113.445846,2.47618804 C112.375078,2.47618804 111.508436,3.31347839 111.508436,4.19920703 L111.508436,21.8861007 C111.508436,23.3634683 111.408163,26.6122933 111.150319,27.9443461 C110.949774,29.3732755 110.283677,30.8022049 109.166353,32.182696 C108.041868,33.5597273 106.408856,34.6461288 104.371173,35.4834191 C102.688025,36.1719347 100.854469,36.5663608 98.605497,36.6666972 C95.3430554,36.815472 91.4682345,36.2688113 89.2765613,35.2377678 C87.0848881,34.2032645 85.4518768,32.8193135 84.481381,31.0962945 C83.5144663,29.4217138 83.0560772,27.1589539 83.0560772,24.3979717 L83.1062135,4.19920703 C83.1062135,3.31347839 82.1894351,2.47618804 81.1186667,2.47618804 L80.302161,2.47618804 L80.302161,1.73577427 L88.7680358,1.73577427 L88.7680358,20.9969122 C88.7680358,24.6955212 88.9685811,27.3042688 89.2765613,28.8335346 C89.6346778,30.3109023 90.7054463,31.591057 92.2847402,32.6739986 C93.8138978,33.8088384 95.9590158,34.497354 98.5589418,34.497354 C100.596625,34.497354 102.534035,34.102928 104.217183,33.3659741 C105.900331,32.6255603 107.175226,31.6429551 108.041868,30.5046554 C108.858373,29.4217138 109.166353,28.2384357 109.316762,27.0586175 C109.520889,25.9237777 109.621161,24.0035457 109.621161,21.8861007 L109.621161,1.73577427 L114.312488,1.73577427 Z" id="Fill-20"></path>
                <path d="M145.060247,4.9933014 C142.784441,3.11444039 140.209827,2.0274099 137.044546,2.0274099 C136.203714,2.0274099 135.411525,2.12465225 134.619336,2.27398871 C134.275359,2.32260988 133.927908,2.42332516 133.531813,2.52056751 C132.840385,2.76714631 132.145482,3.06581922 131.506172,3.41311331 C131.454054,3.41311331 131.405411,3.46173448 131.405411,3.46173448 C131.207364,3.55897682 131.009317,3.70831328 130.811269,3.80555562 C130.613222,3.95489208 130.463818,4.05213442 130.265771,4.15284971 C130.217128,4.20147088 130.217128,4.20147088 130.16501,4.25356499 C129.525699,4.69810142 128.931558,5.2398802 128.386059,5.8858472 C126.06161,8.40372932 124.925444,12.710176 124.873327,18.7426742 C124.925444,24.7716996 126.06161,29.0781462 128.386059,31.5995013 C128.931558,32.2419954 129.525699,32.7837741 130.16501,33.2317835 C130.217128,33.2317835 130.217128,33.2804047 130.265771,33.2804047 C130.463818,33.4297411 130.613222,33.5269835 130.811269,33.6242258 C131.009317,33.7735623 131.207364,33.9228987 131.405411,34.0201411 C131.405411,34.0201411 131.454054,34.0722352 131.506172,34.0722352 C132.145482,34.4195293 132.840385,34.7147292 133.531813,34.9126869 L133.531813,34.961308 C133.927908,35.0585504 134.275359,35.1592657 134.619336,35.2078868 C135.411525,35.3572233 136.203714,35.4544656 137.044546,35.4544656 C140.209827,35.4544656 142.735798,34.4646775 145.060247,32.4885742 C146.245056,31.4501648 146.988602,30.5124708 147.43334,29.324725 C147.43334,29.2761039 147.43334,29.2761039 147.485457,29.2761039 L148.225529,29.2761039 L148.225529,35.8538538 L147.485457,35.8538538 L147.485457,34.8119716 C147.485457,33.6763199 146.592508,33.3290258 145.258295,34.1694775 C142.68368,35.8538538 139.914493,36.6908326 136.551165,36.6908326 C136.15507,36.6908326 135.411525,36.6422114 135.064073,36.6422114 C130.661865,36.3956326 126.999728,34.7633504 123.983851,31.7974589 C120.717809,28.5328945 119.036145,24.4278784 119.036145,19.3851683 L119.036145,18.0967072 C119.036145,13.0539971 120.717809,8.95245397 123.983851,5.68788957 C126.999728,2.72199808 130.661865,1.08971587 135.064073,0.839664132 C135.411525,0.79104296 136.203714,0.79104296 136.551165,0.79104296 C139.914493,0.79104296 142.485633,1.58287348 145.355581,3.31587096 C146.592508,4.05213442 147.530626,3.76040739 147.530626,2.66990396 L147.530626,1.58287348 L148.322815,1.58287348 L148.322815,8.20924463 L147.530626,8.20924463 C147.037245,6.92425651 146.293699,6.03171071 145.060247,4.9933014" id="Fill-22"></path>
                <path d="M189.060313,4.23440788 L189.060313,33.2474677 C189.060313,34.1285286 189.916327,34.9614064 190.973963,34.9614064 L191.780455,34.9614064 L191.780455,35.7461013 L183.418407,35.7461013 L183.418407,18.8889285 L165.183908,18.8889285 L165.183908,35.7461013 L156.825397,35.7461013 L156.825397,34.9614064 L157.631889,34.9614064 C158.689525,34.9614064 159.545538,34.1285286 159.545538,33.2474677 L159.545538,4.23440788 C159.545538,3.35334699 158.689525,2.52046912 157.631889,2.52046912 L156.825397,2.52046912 L156.825397,1.73577427 L165.183908,1.73577427 L165.183908,17.3677218 L183.418407,17.3677218 L183.418407,1.73577427 L191.780455,1.73577427 L191.780455,2.52046912 L190.973963,2.52046912 C189.916327,2.52046912 189.060313,3.35334699 189.060313,4.23440788" id="Fill-24"></path>
            </g>
            <g id="Group-19" transform="translate(0.000000, 122.409639)" fill="#000000">
                <path d="M22.2686665,26.3004219 C22.2686665,29.0195614 20.7575784,31.7864609 18.7759322,33.5121912 C16.794286,35.1869773 14.1995887,36.0944185 11.0382334,36.0944185 C7.87687802,36.0944185 5.23578766,35.3684656 2.82666258,33.6904954 C1.79276021,32.9645425 0.752230252,33.1460307 0.752230252,34.3272962 L0.752230252,35.3238895 L0,35.3238895 L0,29.3857219 L0.752230252,29.3857219 C1.08360922,30.1084908 1.97833243,31.2419962 3.06525543,32.1971975 C5.00050859,33.9611357 7.54881284,34.6870887 10.3290824,34.6870887 C13.2551586,34.6870887 14.7662467,34.190384 16.1845487,33.0091185 C17.5962231,31.831037 18.3053741,30.3377391 18.3053741,28.748921 C18.3053741,24.8517 15.5217908,23.2183059 10.7565612,21.3142715 C8.11547087,20.2699181 6.13051087,19.3210849 4.81162258,18.4582198 C2.68748341,17.0063139 0.752230252,14.9207912 0.752230252,11.0681463 C0.752230252,7.1231652 4.33775066,3.13679207 10.0010172,3.13679207 C13.2087656,3.13679207 15.8034629,3.90732106 18.3517671,5.4929551 C19.5778693,6.26030009 20.4759063,5.85274756 20.4759063,4.85933828 L20.4759063,3.90732106 L21.1817435,3.90732106 L21.1817435,9.8454887 L20.4759063,9.8454887 C20.0517412,8.71198324 19.0609181,7.71220596 18.0667812,7.03082908 C15.9923489,5.4929551 13.2087656,4.53775387 10.2362963,4.53775387 C6.18021771,4.53775387 4.24496455,6.89710091 4.24496455,9.16411182 C4.24496455,13.0613328 7.92327107,14.4686627 11.8434842,16.2357849 C14.6734606,17.5062026 16.7014999,18.4582198 18.023702,19.1841727 C21.4667294,20.9958711 22.2686665,23.5812824 22.2686665,26.3004219" id="Fill-26"></path>
                <path d="M50.8770368,12.3437922 C50.8770368,8.41139892 48.9601267,5.58722557 45.6576605,4.84624567 C44.7496504,4.6610007 43.3607313,4.56675326 41.4438212,4.56675326 L38.282601,4.56675326 L38.282601,20.1175812 L41.4438212,20.1175812 C43.3607313,20.1175812 44.7496504,20.0233338 45.6576605,19.7925901 C48.9601267,19.0516102 50.8770368,16.2306867 50.8770368,12.3437922 M57.0077862,12.3437922 C57.0077862,14.8429744 55.8576402,17.8978915 53.173966,19.5650962 C51.7379649,20.4425724 49.9656638,20.9495587 47.7158166,21.2258012 C46.5219515,21.414296 44.7496504,21.5052936 42.4022763,21.5052936 L38.282601,21.5052936 L38.282601,35.2036718 L30.2853864,35.2036718 L30.2853864,34.4626919 L31.0521505,34.4626919 C32.0576876,34.4626919 32.8715336,33.6729634 32.8715336,32.8897346 L32.8715336,5.44747936 C32.8715336,4.61550194 32.0576876,3.82902328 31.0521505,3.82902328 L30.2853864,3.82902328 L30.2853864,3.13679207 L42.4022763,3.13679207 C44.7496504,3.13679207 46.5219515,3.2277896 47.7158166,3.41303457 C49.9656638,3.68927707 51.7379649,4.19951323 53.173966,5.12248818 C55.8576402,6.74419417 57.0077862,9.79911126 57.0077862,12.3437922" id="Fill-28"></path>
                <path d="M74.1340187,5.04064259 C72.927735,5.49591119 71.904024,6.17085485 71.1150493,7.03363661 C70.189145,7.94099012 69.4458135,9.07756978 68.7937682,10.344681 C68.1906264,11.6117922 67.6820311,13.0189861 67.3560085,14.6044669 C67.075629,16.1931315 66.8897961,17.8677559 66.8897961,19.6856466 C66.8897961,21.9492548 67.1701756,24.0345761 67.6363879,25.8938548 C68.1449832,27.7531336 68.8883148,29.3831862 69.8631224,30.6980529 C70.7922869,32.0574913 71.9529274,33.0985601 73.2504974,33.7798711 C74.5969708,34.5057539 76.083634,34.8686953 77.7072266,34.8686953 C79.9372213,34.8686953 81.8411934,34.2351397 83.464786,33.0094166 C85.0883787,31.7423053 86.3435657,29.9721701 87.227087,27.6608064 C88.1073481,25.3494427 88.524657,22.5859941 88.524657,19.4118487 C88.524657,17.3233438 88.293181,15.3749215 87.8269686,13.6079699 C87.3640165,11.7932629 86.6695883,10.207782 85.7404239,8.89291538 C84.8569026,7.57804872 83.7875484,6.4924082 82.5356216,5.72195364 C81.8835763,5.31125679 81.143505,4.95149909 80.3545302,4.72227294 C79.5199123,4.44847503 78.7309376,4.35933153 77.987606,4.35933153 C76.5922292,4.35933153 75.3403024,4.58537398 74.1340187,5.04064259 M84.7167129,4.54080223 C86.852161,5.49591119 88.7104899,6.89992136 90.2884394,8.71144468 C91.5892696,10.2555375 92.6097204,11.9779173 93.353052,13.8785841 C94.0474802,15.7378629 94.419146,17.6894689 94.419146,19.6856466 C94.419146,22.6751376 93.6758144,25.3940145 92.2380547,27.8868488 C90.7546517,30.4274387 88.8017763,32.4204327 86.2946623,33.8721983 C83.7875484,35.3239639 81.0522186,36.0944185 78.0332492,36.0944185 C75.8032545,36.0944185 73.6221632,35.6837216 71.6269048,34.8209399 C69.6316463,34.0090973 67.8646038,32.8311296 66.3355577,31.2870367 C64.8032514,29.7906994 63.5969677,28.0237478 62.7623498,25.9829983 C61.8788285,23.9422489 61.4615195,21.8569276 61.4615195,19.6378912 C61.4615195,16.6897882 62.2015909,13.9709113 63.688254,11.4335052 C65.1716569,8.89291538 67.1245324,6.85216591 69.6316463,5.35901224 C72.0931171,3.91043032 74.8284469,3.13679207 77.7072266,3.13679207 C80.2599837,3.13679207 82.6301681,3.63663242 84.7167129,4.54080223" id="Fill-30"></path>
                <path d="M137.174986,3.75993562 L137.174986,4.44456113 L136.358894,4.44456113 C135.288669,4.44456113 134.422466,5.22239856 134.422466,6.04523485 L134.422466,36.9851652 L104.452574,11.0786787 L104.452574,35.4744891 L99.7636259,35.4744891 L99.7636259,34.7416506 L100.579718,34.7416506 C101.649943,34.7416506 102.516146,33.9605989 102.516146,33.1859757 L102.516146,2.24604541 L132.482459,28.1525318 L132.482459,3.75993562 L137.174986,3.75993562 Z" id="Fill-32"></path>
                <path d="M176.367839,20.3871032 C176.367839,21.1554131 175.712673,21.7483826 175.054216,21.7483826 L173.789978,21.7930147 C172.617923,21.7930147 171.771805,22.3381641 171.771805,23.4730949 L171.771805,31.6439594 C171.021164,32.4600894 169.098468,33.9584531 167.649862,34.682131 C166.053102,35.4121848 164.647295,35.7277976 163.662901,35.8648819 C162.773984,36.0465984 161.835682,36.0944185 160.89738,36.0944185 C156.489007,36.0944185 152.646908,34.4589704 149.506065,31.5993272 C146.035994,28.4208833 144.300959,23.8365278 144.300959,19.6156053 C144.300959,14.712449 146.411315,10.6254228 149.506065,7.63188331 C151.520945,5.68082243 155.316953,3.41096075 159.491573,3.18461219 C159.81751,3.13679207 160.571444,3.13679207 160.89738,3.13679207 C164.084314,3.13679207 166.662175,3.90829 169.240036,5.54373809 C170.319907,6.2674159 171.304301,5.90717099 171.304301,4.86150438 L171.304301,4.13463856 L172.054942,4.13463856 L172.054942,10.0834614 L171.304301,10.0834614 C170.975072,9.17169116 170.319907,8.35874913 168.960192,7.13136606 C166.849836,5.22493729 163.662901,4.31635502 160.70972,4.31635502 C157.239649,4.31635502 154.474127,6.13033155 153.209889,7.95068411 C151.099533,11.0334878 149.789202,14.1226675 149.789202,19.6156053 C149.789202,25.51342 151.942358,34.8670354 160.943472,34.8670354 C162.820076,34.8670354 164.976524,34.5482346 166.520607,33.7767367 L166.520607,23.3806427 C166.520607,22.4306163 165.723873,21.7930147 164.739479,21.7930147 L163.287581,21.7483826 C162.632415,21.7483826 161.973958,21.1554131 161.973958,20.3871032 L176.367839,20.3871032 Z" id="Fill-35"></path>
                <path d="M208.434718,33.7724914 C208.434718,34.5546104 207.832898,35.2036718 207.192251,35.2036718 L184.384559,35.2036718 L184.384559,34.4637418 L185.122274,34.4637418 C186.089716,34.4637418 186.872729,33.6783775 186.872729,32.8475789 L186.872729,5.44420544 C186.872729,4.65884111 186.089716,3.87347679 185.122274,3.87347679 L184.384559,3.87347679 L184.384559,3.13679207 L207.651705,3.13679207 C207.651705,3.92215639 207.004587,4.56797251 206.360704,4.56797251 L192.0335,4.56797251 L192.0335,17.8769771 L204.933807,17.8769771 C204.933807,18.7077757 204.286689,19.3081575 203.642806,19.3081575 L192.0335,19.3081575 L192.0335,33.7724914 L208.434718,33.7724914 Z" id="Fill-37"></path>
            </g>
        </g>
    </g>
</svg>