<?xml version="1.0" encoding="UTF-8"?>
<svg width="607px" height="38px" viewBox="0 0 607 38" version="1.1" xmlns="http://www.w3.org/2000/svg" xmlns:xlink="http://www.w3.org/1999/xlink">
    <!-- Generator: Sketch 59.1 (86144) - https://sketch.com -->
    <title>Group 36</title>
    <desc>Created with Sketch.</desc>
    <defs>
        <polygon id="path-1" points="0 0.3848 40.4238 0.3848 40.4238 34.3808 0 34.3808"></polygon>
        <polygon id="path-3" points="1.6032 0.768 37.6112 0.768 37.6112 38 1.6032 38"></polygon>
        <polygon id="path-5" points="1.565 1.5514 36.394 1.5514 36.394 37.2154 1.565 37.2154"></polygon>
    </defs>
    <g id="Page-2" stroke="none" stroke-width="1" fill="none" fill-rule="evenodd">
        <g id="Desktop-HD-Copy" transform="translate(-785.000000, -2450.000000)">
            <g id="Group-36" transform="translate(785.000000, 2448.000000)">
                <g id="Group-3" transform="translate(0.000000, 3.232400)">
                    <mask id="mask-2" fill="white">
                        <use xlink:href="#path-1"></use>
                    </mask>
                    <g id="Clip-2"></g>
                    <path d="M40.4238,0.3848 L40.4238,1.1708 L39.6378,1.1708 C38.6578,1.1708 37.7758,1.9068 37.7758,2.7408 L37.7758,31.9268 C37.7758,32.2708 37.9198,32.5668 38.1178,32.8608 C38.4118,33.3028 38.9998,33.6468 39.6378,33.6468 L40.4238,33.6468 L40.4238,34.3808 L32.2798,34.3808 L32.2798,6.0768 L18.1498,34.3808 L4.5138,6.0768 L4.5138,34.3808 L-0.0002,34.3808 L-0.0002,33.6468 L0.7858,33.6468 C1.8138,33.6468 2.6498,32.8128 2.6498,31.8788 L2.6498,2.8388 C2.6498,2.0048 1.8658,1.1208 0.7858,1.1208 L-0.0002,1.1208 L-0.0002,0.3848 L6.5258,0.3848 C7.5538,0.3848 8.1938,1.0228 8.5378,1.7588 L20.2138,25.9928 L31.4938,3.3768 C32.5258,1.4168 32.8178,0.3848 34.2398,0.3848 L40.4238,0.3848 Z" id="Fill-1" fill="#231916" mask="url(#mask-2)"></path>
                </g>
                <path d="M58.8652,4.8438 C57.5872,5.3338 56.5092,6.0698 55.6732,7.0038 C54.6932,7.9838 53.9072,9.2118 53.2232,10.5838 C52.5832,11.9578 52.0452,13.4778 51.7012,15.1958 C51.4072,16.9118 51.2112,18.7258 51.2112,20.6898 C51.2112,23.1418 51.5052,25.3978 51.9952,27.4098 C52.5352,29.4218 53.3232,31.1878 54.3492,32.6098 C55.3312,34.0818 56.5592,35.2118 57.9312,35.9458 C59.3532,36.7298 60.9232,37.1238 62.6432,37.1238 C64.9952,37.1238 67.0072,36.4378 68.7252,35.1118 C70.4412,33.7378 71.7672,31.8258 72.6972,29.3238 C73.6312,26.8218 74.0732,23.8278 74.0732,20.3938 C74.0732,18.1378 73.8252,16.0298 73.3352,14.1178 C72.8452,12.1538 72.1092,10.4378 71.1292,9.0138 C70.1972,7.5918 69.0692,6.4138 67.7432,5.5798 C67.0572,5.1378 66.2712,4.7458 65.4372,4.4998 C64.5552,4.2078 63.7212,4.1078 62.9352,4.1078 C61.4652,4.1078 60.1392,4.3538 58.8652,4.8438 M70.0492,4.3038 C72.3072,5.3338 74.2672,6.8558 75.9352,8.8158 C77.3112,10.4858 78.3892,12.3498 79.1732,14.4098 C79.9072,16.4218 80.3032,18.5318 80.3032,20.6898 C80.3032,23.9278 79.5172,26.8718 77.9952,29.5678 C76.4272,32.3158 74.3652,34.4738 71.7172,36.0458 C69.0692,37.6138 66.1732,38.4478 62.9872,38.4478 C60.6312,38.4478 58.3252,38.0058 56.2152,37.0738 C54.1052,36.1918 52.2392,34.9158 50.6232,33.2478 C49.0032,31.6298 47.7292,29.7158 46.8452,27.5078 C45.9112,25.3018 45.4712,23.0458 45.4712,20.6398 C45.4712,17.4518 46.2552,14.5078 47.8252,11.7618 C49.3972,9.0138 51.4552,6.8058 54.1052,5.1878 C56.7052,3.6178 59.5992,2.7838 62.6432,2.7838 C65.3392,2.7838 67.8412,3.3238 70.0492,4.3038" id="Fill-4" fill="#231916"></path>
                <path d="M94.084,6.0704 L94.084,35.1124 C94.084,35.9964 94.918,36.8284 95.948,36.8284 L96.732,36.8284 L96.732,37.6124 L85.942,37.6124 L85.942,36.8284 L86.724,36.8284 C87.756,36.8284 88.59,35.9964 88.59,35.1124 L88.59,6.0704 C88.59,5.1884 87.756,4.3544 86.724,4.3544 L85.942,4.3544 L85.942,3.5684 L96.732,3.5684 L96.732,4.3544 L95.948,4.3544 C94.918,4.3544 94.084,5.1884 94.084,6.0704" id="Fill-6" fill="#231916"></path>
                <path d="M126.0664,27.8516 C126.0664,30.7956 124.4984,33.7876 122.4384,35.6516 C120.3764,37.4676 117.6784,38.4476 114.3924,38.4476 C111.1044,38.4476 108.3584,37.6636 105.8564,35.8476 C104.7744,35.0616 103.6964,35.2596 103.6964,36.5356 L103.6964,37.6136 L102.9124,37.6136 L102.9124,31.1876 L103.6964,31.1876 C104.0404,31.9736 104.9724,33.1996 106.1004,34.2276 C108.1104,36.1436 110.7624,36.9276 113.6564,36.9276 C116.6964,36.9276 118.2684,36.3876 119.7404,35.1116 C121.2084,33.8356 121.9464,32.2176 121.9464,30.4996 C121.9464,26.2816 119.0524,24.5156 114.0984,22.4556 C111.3504,21.3276 109.2904,20.2976 107.9164,19.3656 C105.7084,17.7956 103.6964,15.5396 103.6964,11.3696 C103.6964,7.1016 107.4244,2.7836 113.3124,2.7836 C116.6484,2.7836 119.3464,3.6176 121.9944,5.3336 C123.2724,6.1676 124.2024,5.7256 124.2024,4.6476 L124.2024,3.6176 L124.9404,3.6176 L124.9404,10.0456 L124.2024,10.0456 C123.7624,8.8156 122.7324,7.7376 121.7004,7.0036 C119.5404,5.3336 116.6484,4.3056 113.5564,4.3056 C109.3384,4.3056 107.3264,6.8556 107.3264,9.3096 C107.3264,13.5276 111.1544,15.0496 115.2244,16.9616 C118.1704,18.3336 120.2784,19.3656 121.6524,20.1496 C125.2324,22.1116 126.0664,24.9076 126.0664,27.8516" id="Fill-8" fill="#231916"></path>
                <path d="M160.9942,3.6172 C160.9942,4.4512 160.3062,5.0892 159.6202,5.0892 L150.6422,5.0892 C149.6122,5.0892 148.7802,5.9232 148.7802,6.8072 L148.7802,35.1592 C148.7802,36.0452 149.6122,36.8272 150.6422,36.8272 L151.4762,36.8272 L151.4762,37.6132 L140.6342,37.6132 L140.6342,36.8272 L141.4202,36.8272 C142.4522,36.8272 143.2842,35.9952 143.2842,35.1592 L143.2842,6.8072 C143.2842,5.9232 142.4522,5.0892 141.4202,5.0892 L132.4442,5.0892 C131.7562,5.0892 131.0682,4.4512 131.0682,3.6172 L160.9942,3.6172 Z" id="Fill-10" fill="#231916"></path>
                <path d="M198.7148,3.6172 L198.7148,4.3532 L197.8808,4.3532 C196.8488,4.3532 196.0168,5.1872 196.0168,6.0712 L196.0168,23.6812 C196.0168,25.1552 195.9208,28.3912 195.6728,29.7152 C195.4788,31.1392 194.8408,32.5632 193.7588,33.9332 C192.6808,35.3092 191.1108,36.3872 189.1488,37.2232 C187.5288,37.9092 185.7628,38.3012 183.6048,38.3992 C180.4668,38.5472 176.7368,38.0052 174.6268,36.9772 C172.5168,35.9452 170.9468,34.5732 170.0168,32.8552 C169.0848,31.1872 168.6428,28.9312 168.6428,26.1832 L168.6928,6.0712 C168.6928,5.1872 167.8088,4.3532 166.7788,4.3532 L165.9948,4.3532 L165.9948,3.6172 L174.1388,3.6172 L174.1388,22.7992 C174.1388,26.4792 174.3348,29.0772 174.6268,30.5972 C174.9708,32.0712 176.0028,33.3452 177.5208,34.4252 C178.9948,35.5552 181.0548,36.2412 183.5568,36.2412 C185.5168,36.2412 187.3828,35.8472 189.0028,35.1112 C190.6208,34.3772 191.8448,33.3952 192.6808,32.2672 C193.4668,31.1872 193.7588,30.0092 193.9088,28.8312 C194.1028,27.7052 194.2008,25.7912 194.2008,23.6812 L194.2008,3.6172 L198.7148,3.6172 Z" id="Fill-12" fill="#231916"></path>
                <path d="M220.8378,21.2774 C224.2718,20.4914 226.1858,17.4994 226.1858,13.3814 C226.1858,9.2114 224.2718,6.2194 220.8378,5.4314 C219.9538,5.2354 218.4818,5.1394 216.5198,5.1394 L213.2838,5.1394 L213.2838,21.6214 L216.5198,21.6214 C218.4818,21.6214 219.9538,21.5234 220.8378,21.2774 L220.8378,21.2774 Z M234.2278,36.8274 L234.2278,37.6134 L227.4598,37.6134 C226.3798,37.6134 225.7918,36.8794 225.4478,36.1434 L219.7098,23.0454 C219.0218,23.0934 218.2878,23.0934 217.5478,23.0934 L213.2838,23.0934 L213.2838,37.6134 L205.0898,37.6134 L205.0898,36.8794 L205.8738,36.8794 C206.9038,36.8794 207.7378,35.9954 207.7378,35.1594 L207.7378,6.0694 C207.7378,5.1874 206.9038,4.3534 205.8738,4.3534 L205.0898,4.3534 L205.0898,3.6174 L217.5478,3.6174 C219.9038,3.6174 221.7198,3.7154 222.9478,3.9114 C225.2518,4.2074 227.1158,4.7454 228.5878,5.7274 C231.2878,7.4454 232.4618,10.6814 232.4618,13.3814 C232.4618,16.0294 231.2878,19.2674 228.5878,21.0334 C227.7058,21.5714 226.7718,21.9654 225.6438,22.2594 L231.5318,35.6514 C231.8738,36.2894 232.5118,36.8274 233.4438,36.8274 L234.2278,36.8274 Z" id="Fill-14" fill="#231916"></path>
                <path d="M265.328,36.0938 C265.328,36.9278 264.69,37.6138 264.002,37.6138 L239.72,37.6138 L239.72,36.8278 L240.506,36.8278 C241.536,36.8278 242.37,35.9958 242.37,35.1118 L242.37,6.0218 C242.37,5.1878 241.536,4.3538 240.506,4.3538 L239.72,4.3538 L239.72,3.5678 L264.494,3.5678 C264.494,4.4018 263.806,5.0898 263.12,5.0898 L247.864,5.0898 L247.864,19.2178 L261.6,19.2178 C261.6,20.1018 260.912,20.7378 260.224,20.7378 L247.864,20.7378 L247.864,36.0938 L265.328,36.0938 Z" id="Fill-16" fill="#231916"></path>
                <path d="M310.1112,21.2774 C313.5472,20.4914 315.4592,17.4994 315.4592,13.3814 C315.4592,9.2114 313.5472,6.2194 310.1112,5.4314 C309.2292,5.2354 307.7572,5.1394 305.7952,5.1394 L302.5572,5.1394 L302.5572,21.6214 L305.7952,21.6214 C307.7572,21.6214 309.2292,21.5234 310.1112,21.2774 L310.1112,21.2774 Z M323.5052,36.8274 L323.5052,37.6134 L316.7372,37.6134 C315.6552,37.6134 315.0692,36.8794 314.7252,36.1434 L308.9852,23.0454 C308.2992,23.0934 307.5632,23.0934 306.8252,23.0934 L302.5572,23.0934 L302.5572,37.6134 L294.3652,37.6134 L294.3652,36.8794 L295.1512,36.8794 C296.1812,36.8794 297.0132,35.9954 297.0132,35.1594 L297.0132,6.0694 C297.0132,5.1874 296.1812,4.3534 295.1512,4.3534 L294.3652,4.3534 L294.3652,3.6174 L306.8252,3.6174 C309.1812,3.6174 310.9932,3.7154 312.2232,3.9114 C314.5292,4.2074 316.3932,4.7454 317.8652,5.7274 C320.5612,7.4454 321.7392,10.6814 321.7392,13.3814 C321.7392,16.0294 320.5612,19.2674 317.8652,21.0334 C316.9812,21.5714 316.0492,21.9654 314.9192,22.2594 L320.8072,35.6514 C321.1512,36.2894 321.7872,36.8274 322.7212,36.8274 L323.5052,36.8274 Z" id="Fill-18" fill="#231916"></path>
                <path d="M341.162,4.8438 C339.888,5.3338 338.808,6.0698 337.974,7.0038 C336.994,7.9838 336.208,9.2118 335.522,10.5838 C334.884,11.9578 334.346,13.4778 334.002,15.1958 C333.704,16.9118 333.51,18.7258 333.51,20.6898 C333.51,23.1418 333.804,25.3978 334.294,27.4098 C334.834,29.4218 335.62,31.1878 336.65,32.6098 C337.63,34.0818 338.858,35.2118 340.232,35.9458 C341.654,36.7298 343.224,37.1238 344.94,37.1238 C347.294,37.1238 349.306,36.4378 351.024,35.1118 C352.74,33.7378 354.064,31.8258 354.998,29.3238 C355.928,26.8218 356.37,23.8278 356.37,20.3938 C356.37,18.1378 356.126,16.0298 355.634,14.1178 C355.144,12.1538 354.408,10.4378 353.428,9.0138 C352.494,7.5918 351.368,6.4138 350.042,5.5798 C349.356,5.1378 348.57,4.7458 347.736,4.4998 C346.854,4.2078 346.022,4.1078 345.234,4.1078 C343.764,4.1078 342.44,4.3538 341.162,4.8438 M352.348,4.3038 C354.604,5.3338 356.568,6.8558 358.236,8.8158 C359.608,10.4858 360.688,12.3498 361.472,14.4098 C362.208,16.4218 362.602,18.5318 362.602,20.6898 C362.602,23.9278 361.816,26.8718 360.294,29.5678 C358.724,32.3158 356.666,34.4738 354.018,36.0458 C351.368,37.6138 348.472,38.4478 345.284,38.4478 C342.93,38.4478 340.622,38.0058 338.514,37.0738 C336.404,36.1918 334.54,34.9158 332.922,33.2478 C331.302,31.6298 330.028,29.7158 329.144,27.5078 C328.212,25.3018 327.772,23.0458 327.772,20.6398 C327.772,17.4518 328.556,14.5078 330.124,11.7618 C331.696,9.0138 333.756,6.8058 336.404,5.1878 C339.006,3.6178 341.9,2.7838 344.94,2.7838 C347.638,2.7838 350.14,3.3238 352.348,4.3038" id="Fill-20" fill="#231916"></path>
                <path d="M400.3222,3.6172 L400.3222,4.3532 L399.4882,4.3532 C398.4582,4.3532 397.6222,5.1872 397.6222,6.0712 L397.6222,23.6812 C397.6222,25.1552 397.5262,28.3912 397.2802,29.7152 C397.0842,31.1392 396.4482,32.5632 395.3682,33.9332 C394.2862,35.3092 392.7182,36.3872 390.7562,37.2232 C389.1382,37.9092 387.3702,38.3012 385.2122,38.3992 C382.0722,38.5472 378.3462,38.0052 376.2362,36.9772 C374.1262,35.9452 372.5562,34.5732 371.6222,32.8552 C370.6942,31.1872 370.2522,28.9312 370.2522,26.1832 L370.2982,6.0712 C370.2982,5.1872 369.4162,4.3532 368.3862,4.3532 L367.6022,4.3532 L367.6022,3.6172 L375.7442,3.6172 L375.7442,22.7992 C375.7442,26.4792 375.9422,29.0772 376.2362,30.5972 C376.5802,32.0712 377.6102,33.3452 379.1302,34.4252 C380.6022,35.5552 382.6622,36.2412 385.1642,36.2412 C387.1262,36.2412 388.9902,35.8472 390.6102,35.1112 C392.2282,34.3772 393.4542,33.3952 394.2862,32.2672 C395.0722,31.1872 395.3682,30.0092 395.5142,28.8312 C395.7102,27.7052 395.8102,25.7912 395.8102,23.6812 L395.8102,3.6172 L400.3222,3.6172 Z" id="Fill-22" fill="#231916"></path>
                <path d="M439.4668,21.4746 C439.4668,22.3086 438.7788,22.9446 438.0928,22.9446 L436.7668,22.9966 C435.5408,22.9966 434.6588,23.5846 434.6588,24.8106 L434.6588,33.6406 C433.8728,34.5226 431.8628,36.1426 430.3428,36.9286 C428.6748,37.7126 427.2008,38.0546 426.1748,38.2026 C425.2408,38.3986 424.2588,38.4466 423.2788,38.4466 C418.6668,38.4466 414.6428,36.6826 411.3568,33.5926 C407.7268,30.1566 405.9128,25.2026 405.9128,20.6406 C405.9128,15.3426 408.1188,10.9286 411.3568,7.6886 C413.4668,5.5806 417.4388,3.1266 421.8068,2.8826 C422.1508,2.8326 422.9348,2.8326 423.2788,2.8326 C426.6148,2.8326 429.3128,3.6666 432.0088,5.4326 C433.1388,6.2186 434.1708,5.8266 434.1708,4.6966 L434.1708,3.9126 L434.9548,3.9126 L434.9548,10.3406 L434.1708,10.3406 C433.8268,9.3566 433.1388,8.4746 431.7168,7.1506 C429.5088,5.0906 426.1748,4.1066 423.0828,4.1066 C419.4508,4.1066 416.5568,6.0706 415.2328,8.0326 C413.0248,11.3686 411.6528,14.7046 411.6528,20.6406 C411.6528,27.0166 413.9088,37.1226 423.3268,37.1226 C425.2908,37.1226 427.5448,36.7806 429.1668,35.9446 L429.1668,24.7126 C429.1668,23.6826 428.3308,22.9966 427.3008,22.9966 L425.7788,22.9446 C425.0928,22.9446 424.4068,22.3086 424.4068,21.4746 L439.4668,21.4746 Z" id="Fill-24" fill="#231916"></path>
                <path d="M471.3496,36.0938 C471.3496,36.9278 470.7136,37.6138 470.0256,37.6138 L445.7416,37.6138 L445.7416,36.8278 L446.5276,36.8278 C447.5576,36.8278 448.3916,35.9958 448.3916,35.1118 L448.3916,6.0218 C448.3916,5.1878 447.5576,4.3538 446.5276,4.3538 L445.7416,4.3538 L445.7416,3.5678 L470.5176,3.5678 C470.5176,4.4018 469.8296,5.0898 469.1416,5.0898 L453.8856,5.0898 L453.8856,19.2178 L467.6236,19.2178 C467.6236,20.1018 466.9356,20.7378 466.2476,20.7378 L453.8856,20.7378 L453.8856,36.0938 L471.3496,36.0938 Z" id="Fill-26" fill="#231916"></path>
                <g id="Group-30" transform="translate(498.000000, 1.232400)">
                    <mask id="mask-4" fill="white">
                        <use xlink:href="#path-3"></use>
                    </mask>
                    <g id="Clip-29"></g>
                    <path d="M37.6112,2.3848 L37.6112,3.1208 L36.8252,3.1208 C35.7952,3.1208 34.9632,3.9548 34.9632,4.8388 L34.9632,38.0008 L6.1152,10.2348 L6.1152,36.3808 L1.6032,36.3808 L1.6032,35.5948 L2.3892,35.5948 C3.4172,35.5948 4.2512,34.7628 4.2512,33.9268 L4.2512,0.7668 L33.0972,28.5328 L33.0972,2.3848 L37.6112,2.3848 Z" id="Fill-28" fill="#231916" mask="url(#mask-4)"></path>
                </g>
                <path d="M567.494,36.0938 C567.494,36.9278 566.858,37.6138 566.17,37.6138 L541.888,37.6138 L541.888,36.8278 L542.672,36.8278 C543.702,36.8278 544.536,35.9958 544.536,35.1118 L544.536,6.0218 C544.536,5.1878 543.702,4.3538 542.672,4.3538 L541.888,4.3538 L541.888,3.5678 L566.662,3.5678 C566.662,4.4018 565.974,5.0898 565.286,5.0898 L550.03,5.0898 L550.03,19.2178 L563.768,19.2178 C563.768,20.1018 563.08,20.7378 562.392,20.7378 L550.03,20.7378 L550.03,36.0938 L567.494,36.0938 Z" id="Fill-31" fill="#231916"></path>
                <g id="Group-35" transform="translate(570.000000, 1.232400)">
                    <mask id="mask-6" fill="white">
                        <use xlink:href="#path-5"></use>
                    </mask>
                    <g id="Clip-34"></g>
                    <path d="M14.955,3.6114 C13.681,4.1014 12.601,4.8374 11.767,5.7714 C10.787,6.7514 10.001,7.9794 9.315,9.3514 C8.677,10.7254 8.139,12.2454 7.795,13.9634 C7.497,15.6794 7.303,17.4934 7.303,19.4574 C7.303,21.9094 7.597,24.1654 8.087,26.1774 C8.627,28.1894 9.413,29.9554 10.443,31.3774 C11.423,32.8494 12.651,33.9794 14.025,34.7134 C15.447,35.4974 17.017,35.8914 18.733,35.8914 C21.087,35.8914 23.099,35.2054 24.817,33.8794 C26.533,32.5054 27.857,30.5934 28.791,28.0914 C29.723,25.5894 30.163,22.5954 30.163,19.1614 C30.163,16.9054 29.919,14.7974 29.427,12.8854 C28.937,10.9214 28.201,9.2054 27.221,7.7814 C26.289,6.3594 25.161,5.1814 23.835,4.3474 C23.151,3.9054 22.365,3.5134 21.529,3.2674 C20.647,2.9754 19.815,2.8754 19.029,2.8754 C17.557,2.8754 16.233,3.1214 14.955,3.6114 M26.141,3.0714 C28.397,4.1014 30.361,5.6234 32.029,7.5834 C33.401,9.2534 34.481,11.1174 35.265,13.1774 C36.001,15.1894 36.395,17.2994 36.395,19.4574 C36.395,22.6954 35.609,25.6394 34.087,28.3354 C32.517,31.0834 30.459,33.2414 27.811,34.8134 C25.161,36.3814 22.265,37.2154 19.077,37.2154 C16.723,37.2154 14.415,36.7734 12.307,35.8414 C10.197,34.9594 8.333,33.6834 6.715,32.0154 C5.095,30.3974 3.821,28.4834 2.937,26.2754 C2.005,24.0694 1.565,21.8134 1.565,19.4074 C1.565,16.2194 2.349,13.2754 3.917,10.5294 C5.489,7.7814 7.549,5.5734 10.197,3.9554 C12.799,2.3854 15.693,1.5514 18.733,1.5514 C21.431,1.5514 23.933,2.0914 26.141,3.0714" id="Fill-33" fill="#231916" mask="url(#mask-6)"></path>
                </g>
            </g>
        </g>
    </g>
</svg>