<?xml version="1.0" encoding="UTF-8"?>
<svg width="313px" height="90px" viewBox="0 0 313 90" version="1.1" xmlns="http://www.w3.org/2000/svg" xmlns:xlink="http://www.w3.org/1999/xlink">
    <!-- Generator: Sketch 59.1 (86144) - https://sketch.com -->
    <title>Group 92</title>
    <desc>Created with Sketch.</desc>
    <defs>
        <polygon id="path-1" points="0 0.3848 40.4238 0.3848 40.4238 34.3808 0 34.3808"></polygon>
        <polygon id="path-3" points="278 1.2324 312.829 1.2324 312.829 36.8964 278 36.8964"></polygon>
    </defs>
    <g id="Page-1" stroke="none" stroke-width="1" fill="none" fill-rule="evenodd">
        <g id="Group-92" transform="translate(0.000000, 0.783600)">
            <g id="Group-3" transform="translate(0.000000, 0.216400)">
                <mask id="mask-2" fill="white">
                    <use xlink:href="#path-1"></use>
                </mask>
                <g id="Clip-2"></g>
                <path d="M40.4238,0.3848 L40.4238,1.1708 L39.6378,1.1708 C38.6578,1.1708 37.7758,1.9068 37.7758,2.7408 L37.7758,31.9268 C37.7758,32.2708 37.9198,32.5668 38.1178,32.8608 C38.4118,33.3028 38.9998,33.6468 39.6378,33.6468 L40.4238,33.6468 L40.4238,34.3808 L32.2798,34.3808 L32.2798,6.0768 L18.1498,34.3808 L4.5138,6.0768 L4.5138,34.3808 L-0.0002,34.3808 L-0.0002,33.6468 L0.7858,33.6468 C1.8138,33.6468 2.6498,32.8128 2.6498,31.8788 L2.6498,2.8388 C2.6498,2.0048 1.8658,1.1208 0.7858,1.1208 L-0.0002,1.1208 L-0.0002,0.3848 L6.5258,0.3848 C7.5538,0.3848 8.1938,1.0228 8.5378,1.7588 L20.2138,25.9928 L31.4938,3.3768 C32.5258,1.4168 32.8178,0.3848 34.2398,0.3848 L40.4238,0.3848 Z" id="Fill-1" fill="#231916" mask="url(#mask-2)"></path>
            </g>
            <path d="M58.8652,2.0602 C57.5872,2.5502 56.5092,3.2862 55.6732,4.2202 C54.6932,5.2002 53.9072,6.4282 53.2232,7.8002 C52.5832,9.1742 52.0452,10.6942 51.7012,12.4122 C51.4072,14.1282 51.2112,15.9422 51.2112,17.9062 C51.2112,20.3582 51.5052,22.6142 51.9952,24.6262 C52.5352,26.6382 53.3232,28.4042 54.3492,29.8262 C55.3312,31.2982 56.5592,32.4282 57.9312,33.1622 C59.3532,33.9462 60.9232,34.3402 62.6432,34.3402 C64.9952,34.3402 67.0072,33.6542 68.7252,32.3282 C70.4412,30.9542 71.7672,29.0422 72.6972,26.5402 C73.6312,24.0382 74.0732,21.0442 74.0732,17.6102 C74.0732,15.3542 73.8252,13.2462 73.3352,11.3342 C72.8452,9.3702 72.1092,7.6542 71.1292,6.2302 C70.1972,4.8082 69.0692,3.6302 67.7432,2.7962 C67.0572,2.3542 66.2712,1.9622 65.4372,1.7162 C64.5552,1.4242 63.7212,1.3242 62.9352,1.3242 C61.4652,1.3242 60.1392,1.5702 58.8652,2.0602 M70.0492,1.5202 C72.3072,2.5502 74.2672,4.0722 75.9352,6.0322 C77.3112,7.7022 78.3892,9.5662 79.1732,11.6262 C79.9072,13.6382 80.3032,15.7482 80.3032,17.9062 C80.3032,21.1442 79.5172,24.0882 77.9952,26.7842 C76.4272,29.5322 74.3652,31.6902 71.7172,33.2622 C69.0692,34.8302 66.1732,35.6642 62.9872,35.6642 C60.6312,35.6642 58.3252,35.2222 56.2152,34.2902 C54.1052,33.4082 52.2392,32.1322 50.6232,30.4642 C49.0032,28.8462 47.7292,26.9322 46.8452,24.7242 C45.9112,22.5182 45.4712,20.2622 45.4712,17.8562 C45.4712,14.6682 46.2552,11.7242 47.8252,8.9782 C49.3972,6.2302 51.4552,4.0222 54.1052,2.4042 C56.7052,0.8342 59.5992,0.0002 62.6432,0.0002 C65.3392,0.0002 67.8412,0.5402 70.0492,1.5202" id="Fill-4" fill="#231916"></path>
            <path d="M94.084,3.2868 L94.084,32.3288 C94.084,33.2128 94.918,34.0448 95.948,34.0448 L96.732,34.0448 L96.732,34.8288 L85.942,34.8288 L85.942,34.0448 L86.724,34.0448 C87.756,34.0448 88.59,33.2128 88.59,32.3288 L88.59,3.2868 C88.59,2.4048 87.756,1.5708 86.724,1.5708 L85.942,1.5708 L85.942,0.7848 L96.732,0.7848 L96.732,1.5708 L95.948,1.5708 C94.918,1.5708 94.084,2.4048 94.084,3.2868" id="Fill-6" fill="#231916"></path>
            <path d="M126.0664,25.068 C126.0664,28.012 124.4984,31.004 122.4384,32.868 C120.3764,34.684 117.6784,35.664 114.3924,35.664 C111.1044,35.664 108.3584,34.88 105.8564,33.064 C104.7744,32.278 103.6964,32.476 103.6964,33.752 L103.6964,34.83 L102.9124,34.83 L102.9124,28.404 L103.6964,28.404 C104.0404,29.19 104.9724,30.416 106.1004,31.444 C108.1104,33.36 110.7624,34.144 113.6564,34.144 C116.6964,34.144 118.2684,33.604 119.7404,32.328 C121.2084,31.052 121.9464,29.434 121.9464,27.716 C121.9464,23.498 119.0524,21.732 114.0984,19.672 C111.3504,18.544 109.2904,17.514 107.9164,16.582 C105.7084,15.012 103.6964,12.756 103.6964,8.586 C103.6964,4.318 107.4244,-1.10134124e-13 113.3124,-1.10134124e-13 C116.6484,-1.10134124e-13 119.3464,0.834 121.9944,2.55 C123.2724,3.384 124.2024,2.942 124.2024,1.864 L124.2024,0.834 L124.9404,0.834 L124.9404,7.262 L124.2024,7.262 C123.7624,6.032 122.7324,4.954 121.7004,4.22 C119.5404,2.55 116.6484,1.522 113.5564,1.522 C109.3384,1.522 107.3264,4.072 107.3264,6.526 C107.3264,10.744 111.1544,12.266 115.2244,14.178 C118.1704,15.55 120.2784,16.582 121.6524,17.366 C125.2324,19.328 126.0664,22.124 126.0664,25.068" id="Fill-8" fill="#231916"></path>
            <path d="M160.9942,0.8336 C160.9942,1.6676 160.3062,2.3056 159.6202,2.3056 L150.6422,2.3056 C149.6122,2.3056 148.7802,3.1396 148.7802,4.0236 L148.7802,32.3756 C148.7802,33.2616 149.6122,34.0436 150.6422,34.0436 L151.4762,34.0436 L151.4762,34.8296 L140.6342,34.8296 L140.6342,34.0436 L141.4202,34.0436 C142.4522,34.0436 143.2842,33.2116 143.2842,32.3756 L143.2842,4.0236 C143.2842,3.1396 142.4522,2.3056 141.4202,2.3056 L132.4442,2.3056 C131.7562,2.3056 131.0682,1.6676 131.0682,0.8336 L160.9942,0.8336 Z" id="Fill-10" fill="#231916"></path>
            <path d="M198.7148,0.8336 L198.7148,1.5696 L197.8808,1.5696 C196.8488,1.5696 196.0168,2.4036 196.0168,3.2876 L196.0168,20.8976 C196.0168,22.3716 195.9208,25.6076 195.6728,26.9316 C195.4788,28.3556 194.8408,29.7796 193.7588,31.1496 C192.6808,32.5256 191.1108,33.6036 189.1488,34.4396 C187.5288,35.1256 185.7628,35.5176 183.6048,35.6156 C180.4668,35.7636 176.7368,35.2216 174.6268,34.1936 C172.5168,33.1616 170.9468,31.7896 170.0168,30.0716 C169.0848,28.4036 168.6428,26.1476 168.6428,23.3996 L168.6928,3.2876 C168.6928,2.4036 167.8088,1.5696 166.7788,1.5696 L165.9948,1.5696 L165.9948,0.8336 L174.1388,0.8336 L174.1388,20.0156 C174.1388,23.6956 174.3348,26.2936 174.6268,27.8136 C174.9708,29.2876 176.0028,30.5616 177.5208,31.6416 C178.9948,32.7716 181.0548,33.4576 183.5568,33.4576 C185.5168,33.4576 187.3828,33.0636 189.0028,32.3276 C190.6208,31.5936 191.8448,30.6116 192.6808,29.4836 C193.4668,28.4036 193.7588,27.2256 193.9088,26.0476 C194.1028,24.9216 194.2008,23.0076 194.2008,20.8976 L194.2008,0.8336 L198.7148,0.8336 Z" id="Fill-12" fill="#231916"></path>
            <path d="M220.8378,18.4938 C224.2718,17.7078 226.1858,14.7158 226.1858,10.5978 C226.1858,6.4278 224.2718,3.4358 220.8378,2.6478 C219.9538,2.4518 218.4818,2.3558 216.5198,2.3558 L213.2838,2.3558 L213.2838,18.8378 L216.5198,18.8378 C218.4818,18.8378 219.9538,18.7398 220.8378,18.4938 L220.8378,18.4938 Z M234.2278,34.0438 L234.2278,34.8298 L227.4598,34.8298 C226.3798,34.8298 225.7918,34.0958 225.4478,33.3598 L219.7098,20.2618 C219.0218,20.3098 218.2878,20.3098 217.5478,20.3098 L213.2838,20.3098 L213.2838,34.8298 L205.0898,34.8298 L205.0898,34.0958 L205.8738,34.0958 C206.9038,34.0958 207.7378,33.2118 207.7378,32.3758 L207.7378,3.2858 C207.7378,2.4038 206.9038,1.5698 205.8738,1.5698 L205.0898,1.5698 L205.0898,0.8338 L217.5478,0.8338 C219.9038,0.8338 221.7198,0.9318 222.9478,1.1278 C225.2518,1.4238 227.1158,1.9618 228.5878,2.9438 C231.2878,4.6618 232.4618,7.8978 232.4618,10.5978 C232.4618,13.2458 231.2878,16.4838 228.5878,18.2498 C227.7058,18.7878 226.7718,19.1818 225.6438,19.4758 L231.5318,32.8678 C231.8738,33.5058 232.5118,34.0438 233.4438,34.0438 L234.2278,34.0438 Z" id="Fill-14" fill="#231916"></path>
            <path d="M265.328,33.3102 C265.328,34.1442 264.69,34.8302 264.002,34.8302 L239.72,34.8302 L239.72,34.0442 L240.506,34.0442 C241.536,34.0442 242.37,33.2122 242.37,32.3282 L242.37,3.2382 C242.37,2.4042 241.536,1.5702 240.506,1.5702 L239.72,1.5702 L239.72,0.7842 L264.494,0.7842 C264.494,1.6182 263.806,2.3062 263.12,2.3062 L247.864,2.3062 L247.864,16.4342 L261.6,16.4342 C261.6,17.3182 260.912,17.9542 260.224,17.9542 L247.864,17.9542 L247.864,33.3102 L265.328,33.3102 Z" id="Fill-16" fill="#231916"></path>
            <g id="Group-91" transform="translate(0.000000, 51.216400)">
                <path d="M16.5462,19.726 C19.9822,18.94 21.8942,15.948 21.8942,11.83 C21.8942,7.66 19.9822,4.668 16.5462,3.88 C15.6642,3.684 14.1922,3.588 12.2302,3.588 L8.9922,3.588 L8.9922,20.07 L12.2302,20.07 C14.1922,20.07 15.6642,19.972 16.5462,19.726 L16.5462,19.726 Z M29.9402,35.276 L29.9402,36.062 L23.1722,36.062 C22.0902,36.062 21.5042,35.328 21.1602,34.592 L15.4202,21.494 C14.7342,21.542 13.9982,21.542 13.2602,21.542 L8.9922,21.542 L8.9922,36.062 L0.8002,36.062 L0.8002,35.328 L1.5862,35.328 C2.6162,35.328 3.4482,34.444 3.4482,33.608 L3.4482,4.518 C3.4482,3.636 2.6162,2.802 1.5862,2.802 L0.8002,2.802 L0.8002,2.066 L13.2602,2.066 C15.6162,2.066 17.4282,2.164 18.6582,2.36 C20.9642,2.656 22.8282,3.194 24.3002,4.176 C26.9962,5.894 28.1742,9.13 28.1742,11.83 C28.1742,14.478 26.9962,17.716 24.3002,19.482 C23.4162,20.02 22.4842,20.414 21.3542,20.708 L27.2422,34.1 C27.5862,34.738 28.2222,35.276 29.1562,35.276 L29.9402,35.276 Z" id="Fill-18" fill="#231916"></path>
                <path d="M47.597,3.2924 C46.323,3.7824 45.243,4.5184 44.409,5.4524 C43.429,6.4324 42.643,7.6604 41.957,9.0324 C41.319,10.4064 40.781,11.9264 40.437,13.6444 C40.139,15.3604 39.945,17.1744 39.945,19.1384 C39.945,21.5904 40.239,23.8464 40.729,25.8584 C41.269,27.8704 42.055,29.6364 43.085,31.0584 C44.065,32.5304 45.293,33.6604 46.667,34.3944 C48.089,35.1784 49.659,35.5724 51.375,35.5724 C53.729,35.5724 55.741,34.8864 57.459,33.5604 C59.175,32.1864 60.499,30.2744 61.433,27.7724 C62.363,25.2704 62.805,22.2764 62.805,18.8424 C62.805,16.5864 62.561,14.4784 62.069,12.5664 C61.579,10.6024 60.843,8.8864 59.863,7.4624 C58.929,6.0404 57.803,4.8624 56.477,4.0284 C55.791,3.5864 55.005,3.1944 54.171,2.9484 C53.289,2.6564 52.457,2.5564 51.669,2.5564 C50.199,2.5564 48.875,2.8024 47.597,3.2924 M58.783,2.7524 C61.039,3.7824 63.003,5.3044 64.671,7.2644 C66.043,8.9344 67.123,10.7984 67.907,12.8584 C68.643,14.8704 69.037,16.9804 69.037,19.1384 C69.037,22.3764 68.251,25.3204 66.729,28.0164 C65.159,30.7644 63.101,32.9224 60.453,34.4944 C57.803,36.0624 54.907,36.8964 51.719,36.8964 C49.365,36.8964 47.057,36.4544 44.949,35.5224 C42.839,34.6404 40.975,33.3644 39.357,31.6964 C37.737,30.0784 36.463,28.1644 35.579,25.9564 C34.647,23.7504 34.207,21.4944 34.207,19.0884 C34.207,15.9004 34.991,12.9564 36.559,10.2104 C38.131,7.4624 40.191,5.2544 42.839,3.6364 C45.441,2.0664 48.335,1.2324 51.375,1.2324 C54.073,1.2324 56.575,1.7724 58.783,2.7524" id="Fill-20" fill="#231916"></path>
                <path d="M106.7572,2.0658 L106.7572,2.8018 L105.9232,2.8018 C104.8932,2.8018 104.0572,3.6358 104.0572,4.5198 L104.0572,22.1298 C104.0572,23.6038 103.9612,26.8398 103.7152,28.1638 C103.5192,29.5878 102.8832,31.0118 101.8032,32.3818 C100.7212,33.7578 99.1532,34.8358 97.1912,35.6718 C95.5732,36.3578 93.8052,36.7498 91.6472,36.8478 C88.5072,36.9958 84.7812,36.4538 82.6712,35.4258 C80.5612,34.3938 78.9912,33.0218 78.0572,31.3038 C77.1292,29.6358 76.6872,27.3798 76.6872,24.6318 L76.7332,4.5198 C76.7332,3.6358 75.8512,2.8018 74.8212,2.8018 L74.0372,2.8018 L74.0372,2.0658 L82.1792,2.0658 L82.1792,21.2478 C82.1792,24.9278 82.3772,27.5258 82.6712,29.0458 C83.0152,30.5198 84.0452,31.7938 85.5652,32.8738 C87.0372,34.0038 89.0972,34.6898 91.5992,34.6898 C93.5612,34.6898 95.4252,34.2958 97.0452,33.5598 C98.6632,32.8258 99.8892,31.8438 100.7212,30.7158 C101.5072,29.6358 101.8032,28.4578 101.9492,27.2798 C102.1452,26.1538 102.2452,24.2398 102.2452,22.1298 L102.2452,2.0658 L106.7572,2.0658 Z" id="Fill-22" fill="#231916"></path>
                <path d="M145.9018,19.9232 C145.9018,20.7572 145.2138,21.3932 144.5278,21.3932 L143.2018,21.4452 C141.9758,21.4452 141.0938,22.0332 141.0938,23.2592 L141.0938,32.0892 C140.3078,32.9712 138.2978,34.5912 136.7778,35.3772 C135.1098,36.1612 133.6358,36.5032 132.6098,36.6512 C131.6758,36.8472 130.6938,36.8952 129.7138,36.8952 C125.1018,36.8952 121.0778,35.1312 117.7918,32.0412 C114.1618,28.6052 112.3478,23.6512 112.3478,19.0892 C112.3478,13.7912 114.5538,9.3772 117.7918,6.1372 C119.9018,4.0292 123.8738,1.5752 128.2418,1.3312 C128.5858,1.2812 129.3698,1.2812 129.7138,1.2812 C133.0498,1.2812 135.7478,2.1152 138.4438,3.8812 C139.5738,4.6672 140.6058,4.2752 140.6058,3.1452 L140.6058,2.3612 L141.3898,2.3612 L141.3898,8.7892 L140.6058,8.7892 C140.2618,7.8052 139.5738,6.9232 138.1518,5.5992 C135.9438,3.5392 132.6098,2.5552 129.5178,2.5552 C125.8858,2.5552 122.9918,4.5192 121.6678,6.4812 C119.4598,9.8172 118.0878,13.1532 118.0878,19.0892 C118.0878,25.4652 120.3438,35.5712 129.7618,35.5712 C131.7258,35.5712 133.9798,35.2292 135.6018,34.3932 L135.6018,23.1612 C135.6018,22.1312 134.7658,21.4452 133.7358,21.4452 L132.2138,21.3932 C131.5278,21.3932 130.8418,20.7572 130.8418,19.9232 L145.9018,19.9232 Z" id="Fill-24" fill="#231916"></path>
                <path d="M177.7846,34.5424 C177.7846,35.3764 177.1486,36.0624 176.4606,36.0624 L152.1766,36.0624 L152.1766,35.2764 L152.9626,35.2764 C153.9926,35.2764 154.8266,34.4444 154.8266,33.5604 L154.8266,4.4704 C154.8266,3.6364 153.9926,2.8024 152.9626,2.8024 L152.1766,2.8024 L152.1766,2.0164 L176.9526,2.0164 C176.9526,2.8504 176.2646,3.5384 175.5766,3.5384 L160.3206,3.5384 L160.3206,17.6664 L174.0586,17.6664 C174.0586,18.5504 173.3706,19.1864 172.6826,19.1864 L160.3206,19.1864 L160.3206,34.5424 L177.7846,34.5424 Z" id="Fill-26" fill="#231916"></path>
                <path d="M242.0462,2.0658 L242.0462,2.8018 L241.2602,2.8018 C240.2302,2.8018 239.3982,3.6358 239.3982,4.5198 L239.3982,37.6818 L210.5502,9.9158 L210.5502,36.0618 L206.0382,36.0618 L206.0382,35.2758 L206.8242,35.2758 C207.8522,35.2758 208.6862,34.4438 208.6862,33.6078 L208.6862,0.4478 L237.5322,28.2138 L237.5322,2.0658 L242.0462,2.0658 Z" id="Fill-28" fill="#231916"></path>
                <path d="M273.929,34.5424 C273.929,35.3764 273.293,36.0624 272.605,36.0624 L248.323,36.0624 L248.323,35.2764 L249.107,35.2764 C250.137,35.2764 250.971,34.4444 250.971,33.5604 L250.971,4.4704 C250.971,3.6364 250.137,2.8024 249.107,2.8024 L248.323,2.8024 L248.323,2.0164 L273.097,2.0164 C273.097,2.8504 272.409,3.5384 271.721,3.5384 L256.465,3.5384 L256.465,17.6664 L270.203,17.6664 C270.203,18.5504 269.515,19.1864 268.827,19.1864 L256.465,19.1864 L256.465,34.5424 L273.929,34.5424 Z" id="Fill-31" fill="#231916"></path>
                <mask id="mask-4" fill="white">
                    <use xlink:href="#path-3"></use>
                </mask>
                <g id="Clip-34"></g>
                <path d="M291.39,3.2924 C290.116,3.7824 289.036,4.5184 288.202,5.4524 C287.222,6.4324 286.436,7.6604 285.75,9.0324 C285.112,10.4064 284.574,11.9264 284.23,13.6444 C283.932,15.3604 283.738,17.1744 283.738,19.1384 C283.738,21.5904 284.032,23.8464 284.522,25.8584 C285.062,27.8704 285.848,29.6364 286.878,31.0584 C287.858,32.5304 289.086,33.6604 290.46,34.3944 C291.882,35.1784 293.452,35.5724 295.168,35.5724 C297.522,35.5724 299.534,34.8864 301.252,33.5604 C302.968,32.1864 304.292,30.2744 305.226,27.7724 C306.158,25.2704 306.598,22.2764 306.598,18.8424 C306.598,16.5864 306.354,14.4784 305.862,12.5664 C305.372,10.6024 304.636,8.8864 303.656,7.4624 C302.724,6.0404 301.596,4.8624 300.27,4.0284 C299.586,3.5864 298.8,3.1944 297.964,2.9484 C297.082,2.6564 296.25,2.5564 295.464,2.5564 C293.992,2.5564 292.668,2.8024 291.39,3.2924 M302.576,2.7524 C304.832,3.7824 306.796,5.3044 308.464,7.2644 C309.836,8.9344 310.916,10.7984 311.7,12.8584 C312.436,14.8704 312.83,16.9804 312.83,19.1384 C312.83,22.3764 312.044,25.3204 310.522,28.0164 C308.952,30.7644 306.894,32.9224 304.246,34.4944 C301.596,36.0624 298.7,36.8964 295.512,36.8964 C293.158,36.8964 290.85,36.4544 288.742,35.5224 C286.632,34.6404 284.768,33.3644 283.15,31.6964 C281.53,30.0784 280.256,28.1644 279.372,25.9564 C278.44,23.7504 278,21.4944 278,19.0884 C278,15.9004 278.784,12.9564 280.352,10.2104 C281.924,7.4624 283.984,5.2544 286.632,3.6364 C289.234,2.0664 292.128,1.2324 295.168,1.2324 C297.866,1.2324 300.368,1.7724 302.576,2.7524" id="Fill-33" fill="#231916" mask="url(#mask-4)"></path>
            </g>
        </g>
    </g>
</svg>