<?xml version="1.0" encoding="UTF-8"?>
<svg width="491px" height="40px" viewBox="0 0 491 40" version="1.1" xmlns="http://www.w3.org/2000/svg" xmlns:xlink="http://www.w3.org/1999/xlink">
    <!-- Generator: Sketch 59.1 (86144) - https://sketch.com -->
    <title>Group 28</title>
    <desc>Created with Sketch.</desc>
    <defs>
        <polygon id="path-1" points="0.641947059 0.446332353 32.043 0.446332353 32.043 37.3577441 0.641947059 37.3577441"></polygon>
    </defs>
    <g id="Page-2" stroke="none" stroke-width="1" fill="none" fill-rule="evenodd">
        <g id="Desktop-HD-Copy" transform="translate(-390.000000, -784.000000)">
            <g id="Group-28" transform="translate(390.000000, 784.000000)">
                <path d="M8.89312254,39 L0,39 L0,38.1464099 L0.85764243,38.1464099 C1.98280635,38.1464099 2.89355967,37.2419176 2.89355967,36.2806498 L2.89355967,4.71739245 C2.89355967,3.76004021 1.98280635,2.85359014 0.85764243,2.85359014 L0,2.85359014 L0,2 L27,2 C27,2.9044923 26.3036573,3.65236256 25.4991257,3.65236256 L8.89312254,3.65236256 L8.89312254,19.0071961 L23.8920297,19.0071961 C23.8920297,19.9136462 23.1425761,20.6615165 22.3911555,20.6615165 L8.89312254,20.6615165 L8.89312254,39 Z" id="Fill-1" fill="#231916"></path>
                <path d="M68,2 L68,2.80439552 L67.0843427,2.80439552 C65.9486897,2.80439552 65.0310504,3.71499485 65.0310504,4.67672935 L65.0310504,23.9074858 C65.0310504,25.5123434 64.9240255,29.0465701 64.6544814,30.4940887 C64.4384497,32.0458444 63.7368421,33.5995668 62.5496587,35.0982205 C61.3604933,36.6008078 59.6342215,37.7769166 57.4739044,38.687516 C55.6961022,39.4368428 53.7518168,39.8675583 51.375468,39.9737621 C47.9229245,40.1350345 43.8203039,39.5450134 41.4994495,38.4200397 C39.178595,37.295066 37.4503413,35.7964123 36.4256772,33.920145 C35.401013,32.100913 34.9154371,29.6365913 34.9154371,26.6373171 L34.9689496,4.67672935 C34.9689496,3.71499485 33.9977978,2.80439552 32.8621449,2.80439552 L32,2.80439552 L32,2 L40.9583792,2 L40.9583792,22.9418178 C40.9583792,26.9578952 41.1744109,29.7978638 41.4994495,31.45779 C41.8780004,33.0646143 43.0116714,34.4570642 44.6844307,35.6351398 C46.3036776,36.868284 48.5690377,37.6176109 51.3219555,37.6176109 C53.4802907,37.6176109 55.531601,37.1888622 57.3133671,36.3844667 C59.0951332,35.5820379 60.442854,34.5101661 61.3604933,33.2789886 C62.2246201,32.100913 62.5496587,30.8146669 62.7121779,29.5303875 C62.9262277,28.2972433 63.0352345,26.2105351 63.0352345,23.9074858 L63.0352345,2 L68,2 Z" id="Fill-3" fill="#231916"></path>
                <path d="M99,28.413072 C99,31.631882 97.2361911,34.9038792 94.9222032,36.9427215 C92.6102381,38.9264067 89.5802085,40 85.8907733,40 C82.1993154,40 79.1126498,39.1411254 76.305119,37.1554702 C75.0935117,36.2985655 73.8819045,36.5132842 73.8819045,37.9079705 L73.8819045,39.0879382 L73,39.0879382 L73,32.0613193 L73.8819045,32.0613193 C74.2662206,32.9182241 75.3139879,34.2616931 76.5802085,35.3865037 C78.839583,37.4805031 81.8129765,38.3374078 85.0634822,38.3374078 C88.4778279,38.3374078 90.2396141,37.746439 91.8941964,36.3517527 C93.5467559,34.9570664 94.3720243,33.1880998 94.3720243,31.310789 C94.3720243,26.6972927 91.1215186,24.7628548 85.5590478,22.5112638 C82.4744049,21.2781089 80.160417,20.1532983 78.6191069,19.1309223 C76.1392563,17.4151429 73.8819045,14.9468633 73.8819045,10.3885241 C73.8819045,5.71987069 78.0669052,1 84.6771433,1 C88.4232146,1 91.4532441,1.91206182 94.4266376,3.79134256 C95.8607437,4.70143449 96.9064883,4.21880998 96.9064883,3.03884231 L96.9064883,1.91206182 L97.7317567,1.91206182 L97.7317567,8.93868067 L96.9064883,8.93868067 C96.4109227,7.59915143 95.2539287,6.41918376 94.0969348,5.61349631 C91.6737202,3.79134256 88.4232146,2.66456208 84.9542555,2.66456208 C80.2150303,2.66456208 77.9576785,5.45393474 77.9576785,8.13496313 C77.9576785,12.7484594 82.2539287,14.4110516 86.8252684,16.5030811 C90.1303874,18.0061117 92.5010114,19.1309223 94.0423215,19.9917668 C98.0634822,22.1350136 99,25.194262 99,28.413072" id="Fill-5" fill="#231916"></path>
                <path d="M115.05358,4.71920635 L115.05358,36.2807937 C115.05358,37.2400529 115.980971,38.146455 117.12669,38.146455 L118,38.146455 L118,39 L106,39 L106,38.146455 L106.871307,38.146455 C108.017026,38.146455 108.944417,37.2400529 108.944417,36.2807937 L108.944417,4.71920635 C108.944417,3.76190476 108.017026,2.85550265 106.871307,2.85550265 L106,2.85550265 L106,2 L118,2 L118,2.85550265 L117.12669,2.85550265 C115.980971,2.85550265 115.05358,3.76190476 115.05358,4.71920635" id="Fill-7" fill="#231916"></path>
                <path d="M137.612361,3.25356097 C136.220895,3.79134256 135.041686,4.59506011 134.133695,5.61349631 C133.062581,6.68708961 132.205689,8.02858875 131.456892,9.53161936 C130.761159,11.0326801 130.171554,12.6952722 129.798138,14.5725831 C129.475821,16.4498939 129.261598,18.435549 129.261598,20.5827356 C129.261598,23.263764 129.583915,25.7300737 130.11849,27.9304475 C130.708094,30.1308213 131.56302,32.0613193 132.687199,33.6175371 C133.758314,35.2249722 135.09475,36.460097 136.594311,37.2657844 C138.14497,38.1246591 139.860719,38.5521265 141.73173,38.5521265 C144.302405,38.5521265 146.495733,37.8015961 148.36871,36.3537226 C150.241686,34.850692 151.688182,32.7606324 152.704267,30.0244469 C153.722317,27.2862915 154.203827,24.0142944 154.203827,20.2596727 C154.203827,17.7913931 153.93654,15.4846449 153.4,13.3926154 C152.865425,11.2473987 152.061598,9.36811799 150.992449,7.81190019 C149.974399,6.25765229 148.744091,4.96934034 147.29956,4.05727851 C146.548798,3.5766239 145.691906,3.14718658 144.783915,2.87928074 C143.820895,2.5562178 142.908973,2.44984342 142.054047,2.44984342 C140.448358,2.44984342 139.003827,2.71971916 137.612361,3.25356097 M149.81324,2.66456208 C152.275821,3.79134256 154.41805,5.45393474 156.237962,7.59915143 C157.735557,9.42327508 158.912801,11.4621174 159.769692,13.7156784 C160.571554,15.9140822 161,18.2208304 161,20.5827356 C161,24.1226387 160.143108,27.3414486 158.48632,30.2923528 C156.772537,33.2964441 154.524179,35.6544095 151.635118,37.3721588 C148.744091,39.0879382 145.585777,40 142.107111,40 C139.538402,40 137.022757,39.5173755 134.721334,38.4989393 C132.419912,37.5336903 130.385777,36.137034 128.618929,34.3168502 C126.854047,32.5439438 125.462581,30.4538842 124.497595,28.0368219 C123.483476,25.6236994 123,23.1573896 123,20.5295484 C123,17.0408627 123.856892,13.8220527 125.56871,10.8179614 C127.282493,7.81190019 129.528885,5.40074755 132.419912,3.62981109 C135.255909,1.91206182 138.414223,1 141.73173,1 C144.677786,1 147.405689,1.59096878 149.81324,2.66456208" id="Fill-9" fill="#231916"></path>
                <path d="M206,1.73786831 L206,2.52939184 L205.149332,2.52939184 C204.033318,2.52939184 203.129971,3.42541971 203.129971,4.37176448 L203.129971,40 L171.889389,10.1698195 L171.889389,38.2601964 L167,38.2601964 L167,37.418356 L167.850668,37.418356 C168.966682,37.418356 169.868077,36.5223281 169.868077,35.6263003 L169.868077,0 L201.110611,29.8301805 L201.110611,1.73786831 L206,1.73786831 Z" id="Fill-11" fill="#231916"></path>
                <path d="M221.893123,39 L213,39 L213,38.1464099 L213.857642,38.1464099 C214.982806,38.1464099 215.89356,37.2419176 215.89356,36.2806498 L215.89356,4.71739245 C215.89356,3.76004021 214.982806,2.85359014 213.857642,2.85359014 L213,2.85359014 L213,2 L240,2 C240,2.9044923 239.303657,3.65236256 238.499126,3.65236256 L221.893123,3.65236256 L221.893123,19.0071961 L236.89203,19.0071961 C236.89203,19.9136462 236.142576,20.6615165 235.393123,20.6615165 L221.893123,20.6615165 L221.893123,39 Z" id="Fill-13" fill="#231916"></path>
                <path d="M255.05358,4.71920635 L255.05358,36.2807937 C255.05358,37.2400529 255.980971,38.146455 257.12669,38.146455 L258,38.146455 L258,39 L246,39 L246,38.146455 L246.87331,38.146455 C248.017026,38.146455 248.944417,37.2400529 248.944417,36.2807937 L248.944417,4.71920635 C248.944417,3.76190476 248.017026,2.85550265 246.87331,2.85550265 L246,2.85550265 L246,2 L258,2 L258,2.85550265 L257.12669,2.85550265 C255.980971,2.85550265 255.05358,3.76190476 255.05358,4.71920635" id="Fill-15" fill="#231916"></path>
                <path d="M295,2 C295,2.90774693 294.266073,3.60179101 293.530219,3.60179101 L283.931375,3.60179101 C282.829521,3.60179101 281.937635,4.50953794 281.937635,5.47218101 L281.937635,36.3316554 C281.937635,37.2923379 282.829521,38.1471492 283.931375,38.1471492 L284.82326,38.1471492 L284.82326,39 L273.22875,39 L273.22875,38.1471492 L274.068625,38.1471492 C275.170479,38.1471492 276.062365,37.2394023 276.062365,36.3316554 L276.062365,5.47218101 C276.062365,4.50953794 275.170479,3.60179101 274.068625,3.60179101 L264.469781,3.60179101 C263.733927,3.60179101 263,2.90774693 263,2 L295,2 Z" id="Fill-17" fill="#231916"></path>
                <path d="M377,2.02360248 L377,2.82608696 L376.08629,2.82608696 C374.473977,2.82608696 373.506984,3.73871636 373.023488,5.07619048 L363.349611,40 C362.489185,37.9111801 353.460628,18.3604555 351.366792,13.2721532 L341.744225,40 L329.060829,4.48809524 C328.685872,3.46925466 327.933986,2.88115942 326.858453,2.88115942 L326,2.88115942 L326,2.02360248 C326,2.02360248 331.642108,1.97049689 332.986031,2.02360248 C334.114847,2.02360248 334.86476,2.88115942 335.188407,3.73871636 L344.057114,27.5201863 L353.192238,2.02360248 L364.640251,27.5201863 L370.874395,5.12929607 C371.304609,3.57743271 372.218318,2.02360248 373.881941,2.02360248 L377,2.02360248 Z" id="Fill-19" fill="#231916"></path>
                <path d="M410,37.3477249 C410,38.254127 409.302708,39 408.552234,39 L382,39 L382,38.146455 L382.856841,38.146455 C383.983539,38.146455 384.895533,37.2400529 384.895533,36.2807937 L384.895533,4.66634921 C384.895533,3.76190476 383.983539,2.85550265 382.856841,2.85550265 L382,2.85550265 L382,2 L409.088006,2 C409.088006,2.90640212 408.337531,3.6542328 407.587056,3.6542328 L390.903271,3.6542328 L390.903271,19.008254 L405.922617,19.008254 C405.922617,19.9675132 405.172142,20.6624868 404.419698,20.6624868 L390.903271,20.6624868 L390.903271,37.3477249 L410,37.3477249 Z" id="Fill-21" fill="#231916"></path>
                <path d="M438.724133,26.2150228 L431.397292,9.67010622 L423.912203,26.2150228 L438.724133,26.2150228 Z M453,38.1951442 L453,39 L445.888771,39 C444.703895,39 444.05706,38.2503794 443.681223,37.4435508 L439.370968,27.6649469 L423.265368,27.6649469 L418.039257,39 L414,39 L414,38.1951442 L414.860469,38.1951442 C415.885119,38.1951442 416.585362,37.6033384 416.963177,36.8537178 L433.715612,0 L450.036823,36.8537178 C450.414638,37.6033384 451.114881,38.1951442 452.137553,38.1951442 L453,38.1951442 Z" id="Fill-23" fill="#231916"></path>
                <g id="Group-27" transform="translate(458.000000, 1.000000)">
                    <mask id="mask-2" fill="white">
                        <use xlink:href="#path-1"></use>
                    </mask>
                    <g id="Clip-26"></g>
                    <path d="M17.6117118,19.6218029 C21.3115941,18.7690382 23.3750647,15.5203176 23.3750647,11.0452588 C23.3750647,6.51934706 21.3115941,3.27062647 17.6117118,2.41786176 C16.6605353,2.20662647 15.0745941,2.09905294 12.9606529,2.09905294 L9.47235882,2.09905294 L9.47235882,19.9934206 L12.9606529,19.9934206 C15.0745941,19.9934206 16.6605353,19.8878029 17.6117118,19.6218029 L17.6117118,19.6218029 Z M32.0443588,36.5069353 L32.0443588,37.3577441 L24.7474765,37.3577441 C23.5866529,37.3577441 22.9518882,36.5597441 22.5811235,35.7617441 L16.3965353,21.5385676 C15.6569471,21.5933324 14.8630059,21.5933324 14.0690647,21.5933324 L9.47235882,21.5933324 L9.47235882,37.3577441 L0.641947059,37.3577441 L0.641947059,36.5597441 L1.4883,36.5597441 C2.59865294,36.5597441 3.49741765,35.6013618 3.49741765,34.6957882 L3.49741765,3.11024412 C3.49741765,2.15186176 2.59865294,1.24628824 1.4883,1.24628824 L0.641947059,1.24628824 L0.641947059,0.446332353 L14.0690647,0.446332353 C16.6081235,0.446332353 18.5628882,0.553905882 19.8848294,0.765141176 C22.3695353,1.08590588 24.3786529,1.67267059 25.9645941,2.73667059 C28.8724765,4.60062647 30.1420059,8.11730294 30.1420059,11.0452588 C30.1420059,13.9223618 28.8724765,17.4390382 25.9645941,19.3558029 C25.0134176,19.9406118 24.0098294,20.3669941 22.7927118,20.6877588 L29.1364765,35.2277882 C29.5053,35.9221265 30.1944176,36.5069353 31.1980059,36.5069353 L32.0443588,36.5069353 Z" id="Fill-25" fill="#231916" mask="url(#mask-2)"></path>
                </g>
            </g>
        </g>
    </g>
</svg>