<?xml version="1.0" encoding="UTF-8"?>
<svg width="394px" height="140px" viewBox="0 0 394 140" version="1.1" xmlns="http://www.w3.org/2000/svg" xmlns:xlink="http://www.w3.org/1999/xlink">
    <!-- Generator: Sketch 59.1 (86144) - https://sketch.com -->
    <title>Group 16</title>
    <desc>Created with Sketch.</desc>
    <defs>
        <polygon id="path-1" points="0.647708523 0.384674086 96.0872961 0.384674086 96.0872961 139.999645 0.647708523 139.999645"></polygon>
    </defs>
    <g id="Page-2" stroke="none" stroke-width="1" fill="none" fill-rule="evenodd">
        <g id="Desktop-HD-Copy" transform="translate(-1262.000000, -264.000000)">
            <g id="Group-16" transform="translate(1262.000000, 264.000000)">
                <path d="M292.955603,135.337151 C291.382167,135.698529 288.927084,135.865681 285.601034,135.865681 L280.436935,135.865681 L280.436935,109.676958 L286.772212,109.676958 C291.123487,109.802911 294.450724,110.542146 296.650687,111.964116 C299.48667,113.839279 300.908221,117.490727 300.908221,122.946711 C300.908221,129.969452 298.251415,134.098813 292.955603,135.337151 L292.955603,135.337151 Z M280.436935,83.044458 L282.544343,83.044458 C286.027025,83.044458 288.463122,83.128034 289.852635,83.3151972 C292.250761,83.6412614 294.187298,84.3451834 295.639701,85.4293174 C298.202764,87.3386175 299.47955,90.7287435 299.47955,95.56909 C299.47955,99.2876344 298.597903,102.091551 296.832237,104.018508 C295.195911,105.848941 292.39434,106.922481 288.593648,107.317995 C287.48536,107.409811 286.410298,107.426291 286.410298,107.426291 L280.436935,107.426291 L280.436935,83.044458 Z M266.147854,6.84078279 L273.1856,6.84078279 C277.721986,6.84078279 281.068208,7.06914544 283.213587,7.56118455 C291.093822,9.36689748 294.359355,16.6521369 294.359355,26.2268885 C294.359355,35.800463 291.093822,43.0845253 283.213587,44.8914154 C281.068208,45.3834545 277.721986,45.6118171 273.1856,45.6118171 L266.147854,45.6118171 L266.147854,6.84078279 Z M306.181487,112.019441 C302.840011,110.053639 298.711817,108.888283 293.775546,108.493945 C297.544199,107.814743 300.574785,106.880104 302.894595,105.670017 C307.820187,103.100349 310.306121,99.0863457 310.306121,94.5520522 C310.306121,90.5027351 308.347039,87.2291447 304.462099,84.758355 C300.246096,82.072151 293.411259,80.7266948 283.9742,80.7266948 L266.147854,80.7266948 L266.147854,48.6699933 L275.494731,48.6699933 C280.992265,48.6134912 285.254546,48.4051397 288.12138,48.0049165 C293.424312,47.2609722 297.709137,46.0155717 301.120623,43.8425951 C307.430981,39.8238833 310.194581,32.4209312 310.194581,26.2268885 C310.194581,20.0316687 307.430981,12.6287166 301.120623,8.61000477 C297.709137,6.4370282 293.424312,5.19162776 288.12138,4.44886058 C285.254546,4.04746025 280.992265,3.83910876 275.494731,3.78378378 L246.661449,3.78378378 L246.661449,5.53417174 L248.490006,5.53417174 C250.877452,5.53417174 252.812803,7.44935748 252.812803,9.4328166 L252.812803,76.8786664 C252.812803,78.8597712 250.877452,80.7266948 248.490006,80.7266948 L210.70024,80.7266948 L210.70024,82.0191803 L212.054155,82.0191803 C213.798462,82.0191803 215.218826,83.4234929 215.218826,84.8772448 L215.218826,133.934016 C215.218826,135.400716 213.804395,136.796789 212.057714,136.805028 L210.70024,136.805028 L210.70024,138.090451 L251.988113,138.090451 C253.167597,138.090451 254.312669,136.940398 254.312669,135.536085 L225.01068,135.536085 L225.01068,109.676958 L245.614865,109.676958 C246.801469,109.676958 247.958407,108.545739 247.958407,107.130832 L225.01068,107.130832 L225.01068,83.2716435 L250.497739,83.2716435 C251.285644,83.2716435 252.047443,82.766656 252.480553,82.0191803 L267.486343,82.0191803 C269.23777,82.0191803 270.656948,83.4234929 270.656948,84.8772448 L270.656948,133.964621 C270.656948,135.418373 269.23777,136.82504 267.486343,136.82504 L266.147854,136.82504 L266.147854,138.108108 L287.293131,138.108108 C291.32521,138.066909 294.450724,137.913882 296.554572,137.6196 C300.444259,137.075768 303.61605,135.975154 306.087746,134.335416 C310.525643,131.360816 312.743405,127.609312 312.743405,123.064424 C312.743405,117.95687 310.560055,114.582046 306.181487,112.019441 L306.181487,112.019441 Z" id="Fill-1" fill="#060101"></path>
                <path d="M370.643687,124.265938 C369.066878,128.59861 366.802438,131.921123 363.871708,134.25143 C360.929122,136.558997 357.464885,137.734324 353.47544,137.734324 C350.545895,137.734324 347.877176,137.054501 345.487066,135.745125 C343.086286,134.420189 341.041177,132.498014 339.320914,129.996555 C337.59828,127.491504 336.276369,124.472996 335.361108,121.01404 C334.449404,117.527556 333.979919,113.677222 333.979919,109.441497 C333.979919,106.044778 334.282239,102.893417 334.852498,99.9694622 C335.435799,97.0431133 336.301266,94.3944385 337.440599,92.0114689 C338.588231,89.6368774 339.954008,87.5818504 341.580611,85.8475847 C343.055461,84.2533529 344.878868,83.0133949 347.042534,82.1432699 C349.195531,81.2851136 351.512135,80.8530432 353.97338,80.8530432 C355.327301,80.8530432 356.754728,81.0816456 358.226021,81.559197 C359.716283,82.0152047 361.020411,82.6507431 362.155002,83.4023779 C364.443153,84.8757257 366.385117,86.8385937 368.002236,89.3232973 C369.619354,91.8175758 370.858275,94.7451216 371.715442,98.0855877 C372.579723,101.44281 373.004158,105.045391 373.004158,108.898118 C373.004158,114.839384 372.214568,119.964384 370.643687,124.265938 M376.148291,88.9750079 C373.429777,85.7219133 370.22518,83.2084848 366.56651,81.4634473 L379.414537,81.4634473 C381.026913,81.4634473 382.580011,79.8728061 382.580011,77.9254975 L342.645253,77.9254975 L342.645253,42.0504948 L370.730233,42.0504948 C372.347351,42.0504948 373.926531,40.4825942 373.926531,38.5209231 L342.645253,38.5209231 L342.645253,5.42146362 L377.386026,5.42146362 C379.006701,5.42146362 380.571654,3.84757863 380.59418,1.89189189 L323.136691,1.89189189 L323.136691,3.68600109 L324.982624,3.68600109 C327.357322,3.68600109 329.292173,5.63330973 329.292173,7.6452494 L329.292173,75.6969242 C329.292173,77.7387857 327.367992,79.6753225 324.988552,79.6872912 L323.136691,79.6872912 L323.136691,81.4634473 L341.332827,81.4634473 C340.519525,81.8667927 339.712152,82.2988631 338.921376,82.7895801 C334.449404,85.548367 330.86661,89.3149192 328.208561,94.0449522 C325.541028,98.777379 324.219117,103.892804 324.219117,109.356519 C324.219117,113.465376 324.993294,117.425822 326.529793,121.193571 C328.085262,124.960123 330.227588,128.281439 332.981668,131.106054 C335.745233,133.93785 338.921376,136.119745 342.54448,137.678071 C346.166398,139.229215 350.023059,140 354.121576,140 C359.493396,140 364.443153,138.622402 368.951878,135.881568 C373.468901,133.174246 377.042211,129.461553 379.664693,124.772214 C382.304958,120.102024 383.606715,114.99378 383.606715,109.441497 C383.606715,105.753938 382.959393,102.132208 381.665936,98.5954547 C380.371293,95.0622923 378.522988,91.843907 376.148291,88.9750079" id="Fill-3" fill="#060101"></path>
                <path d="M85.2667298,118.190398 L96.6555697,93.175861 L107.631004,118.190398 L85.2667298,118.190398 Z M125.829152,134.763982 L100.53659,77.5675676 L74.4801785,134.763982 C73.8921452,135.859717 72.8681356,136.81552 71.2727239,136.81552 L69.9184652,136.81552 L69.9184652,138.108108 L76.1943849,138.108108 L84.2355925,120.448276 L108.626503,120.448276 L115.440563,135.611872 C116.055919,136.89023 117.034786,138.095064 118.838089,138.108108 L130.388489,138.108108 L130.388489,136.81552 L129.036606,136.81552 C127.440007,136.81552 126.425501,135.859717 125.829152,134.763982 L125.829152,134.763982 Z" id="Fill-5" fill="#060101"></path>
                <path d="M59.2516925,135.536085 L59.2338996,135.529023 L59.0156403,135.327734 L56.5341262,133.045285 L29.9669793,106.328031 L51.5782151,85.8071752 L54.2424028,83.4976519 L54.4748965,83.3151972 L54.4974341,83.2975403 C55.3953816,82.5665444 56.4736303,82.0191803 57.6432159,82.0191803 L77.9164269,82.0191803 L77.9164269,43.26698 L119.00138,43.26698 L119.00138,82.0191803 L137.947242,82.0191803 L137.947242,80.2676152 L136.09441,80.2676152 C133.714908,80.2570211 131.780229,78.3524295 131.780229,76.3513135 L131.780229,9.44341074 C131.780229,7.46230588 133.714908,5.54594301 136.100341,5.54594301 L137.947242,5.54594301 L137.947242,3.78378378 L119.00138,3.78378378 L119.00138,39.7968094 L77.9164269,39.7968094 L77.9164269,3.78378378 L58.9717511,3.78378378 L58.9717511,5.54594301 L60.8174662,5.54594301 C63.2017126,5.54594301 65.1387644,7.46230588 65.1387644,9.44341074 L65.1387644,76.3513135 C65.1387644,78.3524295 63.2017126,80.2570211 60.8233972,80.2676152 L54.8710847,80.2676152 C52.929288,80.2676152 51.1499997,81.9932835 49.8356987,83.2198499 L17.9520384,113.112992 L18.7515319,114.085299 L19.7645401,113.215402 C21.0491862,112.098308 22.9909829,112.244272 23.9197714,113.361366 L23.9197714,113.315458 L46.2806807,135.630256 C47.6080298,136.849759 48.9935023,138.108108 51.6624347,138.108108 L63.7248233,138.108108 L63.7248233,136.82504 L62.4057776,136.82504 C61.2397506,136.82504 60.1709915,136.256487 59.2516925,135.536085" id="Fill-7" fill="#060101"></path>
                <path d="M389.275779,74.7297297 C386.668394,74.7297297 384.551559,76.8479973 384.551559,79.4601268 C384.551559,82.0709216 386.668394,84.1891892 389.275779,84.1891892 C391.885831,84.1891892 394,82.0709216 394,79.4601268 C394,76.8479973 391.885831,74.7297297 389.275779,74.7297297" id="Fill-9" fill="#060101"></path>
                <path d="M24.5659472,82.0294657 L24.5659472,80.2776703 L22.7865981,80.2776703 C20.5052061,80.2670748 18.6461676,78.3634101 18.6461676,76.3608537 L18.6461676,9.4441548 C18.6461676,7.46278949 20.5052061,5.54617467 22.7922902,5.54617467 L24.5659472,5.54617467 L24.5659472,3.78378378 L0,3.78378378 L0,5.54617467 L1.77479548,5.54617467 C4.06301801,5.54617467 5.9209181,7.46278949 5.9209181,9.4441548 L5.9209181,76.3608537 C5.9209181,78.3634101 4.06301801,80.2670748 1.78048758,80.2776703 L0,80.2776703 L0,82.0294657 L1.30007469,82.0294657 C2.97810455,82.0294657 4.34079229,83.4339629 4.34079229,84.887906 L4.34079229,133.951126 C4.34079229,135.418019 2.97810455,136.814275 1.30348995,136.822516 L0,136.822516 L0,138.108108 L13.3331653,138.108108 L13.3331653,82.0294657 L24.5659472,82.0294657" id="Fill-11" fill="#060101"></path>
                <g id="Group-15" transform="translate(136.057554, 0.000000)">
                    <mask id="mask-2" fill="white">
                        <use xlink:href="#path-1"></use>
                    </mask>
                    <g id="Clip-14"></g>
                    <path d="M36.7415147,69.2912572 C34.4327,65.9379345 32.6621797,61.8867421 31.4346345,57.242952 C30.2211318,52.5660426 29.5880509,47.4018073 29.5880509,41.7171269 C29.5880509,37.1608661 29.994112,32.9322493 30.7570858,29.0099854 C31.5364424,25.0853558 32.7019666,21.530952 34.2220631,18.3361285 C35.767904,15.1495847 37.5969346,12.3900426 39.7770267,10.0693304 C41.7441415,7.92485978 44.1828489,6.26416661 47.0943192,5.09553068 C49.9741939,3.94108871 53.0787481,3.36623339 56.3787265,3.36623339 C58.1937146,3.36623339 60.1023191,3.67022067 62.0752849,4.3124973 C64.0739952,4.92283752 65.824622,5.7768407 67.3353568,6.78579459 C70.405975,8.75993768 73.0073409,11.3952827 75.1710502,14.7273145 C77.3406104,18.0759059 79.0046421,21.9993526 80.1526133,26.4834607 C81.3040951,30.9853113 81.8763254,35.8230855 81.8763254,40.9873208 C81.8763254,48.9595943 80.8219706,55.8353844 78.7167716,61.6064114 C76.6033812,67.4188375 73.5678692,71.8733749 69.6406609,74.9984114 C65.7005803,78.0962429 61.0572065,79.6729552 55.7117095,79.6729552 C51.7868416,79.6729552 48.2130353,78.7609933 45.0055031,77.0056738 C41.7874391,75.2302461 39.0526697,72.6528598 36.7415147,69.2912572 M76.4524248,77.1925609 C82.5000447,73.5589075 87.2850134,68.576828 90.8003095,62.2829901 C94.3425203,56.0199059 96.0872961,49.1689552 96.0872961,41.7171269 C96.0872961,36.7728979 95.2108125,31.9126499 93.48476,27.1671364 C91.750516,22.427537 89.2731918,18.1090251 86.096085,14.2589138 C82.3128119,9.73104102 77.8437986,6.26416661 72.7065982,3.91506645 C67.5810999,1.56241781 61.9173072,0.384319237 55.7269222,0.384319237 C48.7267553,0.384319237 42.2133937,2.23071669 36.2079011,5.96136216 C30.2211318,9.66361971 25.4150995,14.7143033 21.8529952,21.0625514 C18.2791888,27.406068 16.5074983,34.2712127 16.5074983,41.6083065 C16.5074983,47.1155625 17.5466404,52.4312 19.6120524,57.4854321 C21.6879962,62.5396642 24.5690412,66.9930188 28.2575277,70.7839886 C31.9577162,74.5820553 36.2079011,77.5095593 41.0572311,79.5948884 C45.0253966,81.2981634 49.2065394,82.2834607 53.5936383,82.5921793 L53.5936383,123.717992 L5.09097729,76.8802938 L5.09097729,133.102564 C5.08746668,134.564542 3.69960343,135.976841 1.97940193,135.976841 L0.647708523,135.976841 L0.647708523,137.266125 L8.22127594,137.266125 L8.22127594,92.5291332 L56.6595757,139.999645 L56.6595757,82.7069138 C63.8270819,82.6927199 70.4282089,80.8498709 76.4524248,77.1925609" id="Fill-13" fill="#060101" mask="url(#mask-2)"></path>
                </g>
            </g>
        </g>
    </g>
</svg>