<?xml version="1.0" encoding="UTF-8"?>
<svg width="424px" height="36px" viewBox="0 0 424 36" version="1.1" xmlns="http://www.w3.org/2000/svg" xmlns:xlink="http://www.w3.org/1999/xlink">
    <!-- Generator: Sketch 59.1 (86144) - https://sketch.com -->
    <title>Group 30</title>
    <desc>Created with Sketch.</desc>
    <defs>
        <polygon id="path-1" points="0 0.3898 30.8478 0.3898 30.8478 33.4278 0 33.4278"></polygon>
        <polygon id="path-3" points="0.6032 0.868 35.0692 0.868 35.0692 35.4276 0.6032 35.4276"></polygon>
        <polygon id="path-5" points="0.103 0.868 35.043 0.868 35.043 36.9994 0.103 36.9994"></polygon>
        <polygon id="path-7" points="0.1188 0.868 34.5848 0.868 34.5848 35.4276 0.1188 35.4276"></polygon>
        <polygon id="path-9" points="0.2944 0.868 35.2364 0.868 35.2364 36.9994 0.2944 36.9994"></polygon>
    </defs>
    <g id="Page-2" stroke="none" stroke-width="1" fill="none" fill-rule="evenodd">
        <g id="Desktop-HD-Copy" transform="translate(-390.000000, -4146.000000)">
            <g id="Group-75" transform="translate(0.000000, 4085.000000)">
                <g id="Group-30" transform="translate(390.000000, 60.000000)">
                    <g id="Group-3" transform="translate(0.000000, 2.132800)">
                        <mask id="mask-2" fill="white">
                            <use xlink:href="#path-1"></use>
                        </mask>
                        <g id="Clip-2"></g>
                        <path d="M24.8498,16.6718 C24.8498,14.6258 24.6118,12.6718 24.1358,10.8638 C23.6598,9.0538 22.9938,7.4838 22.1378,6.1518 C21.2318,4.8178 20.4718,3.7718 19.2318,2.9618 C18.2818,2.3438 16.2318,1.8678 14.2338,1.8678 L7.9018,1.8678 L7.9018,31.9538 L14.2338,31.9538 C16.4238,31.9538 18.2818,31.5718 19.8978,30.3338 C21.4718,29.0478 22.7078,27.2878 23.5638,24.9558 C24.4218,22.6238 24.8038,19.8618 24.8498,16.6718 M30.8478,16.9578 C30.8478,19.9578 30.1818,22.7158 28.7058,25.2398 C27.3258,27.7138 25.3738,29.7138 22.8978,31.1918 C20.4718,32.6658 17.4238,33.3798 14.5198,33.3798 L-0.0002,33.4278 L-0.0002,32.6658 L0.7618,32.6658 C1.7618,32.6658 2.5718,31.8578 2.5718,30.9998 L2.5718,2.8178 C2.5718,1.9638 1.7618,1.1518 0.7618,1.1518 L-0.0002,1.1518 L-0.0002,0.3898 L14.5198,0.3898 C17.0438,0.3898 19.3278,0.8678 21.3758,1.8198 C23.4698,2.7718 25.2798,4.1518 26.8038,5.9618 C28.0878,7.5318 29.1358,9.2458 29.8018,11.1478 C30.5138,13.0538 30.8478,15.0058 30.8478,16.9578" id="Fill-1" fill="#000000" mask="url(#mask-2)"></path>
                    </g>
                    <path d="M52.3204,19.7088 C55.6524,18.9468 57.5084,16.0428 57.5084,12.0448 C57.5084,7.9988 55.6524,5.0928 52.3204,4.3348 C51.4624,4.1428 50.0344,4.0468 48.1304,4.0468 L44.9904,4.0468 L44.9904,20.0428 L48.1304,20.0428 C50.0344,20.0428 51.4624,19.9468 52.3204,19.7088 L52.3204,19.7088 Z M65.3164,34.7988 L65.3164,35.5608 L58.7464,35.5608 C57.7004,35.5608 57.1284,34.8468 56.7944,34.1328 L51.2244,21.4208 C50.5584,21.4708 49.8464,21.4708 49.1304,21.4708 L44.9904,21.4708 L44.9904,35.5608 L37.0384,35.5608 L37.0384,34.8468 L37.8004,34.8468 C38.8004,34.8468 39.6124,33.9908 39.6124,33.1788 L39.6124,4.9508 C39.6124,4.0948 38.8004,3.2848 37.8004,3.2848 L37.0384,3.2848 L37.0384,2.5728 L49.1304,2.5728 C51.4164,2.5728 53.1764,2.6668 54.3664,2.8568 C56.6064,3.1428 58.4144,3.6668 59.8424,4.6188 C62.4584,6.2848 63.6024,9.4248 63.6024,12.0448 C63.6024,14.6148 62.4584,17.7568 59.8424,19.4708 C58.9864,19.9948 58.0804,20.3748 56.9844,20.6608 L62.6964,33.6568 C63.0304,34.2748 63.6504,34.7988 64.5544,34.7988 L65.3164,34.7988 Z" id="Fill-4" fill="#000000"></path>
                    <g id="Group-8" transform="translate(69.000000, 0.132800)">
                        <mask id="mask-4" fill="white">
                            <use xlink:href="#path-3"></use>
                        </mask>
                        <g id="Clip-7"></g>
                        <path d="M22.4532,24.0976 L15.9812,9.4376 L9.3632,24.0976 L22.4532,24.0976 Z M35.0692,34.7156 L35.0692,35.4276 L28.7852,35.4276 C27.7372,35.4276 27.1652,34.7616 26.8332,34.0476 L23.0252,25.3836 L8.7912,25.3836 L4.1732,35.4276 L0.6032,35.4276 L0.6032,34.7156 L1.3652,34.7156 C2.2692,34.7156 2.8892,34.1916 3.2232,33.5236 L18.0272,0.8676 L32.4512,33.5236 C32.7832,34.1916 33.4032,34.7156 34.3072,34.7156 L35.0692,34.7156 Z" id="Fill-6" fill="#000000" mask="url(#mask-4)"></path>
                    </g>
                    <path d="M147.5332,2.619 L147.5332,3.333 L146.7252,3.333 C145.2952,3.333 144.4392,4.143 144.0112,5.331 L135.4412,36.371 C134.6792,34.513 126.6832,17.139 124.8252,12.617 L116.3072,36.371 L105.0732,4.809 C104.7392,3.905 104.0732,3.381 103.1212,3.381 L102.3592,3.381 L102.3592,2.619 C102.3592,2.619 107.3552,2.573 108.5452,2.619 C109.5452,2.619 110.2132,3.381 110.4972,4.143 L118.3532,25.279 L126.4452,2.619 L136.5832,25.279 L142.1072,5.381 C142.4892,3.999 143.2972,2.619 144.7732,2.619 L147.5332,2.619 Z" id="Fill-9" fill="#000000"></path>
                    <path d="M160.4376,4.951 L160.4376,33.133 C160.4376,33.991 161.2476,34.799 162.2476,34.799 L163.0076,34.799 L163.0076,35.561 L152.5356,35.561 L152.5356,34.799 L153.2976,34.799 C154.2976,34.799 155.1076,33.991 155.1076,33.133 L155.1076,4.951 C155.1076,4.095 154.2976,3.285 153.2976,3.285 L152.5356,3.285 L152.5356,2.523 L163.0076,2.523 L163.0076,3.285 L162.2476,3.285 C161.2476,3.285 160.4376,4.095 160.4376,4.951" id="Fill-11" fill="#000000"></path>
                    <g id="Group-15" transform="translate(169.000000, 0.132800)">
                        <mask id="mask-6" fill="white">
                            <use xlink:href="#path-5"></use>
                        </mask>
                        <g id="Clip-14"></g>
                        <path d="M35.043,2.4394 L35.043,3.1514 L34.281,3.1514 C33.283,3.1514 32.473,3.9634 32.473,4.8174 L32.473,36.9994 L4.483,10.0554 L4.483,35.4274 L0.103,35.4274 L0.103,34.6654 L0.865,34.6654 C1.865,34.6654 2.673,33.8574 2.673,33.0474 L2.673,0.8674 L30.667,27.8134 L30.667,2.4394 L35.043,2.4394 Z" id="Fill-13" fill="#000000" mask="url(#mask-6)"></path>
                    </g>
                    <path d="M242.131,19.8984 C242.131,20.7084 241.463,21.3284 240.797,21.3284 L239.511,21.3744 C238.323,21.3744 237.465,21.9444 237.465,23.1364 L237.465,31.7044 C236.703,32.5624 234.753,34.1324 233.275,34.8944 C231.657,35.6564 230.229,35.9904 229.231,36.1324 C228.325,36.3224 227.373,36.3704 226.423,36.3704 C221.945,36.3704 218.043,34.6564 214.853,31.6584 C211.331,28.3244 209.569,23.5184 209.569,19.0904 C209.569,13.9484 211.713,9.6644 214.853,6.5244 C216.901,4.4764 220.755,2.0964 224.993,1.8564 C225.327,1.8104 226.089,1.8104 226.423,1.8104 C229.659,1.8104 232.277,2.6184 234.895,4.3344 C235.989,5.0944 236.989,4.7144 236.989,3.6184 L236.989,2.8564 L237.751,2.8564 L237.751,9.0944 L236.989,9.0944 C236.655,8.1404 235.989,7.2844 234.607,6.0004 C232.467,4.0004 229.231,3.0464 226.231,3.0464 C222.707,3.0464 219.899,4.9504 218.613,6.8564 C216.473,10.0944 215.139,13.3304 215.139,19.0904 C215.139,25.2784 217.329,35.0864 226.467,35.0864 C228.373,35.0864 230.563,34.7524 232.133,33.9424 L232.133,23.0404 C232.133,22.0424 231.325,21.3744 230.325,21.3744 L228.847,21.3284 C228.181,21.3284 227.515,20.7084 227.515,19.8984 L242.131,19.8984 Z" id="Fill-16" fill="#000000"></path>
                    <path d="M291.6426,12.0448 C291.6426,7.9988 289.7406,5.0928 286.4546,4.3348 C285.5486,4.1428 284.1706,4.0468 282.2666,4.0468 L279.1246,4.0468 L279.1246,20.0428 L282.2666,20.0428 C284.1706,20.0428 285.5486,19.9468 286.4546,19.7088 C289.7406,18.9468 291.6426,16.0428 291.6426,12.0448 M297.7366,12.0448 C297.7366,14.6148 296.5946,17.7568 293.9286,19.4708 C292.5006,20.3748 290.7386,20.8988 288.5026,21.1828 C287.3106,21.3748 285.5486,21.4708 283.2166,21.4708 L279.1246,21.4708 L279.1246,35.5608 L271.1746,35.5608 L271.1746,34.7988 L271.9346,34.7988 C272.9346,34.7988 273.7446,33.9908 273.7446,33.1788 L273.7446,4.9508 C273.7446,4.0948 272.9346,3.2848 271.9346,3.2848 L271.1746,3.2848 L271.1746,2.5728 L283.2166,2.5728 C285.5486,2.5728 287.3106,2.6688 288.5026,2.8568 C290.7386,3.1428 292.5006,3.6668 293.9286,4.6188 C296.5946,6.2848 297.7366,9.4248 297.7366,12.0448" id="Fill-18" fill="#000000"></path>
                    <g id="Group-22" transform="translate(298.000000, 0.132800)">
                        <mask id="mask-8" fill="white">
                            <use xlink:href="#path-7"></use>
                        </mask>
                        <g id="Clip-21"></g>
                        <path d="M21.9688,24.0976 L15.4968,9.4376 L8.8788,24.0976 L21.9688,24.0976 Z M34.5848,34.7156 L34.5848,35.4276 L28.3008,35.4276 C27.2528,35.4276 26.6808,34.7616 26.3468,34.0476 L22.5408,25.3836 L8.3068,25.3836 L3.6888,35.4276 L0.1188,35.4276 L0.1188,34.7156 L0.8808,34.7156 C1.7848,34.7156 2.4048,34.1916 2.7388,33.5236 L17.5428,0.8676 L31.9668,33.5236 C32.2988,34.1916 32.9188,34.7156 33.8228,34.7156 L34.5848,34.7156 Z" id="Fill-20" fill="#000000" mask="url(#mask-8)"></path>
                    </g>
                    <path d="M345.631,4.951 L345.631,33.133 C345.631,33.991 346.439,34.799 347.439,34.799 L348.201,34.799 L348.201,35.561 L337.729,35.561 L337.729,34.799 L338.491,34.799 C339.491,34.799 340.299,33.991 340.299,33.133 L340.299,4.951 C340.299,4.095 339.491,3.285 338.491,3.285 L337.729,3.285 L337.729,2.523 L348.201,2.523 L348.201,3.285 L347.439,3.285 C346.439,3.285 345.631,4.095 345.631,4.951" id="Fill-23" fill="#000000"></path>
                    <g id="Group-27" transform="translate(354.000000, 0.132800)">
                        <mask id="mask-10" fill="white">
                            <use xlink:href="#path-9"></use>
                        </mask>
                        <g id="Clip-26"></g>
                        <path d="M35.2364,2.4394 L35.2364,3.1514 L34.4744,3.1514 C33.4744,3.1514 32.6664,3.9634 32.6664,4.8174 L32.6664,36.9994 L4.6764,10.0554 L4.6764,35.4274 L0.2944,35.4274 L0.2944,34.6654 L1.0564,34.6654 C2.0584,34.6654 2.8644,33.8574 2.8644,33.0474 L2.8644,0.8674 L30.8584,27.8134 L30.8584,2.4394 L35.2364,2.4394 Z" id="Fill-25" fill="#000000" mask="url(#mask-10)"></path>
                    </g>
                    <path d="M423.1818,2.5722 C423.1818,3.3802 422.5158,4.0002 421.8478,4.0002 L413.1398,4.0002 C412.1398,4.0002 411.3278,4.8082 411.3278,5.6662 L411.3278,33.1802 C411.3278,34.0362 412.1398,34.7982 413.1398,34.7982 L413.9458,34.7982 L413.9458,35.5602 L403.4258,35.5602 L403.4258,34.7982 L404.1878,34.7982 C405.1878,34.7982 405.9958,33.9902 405.9958,33.1802 L405.9958,5.6662 C405.9958,4.8082 405.1878,4.0002 404.1878,4.0002 L395.4758,4.0002 C394.8098,4.0002 394.1418,3.3802 394.1418,2.5722 L423.1818,2.5722 Z" id="Fill-28" fill="#000000"></path>
                </g>
            </g>
        </g>
    </g>
</svg>