<?xml version="1.0" encoding="UTF-8"?>
<svg width="1130px" height="58px" viewBox="0 0 1130 58" version="1.1" xmlns="http://www.w3.org/2000/svg" xmlns:xlink="http://www.w3.org/1999/xlink">
    <!-- Generator: Sketch 59.1 (86144) - https://sketch.com -->
    <title>Group 11</title>
    <desc>Created with Sketch.</desc>
    <g id="Page-1" stroke="none" stroke-width="1" fill="none" fill-rule="evenodd">
        <g id="urcosme" transform="translate(-156.000000, -1774.000000)">
            <g id="Group-11" transform="translate(156.000000, 1774.000000)">
                <g id="Group-2" transform="translate(140.000000, 0.000000)">
                    <path d="M128.564214,0 L150,29 L128.564214,58 L-0.249344908,58 L21.1864407,29 L-0.249344908,0 L128.564214,0 Z" id="Combined-Shape" fill="#DEBDBD"></path>
                    <text id="繪製-顧客旅程地圖" font-family="PingFangTC-Medium, PingFang TC" font-size="16" font-weight="400" letter-spacing="1" fill="#FFFFFF">
                        <tspan x="58" y="24">繪製</tspan>
                        <tspan x="24" y="46">顧客旅程地圖</tspan>
                    </text>
                </g>
                <g id="Group-3" transform="translate(280.000000, 0.000000)">
                    <path d="M128.558321,0 L150,29 L128.558321,58 L-0.134860673,58 L21.3068182,29 L-0.134860673,0 L128.558321,0 Z" id="Combined-Shape-Copy" fill="#DEBDBD"></path>
                    <text id="痛點分析" font-family="PingFangTC-Medium, PingFang TC" font-size="16" font-weight="400" letter-spacing="1" fill="#FFFFFF">
                        <tspan x="41" y="35">痛點分析</tspan>
                    </text>
                </g>
                <g id="Group-4" transform="translate(420.000000, 0.000000)">
                    <path d="M128.558321,0 L150,29 L128.558321,58 L-0.134860673,58 L21.3068182,29 L-0.134860673,0 L128.558321,0 Z" id="Combined-Shape-Copy-2" fill="#DEBDBD"></path>
                    <text id="設定-改善目標" font-family="PingFangTC-Medium, PingFang TC" font-size="16" font-weight="400" letter-spacing="1" fill="#FFFFFF">
                        <tspan x="58" y="24">設定</tspan>
                        <tspan x="41" y="46">改善目標</tspan>
                    </text>
                </g>
                <g id="Group-5" transform="translate(560.000000, 0.000000)">
                    <path d="M128.558321,0 L150,29 L128.558321,58 L-0.134860673,58 L21.3068182,29 L-0.134860673,0 L128.558321,0 Z" id="Combined-Shape-Copy-3" fill="#DEBDBD"></path>
                    <text id="wireframe" font-family="PingFangTC-Medium, PingFang TC" font-size="16" font-weight="400" letter-spacing="1" fill="#FFFFFF">
                        <tspan x="28.348" y="35">WIREFRAME</tspan>
                    </text>
                </g>
                <g id="Group-6" transform="translate(700.000000, 0.000000)">
                    <path d="M128.558321,0 L150,29 L128.558321,58 L-0.134860673,58 L21.3068182,29 L-0.134860673,0 L128.558321,0 Z" id="Combined-Shape-Copy-4" fill="#DEBDBD"></path>
                    <text id="Prototype" font-family="PingFangTC-Medium, PingFang TC" font-size="16" font-weight="400" letter-spacing="1" fill="#FFFFFF">
                        <tspan x="27.708" y="35">PROTOTYPE</tspan>
                    </text>
                </g>
                <path d="M968.558321,0 L990,29 L968.558321,58 L839.865139,58 L861.306818,29 L839.865139,0 L968.558321,0 Z" id="Combined-Shape-Copy-5" fill="#DEBDBD"></path>
                <path d="M1108.55832,0 L1130,29 L1108.55832,58 L979.865139,58 L1001.30682,29 L979.865139,0 L1108.55832,0 Z" id="Combined-Shape-Copy-6" fill="#DEBDBD"></path>
                <g id="Group">
                    <polygon id="Rectangle" fill="#DEBDBD" points="0 0 129.60143 0 150 29 129.60143 58 0 58"></polygon>
                    <text id="定義角色" font-family="PingFangTC-Medium, PingFang TC" font-size="16" font-weight="400" letter-spacing="1" fill="#FFFFFF">
                        <tspan x="41" y="35">定義角色</tspan>
                    </text>
                </g>
                <g id="Redesign-2" transform="translate(855.000000, 18.000000)" fill="#FFFFFF" font-family="PingFangTC-Medium, PingFang TC" font-size="16" font-weight="400" letter-spacing="1">
                    <text id="Redesign">
                        <tspan x="15.416" y="17">REDESIGN</tspan>
                    </text>
                </g>
                <g id="Redesign-2-Copy" transform="translate(995.000000, 18.000000)" fill="#FFFFFF" font-family="PingFangTC-Medium, PingFang TC" font-size="16" font-weight="400" letter-spacing="1">
                    <text id="結果分析">
                        <tspan x="26" y="17">結果分析</tspan>
                    </text>
                </g>
            </g>
        </g>
    </g>
</svg>