<?xml version="1.0" encoding="UTF-8"?>
<svg width="1189px" height="607px" viewBox="0 0 1189 607" version="1.1" xmlns="http://www.w3.org/2000/svg" xmlns:xlink="http://www.w3.org/1999/xlink">
    <!-- Generator: Sketch 59.1 (86144) - https://sketch.com -->
    <title>Artboard Copy</title>
    <desc>Created with Sketch.</desc>
    <g id="Artboard-Copy" stroke="none" stroke-width="1" fill="none" fill-rule="evenodd">
        <text id="行動" font-family="PingFangTC-Medium, PingFang TC" font-size="16" font-weight="400" fill="#494949">
            <tspan x="36" y="78">行動</tspan>
        </text>
        <text id="接觸點" font-family="PingFangTC-Medium, PingFang TC" font-size="16" font-weight="400" fill="#494949">
            <tspan x="20" y="178">接觸點</tspan>
        </text>
        <text id="感受" font-family="PingFangTC-Medium, PingFang TC" font-size="16" font-weight="400" fill="#494949">
            <tspan x="36" y="256">感受</tspan>
        </text>
        <text id="痛點" font-family="PingFangTC-Medium, PingFang TC" font-size="16" font-weight="400" fill="#494949">
            <tspan x="36" y="385">痛點</tspan>
        </text>
        <text id="機會點" font-family="PingFangTC-Medium, PingFang TC" font-size="16" font-weight="400" fill="#494949">
            <tspan x="20" y="492">機會點</tspan>
        </text>
        <g id="Group-3" transform="translate(464.000000, 61.000000)" fill="#333333" font-family="PingFangTC-Regular, PingFang TC" font-size="14" font-weight="normal" line-spacing="22">
            <text id="閱讀別人對於產品的心得">
                <tspan x="180" y="15">閱讀別人對於產品的心</tspan>
                <tspan x="180" y="37">得</tspan>
            </text>
            <text id="瀏覽UrCosme網站內容">
                <tspan x="0" y="15">瀏覽UrCosme網站內容</tspan>
            </text>
        </g>
        <g id="Group-5" transform="translate(824.000000, 61.000000)" fill="#333333" font-family="PingFangTC-Regular, PingFang TC" font-size="14" font-weight="normal" line-spacing="22">
            <text id="比較相似產品">
                <tspan x="0" y="15">比較相似產品</tspan>
            </text>
            <text id="決定購買">
                <tspan x="180" y="15">決定購買</tspan>
            </text>
        </g>
        <g id="Group-9" transform="translate(103.000000, 61.000000)" fill="#333333" font-family="PingFangTC-Regular, PingFang TC" font-size="14" font-weight="normal" line-spacing="22">
            <text id="在其他媒體、親友中得到產品上市資訊">
                <tspan x="0" y="15">在其他媒體、親友中得</tspan>
                <tspan x="0" y="37">到產品上市資訊</tspan>
            </text>
            <text id="蒐集產品情報">
                <tspan x="181" y="15">蒐集產品情報</tspan>
            </text>
        </g>
        <text id="訊息都總是要多方搜尋才能找到，好麻煩喔." font-family="PingFangTC-Regular, PingFang TC" font-size="14" font-weight="normal" line-spacing="22" fill="#333333">
            <tspan x="284" y="254">訊息都總是要多方搜尋</tspan>
            <tspan x="284" y="276">才能找到，好麻煩喔...</tspan>
        </text>
        <text id="資訊無法有效的在同個網站蒐集" font-family="PingFangTC-Regular, PingFang TC" font-size="14" font-weight="normal" line-spacing="22" fill="#333333">
            <tspan x="284" y="383">資訊無法有效的在同個</tspan>
            <tspan x="284" y="405">網站蒐集</tspan>
        </text>
        <g id="Group" transform="translate(464.000000, 239.000000)" fill="#333333" font-family="PingFangTC-Regular, PingFang TC" font-size="14" font-weight="normal" line-spacing="22">
            <text id="好想知道其他人使用這個產品的經驗-網站好">
                <tspan x="0" y="15">好想知道其他人使用這</tspan>
                <tspan x="0" y="37">個產品的經驗</tspan>
                <tspan x="0" y="59">網站好複雜，我找不到</tspan>
                <tspan x="0" y="81">這個產品...</tspan>
            </text>
        </g>
        <text id="我想知道在哪裡可以買到它" font-family="PingFangTC-Regular, PingFang TC" font-size="14" font-weight="normal" line-spacing="22" fill="#333333">
            <tspan x="1004" y="254">我想知道在哪裡可以買</tspan>
            <tspan x="1004" y="276">到它</tspan>
        </text>
        <text id="我找不到有相似功效的產品" font-family="PingFangTC-Regular, PingFang TC" font-size="14" font-weight="normal" line-spacing="22" fill="#333333">
            <tspan x="824" y="254">我找不到有相似功效的</tspan>
            <tspan x="824" y="276">產品</tspan>
        </text>
        <text id="產品類型的分類不夠明確" font-family="PingFangTC-Regular, PingFang TC" font-size="14" font-weight="normal" line-spacing="22" fill="#333333">
            <tspan x="824" y="383">產品類型的分類不夠明</tspan>
            <tspan x="824" y="405">確</tspan>
        </text>
        <text id="通過改善網站易用性來提高SEO排名-為使" font-family="PingFangTC-Regular, PingFang TC" font-size="14" font-weight="normal" line-spacing="22" fill="#333333">
            <tspan x="284" y="490">通過改善網站易用性來</tspan>
            <tspan x="284" y="512">提高SEO排名</tspan>
            <tspan x="284" y="534"></tspan>
            <tspan x="284" y="556">為使用者提供產品信息</tspan>
            <tspan x="284" y="578">內容區塊</tspan>
        </text>
        <text id="頁面上的信息太多，無法快速了解產品資訊。" font-family="PingFangTC-Regular, PingFang TC" font-size="14" font-weight="normal" line-spacing="22" fill="#333333">
            <tspan x="464" y="383">頁面上的信息太多，無</tspan>
            <tspan x="464" y="405">法快速了解產品資訊。</tspan>
        </text>
        <text id="某些產品沒有任何用戶評論" font-family="PingFangTC-Regular, PingFang TC" font-size="14" font-weight="normal" line-spacing="22" fill="#333333">
            <tspan x="644" y="383">某些產品沒有任何用戶</tspan>
            <tspan x="644" y="405">評論</tspan>
        </text>
        <text id="修改網站架構並重新設計使用界面樣式" font-family="PingFangTC-Regular, PingFang TC" font-size="14" font-weight="normal" line-spacing="22" fill="#333333">
            <tspan x="464" y="490">修改網站架構並重新設</tspan>
            <tspan x="464" y="512">計使用界面樣式</tspan>
        </text>
        <text id="改善網站上的社交互動性，以激勵用戶發表評" font-family="PingFangTC-Regular, PingFang TC" font-size="14" font-weight="normal" line-spacing="22" fill="#333333">
            <tspan x="644" y="490">改善網站上的社交互動</tspan>
            <tspan x="644" y="512">性，以激勵用戶發表評</tspan>
            <tspan x="644" y="534">論</tspan>
        </text>
        <text id="在產品信息和評論頁面的末尾提供實體店或線" font-family="PingFangTC-Regular, PingFang TC" font-size="14" font-weight="normal" line-spacing="22" fill="#333333">
            <tspan x="1004" y="490">在產品信息和評論頁面</tspan>
            <tspan x="1004" y="512">的末尾提供實體店或線</tspan>
            <tspan x="1004" y="534">上商店鏈接</tspan>
        </text>
        <text id="在產品信息和評論頁面的末尾提供實體店或線" font-family="PingFangTC-Regular, PingFang TC" font-size="14" font-weight="normal" line-spacing="22" fill="#333333">
            <tspan x="1004" y="383">在產品信息和評論頁面</tspan>
            <tspan x="1004" y="405">的末尾提供實體店或線</tspan>
            <tspan x="1004" y="427">上商店鏈接</tspan>
        </text>
        <text id="改進現有的產品分類系統，並在產品信息頁面" font-family="PingFangTC-Regular, PingFang TC" font-size="14" font-weight="normal" line-spacing="22" fill="#333333">
            <tspan x="829" y="490">改進現有的產品分類系</tspan>
            <tspan x="829" y="512">統，並在產品信息頁面</tspan>
            <tspan x="829" y="534">上顯示推薦內容</tspan>
        </text>
        <text id="產品的評價好像有點少欸" font-family="PingFangTC-Regular, PingFang TC" font-size="14" font-weight="normal" line-spacing="22" fill="#333333">
            <tspan x="644" y="254">產品的評價好像有點少</tspan>
            <tspan x="644" y="276">欸</tspan>
        </text>
        <text id="品牌推出了當季新產品，該更換舊的化妝品了" font-family="PingFangTC-Regular, PingFang TC" font-size="14" font-weight="normal" line-spacing="22" fill="#333333">
            <tspan x="103" y="254">品牌推出了當季新產</tspan>
            <tspan x="103" y="276">品，該更換舊的化妝品</tspan>
            <tspan x="103" y="298">了吧？</tspan>
        </text>
        <g id="Group-8" transform="translate(179.000000, 0.000000)">
            <path d="M6,0 L174,0 C177.313708,-6.08718376e-16 180,2.6862915 180,6 L180,36 L180,36 L0,36 L0,6 C-4.05812251e-16,2.6862915 2.6862915,6.08718376e-16 6,0 Z" id="Rectangle-Copy" fill="#E27B77"></path>
            <text id="消費前" font-family="PingFangTC-Semibold, PingFang TC" font-size="16" font-weight="500" letter-spacing="2" fill="#FFFFFF">
                <tspan x="63" y="24">消費前</tspan>
            </text>
        </g>
        <path d="M541,34 L717,34 L717,6 C717,3.790861 715.209139,2 713,2 L545,2 C542.790861,2 541,3.790861 541,6 L541,34 Z" id="Rectangle-Copy-2" stroke="#E27B77" stroke-width="4" fill="#E27B77"></path>
        <g id="Group-4" transform="translate(899.000000, 0.000000)">
            <path d="M2,34 L178,34 L178,6 C178,3.790861 176.209139,2 174,2 L6,2 C3.790861,2 2,3.790861 2,6 L2,34 Z" id="Rectangle-Copy-3" stroke="#E27B77" stroke-width="4" fill="#E27B77"></path>
            <text id="消費後" font-family="PingFangTC-Semibold, PingFang TC" font-size="16" font-weight="500" letter-spacing="2" fill="#FFFFFF">
                <tspan x="63" y="23">消費後</tspan>
            </text>
        </g>
        <text id="消費中" font-family="PingFangTC-Semibold, PingFang TC" font-size="16" font-weight="500" letter-spacing="2" fill="#FFFFFF">
            <tspan x="602" y="23">消費中</tspan>
        </text>
        <g id="Oval-Copy-2" transform="translate(899.000000, 133.000000)"></g>
        <path d="M84,125.5 L626.5,125.5 L1169,125.5" id="Line-2" stroke="#C4C4C4" stroke-width="2" stroke-linecap="round" stroke-dasharray="8,15"></path>
        <path d="M84,218.5 L626.5,218.5 L1169,218.5" id="Line-2-Copy-9" stroke="#C4C4C4" stroke-width="2" stroke-linecap="round" stroke-dasharray="8,15"></path>
        <path d="M84,347.5 L626.5,347.5 L1169,347.5" id="Line-2-Copy-7" stroke="#C4C4C4" stroke-width="2" stroke-linecap="round" stroke-dasharray="8,15"></path>
        <path d="M84,454.5 L626.5,454.5 L1169,454.5" id="Line-2-Copy-8" stroke="#C4C4C4" stroke-width="2" stroke-linecap="round" stroke-dasharray="8,15"></path>
        <line x1="-200" y1="323.5" x2="365" y2="324" id="Line-2-Copy" stroke="#E5E5E5" stroke-width="3" stroke-linecap="round" transform="translate(82.500000, 324.000000) rotate(90.000000) translate(-82.500000, -324.000000) "></line>
        <line x1="253" y1="410" x2="646" y2="410.5" id="Line-2-Copy-2" stroke="#E5E5E5" stroke-width="3" stroke-linecap="round" transform="translate(449.500000, 410.000000) rotate(90.000000) translate(-449.500000, -410.000000) "></line>
        <line x1="72" y1="410" x2="466" y2="410.5" id="Line-2-Copy-3" stroke="#E5E5E5" stroke-width="3" stroke-linecap="round" transform="translate(269.000000, 410.000000) rotate(90.000000) translate(-269.000000, -410.000000) "></line>
        <g id="Group-6-Copy" transform="translate(214.000000, 141.000000)">
            <circle id="Oval" fill="#E27B77" cx="31" cy="31" r="31"></circle>
            <g id="Group-7" transform="translate(12.000000, 19.000000)">
                <path d="M18.5448897,10.6638528 C17.8000857,10.6638528 17.1793443,11.2843688 17.1793443,12.0293737 L15.1930576,12.0293737 C15.2344118,10.1673971 16.724234,8.67760154 18.5448897,8.67760154 L18.5448897,10.6638528 Z M19.0002143,6.4432296 C15.6897364,6.4432296 13,9.13270376 13,12.4433367 C13,15.7535412 15.6897364,18.4432296 19.0002143,18.4432296 C22.3104778,18.4432296 25,15.7535412 25,12.4433367 C25,9.13270376 22.3104778,6.4432296 19.0002143,6.4432296 L19.0002143,6.4432296 Z" id="Fill-1" fill="#FFFFFF"></path>
                <path d="M19.0000273,21.1329956 C14.1076435,21.1329956 10.1432009,17.2433796 10.1432009,12.4433367 C10.1432009,7.64329389 14.1076435,3.75367787 19.0000273,3.75367787 C23.8921927,3.75367787 27.8568537,7.64329389 27.8568537,12.4433367 C27.8568537,17.2433796 23.8921927,21.1329956 19.0000273,21.1329956 M37.5571041,11.2018651 C35.4904749,8.67778219 28.1097498,0.443229605 19.0000273,0.443229605 C9.89008636,0.443229605 2.50936134,8.67778219 0.442732123,11.2018651 C-0.147577374,11.9055228 -0.147577374,12.9400111 0.442732123,13.6845941 C2.50936134,16.2088913 9.89008636,24.4432296 19.0000273,24.4432296 C28.1097498,24.4432296 35.4904749,16.2088913 37.5571041,13.6845941 C38.147632,12.9811507 38.147632,11.9466624 37.5571041,11.2018651" id="Fill-3" stroke="#FFFFFF"></path>
            </g>
            <circle id="Oval-Copy" fill="#E27B77" cx="79" cy="31" r="31"></circle>
            <g id="ear" transform="translate(67.000000, 14.000000)" fill="#FFFFFF" fill-rule="nonzero" stroke="#FFFFFF">
                <path d="M3.15497961,31.7784244 C3.16060875,31.7841883 3.16132174,31.7931933 3.15641718,31.7997139 C3.15078305,31.8071993 3.14006078,31.8087123 3.13271036,31.8031792 C4.31921336,32.6967588 5.74351404,33.1695668 7.24682818,33.1695668 C8.78190303,33.1695668 9.9611985,32.7722199 10.9165404,31.9181297 C11.8876206,31.0500557 12.6132828,29.7017223 13.149785,27.8067908 C13.7301261,25.7570231 14.5703671,24.3002 16.3047682,21.9674241 C16.3806397,21.8653767 16.4413543,21.783971 16.5781289,21.6007766 C19.5563162,17.6119801 20.5336661,15.4509151 20.5336661,11.1420941 C20.5336661,5.60623984 16.033085,1.10316051 10.5,1.10316051 C4.96691533,1.10316051 0.466272906,5.6062382 0.466205107,11.142088 L0.466205107,26.4520316 C0.466205107,27.7807446 0.851280709,29.0628345 1.57974419,30.1579216 C1.57639649,30.1483929 1.5788687,30.1406471 1.58522904,30.1364082 C1.59307609,30.1311823 1.60364436,30.1333012 1.60881322,30.1410677 C0.883395971,29.0510595 0.5,27.7760398 0.5,26.4520316 L0.5,11.1420941 C0.5,5.62532191 4.98650972,1.13636364 10.5,1.13636364 C16.0134808,1.13636364 20.5,5.62531241 20.5,11.1420297 C20.5,15.4317107 19.5116661,17.6158738 16.5510104,21.581101 C16.3224494,21.887234 16.2216693,22.0225847 16.0962211,22.192454 C14.5050681,24.3470323 13.6816444,25.8047306 13.1173496,27.7978605 C12.0576477,31.5406807 10.2802745,33.1363636 7.24682818,33.1363636 C5.74878151,33.1363636 4.33505992,32.6666953 3.15373615,31.7772433 Z" id="Path"></path>
                <path d="M5.48448394,7.14075761 C5.43237887,7.22147234 5.38211193,7.30338662 5.33373938,7.3864458 L5.38648019,7.3530409 C5.57109549,7.23610954 5.77988839,7.14072353 6.00729418,7.06647956 L5.48448394,7.14075761 Z M4.50000021,10.4618298 C4.50000007,10.4623691 4.5,10.4629083 4.5,10.4634476 C4.5,10.4618298 4.49994344,10.4602854 4.49983833,10.4588131 Z M6.00729418,7.06647956 C7.42732161,6.60286575 9.57312783,6.96365076 11.089747,8.05063285 C13.2512259,9.59979005 13.4780789,11.8502699 12.5890458,14.177681 C12.592603,14.1533351 12.5846087,14.1385223 12.5778533,14.1360276 C12.5786815,14.136303 12.5790828,14.1363636 12.5795269,14.1363636 C12.579366,14.1363636 12.575591,14.1388535 12.5715387,14.1494477 C13.0910958,12.7907941 13.1800697,11.5586146 12.8490478,10.4766881 C12.5652756,9.54908851 11.9596434,8.73037137 11.0912932,8.10800766 C9.83068233,7.20447361 8.08893935,6.77073069 6.66821947,6.97257888 L6.00729418,7.06647956 Z M12.5890458,14.177681 C12.5885813,14.1788972 12.5881164,14.1801133 12.5876513,14.1813295 C12.5890326,14.1777173 12.5899028,14.1741257 12.5903561,14.1706352 Z M12.5778533,14.1360276 C12.5778247,14.136017 12.5777962,14.1360067 12.5777677,14.1359966 C12.577852,14.1360265 12.5779323,14.1360542 12.5780091,14.1360797 Z M17.5197133,8.95934485 C17.5199321,8.96021686 17.5201507,8.96108892 17.5203692,8.96196104 C17.5197274,8.95939857 17.5190649,8.95718757 17.5184084,8.95528156 Z M17.5125352,8.9440733 C17.5123539,8.94386147 17.5122875,8.94377054 17.5123633,8.94375291 C17.512288,8.9437704 17.5122119,8.94379034 17.5121351,8.9438127 Z" id="Path"></path>
                <path d="M12.5316333,20.9072456 C12.531494,20.9074554 12.5314068,20.9075864 12.5312325,20.9078483 C12.8051523,20.4702234 13.0381909,20.1215654 13.5535566,19.3669211 C15.6722556,16.2644744 16.3628598,14.7747352 16.4999474,12.1173799 C16.5018569,12.1278582 16.5103549,12.1356424 16.5234998,12.1363332 C16.5385663,12.1371158 16.5489279,12.1276848 16.5494385,12.1177481 C16.4219207,14.5926267 15.6900798,16.2875895 13.9823924,18.8182913 C13.8760174,18.9759334 13.7905732,19.1014264 13.5967218,19.3852964 C13.0823795,20.1384976 12.8509723,20.484764 12.5724127,20.92929 C12.3910071,21.204285 12.2527815,21.4493767 11.932777,22.046306 C11.8990499,22.1092258 11.8990499,22.1092258 11.86513,22.1724246 C10.6093229,24.51071 9.68414271,25.389396 7.79712268,25.1407201 C6.59485049,24.9821917 5.63504823,24.1824945 5.24283452,23.0165944 C4.84216544,21.8253871 5.11686843,20.5473401 5.96688846,19.6876726 C6.36759191,19.2824734 6.58756784,18.7453876 6.58756784,18.1711292 C6.58756784,16.9896648 5.63904463,16.0299154 4.47661469,16.0291671 C4.49190349,16.0273661 4.5,16.0183965 4.5,16.0098148 C4.5,16.0003736 4.49020053,15.9904629 4.47525416,15.9904629 C5.66897646,15.9904629 6.63705953,16.9695076 6.63705953,18.1711292 C6.63705953,18.7514451 6.41245789,19.2998237 6.00587867,19.7111005 C5.16733401,20.5591623 4.89135755,21.8198922 5.29083568,23.0074412 L5.29084328,23.0074638 C5.68124599,24.168217 6.6160682,24.9459042 7.80502869,25.1025852 C7.97628335,25.1251614 8.14153644,25.1363636 8.30136696,25.1363636 C9.09877644,25.1363636 9.77315693,24.8568505 10.3807825,24.2713555 C10.8999716,23.7711328 11.2431529,23.2333213 11.8870949,22.0320315 C12.206978,21.4352278 12.3461695,21.1879268 12.5317921,20.9070108 Z M4.47661469,16.0291671 C4.47616121,16.0291668 4.4757077,16.0291666 4.47525416,16.0291666 C4.47661479,16.0291666 4.47793276,16.0290845 4.47920457,16.0289281 Z" id="Path"></path>
                <path d="M24.5091214,12.1551568 C24.5093435,12.155381 24.5095696,12.1555928 24.5097998,12.1557917 C24.5091092,12.155195 24.5083949,12.154612 24.507658,12.1540428 Z M24.4456165,12.1363948 C24.4184176,12.1358551 24.3907341,12.1423207 24.3751442,12.1557917 C22.5170185,13.761358 21.5,15.8829637 21.5,18.1363235 C21.5,20.3897224 22.5170206,22.5112943 24.3751442,24.1169196 C24.3875713,24.1276575 24.4124096,24.1363636 24.4424348,24.1363636 C24.4434824,24.1363636 24.4445235,24.1363531 24.4455578,24.1363324 C22.6234122,22.533167 21.6150188,20.4033511 21.6150188,18.1363877 C21.6150188,15.8694711 22.6234458,13.7396501 24.4456165,12.1363948 Z" id="Path"></path>
                <path d="M28.5034831,16.1508089 C28.5035717,16.1509084 28.503662,16.1510002 28.5037539,16.151084 C28.5034797,16.1508339 28.5032004,16.150587 28.5029163,16.1503433 Z M28.4766637,16.1384859 C28.4526806,16.133341 28.4230947,16.1375582 28.4081759,16.1511589 C27.8198091,16.6874841 27.5,17.3904015 27.5,18.1363636 C27.5,18.8823114 27.8197929,19.5851803 28.4081952,20.1215943 C28.4173782,20.1299659 28.4346784,20.1363636 28.4559697,20.1363636 C28.4634386,20.1363636 28.4704018,20.1355845 28.4766934,20.1342113 C27.9059429,19.6010518 27.5880244,18.8909269 27.5880244,18.1363016 C27.5880244,17.3817006 27.9059229,16.6716486 28.4766637,16.1384859 Z" id="Path"></path>
                <path d="M26.5074092,14.1536318 C26.4953877,14.1434633 26.4758755,14.1377856 26.455489,14.1365989 C26.4723317,14.1214554 26.4892805,14.106382 26.5063352,14.0913793 C26.4980235,14.1123375 26.4989193,14.1417678 26.5062658,14.1521615 Z M26.455489,14.1365989 C26.4293503,14.1350772 26.4017744,14.1409383 26.3867075,14.154182 C25.1663831,15.2268428 24.5,16.638835 24.5,18.1363636 C24.5,19.6339181 25.1663649,21.0458523 26.3867075,22.1185291 C26.3979603,22.1284202 26.4202381,22.1363636 26.4473405,22.1363636 C26.4501594,22.1363636 26.452925,22.1362782 26.4556308,22.1361139 C25.2652834,21.066007 24.6052268,19.6460961 24.6052268,18.1362908 C24.6052268,16.6266226 25.2651635,15.2068326 26.455489,14.1365989 Z" id="Path"></path>
            </g>
        </g>
        <line x1="433" y1="410" x2="826" y2="410.5" id="Line-2-Copy-4" stroke="#E5E5E5" stroke-width="3" stroke-linecap="round" transform="translate(629.500000, 410.000000) rotate(90.000000) translate(-629.500000, -410.000000) "></line>
        <line x1="613" y1="410.5" x2="1006" y2="410.5" id="Line-2-Copy-5" stroke="#E5E5E5" stroke-width="3" stroke-linecap="round" transform="translate(809.500000, 410.500000) rotate(90.000000) translate(-809.500000, -410.500000) "></line>
        <line x1="793" y1="410.5" x2="1186" y2="410.5" id="Line-2-Copy-6" stroke="#E5E5E5" stroke-width="3" stroke-linecap="round" transform="translate(989.500000, 410.500000) rotate(90.000000) translate(-989.500000, -410.500000) "></line>
        <line x1="407" y1="84" x2="492" y2="84.5" id="Line-2-Copy-2" stroke="#E5E5E5" stroke-width="3" stroke-linecap="round" transform="translate(449.500000, 84.000000) scale(1, -1) rotate(90.000000) translate(-449.500000, -84.000000) "></line>
        <line x1="227" y1="84" x2="312" y2="84.5" id="Line-2-Copy-3" stroke="#E5E5E5" stroke-width="3" stroke-linecap="round" transform="translate(269.500000, 84.000000) scale(1, -1) rotate(90.000000) translate(-269.500000, -84.000000) "></line>
        <line x1="587" y1="84" x2="672" y2="84.5" id="Line-2-Copy-4" stroke="#E5E5E5" stroke-width="3" stroke-linecap="round" transform="translate(629.500000, 84.000000) scale(1, -1) rotate(90.000000) translate(-629.500000, -84.000000) "></line>
        <line x1="766" y1="83.5" x2="851" y2="83.5" id="Line-2-Copy-5" stroke="#E5E5E5" stroke-width="3" stroke-linecap="round" transform="translate(808.500000, 83.500000) scale(1, -1) rotate(90.000000) translate(-808.500000, -83.500000) "></line>
        <line x1="947" y1="83.5" x2="1032" y2="83.5" id="Line-2-Copy-6" stroke="#E5E5E5" stroke-width="3" stroke-linecap="round" transform="translate(989.500000, 83.500000) scale(1, -1) rotate(90.000000) translate(-989.500000, -83.500000) "></line>
        <g id="Group-6" transform="translate(574.000000, 141.000000)">
            <circle id="Oval" fill="#E27B77" cx="31.18" cy="31" r="31"></circle>
            <circle id="Oval-Copy" fill="#E27B77" cx="79.18" cy="31" r="31"></circle>
            <g id="article" transform="translate(12.180000, 14.000000)" fill-rule="nonzero">
                <path d="M36.1,0.384936051 L1.9,0.384936051 C0.851165356,0.386075414 0.00122150403,1.17886381 0,2.15716836 L0,32.8758616 C0.00122150403,33.8541662 0.851165356,34.6469546 1.9,34.6480939 L36.1,34.6480939 C37.1488346,34.6469546 37.9987785,33.8541662 38,32.8758616 L38,2.15716836 C37.9987785,1.17886381 37.1488346,0.386075414 36.1,0.384936051 Z M36.1,33.4076265 L1.9,33.4076265 C1.55038243,33.4072673 1.26705932,33.1481032 1.26666667,32.8282977 L1.26666667,6.75850365 L36.7333333,6.75850365 L36.7333333,32.8282977 C36.7329407,33.1481032 36.4496176,33.4072673 36.1,33.4076265 Z" id="Shape" fill="#FFFFFF"></path>
                <ellipse id="Oval" fill="#E27B77" cx="12.8869565" cy="3.86090859" rx="1.26666667" ry="1.26900585"></ellipse>
                <ellipse id="Oval" fill="#E27B77" cx="8.45362319" cy="3.86090859" rx="1.26666667" ry="1.26900585"></ellipse>
                <ellipse id="Oval" fill="#E27B77" cx="4.02028986" cy="3.86090859" rx="1.26666667" ry="1.26900585"></ellipse>
                <path d="M33.5138889,8.66106115 L4.48611111,8.66106115 C4.13759809,8.66106115 3.85507246,8.94925483 3.85507246,9.30475976 L3.85507246,19.6039377 C3.85507246,19.9594426 4.13759809,20.2476363 4.48611111,20.2476363 L33.5138889,20.2476363 C33.8624019,20.2476363 34.1449275,19.9594426 34.1449275,19.6039377 L34.1449275,9.30475976 C34.1449275,8.94925483 33.8624019,8.66106115 33.5138889,8.66106115 Z M23.1687202,18.1930308 L24.6793478,16.6520163 L26.9421735,18.960239 L23.7327899,18.960239 L23.1687202,18.1930308 Z M22.1551932,18.960239 L17.1068841,18.960239 L19.6310386,15.5271529 L22.1551932,18.960239 Z M15.5292874,18.960239 L10.7464089,18.960239 L13.9516908,14.2894009 L16.3711719,17.8152601 L15.5292874,18.960239 Z M32.8828502,18.960239 L28.7269086,18.960239 L25.125571,15.2865706 C25.0072274,15.1658465 24.8467153,15.0980239 24.6793478,15.0980239 C24.5119803,15.0980239 24.3514683,15.1658465 24.2331246,15.2865706 L22.4037436,17.1526529 L20.1358696,14.0681295 C20.0166952,13.9060425 19.8296627,13.8106501 19.6310386,13.8106501 C19.4324146,13.8106501 19.2453821,13.9060425 19.1262077,14.0681295 L17.1680159,16.7314326 L14.4686692,12.7977903 C14.3505851,12.6257028 14.1576145,12.523212 13.9516908,12.523212 C13.7457672,12.523212 13.5527965,12.6257028 13.4347124,12.7977903 L9.20588579,18.960239 L5.11714976,18.960239 L5.11714976,9.94845838 L32.8828502,9.94845838 L32.8828502,18.960239 Z" id="Shape" fill="#FFFFFF"></path>
                <path d="M9.2705314,23.0686381 C9.62538102,23.0686381 9.91304348,22.8216149 9.91304348,22.5168964 C9.91304348,22.2121779 9.62538102,21.9651547 9.2705314,21.9651547 L6.70048309,21.9651547 C6.34563347,21.9651547 6.05797101,22.2121779 6.05797101,22.5168964 C6.05797101,22.8216149 6.34563347,23.0686381 6.70048309,23.0686381 L9.2705314,23.0686381 Z" id="Path" fill="#FFFFFF"></path>
                <path d="M22.4879227,23.0686381 C22.8427723,23.0686381 23.1304348,22.8216149 23.1304348,22.5168964 C23.1304348,22.2121779 22.8427723,21.9651547 22.4879227,21.9651547 L12.2077295,21.9651547 C11.8528798,21.9651547 11.5652174,22.2121779 11.5652174,22.5168964 C11.5652174,22.8216149 11.8528798,23.0686381 12.2077295,23.0686381 L22.4879227,23.0686381 Z" id="Path" fill="#FFFFFF"></path>
                <path d="M3.85507246,25.8896398 C3.85507246,26.1943584 4.13246126,26.4413815 4.47463768,26.4413815 L18.1050725,26.4413815 C18.4472489,26.4413815 18.7246377,26.1943584 18.7246377,25.8896398 C18.7246377,25.5849213 18.4472489,25.3378982 18.1050725,25.3378982 L4.47463768,25.3378982 C4.13246126,25.3378982 3.85507246,25.5849213 3.85507246,25.8896398 Z" id="Path" fill="#FFFFFF"></path>
                <path d="M4.47463768,29.814125 L8.19202899,29.814125 C8.53420541,29.814125 8.8115942,29.5671018 8.8115942,29.2623833 C8.8115942,28.9576648 8.53420541,28.7106416 8.19202899,28.7106416 L4.47463768,28.7106416 C4.13246126,28.7106416 3.85507246,28.9576648 3.85507246,29.2623833 C3.85507246,29.5671018 4.13246126,29.814125 4.47463768,29.814125 Z" id="Path" fill="#FFFFFF"></path>
                <path d="M33.5253623,21.9651547 L24.8514493,21.9651547 C24.5092729,21.9651547 24.2318841,22.2121779 24.2318841,22.5168964 C24.2318841,22.8216149 24.5092729,23.0686381 24.8514493,23.0686381 L33.5253623,23.0686381 C33.8675387,23.0686381 34.1449275,22.8216149 34.1449275,22.5168964 C34.1449275,22.2121779 33.8675387,21.9651547 33.5253623,21.9651547 Z" id="Path" fill="#FFFFFF"></path>
                <path d="M34.0447958,25.3378982 L21.027668,25.3378982 C20.6682099,25.3378982 20.3768116,25.5849213 20.3768116,25.8896398 C20.3768116,26.1943584 20.6682099,26.4413815 21.027668,26.4413815 L34.0447958,26.4413815 C34.4042538,26.4413815 34.6956522,26.1943584 34.6956522,25.8896398 C34.6956522,25.5849213 34.4042538,25.3378982 34.0447958,25.3378982 Z" id="Path" fill="#FFFFFF"></path>
                <path d="M9.91304348,29.2623833 C9.91304348,29.5671018 10.2007059,29.814125 10.5555556,29.814125 L28.5458937,29.814125 C28.9007433,29.814125 29.1884058,29.5671018 29.1884058,29.2623833 C29.1884058,28.9576648 28.9007433,28.7106416 28.5458937,28.7106416 L10.5555556,28.7106416 C10.2007059,28.7106416 9.91304348,28.9576648 9.91304348,29.2623833 Z" id="Path" fill="#FFFFFF"></path>
                <path d="M33.5024155,28.7106416 L30.9323671,28.7106416 C30.5775175,28.7106416 30.2898551,28.9576648 30.2898551,29.2623833 C30.2898551,29.5671018 30.5775175,29.814125 30.9323671,29.814125 L33.5024155,29.814125 C33.8572651,29.814125 34.1449275,29.5671018 34.1449275,29.2623833 C34.1449275,28.9576648 33.8572651,28.7106416 33.5024155,28.7106416 Z" id="Path" fill="#FFFFFF"></path>
                <ellipse id="Oval" fill="#FFFFFF" cx="22.5797101" cy="13.0749945" rx="1" ry="1"></ellipse>
            </g>
            <g id="telephone" transform="translate(69.180000, 14.000000)" fill-rule="nonzero">
                <path d="M17.923064,0.379761899 L2.79974641,0.379761899 C1.37829204,0.379761899 0.221908184,1.50379985 0.221908184,2.88549386 L0.221908184,32.0856236 C0.221908184,33.4673176 1.37829204,34.5913556 2.79974641,34.5913556 L17.923064,34.5913556 C19.3445184,34.5913556 20.5009022,33.4673176 20.5009022,32.0856236 L20.5009022,2.88549386 C20.5009022,1.50379985 19.3445184,0.379761899 17.923064,0.379761899 Z M19.4697669,27.5753061 L4.86201699,27.5753061 C4.57728616,27.5753061 4.34644934,27.799686 4.34644934,28.0764525 C4.34644934,28.3532189 4.57728616,28.5775989 4.86201699,28.5775989 L19.4697669,28.5775989 L19.4697669,32.0856236 C19.4697669,32.9146534 18.7759504,33.5890628 17.923064,33.5890628 L2.79974641,33.5890628 C1.94686004,33.5890628 1.25304347,32.9146534 1.25304347,32.0856236 L1.25304347,28.5775989 L2.79974641,28.5775989 C3.08447723,28.5775989 3.31531405,28.3532189 3.31531405,28.0764525 C3.31531405,27.799686 3.08447723,27.5753061 2.79974641,27.5753061 L1.25304347,27.5753061 L1.25304347,5.39122582 L19.4697669,5.39122582 L19.4697669,27.5753061 Z" id="Shape" fill="#FFFFFF"></path>
                <path d="M13.4938029,2.21252585 L10.2564804,2.21252585 C9.80951404,2.21252585 9.44714974,2.48605568 9.44714974,2.82344716 C9.44714974,3.16083864 9.80951404,3.43436848 10.2564804,3.43436848 L13.4938029,3.43436848 C13.9407692,3.43436848 14.3031335,3.16083864 14.3031335,2.82344716 C14.3031335,2.48605568 13.9407692,2.21252585 13.4938029,2.21252585 Z" id="Path" fill="#E27B77"></path>
                <path d="M10.6461117,29.7039851 C9.64197518,29.7039851 8.82511777,30.5160655 8.82511777,31.5143299 C8.82511777,32.5125943 9.64197518,33.3246747 10.6461117,33.3246747 C11.6502482,33.3246747 12.4671056,32.5125943 12.4671056,31.5143299 C12.4671056,30.5160655 11.6502482,29.7039851 10.6461117,29.7039851 Z M10.6461117,32.1177782 C10.3113725,32.1177782 10.0391137,31.8471115 10.0391137,31.5143299 C10.0391137,31.1815483 10.3113725,30.9108816 10.6461117,30.9108816 C10.9808508,30.9108816 11.2531097,31.1815483 11.2531097,31.5143299 C11.2531097,31.8471115 10.9808508,32.1177782 10.6461117,32.1177782 Z" id="Shape" fill="#FFFFFF"></path>
                <ellipse id="Oval" fill="#E27B77" cx="7.58747465" cy="3.11769826" rx="1" ry="1"></ellipse>
            </g>
        </g>
        <g id="Group-2" transform="translate(958.000000, 141.000000)">
            <circle id="Oval-Copy" fill="#E27B77" cx="31" cy="31" r="31"></circle>
            <g id="smart-cart" transform="translate(16.000000, 15.000000)" fill="#FFFFFF" fill-rule="nonzero">
                <path d="M30.2590965,6.77947023 C29.6787615,6.12291505 28.8514856,5.76128934 27.9298754,5.76128934 L5.64931042,5.76128934 L5.4250575,4.09625027 C5.18337067,2.3025491 3.92239586,0.897435897 2.55419045,0.897435897 L0.917072584,0.897435897 C0.410533289,0.897435897 0,1.30399872 0,1.80563902 C0,2.30727933 0.410533289,2.71384215 0.917072584,2.71384215 L2.55419045,2.71384215 C2.84841791,2.71384215 3.47150184,3.32995389 3.60691336,4.33630919 L6.23203363,23.8347681 C6.34762299,24.6942499 6.79350178,25.498861 7.48751553,26.1005456 C8.00217477,26.5468423 8.61045184,26.8436639 9.24762616,26.9678323 C8.9880278,27.4406183 8.8404364,27.982229 8.8404364,28.5571878 C8.8404364,30.3991372 10.3536062,31.8974359 12.2133052,31.8974359 C14.0730042,31.8974359 15.586174,30.3991372 15.586174,28.5571878 C15.586174,28.0084817 15.4510013,27.4907587 15.2131356,27.0335825 L20.0186915,27.0335825 C19.7808258,27.4907587 19.6456531,28.0084817 19.6456531,28.5571878 C19.6456531,30.3991372 21.1588228,31.8974359 23.0185219,31.8974359 C24.8782209,31.8974359 26.3913906,30.3991372 26.3913906,28.5571878 C26.3913906,28.0084817 26.2562179,27.4907587 26.0183522,27.0335825 L28.4211302,27.0335825 C28.9274307,27.0335825 29.3382028,26.6267831 29.3382028,26.1253793 C29.3382028,25.623739 28.9274307,25.2171762 28.4211302,25.2171762 L9.92134021,25.2171762 C9.02528387,25.2171762 8.16839418,24.4740579 8.04993897,23.5944727 L7.8581657,22.1694925 L14.9958085,22.1694925 C14.9960473,22.1694925 14.9962861,22.169729 14.9965249,22.169729 C14.9967638,22.169729 14.9970026,22.1694925 14.9974803,22.1694925 L20.8891939,22.1694925 C20.8894328,22.1694925 20.8896716,22.169729 20.8901492,22.169729 C20.890388,22.169729 20.890388,22.1694925 20.8906268,22.1694925 L25.965334,22.1694925 C26.8408517,22.1694925 27.7051449,21.8381402 28.3991586,21.2366922 C29.0931724,20.6350076 29.5390512,19.8301599 29.6546406,18.9706781 L30.9700666,9.20039912 C31.0918652,8.29574368 30.8394315,7.43602541 30.2590965,6.77947023 L30.2590965,6.77947023 Z M13.7520288,28.5571878 C13.7520288,29.3975122 13.0618361,30.0810296 12.2133052,30.0810296 C11.3650131,30.0810296 10.6745816,29.3975122 10.6745816,28.5571878 C10.6745816,27.7170999 11.3650131,27.0335825 12.2133052,27.0335825 C13.0618361,27.0335825 13.7520288,27.7170999 13.7520288,28.5571878 L13.7520288,28.5571878 Z M24.5572455,28.5571878 C24.5572455,29.3975122 23.8670528,30.0810296 23.0185219,30.0810296 C22.1699909,30.0810296 21.4797982,29.3975122 21.4797982,28.5571878 C21.4797982,27.7170999 22.1699909,27.0335825 23.0185219,27.0335825 C23.8670528,27.0335825 24.5572455,27.7170999 24.5572455,28.5571878 L24.5572455,28.5571878 Z M28.87895,7.9759805 C29.1060687,8.23283173 29.2030301,8.5821588 29.1519224,8.96010371 L28.6004847,13.0571878 L22.36057,13.0571878 L22.7293096,7.57769559 L27.9298754,7.57769559 C28.3150936,7.57769559 28.6520701,7.71912933 28.87895,7.9759805 L28.87895,7.9759805 Z M15.8553252,20.3530862 L15.4863468,14.873594 L20.4000886,14.873594 L20.0311102,20.3530862 L15.8553252,20.3530862 Z M15.3640704,13.0571878 L14.9953308,7.57769559 L20.8911045,7.57769559 L20.5223649,13.0571878 L15.3640704,13.0571878 Z M13.1571257,7.57769559 L13.5258653,13.0571878 L6.63134232,13.0571878 L5.89362431,7.57769559 L13.1571257,7.57769559 Z M6.875895,14.873594 L13.6481417,14.873594 L14.0171201,20.3530862 L7.61361301,20.3530862 L6.875895,14.873594 Z M25.965334,20.3530862 L21.8693153,20.3530862 L22.2382937,14.873594 L28.355932,14.873594 L27.8367352,18.7306192 C27.71828,19.6102045 26.8611515,20.3530862 25.965334,20.3530862 Z" id="Shape"></path>
            </g>
        </g>
        <line x1="0.5" y1="34" x2="1189" y2="34" id="Path-9" stroke="#E27B77" stroke-width="10" stroke-linecap="round"></line>
    </g>
</svg>